<?xml version="1.0" encoding="utf-8" standalone="no"?>
<!DOCTYPE svg PUBLIC "-//W3C//DTD SVG 1.1//EN"
  "http://www.w3.org/Graphics/SVG/1.1/DTD/svg11.dtd">
<!-- Created with matplotlib (https://matplotlib.org/) -->
<svg height="720pt" version="1.1" viewBox="0 0 1440 720" width="1440pt" xmlns="http://www.w3.org/2000/svg" xmlns:xlink="http://www.w3.org/1999/xlink">
 <defs>
  <style type="text/css">
*{stroke-linecap:butt;stroke-linejoin:round;}
  </style>
 </defs>
 <g id="figure_1">
  <g id="patch_1">
   <path d="M 0 720 
L 1440 720 
L 1440 0 
L 0 0 
z
" style="fill:#ffffff;"/>
  </g>
  <g id="axes_1">
   <g id="patch_2">
    <path d="M 180 640.8 
L 1296 640.8 
L 1296 86.4 
L 180 86.4 
z
" style="fill:#ffffff;"/>
   </g>
   <g id="matplotlib.axis_1">
    <g id="xtick_1">
     <g id="line2d_1">
      <path clip-path="url(#p155bfc017e)" d="M 180 640.8 
L 180 86.4 
" style="fill:none;stroke:#b0b0b0;stroke-linecap:square;stroke-width:0.8;"/>
     </g>
     <g id="line2d_2">
      <defs>
       <path d="M 0 0 
L 0 3.5 
" id="m1a68a6b3ec" style="stroke:#000000;stroke-width:0.8;"/>
      </defs>
      <g>
       <use style="stroke:#000000;stroke-width:0.8;" x="180" xlink:href="#m1a68a6b3ec" y="640.8"/>
      </g>
     </g>
     <g id="text_1">
      <!-- $0.0$ -->
      <defs>
       <path d="M 42 31.640625 
C 42 37.75 41.90625 48.125 37.703125 56.109375 
C 34 63.109375 28.09375 65.59375 22.90625 65.59375 
C 18.09375 65.59375 12 63.40625 8.203125 56.203125 
C 4.203125 48.71875 3.796875 39.4375 3.796875 31.640625 
C 3.796875 25.953125 3.90625 17.28125 7 9.671875 
C 11.296875 -0.609375 19 -2 22.90625 -2 
C 27.5 -2 34.5 -0.109375 38.59375 9.375 
C 41.59375 16.28125 42 24.359375 42 31.640625 
z
M 22.90625 -0.40625 
C 16.5 -0.40625 12.703125 5.078125 11.296875 12.6875 
C 10.203125 18.5625 10.203125 27.15625 10.203125 32.75 
C 10.203125 40.4375 10.203125 46.828125 11.5 52.921875 
C 13.40625 61.390625 19 64 22.90625 64 
C 27 64 32.296875 61.296875 34.203125 53.125 
C 35.5 47.4375 35.59375 40.734375 35.59375 32.75 
C 35.59375 26.25 35.59375 18.265625 34.40625 12.375 
C 32.296875 1.484375 26.40625 -0.40625 22.90625 -0.40625 
z
" id="CMR17-48"/>
       <path d="M 18.40625 4.796875 
C 18.40625 7.6875 16 9.671875 13.59375 9.671875 
C 10.703125 9.671875 8.703125 7.28125 8.703125 4.890625 
C 8.703125 2 11.09375 0 13.5 0 
C 16.40625 0 18.40625 2.390625 18.40625 4.796875 
z
" id="CMMI12-58"/>
      </defs>
      <g transform="translate(159.266327 669.514752)scale(0.35 -0.35)">
       <use transform="scale(0.996264)" xlink:href="#CMR17-48"/>
       <use transform="translate(45.690477 0)scale(0.996264)" xlink:href="#CMMI12-58"/>
       <use transform="translate(72.787654 0)scale(0.996264)" xlink:href="#CMR17-48"/>
      </g>
     </g>
    </g>
    <g id="xtick_2">
     <g id="line2d_3">
      <path clip-path="url(#p155bfc017e)" d="M 319.5 640.8 
L 319.5 86.4 
" style="fill:none;stroke:#b0b0b0;stroke-linecap:square;stroke-width:0.8;"/>
     </g>
     <g id="line2d_4">
      <g>
       <use style="stroke:#000000;stroke-width:0.8;" x="319.5" xlink:href="#m1a68a6b3ec" y="640.8"/>
      </g>
     </g>
     <g id="text_2">
      <!-- $0.5$ -->
      <defs>
       <path d="M 11.40625 57.6875 
C 12.40625 57.28125 16.5 56 20.703125 56 
C 30 56 35.09375 61.109375 38 64.0625 
C 38 64.953125 38 65.5 37.40625 65.5 
C 37.296875 65.5 37.09375 65.5 36.296875 65.046875 
C 32.796875 63.40625 28.703125 62.078125 23.703125 62.078125 
C 20.703125 62.078125 16.203125 62.484375 11.296875 64.671875 
C 10.203125 65.171875 10 65.171875 9.90625 65.171875 
C 9.40625 65.171875 9.296875 65.0625 9.296875 63.078125 
L 9.296875 34.421875 
C 9.296875 32.640625 9.296875 32.140625 10.296875 32.140625 
C 10.796875 32.140625 11 32.34375 11.5 33.03125 
C 14.703125 37.515625 19.09375 39.40625 24.09375 39.40625 
C 27.59375 39.40625 35.09375 37.21875 35.09375 20.140625 
C 35.09375 16.953125 35.09375 11.171875 32.09375 6.578125 
C 29.59375 2.484375 25.703125 0.390625 21.40625 0.390625 
C 14.796875 0.390625 8.09375 5 6.296875 12.71875 
C 6.703125 12.609375 7.5 12.421875 7.90625 12.421875 
C 9.203125 12.421875 11.703125 13.125 11.703125 16.21875 
C 11.703125 18.90625 9.796875 20 7.90625 20 
C 5.59375 20 4.09375 18.59375 4.09375 15.796875 
C 4.09375 7.09375 11 -2 21.59375 -2 
C 31.90625 -2 41.703125 6.875 41.703125 19.75 
C 41.703125 31.71875 33.90625 41 24.203125 41 
C 19.09375 41 14.796875 39.109375 11.40625 35.53125 
z
" id="CMR17-53"/>
      </defs>
      <g transform="translate(298.766327 669.514752)scale(0.35 -0.35)">
       <use transform="scale(0.996264)" xlink:href="#CMR17-48"/>
       <use transform="translate(45.690477 0)scale(0.996264)" xlink:href="#CMMI12-58"/>
       <use transform="translate(72.787654 0)scale(0.996264)" xlink:href="#CMR17-53"/>
      </g>
     </g>
    </g>
    <g id="xtick_3">
     <g id="line2d_5">
      <path clip-path="url(#p155bfc017e)" d="M 459 640.8 
L 459 86.4 
" style="fill:none;stroke:#b0b0b0;stroke-linecap:square;stroke-width:0.8;"/>
     </g>
     <g id="line2d_6">
      <g>
       <use style="stroke:#000000;stroke-width:0.8;" x="459" xlink:href="#m1a68a6b3ec" y="640.8"/>
      </g>
     </g>
     <g id="text_3">
      <!-- $1.0$ -->
      <defs>
       <path d="M 26.59375 63.40625 
C 26.59375 65.5 26.5 65.5 25.09375 65.5 
C 21.203125 61.1875 15.296875 59.796875 9.703125 59.796875 
C 9.40625 59.796875 8.90625 59.796875 8.796875 59.5 
C 8.703125 59.296875 8.703125 59.09375 8.703125 57 
C 11.796875 57 17 57.59375 21 59.984375 
L 21 7.203125 
C 21 3.6875 20.796875 2.5 12.203125 2.5 
L 9.203125 2.5 
L 9.203125 0 
C 14 0 19 0 23.796875 0 
C 28.59375 0 33.59375 0 38.40625 0 
L 38.40625 2.5 
L 35.40625 2.5 
C 26.796875 2.5 26.59375 3.59375 26.59375 7.15625 
z
" id="CMR17-49"/>
      </defs>
      <g transform="translate(438.266327 669.514752)scale(0.35 -0.35)">
       <use transform="scale(0.996264)" xlink:href="#CMR17-49"/>
       <use transform="translate(45.690477 0)scale(0.996264)" xlink:href="#CMMI12-58"/>
       <use transform="translate(72.787654 0)scale(0.996264)" xlink:href="#CMR17-48"/>
      </g>
     </g>
    </g>
    <g id="xtick_4">
     <g id="line2d_7">
      <path clip-path="url(#p155bfc017e)" d="M 598.5 640.8 
L 598.5 86.4 
" style="fill:none;stroke:#b0b0b0;stroke-linecap:square;stroke-width:0.8;"/>
     </g>
     <g id="line2d_8">
      <g>
       <use style="stroke:#000000;stroke-width:0.8;" x="598.5" xlink:href="#m1a68a6b3ec" y="640.8"/>
      </g>
     </g>
     <g id="text_4">
      <!-- $1.5$ -->
      <g transform="translate(577.766327 669.514752)scale(0.35 -0.35)">
       <use transform="scale(0.996264)" xlink:href="#CMR17-49"/>
       <use transform="translate(45.690477 0)scale(0.996264)" xlink:href="#CMMI12-58"/>
       <use transform="translate(72.787654 0)scale(0.996264)" xlink:href="#CMR17-53"/>
      </g>
     </g>
    </g>
    <g id="xtick_5">
     <g id="line2d_9">
      <path clip-path="url(#p155bfc017e)" d="M 738 640.8 
L 738 86.4 
" style="fill:none;stroke:#b0b0b0;stroke-linecap:square;stroke-width:0.8;"/>
     </g>
     <g id="line2d_10">
      <g>
       <use style="stroke:#000000;stroke-width:0.8;" x="738" xlink:href="#m1a68a6b3ec" y="640.8"/>
      </g>
     </g>
     <g id="text_5">
      <!-- $2.0$ -->
      <defs>
       <path d="M 41.703125 15.453125 
L 39.90625 15.453125 
C 38.90625 8.375 38.09375 7.171875 37.703125 6.5625 
C 37.203125 5.765625 30 5.765625 28.59375 5.765625 
L 9.40625 5.765625 
C 13 9.671875 20 16.75 28.5 24.953125 
C 34.59375 30.734375 41.703125 37.53125 41.703125 47.421875 
C 41.703125 59.21875 32.296875 66 21.796875 66 
C 10.796875 66 4.09375 56.3125 4.09375 47.34375 
C 4.09375 43.4375 7 42.9375 8.203125 42.9375 
C 9.203125 42.9375 12.203125 43.546875 12.203125 47.03125 
C 12.203125 50.109375 9.59375 51 8.203125 51 
C 7.59375 51 7 50.90625 6.59375 50.703125 
C 8.5 59.21875 14.296875 63.40625 20.40625 63.40625 
C 29.09375 63.40625 34.796875 56.515625 34.796875 47.421875 
C 34.796875 38.734375 29.703125 31.25 24 24.75 
L 4.09375 2.28125 
L 4.09375 0 
L 39.296875 0 
z
" id="CMR17-50"/>
      </defs>
      <g transform="translate(717.266327 669.514752)scale(0.35 -0.35)">
       <use transform="scale(0.996264)" xlink:href="#CMR17-50"/>
       <use transform="translate(45.690477 0)scale(0.996264)" xlink:href="#CMMI12-58"/>
       <use transform="translate(72.787654 0)scale(0.996264)" xlink:href="#CMR17-48"/>
      </g>
     </g>
    </g>
    <g id="xtick_6">
     <g id="line2d_11">
      <path clip-path="url(#p155bfc017e)" d="M 877.5 640.8 
L 877.5 86.4 
" style="fill:none;stroke:#b0b0b0;stroke-linecap:square;stroke-width:0.8;"/>
     </g>
     <g id="line2d_12">
      <g>
       <use style="stroke:#000000;stroke-width:0.8;" x="877.5" xlink:href="#m1a68a6b3ec" y="640.8"/>
      </g>
     </g>
     <g id="text_6">
      <!-- $2.5$ -->
      <g transform="translate(856.766327 669.514752)scale(0.35 -0.35)">
       <use transform="scale(0.996264)" xlink:href="#CMR17-50"/>
       <use transform="translate(45.690477 0)scale(0.996264)" xlink:href="#CMMI12-58"/>
       <use transform="translate(72.787654 0)scale(0.996264)" xlink:href="#CMR17-53"/>
      </g>
     </g>
    </g>
    <g id="xtick_7">
     <g id="line2d_13">
      <path clip-path="url(#p155bfc017e)" d="M 1017 640.8 
L 1017 86.4 
" style="fill:none;stroke:#b0b0b0;stroke-linecap:square;stroke-width:0.8;"/>
     </g>
     <g id="line2d_14">
      <g>
       <use style="stroke:#000000;stroke-width:0.8;" x="1017" xlink:href="#m1a68a6b3ec" y="640.8"/>
      </g>
     </g>
     <g id="text_7">
      <!-- $3.0$ -->
      <defs>
       <path d="M 22.09375 33.703125 
C 31 33.703125 34.90625 25.96875 34.90625 17.03125 
C 34.90625 5 28.5 0.390625 22.703125 0.390625 
C 17.40625 0.390625 8.796875 3.03125 6.09375 10.828125 
C 6.59375 10.625 7.09375 10.625 7.59375 10.625 
C 10 10.625 11.796875 12.21875 11.796875 14.8125 
C 11.796875 17.703125 9.59375 19 7.59375 19 
C 5.90625 19 3.296875 18.203125 3.296875 14.46875 
C 3.296875 5.234375 12.296875 -2 22.90625 -2 
C 34 -2 42.5 6.71875 42.5 16.953125 
C 42.5 26.671875 34.5 33.703125 25 34.796875 
C 32.59375 36.375 39.90625 43.0625 39.90625 52.015625 
C 39.90625 59.6875 32 65.296875 23 65.296875 
C 13.90625 65.296875 5.90625 59.828125 5.90625 52.015625 
C 5.90625 48.59375 8.5 48 9.796875 48 
C 11.90625 48 13.703125 49.296875 13.703125 51.890625 
C 13.703125 54.46875 11.90625 55.765625 9.796875 55.765625 
C 9.40625 55.765625 8.90625 55.765625 8.5 55.578125 
C 11.40625 61.859375 19.296875 63 22.796875 63 
C 26.296875 63 32.90625 61.328125 32.90625 51.875 
C 32.90625 49.109375 32.5 44.1875 29.09375 39.84375 
C 26.09375 36 22.703125 36 19.40625 35.6875 
C 18.90625 35.6875 16.59375 35.453125 16.203125 35.453125 
C 15.5 35.359375 15.09375 35.265625 15.09375 34.5 
C 15.09375 33.796875 15.203125 33.703125 17.203125 33.703125 
z
" id="CMR17-51"/>
      </defs>
      <g transform="translate(996.266327 669.514752)scale(0.35 -0.35)">
       <use transform="scale(0.996264)" xlink:href="#CMR17-51"/>
       <use transform="translate(45.690477 0)scale(0.996264)" xlink:href="#CMMI12-58"/>
       <use transform="translate(72.787654 0)scale(0.996264)" xlink:href="#CMR17-48"/>
      </g>
     </g>
    </g>
    <g id="xtick_8">
     <g id="line2d_15">
      <path clip-path="url(#p155bfc017e)" d="M 1156.5 640.8 
L 1156.5 86.4 
" style="fill:none;stroke:#b0b0b0;stroke-linecap:square;stroke-width:0.8;"/>
     </g>
     <g id="line2d_16">
      <g>
       <use style="stroke:#000000;stroke-width:0.8;" x="1156.5" xlink:href="#m1a68a6b3ec" y="640.8"/>
      </g>
     </g>
     <g id="text_8">
      <!-- $3.5$ -->
      <g transform="translate(1135.766327 669.514752)scale(0.35 -0.35)">
       <use transform="scale(0.996264)" xlink:href="#CMR17-51"/>
       <use transform="translate(45.690477 0)scale(0.996264)" xlink:href="#CMMI12-58"/>
       <use transform="translate(72.787654 0)scale(0.996264)" xlink:href="#CMR17-53"/>
      </g>
     </g>
    </g>
    <g id="xtick_9">
     <g id="line2d_17">
      <path clip-path="url(#p155bfc017e)" d="M 1296 640.8 
L 1296 86.4 
" style="fill:none;stroke:#b0b0b0;stroke-linecap:square;stroke-width:0.8;"/>
     </g>
     <g id="line2d_18">
      <g>
       <use style="stroke:#000000;stroke-width:0.8;" x="1296" xlink:href="#m1a68a6b3ec" y="640.8"/>
      </g>
     </g>
     <g id="text_9">
      <!-- $4.0$ -->
      <defs>
       <path d="M 33.59375 64.40625 
C 33.59375 66.5 33.5 66.5 31.703125 66.5 
L 2 19.59375 
L 2 17 
L 27.796875 17 
L 27.796875 7.140625 
C 27.796875 3.5 27.59375 2.5 20.59375 2.5 
L 18.703125 2.5 
L 18.703125 0 
C 21.90625 0 27.296875 0 30.703125 0 
C 34.09375 0 39.5 0 42.703125 0 
L 42.703125 2.5 
L 40.796875 2.5 
C 33.796875 2.5 33.59375 3.5 33.59375 7.140625 
L 33.59375 17 
L 43.796875 17 
L 43.796875 19.59375 
L 33.59375 19.59375 
z
M 28.09375 57.859375 
L 28.09375 19.59375 
L 4 19.59375 
z
" id="CMR17-52"/>
      </defs>
      <g transform="translate(1275.266327 669.514752)scale(0.35 -0.35)">
       <use transform="scale(0.996264)" xlink:href="#CMR17-52"/>
       <use transform="translate(45.690477 0)scale(0.996264)" xlink:href="#CMMI12-58"/>
       <use transform="translate(72.787654 0)scale(0.996264)" xlink:href="#CMR17-48"/>
      </g>
     </g>
    </g>
    <g id="text_10">
     <!-- $\Omega\tau/2\pi$ -->
     <defs>
      <path d="M 63.09375 14.609375 
L 61.296875 14.609375 
C 60.40625 10.015625 60.09375 8.796875 59.59375 7.203125 
C 59.09375 5.703125 58.796875 4.90625 53 4.90625 
L 44.90625 4.90625 
C 46 10.71875 48.40625 15.015625 52.59375 21.734375 
C 57.796875 30.234375 62.09375 37.140625 62.09375 45.46875 
C 62.09375 58.984375 49.296875 70 33.40625 70 
C 17.09375 70 4.59375 58.875 4.59375 45.46875 
C 4.59375 37.140625 9 30.03125 13.90625 22.125 
C 18.296875 15.015625 20.703125 10.71875 21.796875 4.90625 
L 13.703125 4.90625 
C 8 4.90625 7.703125 5.703125 7.203125 7.09375 
C 6.59375 8.703125 6.40625 10.015625 5.40625 14.609375 
L 3.59375 14.609375 
L 6.5 0 
L 21.59375 0 
C 23.703125 0 23.796875 0.09375 23.796875 1.59375 
C 23.796875 8.71875 20.09375 18.03125 18.40625 22.328125 
C 15.203125 30.140625 12.203125 37.75 12.203125 45.5625 
C 12.203125 60.484375 22.90625 68.390625 33.296875 68.390625 
C 44.203125 68.390625 54.5 60.171875 54.5 45.5625 
C 54.5 37.84375 51.796875 30.953125 48.09375 21.828125 
C 46.5 17.734375 42.90625 8.609375 42.90625 1.59375 
C 42.90625 0 43 0 45.09375 0 
L 60.203125 0 
z
" id="CMR17-10"/>
      <path d="M 28.703125 37.625 
L 45.296875 37.625 
C 46.59375 37.625 49.90625 37.625 49.90625 40.8125 
C 49.90625 43 48 43 46.203125 43 
L 18.703125 43 
C 16.40625 43 13 43 8.40625 38.125 
C 5.796875 35.234375 2.59375 29.953125 2.59375 29.359375 
C 2.59375 28.765625 3.09375 28.5625 3.703125 28.5625 
C 4.40625 28.5625 4.5 28.859375 5 29.453125 
C 10.203125 37.625 15.40625 37.625 17.90625 37.625 
L 26.203125 37.625 
L 15.796875 3.484375 
C 15.296875 1.984375 15.296875 1.78125 15.296875 1.484375 
C 15.296875 0.390625 16 -1 18 -1 
C 21.09375 -1 21.59375 1.6875 21.90625 3.171875 
z
" id="CMMI12-28"/>
      <path d="M 42.90625 71.28125 
C 42.90625 71.390625 43.5 72.90625 43.5 73.09375 
C 43.5 74.296875 42.5 75 41.703125 75 
C 41.203125 75 40.296875 75 39.5 72.796875 
L 6 -21.296875 
C 6 -21.40625 5.40625 -22.890625 5.40625 -23.09375 
C 5.40625 -24.296875 6.40625 -25 7.203125 -25 
C 7.796875 -25 8.703125 -24.890625 9.40625 -22.796875 
z
" id="CMMI12-61"/>
      <path d="M 25.90625 37.625 
L 37.203125 37.625 
C 34.5 26.4375 32.796875 19.15625 32.796875 11.1875 
C 32.796875 9.78125 32.796875 -1 36.90625 -1 
C 39 -1 40.796875 0.890625 40.796875 2.59375 
C 40.796875 3.078125 40.796875 3.28125 40.09375 4.78125 
C 37.40625 11.671875 37.40625 20.25 37.40625 20.953125 
C 37.40625 21.546875 37.40625 28.625 39.5 37.625 
L 50.703125 37.625 
C 52 37.625 55.296875 37.625 55.296875 40.8125 
C 55.296875 43 53.40625 43 51.59375 43 
L 18.703125 43 
C 16.40625 43 13 43 8.40625 38.125 
C 5.796875 35.21875 2.59375 29.9375 2.59375 29.34375 
C 2.59375 28.75 3.09375 28.546875 3.703125 28.546875 
C 4.40625 28.546875 4.5 28.84375 5 29.4375 
C 10.203125 37.625 15.40625 37.625 17.90625 37.625 
L 23.59375 37.625 
C 21.40625 30.140625 18.90625 21.453125 10.703125 4 
C 9.90625 2.40625 9.90625 2.1875 9.90625 1.59375 
C 9.90625 -0.5 11.703125 -1 12.59375 -1 
C 15.5 -1 16.296875 1.59375 17.5 5.78125 
C 19.09375 10.875 19.09375 11.078125 20.09375 15.0625 
z
" id="CMMI12-25"/>
     </defs>
     <g transform="translate(657.059265 716.128984)scale(0.6 -0.6)">
      <use transform="scale(0.996264)" xlink:href="#CMR17-10"/>
      <use transform="translate(66.509881 0)scale(0.996264)" xlink:href="#CMMI12-28"/>
      <use transform="translate(120.001046 0)scale(0.996264)" xlink:href="#CMMI12-61"/>
      <use transform="translate(168.775965 0)scale(0.996264)" xlink:href="#CMR17-50"/>
      <use transform="translate(214.466442 0)scale(0.996264)" xlink:href="#CMMI12-25"/>
     </g>
    </g>
   </g>
   <g id="matplotlib.axis_2">
    <g id="ytick_1">
     <g id="line2d_19">
      <path clip-path="url(#p155bfc017e)" d="M 180 579.298287 
L 1296 579.298287 
" style="fill:none;stroke:#b0b0b0;stroke-linecap:square;stroke-width:0.8;"/>
     </g>
     <g id="line2d_20">
      <defs>
       <path d="M 0 0 
L -3.5 0 
" id="me543bd1670" style="stroke:#000000;stroke-width:0.8;"/>
      </defs>
      <g>
       <use style="stroke:#000000;stroke-width:0.8;" x="180" xlink:href="#me543bd1670" y="579.298287"/>
      </g>
     </g>
     <g id="text_11">
      <!-- $-0.50$ -->
      <defs>
       <path d="M 65.90625 23 
C 67.59375 23 69.40625 23 69.40625 25 
C 69.40625 27 67.59375 27 65.90625 27 
L 11.796875 27 
C 10.09375 27 8.296875 27 8.296875 25 
C 8.296875 23 10.09375 23 11.796875 23 
z
" id="CMSY10-0"/>
      </defs>
      <g transform="translate(90.920384 591.405663)scale(0.35 -0.35)">
       <use transform="scale(0.996264)" xlink:href="#CMSY10-0"/>
       <use transform="translate(77.487468 0)scale(0.996264)" xlink:href="#CMR17-48"/>
       <use transform="translate(123.177945 0)scale(0.996264)" xlink:href="#CMMI12-58"/>
       <use transform="translate(150.275122 0)scale(0.996264)" xlink:href="#CMR17-53"/>
       <use transform="translate(195.965599 0)scale(0.996264)" xlink:href="#CMR17-48"/>
      </g>
     </g>
    </g>
    <g id="ytick_2">
     <g id="line2d_21">
      <path clip-path="url(#p155bfc017e)" d="M 180 487.710864 
L 1296 487.710864 
" style="fill:none;stroke:#b0b0b0;stroke-linecap:square;stroke-width:0.8;"/>
     </g>
     <g id="line2d_22">
      <g>
       <use style="stroke:#000000;stroke-width:0.8;" x="180" xlink:href="#me543bd1670" y="487.710864"/>
      </g>
     </g>
     <g id="text_12">
      <!-- $-0.25$ -->
      <g transform="translate(90.920384 499.81824)scale(0.35 -0.35)">
       <use transform="scale(0.996264)" xlink:href="#CMSY10-0"/>
       <use transform="translate(77.487468 0)scale(0.996264)" xlink:href="#CMR17-48"/>
       <use transform="translate(123.177945 0)scale(0.996264)" xlink:href="#CMMI12-58"/>
       <use transform="translate(150.275122 0)scale(0.996264)" xlink:href="#CMR17-50"/>
       <use transform="translate(195.965599 0)scale(0.996264)" xlink:href="#CMR17-53"/>
      </g>
     </g>
    </g>
    <g id="ytick_3">
     <g id="line2d_23">
      <path clip-path="url(#p155bfc017e)" d="M 180 396.123442 
L 1296 396.123442 
" style="fill:none;stroke:#b0b0b0;stroke-linecap:square;stroke-width:0.8;"/>
     </g>
     <g id="line2d_24">
      <g>
       <use style="stroke:#000000;stroke-width:0.8;" x="180" xlink:href="#me543bd1670" y="396.123442"/>
      </g>
     </g>
     <g id="text_13">
      <!-- $0.00$ -->
      <g transform="translate(118.040987 408.230818)scale(0.35 -0.35)">
       <use transform="scale(0.996264)" xlink:href="#CMR17-48"/>
       <use transform="translate(45.690477 0)scale(0.996264)" xlink:href="#CMMI12-58"/>
       <use transform="translate(72.787654 0)scale(0.996264)" xlink:href="#CMR17-48"/>
       <use transform="translate(118.478131 0)scale(0.996264)" xlink:href="#CMR17-48"/>
      </g>
     </g>
    </g>
    <g id="ytick_4">
     <g id="line2d_25">
      <path clip-path="url(#p155bfc017e)" d="M 180 304.536019 
L 1296 304.536019 
" style="fill:none;stroke:#b0b0b0;stroke-linecap:square;stroke-width:0.8;"/>
     </g>
     <g id="line2d_26">
      <g>
       <use style="stroke:#000000;stroke-width:0.8;" x="180" xlink:href="#me543bd1670" y="304.536019"/>
      </g>
     </g>
     <g id="text_14">
      <!-- $0.25$ -->
      <g transform="translate(118.040987 316.643395)scale(0.35 -0.35)">
       <use transform="scale(0.996264)" xlink:href="#CMR17-48"/>
       <use transform="translate(45.690477 0)scale(0.996264)" xlink:href="#CMMI12-58"/>
       <use transform="translate(72.787654 0)scale(0.996264)" xlink:href="#CMR17-50"/>
       <use transform="translate(118.478131 0)scale(0.996264)" xlink:href="#CMR17-53"/>
      </g>
     </g>
    </g>
    <g id="ytick_5">
     <g id="line2d_27">
      <path clip-path="url(#p155bfc017e)" d="M 180 212.948596 
L 1296 212.948596 
" style="fill:none;stroke:#b0b0b0;stroke-linecap:square;stroke-width:0.8;"/>
     </g>
     <g id="line2d_28">
      <g>
       <use style="stroke:#000000;stroke-width:0.8;" x="180" xlink:href="#me543bd1670" y="212.948596"/>
      </g>
     </g>
     <g id="text_15">
      <!-- $0.50$ -->
      <g transform="translate(118.040987 225.055972)scale(0.35 -0.35)">
       <use transform="scale(0.996264)" xlink:href="#CMR17-48"/>
       <use transform="translate(45.690477 0)scale(0.996264)" xlink:href="#CMMI12-58"/>
       <use transform="translate(72.787654 0)scale(0.996264)" xlink:href="#CMR17-53"/>
       <use transform="translate(118.478131 0)scale(0.996264)" xlink:href="#CMR17-48"/>
      </g>
     </g>
    </g>
    <g id="ytick_6">
     <g id="line2d_29">
      <path clip-path="url(#p155bfc017e)" d="M 180 121.361173 
L 1296 121.361173 
" style="fill:none;stroke:#b0b0b0;stroke-linecap:square;stroke-width:0.8;"/>
     </g>
     <g id="line2d_30">
      <g>
       <use style="stroke:#000000;stroke-width:0.8;" x="180" xlink:href="#me543bd1670" y="121.361173"/>
      </g>
     </g>
     <g id="text_16">
      <!-- $0.75$ -->
      <defs>
       <path d="M 45.09375 61.578125 
L 45.09375 63.765625 
L 21.59375 63.765625 
C 9.90625 63.765625 9.703125 65.078125 9.296875 67 
L 7.5 67 
L 4.59375 48.34375 
L 6.40625 48.34375 
C 6.703125 50.234375 7.40625 55.3125 8.59375 57.203125 
C 9.203125 58 16.59375 58 18.296875 58 
L 40.296875 58 
L 29.203125 41.578125 
C 21.796875 30.53125 16.703125 15.609375 16.703125 2.578125 
C 16.703125 1.390625 16.703125 -2 20.296875 -2 
C 23.90625 -2 23.90625 1.390625 23.90625 2.671875 
L 23.90625 7.265625 
C 23.90625 23.5625 26.703125 34.3125 31.296875 41.1875 
z
" id="CMR17-55"/>
      </defs>
      <g transform="translate(118.040987 133.468549)scale(0.35 -0.35)">
       <use transform="scale(0.996264)" xlink:href="#CMR17-48"/>
       <use transform="translate(45.690477 0)scale(0.996264)" xlink:href="#CMMI12-58"/>
       <use transform="translate(72.787654 0)scale(0.996264)" xlink:href="#CMR17-55"/>
       <use transform="translate(118.478131 0)scale(0.996264)" xlink:href="#CMR17-53"/>
      </g>
     </g>
    </g>
    <g id="text_17">
     <!-- $\frac{2\pi\sigma}{\omega}$\\[33pt] $\frac{\gamma}{\omega}$ -->
     <defs>
      <path d="M 50.796875 37.625 
C 52.09375 37.625 55.40625 37.625 55.40625 40.8125 
C 55.40625 43 53.5 43 51.703125 43 
L 29.59375 43 
C 14.59375 43 3.796875 26.34375 3.796875 14.5625 
C 3.796875 6.09375 9.296875 -1 18.296875 -1 
C 30.09375 -1 43 11.671875 43 26.640625 
C 43 30.53125 42.09375 34.3125 39.703125 37.625 
z
M 18.40625 1 
C 13.296875 1 9.59375 4.890625 9.59375 11.78125 
C 9.59375 17.765625 13.203125 37.625 27.90625 37.625 
C 32.203125 37.625 37 35.53125 37 27.828125 
C 37 24.34375 35.40625 15.953125 31.90625 10.1875 
C 28.296875 4.296875 22.90625 1 18.40625 1 
z
" id="CMMI12-27"/>
      <path d="M 59.40625 37.421875 
C 59.40625 40.3125 58.59375 44 55.09375 44 
C 53.09375 44 50.796875 41.515625 50.796875 39.515625 
C 50.796875 38.625 51.203125 38.03125 52 37.125 
C 53.5 35.4375 55.40625 32.75 55.40625 28.078125 
C 55.40625 24.484375 53.203125 18.8125 51.59375 15.734375 
C 48.796875 10.25 44.203125 5.578125 39 5.578125 
C 32.703125 5.578125 30.296875 9.609375 29.203125 15.234375 
C 30.296875 17.859375 32.59375 24.375 32.59375 27 
C 32.59375 28.09375 32.203125 29 30.90625 29 
C 30.203125 29 29.40625 28.609375 28.90625 27.796875 
C 27.5 25.59375 26.203125 17.640625 26.296875 15.53125 
C 24.40625 11.8125 19 5.578125 12.59375 5.578125 
C 5.90625 5.578125 4.09375 11.453125 4.09375 17.125 
C 4.09375 27.46875 10.59375 36.53125 12.40625 39.015625 
C 13.40625 40.515625 14.09375 41.515625 14.09375 41.703125 
C 14.09375 42.40625 13.703125 43.5 12.796875 43.5 
C 11.203125 43.5 10.703125 42.203125 9.90625 41.015625 
C 4.796875 33.140625 1.203125 22.09375 1.203125 12.546875 
C 1.203125 6.375 3.5 -1 11 -1 
C 19.296875 -1 24.5 6.109375 26.59375 9.90625 
C 27.40625 4.296875 30.40625 -1 37.703125 -1 
C 45.296875 -1 50.09375 5.671875 53.703125 13.734375 
C 56.296875 19.515625 59.40625 31.953125 59.40625 37.421875 
z
" id="CMMI12-33"/>
      <path d="M 37.796875 11.875 
C 37.59375 16.734375 37.40625 24.390625 33.59375 33.328125 
C 31.59375 38.3125 28.203125 43.5625 20.90625 43.5625 
C 8.59375 43.5625 1.90625 27.96875 1.90625 25.390625 
C 1.90625 24.484375 2.59375 24.484375 2.90625 24.484375 
C 3.796875 24.484375 3.796875 24.6875 4.296875 25.984375 
C 6.40625 32.140625 12.796875 37 19.703125 37 
C 33.59375 37 35.59375 21.609375 35.59375 11.78125 
C 35.59375 5.5 34.90625 3.4375 34.296875 1.4375 
C 32.40625 -4.71875 29.09375 -17.03125 29.09375 -19.8125 
C 29.09375 -20.609375 29.40625 -21.5 30.203125 -21.5 
C 31.703125 -21.5 32.59375 -18.21875 33.703125 -14.25 
C 36.09375 -5.515625 36.703125 -1.140625 37.203125 2.828125 
C 37.5 5.21875 43.203125 21.625 51.09375 37.21875 
C 51.796875 38.796875 53.203125 41.484375 53.203125 41.78125 
C 53.203125 41.875 53.09375 42.578125 52.203125 42.578125 
C 52 42.578125 51.5 42.578125 51.296875 42.171875 
C 51.09375 41.984375 47.59375 35.21875 44.59375 28.46875 
C 43.09375 25.09375 41.09375 20.625 37.796875 11.875 
z
" id="CMMI12-13"/>
     </defs>
     <g transform="translate(4.771339 347.12855)scale(0.85 -0.85)">
      <use transform="translate(14.94396 216.279984)scale(0.697382)" xlink:href="#CMR17-50"/>
      <use transform="translate(46.927142 216.279984)scale(0.697382)" xlink:href="#CMMI12-25"/>
      <use transform="translate(88.164363 216.279984)scale(0.697382)" xlink:href="#CMMI12-27"/>
      <use transform="translate(49.699765 142.69863)scale(0.697382)" xlink:href="#CMMI12-33"/>
      <use transform="translate(2.904924 78.799427)scale(0.697382)" xlink:href="#CMMI12-13"/>
      <use transform="scale(0.697382)" xlink:href="#CMMI12-33"/>
      <path d="M 14.94396 199.968015 
L 129.478202 199.968015 
L 129.478202 203.952965 
L 14.94396 203.952965 
L 14.94396 199.968015 
z
"/>
      <path d="M 0 57.269386 
L 45.022632 57.269386 
L 45.022632 61.254336 
L 0 61.254336 
L 0 57.269386 
z
"/>
     </g>
    </g>
   </g>
   <g id="line2d_31">
    <path clip-path="url(#p155bfc017e)" d="M 180 396.123442 
L 1296 396.123442 
" style="fill:none;stroke:#008000;stroke-linecap:square;stroke-width:3;"/>
   </g>
   <g id="line2d_32">
    <path clip-path="url(#p155bfc017e)" d="M 180 111.6 
L 182.236968 112.49501 
L 184.473936 113.894257 
L 186.710903 115.792581 
L 188.947871 118.185465 
L 191.184839 121.069069 
L 193.421807 124.440259 
L 195.658774 128.296657 
L 197.895742 132.636687 
L 200.13271 137.45964 
L 202.369678 142.765748 
L 204.606645 148.556277 
L 206.843613 154.833643 
L 209.080581 161.60155 
L 211.317549 168.865164 
L 213.554517 176.631327 
L 215.791484 184.908822 
L 218.028452 193.70871 
L 220.26542 203.04475 
L 222.502388 212.933936 
L 224.739355 223.397188 
L 226.976323 234.460251 
L 229.213291 246.154884 
L 231.450259 258.520452 
L 233.687226 271.606114 
L 235.924194 285.473869 
L 238.161162 300.202942 
L 240.39813 315.896276 
L 242.635098 332.690507 
L 244.872065 350.772009 
L 247.109033 370.404212 
L 249.346001 391.97765 
L 251.582969 416.111131 
L 253.819936 443.887128 
L 256.056904 477.53517 
L 258.293872 523.477989 
L 260.53084 615.6 
L 265.004775 610.38144 
L 269.478711 604.793231 
L 273.952646 598.906662 
L 280.66355 589.693903 
L 294.085356 571.00725 
L 298.559292 565.050653 
L 303.033227 559.390004 
L 307.507163 554.117904 
L 311.981098 549.322967 
L 316.455034 545.089043 
L 318.692002 543.207269 
L 320.928969 541.494883 
L 323.165937 539.960956 
L 325.402905 538.614286 
L 327.639873 537.463429 
L 329.876841 536.516739 
L 332.113808 535.782413 
L 334.350776 535.268553 
L 336.587744 534.983224 
L 338.824712 534.93453 
L 341.061679 535.130696 
L 343.298647 535.580165 
L 345.535615 536.291696 
L 347.772583 537.274486 
L 350.00955 538.538303 
L 352.246518 540.093634 
L 354.483486 541.951862 
L 356.720454 544.125458 
L 358.957422 546.628216 
L 361.194389 549.475527 
L 363.431357 552.6847 
L 365.668325 556.275356 
L 367.905293 560.26991 
L 370.14226 564.69417 
L 372.379228 569.578091 
L 374.616196 574.95675 
L 376.853164 580.871616 
L 379.090131 587.372241 
L 381.327099 532.185061 
L 383.564067 473.332556 
L 385.801035 437.237101 
L 388.038003 409.251112 
L 390.27497 385.850371 
L 392.511938 365.522007 
L 394.748906 347.454525 
L 396.985874 331.154374 
L 399.222841 316.295793 
L 401.459809 302.650989 
L 403.696777 290.053688 
L 405.933745 278.37845 
L 408.170712 267.528139 
L 410.40768 257.425945 
L 412.644648 248.01009 
L 414.881616 239.230191 
L 417.118584 231.04468 
L 419.355551 223.418946 
L 421.592519 216.323945 
L 423.829487 209.735154 
L 426.066455 203.631771 
L 428.303422 197.996084 
L 430.54039 192.812972 
L 432.777358 188.069514 
L 435.014326 183.754658 
L 437.251293 179.858965 
L 439.488261 176.374388 
L 441.725229 173.294094 
L 443.962197 170.612314 
L 446.199165 168.324218 
L 448.436132 166.425812 
L 450.6731 164.913849 
L 452.910068 163.785762 
L 455.147036 163.039602 
L 457.384003 162.673994 
L 459.620971 162.688099 
L 461.857939 163.081596 
L 464.094907 163.854662 
L 466.331874 165.007967 
L 468.568842 166.542685 
L 470.80581 168.460505 
L 473.042778 170.763664 
L 475.279746 173.454984 
L 477.516713 176.537932 
L 479.753681 180.016688 
L 481.990649 183.896242 
L 484.227617 188.182508 
L 486.464584 192.88247 
L 488.701552 198.004366 
L 490.93852 203.557907 
L 493.175488 209.554568 
L 495.412455 216.007942 
L 497.649423 222.934187 
L 499.886391 230.352612 
L 502.123359 238.286421 
L 504.360327 246.763702 
L 506.597294 255.818733 
L 508.834262 265.493765 
L 511.07123 275.841487 
L 513.308198 286.928531 
L 515.545165 298.840583 
L 517.782133 311.690117 
L 520.019101 325.628567 
L 522.256069 340.866484 
L 524.493036 357.709129 
L 526.730004 376.624804 
L 528.966972 398.392054 
L 531.20394 424.475831 
L 533.440908 458.310448 
L 537.914843 567.337769 
L 540.151811 556.358639 
L 542.388779 546.294833 
L 544.625746 537.027796 
L 546.862714 528.464679 
L 549.099682 520.531202 
L 551.33665 513.166865 
L 553.573617 506.321612 
L 555.810585 499.953465 
L 558.047553 494.026793 
L 560.284521 488.511028 
L 562.521489 483.379697 
L 564.758456 478.609679 
L 566.995424 474.180627 
L 569.232392 470.074518 
L 571.46936 466.275297 
L 573.706327 462.768592 
L 575.943295 459.541488 
L 578.180263 456.582351 
L 580.417231 453.880677 
L 582.654198 451.426985 
L 584.891166 449.212723 
L 587.128134 447.230205 
L 589.365102 445.472556 
L 591.602069 443.93368 
L 593.839037 442.608242 
L 596.076005 441.491655 
L 598.312973 440.580091 
L 600.549941 439.870492 
L 602.786908 439.360599 
L 605.023876 439.048996 
L 607.260844 438.935159 
L 609.497812 439.019522 
L 611.734779 439.303566 
L 613.971747 439.789912 
L 616.208715 440.482452 
L 618.445683 441.386494 
L 620.68265 442.508946 
L 622.919618 443.858539 
L 625.156586 445.4461 
L 627.393554 447.284894 
L 629.630522 449.391049 
L 631.867489 451.784103 
L 634.104457 454.487696 
L 636.341425 457.530487 
L 638.578393 460.947354 
L 640.81536 464.781025 
L 643.052328 469.08433 
L 645.289296 473.923363 
L 647.526264 479.382083 
L 649.763231 485.569192 
L 652.000199 492.628823 
L 654.237167 500.757922 
L 654.237167 500.757922 
" style="fill:none;stroke:#0000ff;stroke-linecap:square;stroke-width:4;"/>
   </g>
   <g id="line2d_33">
    <defs>
     <path d="M 0 1 
C 0.265203 1 0.51958 0.894634 0.707107 0.707107 
C 0.894634 0.51958 1 0.265203 1 0 
C 1 -0.265203 0.894634 -0.51958 0.707107 -0.707107 
C 0.51958 -0.894634 0.265203 -1 0 -1 
C -0.265203 -1 -0.51958 -0.894634 -0.707107 -0.707107 
C -0.894634 -0.51958 -1 -0.265203 -1 0 
C -1 0.265203 -0.894634 0.51958 -0.707107 0.707107 
C -0.51958 0.894634 -0.265203 1 0 1 
z
" id="mea1b822a03" style="stroke:#008000;"/>
    </defs>
    <g clip-path="url(#p155bfc017e)">
     <use style="fill:#008000;stroke:#008000;" x="180" xlink:href="#mea1b822a03" y="396.123442"/>
     <use style="fill:#008000;stroke:#008000;" x="182.236968" xlink:href="#mea1b822a03" y="396.123442"/>
     <use style="fill:#008000;stroke:#008000;" x="184.473936" xlink:href="#mea1b822a03" y="396.123442"/>
     <use style="fill:#008000;stroke:#008000;" x="186.710903" xlink:href="#mea1b822a03" y="396.123442"/>
     <use style="fill:#008000;stroke:#008000;" x="188.947871" xlink:href="#mea1b822a03" y="396.123442"/>
     <use style="fill:#008000;stroke:#008000;" x="191.184839" xlink:href="#mea1b822a03" y="396.123442"/>
     <use style="fill:#008000;stroke:#008000;" x="193.421807" xlink:href="#mea1b822a03" y="396.123442"/>
     <use style="fill:#008000;stroke:#008000;" x="195.658774" xlink:href="#mea1b822a03" y="396.123442"/>
     <use style="fill:#008000;stroke:#008000;" x="197.895742" xlink:href="#mea1b822a03" y="396.123442"/>
     <use style="fill:#008000;stroke:#008000;" x="200.13271" xlink:href="#mea1b822a03" y="396.123442"/>
     <use style="fill:#008000;stroke:#008000;" x="202.369678" xlink:href="#mea1b822a03" y="396.123442"/>
     <use style="fill:#008000;stroke:#008000;" x="204.606645" xlink:href="#mea1b822a03" y="396.123442"/>
     <use style="fill:#008000;stroke:#008000;" x="206.843613" xlink:href="#mea1b822a03" y="396.123442"/>
     <use style="fill:#008000;stroke:#008000;" x="209.080581" xlink:href="#mea1b822a03" y="396.123442"/>
     <use style="fill:#008000;stroke:#008000;" x="211.317549" xlink:href="#mea1b822a03" y="396.123442"/>
     <use style="fill:#008000;stroke:#008000;" x="213.554517" xlink:href="#mea1b822a03" y="396.123442"/>
     <use style="fill:#008000;stroke:#008000;" x="215.791484" xlink:href="#mea1b822a03" y="396.123442"/>
     <use style="fill:#008000;stroke:#008000;" x="218.028452" xlink:href="#mea1b822a03" y="396.123442"/>
     <use style="fill:#008000;stroke:#008000;" x="220.26542" xlink:href="#mea1b822a03" y="396.123442"/>
     <use style="fill:#008000;stroke:#008000;" x="222.502388" xlink:href="#mea1b822a03" y="396.123442"/>
     <use style="fill:#008000;stroke:#008000;" x="224.739355" xlink:href="#mea1b822a03" y="396.123442"/>
     <use style="fill:#008000;stroke:#008000;" x="226.976323" xlink:href="#mea1b822a03" y="396.123442"/>
     <use style="fill:#008000;stroke:#008000;" x="229.213291" xlink:href="#mea1b822a03" y="396.123442"/>
     <use style="fill:#008000;stroke:#008000;" x="231.450259" xlink:href="#mea1b822a03" y="396.123442"/>
     <use style="fill:#008000;stroke:#008000;" x="233.687226" xlink:href="#mea1b822a03" y="396.123442"/>
     <use style="fill:#008000;stroke:#008000;" x="235.924194" xlink:href="#mea1b822a03" y="396.123442"/>
     <use style="fill:#008000;stroke:#008000;" x="238.161162" xlink:href="#mea1b822a03" y="396.123442"/>
     <use style="fill:#008000;stroke:#008000;" x="240.39813" xlink:href="#mea1b822a03" y="396.123442"/>
     <use style="fill:#008000;stroke:#008000;" x="242.635098" xlink:href="#mea1b822a03" y="396.123442"/>
     <use style="fill:#008000;stroke:#008000;" x="244.872065" xlink:href="#mea1b822a03" y="396.123442"/>
     <use style="fill:#008000;stroke:#008000;" x="247.109033" xlink:href="#mea1b822a03" y="396.123442"/>
     <use style="fill:#008000;stroke:#008000;" x="249.346001" xlink:href="#mea1b822a03" y="396.123442"/>
     <use style="fill:#008000;stroke:#008000;" x="251.582969" xlink:href="#mea1b822a03" y="396.123442"/>
     <use style="fill:#008000;stroke:#008000;" x="253.819936" xlink:href="#mea1b822a03" y="396.123442"/>
     <use style="fill:#008000;stroke:#008000;" x="256.056904" xlink:href="#mea1b822a03" y="396.123442"/>
     <use style="fill:#008000;stroke:#008000;" x="258.293872" xlink:href="#mea1b822a03" y="396.123442"/>
     <use style="fill:#008000;stroke:#008000;" x="260.53084" xlink:href="#mea1b822a03" y="388.305281"/>
     <use style="fill:#008000;stroke:#008000;" x="262.767807" xlink:href="#mea1b822a03" y="377.543037"/>
     <use style="fill:#008000;stroke:#008000;" x="265.004775" xlink:href="#mea1b822a03" y="371.125827"/>
     <use style="fill:#008000;stroke:#008000;" x="267.241743" xlink:href="#mea1b822a03" y="366.136779"/>
     <use style="fill:#008000;stroke:#008000;" x="269.478711" xlink:href="#mea1b822a03" y="361.957116"/>
     <use style="fill:#008000;stroke:#008000;" x="271.715679" xlink:href="#mea1b822a03" y="358.328356"/>
     <use style="fill:#008000;stroke:#008000;" x="273.952646" xlink:href="#mea1b822a03" y="355.11373"/>
     <use style="fill:#008000;stroke:#008000;" x="276.189614" xlink:href="#mea1b822a03" y="352.230837"/>
     <use style="fill:#008000;stroke:#008000;" x="278.426582" xlink:href="#mea1b822a03" y="349.625703"/>
     <use style="fill:#008000;stroke:#008000;" x="280.66355" xlink:href="#mea1b822a03" y="347.260831"/>
     <use style="fill:#008000;stroke:#008000;" x="282.900517" xlink:href="#mea1b822a03" y="345.108989"/>
     <use style="fill:#008000;stroke:#008000;" x="285.137485" xlink:href="#mea1b822a03" y="343.149703"/>
     <use style="fill:#008000;stroke:#008000;" x="287.374453" xlink:href="#mea1b822a03" y="341.36713"/>
     <use style="fill:#008000;stroke:#008000;" x="289.611421" xlink:href="#mea1b822a03" y="339.748706"/>
     <use style="fill:#008000;stroke:#008000;" x="291.848388" xlink:href="#mea1b822a03" y="338.284258"/>
     <use style="fill:#008000;stroke:#008000;" x="294.085356" xlink:href="#mea1b822a03" y="336.965388"/>
     <use style="fill:#008000;stroke:#008000;" x="296.322324" xlink:href="#mea1b822a03" y="335.785045"/>
     <use style="fill:#008000;stroke:#008000;" x="298.559292" xlink:href="#mea1b822a03" y="334.737218"/>
     <use style="fill:#008000;stroke:#008000;" x="300.79626" xlink:href="#mea1b822a03" y="333.816709"/>
     <use style="fill:#008000;stroke:#008000;" x="303.033227" xlink:href="#mea1b822a03" y="333.018973"/>
     <use style="fill:#008000;stroke:#008000;" x="305.270195" xlink:href="#mea1b822a03" y="332.339986"/>
     <use style="fill:#008000;stroke:#008000;" x="307.507163" xlink:href="#mea1b822a03" y="331.776166"/>
     <use style="fill:#008000;stroke:#008000;" x="309.744131" xlink:href="#mea1b822a03" y="331.324295"/>
     <use style="fill:#008000;stroke:#008000;" x="311.981098" xlink:href="#mea1b822a03" y="330.981478"/>
     <use style="fill:#008000;stroke:#008000;" x="314.218066" xlink:href="#mea1b822a03" y="330.745108"/>
     <use style="fill:#008000;stroke:#008000;" x="316.455034" xlink:href="#mea1b822a03" y="330.612843"/>
     <use style="fill:#008000;stroke:#008000;" x="318.692002" xlink:href="#mea1b822a03" y="330.582594"/>
     <use style="fill:#008000;stroke:#008000;" x="320.928969" xlink:href="#mea1b822a03" y="330.652525"/>
     <use style="fill:#008000;stroke:#008000;" x="323.165937" xlink:href="#mea1b822a03" y="330.821059"/>
     <use style="fill:#008000;stroke:#008000;" x="325.402905" xlink:href="#mea1b822a03" y="331.086885"/>
     <use style="fill:#008000;stroke:#008000;" x="327.639873" xlink:href="#mea1b822a03" y="331.448987"/>
     <use style="fill:#008000;stroke:#008000;" x="329.876841" xlink:href="#mea1b822a03" y="331.906662"/>
     <use style="fill:#008000;stroke:#008000;" x="332.113808" xlink:href="#mea1b822a03" y="332.459567"/>
     <use style="fill:#008000;stroke:#008000;" x="334.350776" xlink:href="#mea1b822a03" y="333.107755"/>
     <use style="fill:#008000;stroke:#008000;" x="336.587744" xlink:href="#mea1b822a03" y="333.85174"/>
     <use style="fill:#008000;stroke:#008000;" x="338.824712" xlink:href="#mea1b822a03" y="334.692569"/>
     <use style="fill:#008000;stroke:#008000;" x="341.061679" xlink:href="#mea1b822a03" y="335.631905"/>
     <use style="fill:#008000;stroke:#008000;" x="343.298647" xlink:href="#mea1b822a03" y="336.672148"/>
     <use style="fill:#008000;stroke:#008000;" x="345.535615" xlink:href="#mea1b822a03" y="337.816572"/>
     <use style="fill:#008000;stroke:#008000;" x="347.772583" xlink:href="#mea1b822a03" y="339.069513"/>
     <use style="fill:#008000;stroke:#008000;" x="350.00955" xlink:href="#mea1b822a03" y="340.436608"/>
     <use style="fill:#008000;stroke:#008000;" x="352.246518" xlink:href="#mea1b822a03" y="341.925107"/>
     <use style="fill:#008000;stroke:#008000;" x="354.483486" xlink:href="#mea1b822a03" y="343.544315"/>
     <use style="fill:#008000;stroke:#008000;" x="356.720454" xlink:href="#mea1b822a03" y="345.306176"/>
     <use style="fill:#008000;stroke:#008000;" x="358.957422" xlink:href="#mea1b822a03" y="347.22613"/>
     <use style="fill:#008000;stroke:#008000;" x="361.194389" xlink:href="#mea1b822a03" y="349.32436"/>
     <use style="fill:#008000;stroke:#008000;" x="363.431357" xlink:href="#mea1b822a03" y="351.627689"/>
     <use style="fill:#008000;stroke:#008000;" x="365.668325" xlink:href="#mea1b822a03" y="354.172635"/>
     <use style="fill:#008000;stroke:#008000;" x="367.905293" xlink:href="#mea1b822a03" y="357.010564"/>
     <use style="fill:#008000;stroke:#008000;" x="370.14226" xlink:href="#mea1b822a03" y="360.217128"/>
     <use style="fill:#008000;stroke:#008000;" x="372.379228" xlink:href="#mea1b822a03" y="363.911349"/>
     <use style="fill:#008000;stroke:#008000;" x="374.616196" xlink:href="#mea1b822a03" y="368.300321"/>
     <use style="fill:#008000;stroke:#008000;" x="376.853164" xlink:href="#mea1b822a03" y="373.811531"/>
     <use style="fill:#008000;stroke:#008000;" x="379.090131" xlink:href="#mea1b822a03" y="381.719048"/>
     <use style="fill:#008000;stroke:#008000;" x="381.327099" xlink:href="#mea1b822a03" y="396.123442"/>
     <use style="fill:#008000;stroke:#008000;" x="383.564067" xlink:href="#mea1b822a03" y="396.123442"/>
     <use style="fill:#008000;stroke:#008000;" x="385.801035" xlink:href="#mea1b822a03" y="396.123442"/>
     <use style="fill:#008000;stroke:#008000;" x="388.038003" xlink:href="#mea1b822a03" y="396.123442"/>
     <use style="fill:#008000;stroke:#008000;" x="390.27497" xlink:href="#mea1b822a03" y="396.123442"/>
     <use style="fill:#008000;stroke:#008000;" x="392.511938" xlink:href="#mea1b822a03" y="396.123442"/>
     <use style="fill:#008000;stroke:#008000;" x="394.748906" xlink:href="#mea1b822a03" y="396.123442"/>
     <use style="fill:#008000;stroke:#008000;" x="396.985874" xlink:href="#mea1b822a03" y="396.123442"/>
     <use style="fill:#008000;stroke:#008000;" x="399.222841" xlink:href="#mea1b822a03" y="396.123442"/>
     <use style="fill:#008000;stroke:#008000;" x="401.459809" xlink:href="#mea1b822a03" y="396.123442"/>
     <use style="fill:#008000;stroke:#008000;" x="403.696777" xlink:href="#mea1b822a03" y="396.123442"/>
     <use style="fill:#008000;stroke:#008000;" x="405.933745" xlink:href="#mea1b822a03" y="396.123442"/>
     <use style="fill:#008000;stroke:#008000;" x="408.170712" xlink:href="#mea1b822a03" y="396.123442"/>
     <use style="fill:#008000;stroke:#008000;" x="410.40768" xlink:href="#mea1b822a03" y="396.123442"/>
     <use style="fill:#008000;stroke:#008000;" x="412.644648" xlink:href="#mea1b822a03" y="396.123442"/>
     <use style="fill:#008000;stroke:#008000;" x="414.881616" xlink:href="#mea1b822a03" y="396.123442"/>
     <use style="fill:#008000;stroke:#008000;" x="417.118584" xlink:href="#mea1b822a03" y="396.123442"/>
     <use style="fill:#008000;stroke:#008000;" x="419.355551" xlink:href="#mea1b822a03" y="396.123442"/>
     <use style="fill:#008000;stroke:#008000;" x="421.592519" xlink:href="#mea1b822a03" y="396.123442"/>
     <use style="fill:#008000;stroke:#008000;" x="423.829487" xlink:href="#mea1b822a03" y="396.123442"/>
     <use style="fill:#008000;stroke:#008000;" x="426.066455" xlink:href="#mea1b822a03" y="396.123442"/>
     <use style="fill:#008000;stroke:#008000;" x="428.303422" xlink:href="#mea1b822a03" y="396.123442"/>
     <use style="fill:#008000;stroke:#008000;" x="430.54039" xlink:href="#mea1b822a03" y="396.123442"/>
     <use style="fill:#008000;stroke:#008000;" x="432.777358" xlink:href="#mea1b822a03" y="396.123442"/>
     <use style="fill:#008000;stroke:#008000;" x="435.014326" xlink:href="#mea1b822a03" y="396.123442"/>
     <use style="fill:#008000;stroke:#008000;" x="437.251293" xlink:href="#mea1b822a03" y="396.123442"/>
     <use style="fill:#008000;stroke:#008000;" x="439.488261" xlink:href="#mea1b822a03" y="396.123442"/>
     <use style="fill:#008000;stroke:#008000;" x="441.725229" xlink:href="#mea1b822a03" y="396.123442"/>
     <use style="fill:#008000;stroke:#008000;" x="443.962197" xlink:href="#mea1b822a03" y="396.123442"/>
     <use style="fill:#008000;stroke:#008000;" x="446.199165" xlink:href="#mea1b822a03" y="396.123442"/>
     <use style="fill:#008000;stroke:#008000;" x="448.436132" xlink:href="#mea1b822a03" y="396.123442"/>
     <use style="fill:#008000;stroke:#008000;" x="450.6731" xlink:href="#mea1b822a03" y="396.123442"/>
     <use style="fill:#008000;stroke:#008000;" x="452.910068" xlink:href="#mea1b822a03" y="396.123442"/>
     <use style="fill:#008000;stroke:#008000;" x="455.147036" xlink:href="#mea1b822a03" y="396.123442"/>
     <use style="fill:#008000;stroke:#008000;" x="457.384003" xlink:href="#mea1b822a03" y="396.123442"/>
     <use style="fill:#008000;stroke:#008000;" x="459.620971" xlink:href="#mea1b822a03" y="396.123442"/>
     <use style="fill:#008000;stroke:#008000;" x="461.857939" xlink:href="#mea1b822a03" y="396.123442"/>
     <use style="fill:#008000;stroke:#008000;" x="464.094907" xlink:href="#mea1b822a03" y="396.123442"/>
     <use style="fill:#008000;stroke:#008000;" x="466.331874" xlink:href="#mea1b822a03" y="396.123442"/>
     <use style="fill:#008000;stroke:#008000;" x="468.568842" xlink:href="#mea1b822a03" y="396.123442"/>
     <use style="fill:#008000;stroke:#008000;" x="470.80581" xlink:href="#mea1b822a03" y="396.123442"/>
     <use style="fill:#008000;stroke:#008000;" x="473.042778" xlink:href="#mea1b822a03" y="396.123442"/>
     <use style="fill:#008000;stroke:#008000;" x="475.279746" xlink:href="#mea1b822a03" y="396.123442"/>
     <use style="fill:#008000;stroke:#008000;" x="477.516713" xlink:href="#mea1b822a03" y="396.123442"/>
     <use style="fill:#008000;stroke:#008000;" x="479.753681" xlink:href="#mea1b822a03" y="396.123442"/>
     <use style="fill:#008000;stroke:#008000;" x="481.990649" xlink:href="#mea1b822a03" y="396.123442"/>
     <use style="fill:#008000;stroke:#008000;" x="484.227617" xlink:href="#mea1b822a03" y="396.123442"/>
     <use style="fill:#008000;stroke:#008000;" x="486.464584" xlink:href="#mea1b822a03" y="396.123442"/>
     <use style="fill:#008000;stroke:#008000;" x="488.701552" xlink:href="#mea1b822a03" y="396.123442"/>
     <use style="fill:#008000;stroke:#008000;" x="490.93852" xlink:href="#mea1b822a03" y="396.123442"/>
     <use style="fill:#008000;stroke:#008000;" x="493.175488" xlink:href="#mea1b822a03" y="396.123442"/>
     <use style="fill:#008000;stroke:#008000;" x="495.412455" xlink:href="#mea1b822a03" y="396.123442"/>
     <use style="fill:#008000;stroke:#008000;" x="497.649423" xlink:href="#mea1b822a03" y="396.123442"/>
     <use style="fill:#008000;stroke:#008000;" x="499.886391" xlink:href="#mea1b822a03" y="396.123442"/>
     <use style="fill:#008000;stroke:#008000;" x="502.123359" xlink:href="#mea1b822a03" y="396.123442"/>
     <use style="fill:#008000;stroke:#008000;" x="504.360327" xlink:href="#mea1b822a03" y="396.123442"/>
     <use style="fill:#008000;stroke:#008000;" x="506.597294" xlink:href="#mea1b822a03" y="396.123442"/>
     <use style="fill:#008000;stroke:#008000;" x="508.834262" xlink:href="#mea1b822a03" y="396.123442"/>
     <use style="fill:#008000;stroke:#008000;" x="511.07123" xlink:href="#mea1b822a03" y="396.123442"/>
     <use style="fill:#008000;stroke:#008000;" x="513.308198" xlink:href="#mea1b822a03" y="396.123442"/>
     <use style="fill:#008000;stroke:#008000;" x="515.545165" xlink:href="#mea1b822a03" y="396.123442"/>
     <use style="fill:#008000;stroke:#008000;" x="517.782133" xlink:href="#mea1b822a03" y="396.123442"/>
     <use style="fill:#008000;stroke:#008000;" x="520.019101" xlink:href="#mea1b822a03" y="396.123442"/>
     <use style="fill:#008000;stroke:#008000;" x="522.256069" xlink:href="#mea1b822a03" y="396.123442"/>
     <use style="fill:#008000;stroke:#008000;" x="524.493036" xlink:href="#mea1b822a03" y="396.123442"/>
     <use style="fill:#008000;stroke:#008000;" x="526.730004" xlink:href="#mea1b822a03" y="396.123442"/>
     <use style="fill:#008000;stroke:#008000;" x="528.966972" xlink:href="#mea1b822a03" y="396.123442"/>
     <use style="fill:#008000;stroke:#008000;" x="531.20394" xlink:href="#mea1b822a03" y="396.123442"/>
     <use style="fill:#008000;stroke:#008000;" x="533.440908" xlink:href="#mea1b822a03" y="396.123442"/>
     <use style="fill:#008000;stroke:#008000;" x="535.677875" xlink:href="#mea1b822a03" y="396.123442"/>
     <use style="fill:#008000;stroke:#008000;" x="537.914843" xlink:href="#mea1b822a03" y="381.748288"/>
     <use style="fill:#008000;stroke:#008000;" x="540.151811" xlink:href="#mea1b822a03" y="373.947054"/>
     <use style="fill:#008000;stroke:#008000;" x="542.388779" xlink:href="#mea1b822a03" y="368.712316"/>
     <use style="fill:#008000;stroke:#008000;" x="544.625746" xlink:href="#mea1b822a03" y="364.684796"/>
     <use style="fill:#008000;stroke:#008000;" x="546.862714" xlink:href="#mea1b822a03" y="361.407451"/>
     <use style="fill:#008000;stroke:#008000;" x="549.099682" xlink:href="#mea1b822a03" y="358.657663"/>
     <use style="fill:#008000;stroke:#008000;" x="551.33665" xlink:href="#mea1b822a03" y="356.30667"/>
     <use style="fill:#008000;stroke:#008000;" x="553.573617" xlink:href="#mea1b822a03" y="354.271972"/>
     <use style="fill:#008000;stroke:#008000;" x="555.810585" xlink:href="#mea1b822a03" y="352.496961"/>
     <use style="fill:#008000;stroke:#008000;" x="558.047553" xlink:href="#mea1b822a03" y="350.940818"/>
     <use style="fill:#008000;stroke:#008000;" x="560.284521" xlink:href="#mea1b822a03" y="349.572983"/>
     <use style="fill:#008000;stroke:#008000;" x="562.521489" xlink:href="#mea1b822a03" y="348.369885"/>
     <use style="fill:#008000;stroke:#008000;" x="564.758456" xlink:href="#mea1b822a03" y="347.312895"/>
     <use style="fill:#008000;stroke:#008000;" x="566.995424" xlink:href="#mea1b822a03" y="346.386994"/>
     <use style="fill:#008000;stroke:#008000;" x="569.232392" xlink:href="#mea1b822a03" y="345.579863"/>
     <use style="fill:#008000;stroke:#008000;" x="571.46936" xlink:href="#mea1b822a03" y="344.881247"/>
     <use style="fill:#008000;stroke:#008000;" x="573.706327" xlink:href="#mea1b822a03" y="344.282502"/>
     <use style="fill:#008000;stroke:#008000;" x="575.943295" xlink:href="#mea1b822a03" y="343.776258"/>
     <use style="fill:#008000;stroke:#008000;" x="578.180263" xlink:href="#mea1b822a03" y="343.356176"/>
     <use style="fill:#008000;stroke:#008000;" x="580.417231" xlink:href="#mea1b822a03" y="343.016753"/>
     <use style="fill:#008000;stroke:#008000;" x="582.654198" xlink:href="#mea1b822a03" y="342.753181"/>
     <use style="fill:#008000;stroke:#008000;" x="584.891166" xlink:href="#mea1b822a03" y="342.561237"/>
     <use style="fill:#008000;stroke:#008000;" x="587.128134" xlink:href="#mea1b822a03" y="342.437193"/>
     <use style="fill:#008000;stroke:#008000;" x="589.365102" xlink:href="#mea1b822a03" y="342.377754"/>
     <use style="fill:#008000;stroke:#008000;" x="591.602069" xlink:href="#mea1b822a03" y="342.38"/>
     <use style="fill:#008000;stroke:#008000;" x="593.839037" xlink:href="#mea1b822a03" y="342.44135"/>
     <use style="fill:#008000;stroke:#008000;" x="596.076005" xlink:href="#mea1b822a03" y="342.559531"/>
     <use style="fill:#008000;stroke:#008000;" x="598.312973" xlink:href="#mea1b822a03" y="342.732555"/>
     <use style="fill:#008000;stroke:#008000;" x="600.549941" xlink:href="#mea1b822a03" y="342.958708"/>
     <use style="fill:#008000;stroke:#008000;" x="602.786908" xlink:href="#mea1b822a03" y="343.236539"/>
     <use style="fill:#008000;stroke:#008000;" x="605.023876" xlink:href="#mea1b822a03" y="343.564862"/>
     <use style="fill:#008000;stroke:#008000;" x="607.260844" xlink:href="#mea1b822a03" y="343.942755"/>
     <use style="fill:#008000;stroke:#008000;" x="609.497812" xlink:href="#mea1b822a03" y="344.369579"/>
     <use style="fill:#008000;stroke:#008000;" x="611.734779" xlink:href="#mea1b822a03" y="344.844989"/>
     <use style="fill:#008000;stroke:#008000;" x="613.971747" xlink:href="#mea1b822a03" y="345.368962"/>
     <use style="fill:#008000;stroke:#008000;" x="616.208715" xlink:href="#mea1b822a03" y="345.941831"/>
     <use style="fill:#008000;stroke:#008000;" x="618.445683" xlink:href="#mea1b822a03" y="346.564329"/>
     <use style="fill:#008000;stroke:#008000;" x="620.68265" xlink:href="#mea1b822a03" y="347.23765"/>
     <use style="fill:#008000;stroke:#008000;" x="622.919618" xlink:href="#mea1b822a03" y="347.963521"/>
     <use style="fill:#008000;stroke:#008000;" x="625.156586" xlink:href="#mea1b822a03" y="348.744305"/>
     <use style="fill:#008000;stroke:#008000;" x="627.393554" xlink:href="#mea1b822a03" y="349.583124"/>
     <use style="fill:#008000;stroke:#008000;" x="629.630522" xlink:href="#mea1b822a03" y="350.484033"/>
     <use style="fill:#008000;stroke:#008000;" x="631.867489" xlink:href="#mea1b822a03" y="351.452247"/>
     <use style="fill:#008000;stroke:#008000;" x="634.104457" xlink:href="#mea1b822a03" y="352.494446"/>
     <use style="fill:#008000;stroke:#008000;" x="636.341425" xlink:href="#mea1b822a03" y="353.619211"/>
     <use style="fill:#008000;stroke:#008000;" x="638.578393" xlink:href="#mea1b822a03" y="354.837631"/>
     <use style="fill:#008000;stroke:#008000;" x="640.81536" xlink:href="#mea1b822a03" y="356.16419"/>
     <use style="fill:#008000;stroke:#008000;" x="643.052328" xlink:href="#mea1b822a03" y="357.618113"/>
     <use style="fill:#008000;stroke:#008000;" x="645.289296" xlink:href="#mea1b822a03" y="359.225455"/>
     <use style="fill:#008000;stroke:#008000;" x="647.526264" xlink:href="#mea1b822a03" y="361.022537"/>
     <use style="fill:#008000;stroke:#008000;" x="649.763231" xlink:href="#mea1b822a03" y="363.061902"/>
     <use style="fill:#008000;stroke:#008000;" x="652.000199" xlink:href="#mea1b822a03" y="365.42347"/>
     <use style="fill:#008000;stroke:#008000;" x="654.237167" xlink:href="#mea1b822a03" y="368.237671"/>
    </g>
   </g>
   <g id="patch_3">
    <path d="M 180 640.8 
L 180 86.4 
" style="fill:none;stroke:#000000;stroke-linecap:square;stroke-linejoin:miter;stroke-width:0.8;"/>
   </g>
   <g id="patch_4">
    <path d="M 1296 640.8 
L 1296 86.4 
" style="fill:none;stroke:#000000;stroke-linecap:square;stroke-linejoin:miter;stroke-width:0.8;"/>
   </g>
   <g id="patch_5">
    <path d="M 180 640.8 
L 1296 640.8 
" style="fill:none;stroke:#000000;stroke-linecap:square;stroke-linejoin:miter;stroke-width:0.8;"/>
   </g>
   <g id="patch_6">
    <path d="M 180 86.4 
L 1296 86.4 
" style="fill:none;stroke:#000000;stroke-linecap:square;stroke-linejoin:miter;stroke-width:0.8;"/>
   </g>
   <g id="legend_1">
    <g id="patch_7">
     <path d="M 825.881704 371.649908 
L 982.314 371.649908 
Q 989.514 371.649908 989.514 364.449908 
L 989.514 250.2 
Q 989.514 243 982.314 243 
L 825.881704 243 
Q 818.681704 243 818.681704 250.2 
L 818.681704 364.449908 
Q 818.681704 371.649908 825.881704 371.649908 
z
" style="fill:#ffffff;opacity:0.8;stroke:#cccccc;stroke-linejoin:miter;"/>
    </g>
    <g id="line2d_34">
     <path d="M 833.081704 280.496567 
L 905.081704 280.496567 
" style="fill:none;stroke:#0000ff;stroke-linecap:square;stroke-width:4;"/>
    </g>
    <g id="line2d_35"/>
    <g id="text_18">
     <!-- $\frac{2\pi\sigma}{\omega}$ -->
     <g transform="translate(933.881704 293.096567)scale(0.36 -0.36)">
      <use transform="translate(0 73.581354)scale(0.697382)" xlink:href="#CMR17-50"/>
      <use transform="translate(31.983182 73.581354)scale(0.697382)" xlink:href="#CMMI12-25"/>
      <use transform="translate(73.220403 73.581354)scale(0.697382)" xlink:href="#CMMI12-27"/>
      <use transform="translate(34.755805 0)scale(0.697382)" xlink:href="#CMMI12-33"/>
      <path d="M 0 57.269386 
L 114.534242 57.269386 
L 114.534242 61.254336 
L 0 61.254336 
L 0 57.269386 
z
"/>
     </g>
    </g>
    <g id="line2d_36"/>
    <g id="line2d_37">
     <g>
      <use style="fill:#008000;stroke:#008000;" x="869.081704" xlink:href="#mea1b822a03" y="337.673764"/>
     </g>
    </g>
    <g id="text_19">
     <!-- $\frac{\gamma}{\omega}$ -->
     <g transform="translate(933.881704 350.273764)scale(0.36 -0.36)">
      <use transform="translate(2.904924 78.799427)scale(0.697382)" xlink:href="#CMMI12-13"/>
      <use transform="scale(0.697382)" xlink:href="#CMMI12-33"/>
      <path d="M 0 57.269386 
L 45.022632 57.269386 
L 45.022632 61.254336 
L 0 61.254336 
L 0 57.269386 
z
"/>
     </g>
    </g>
   </g>
  </g>
 </g>
 <defs>
  <clipPath id="p155bfc017e">
   <rect height="554.4" width="1116" x="180" y="86.4"/>
  </clipPath>
 </defs>
</svg>
