<?xml version="1.0" encoding="utf-8" standalone="no"?>
<!DOCTYPE svg PUBLIC "-//W3C//DTD SVG 1.1//EN"
  "http://www.w3.org/Graphics/SVG/1.1/DTD/svg11.dtd">
<!-- Created with matplotlib (https://matplotlib.org/) -->
<svg height="720pt" version="1.1" viewBox="0 0 1440 720" width="1440pt" xmlns="http://www.w3.org/2000/svg" xmlns:xlink="http://www.w3.org/1999/xlink">
 <defs>
  <style type="text/css">
*{stroke-linecap:butt;stroke-linejoin:round;}
  </style>
 </defs>
 <g id="figure_1">
  <g id="patch_1">
   <path d="M 0 720 
L 1440 720 
L 1440 0 
L 0 0 
z
" style="fill:#ffffff;"/>
  </g>
  <g id="axes_1">
   <g id="patch_2">
    <path d="M 180 640.8 
L 1296 640.8 
L 1296 86.4 
L 180 86.4 
z
" style="fill:#ffffff;"/>
   </g>
   <g id="matplotlib.axis_1">
    <g id="xtick_1">
     <g id="line2d_1">
      <path clip-path="url(#p389b224911)" d="M 180 640.8 
L 180 86.4 
" style="fill:none;stroke:#b0b0b0;stroke-linecap:square;stroke-width:0.8;"/>
     </g>
     <g id="line2d_2">
      <defs>
       <path d="M 0 0 
L 0 3.5 
" id="m05ce007604" style="stroke:#000000;stroke-width:0.8;"/>
      </defs>
      <g>
       <use style="stroke:#000000;stroke-width:0.8;" x="180" xlink:href="#m05ce007604" y="640.8"/>
      </g>
     </g>
     <g id="text_1">
      <!-- $0$ -->
      <defs>
       <path d="M 42 31.640625 
C 42 37.75 41.90625 48.125 37.703125 56.109375 
C 34 63.109375 28.09375 65.59375 22.90625 65.59375 
C 18.09375 65.59375 12 63.40625 8.203125 56.203125 
C 4.203125 48.71875 3.796875 39.4375 3.796875 31.640625 
C 3.796875 25.953125 3.90625 17.28125 7 9.671875 
C 11.296875 -0.609375 19 -2 22.90625 -2 
C 27.5 -2 34.5 -0.109375 38.59375 9.375 
C 41.59375 16.28125 42 24.359375 42 31.640625 
z
M 22.90625 -0.40625 
C 16.5 -0.40625 12.703125 5.078125 11.296875 12.6875 
C 10.203125 18.5625 10.203125 27.15625 10.203125 32.75 
C 10.203125 40.4375 10.203125 46.828125 11.5 52.921875 
C 13.40625 61.390625 19 64 22.90625 64 
C 27 64 32.296875 61.296875 34.203125 53.125 
C 35.5 47.4375 35.59375 40.734375 35.59375 32.75 
C 35.59375 26.25 35.59375 18.265625 34.40625 12.375 
C 32.296875 1.484375 26.40625 -0.40625 22.90625 -0.40625 
z
" id="CMR17-48"/>
      </defs>
      <g transform="translate(172.004167 669.514752)scale(0.35 -0.35)">
       <use transform="scale(0.996264)" xlink:href="#CMR17-48"/>
      </g>
     </g>
    </g>
    <g id="xtick_2">
     <g id="line2d_3">
      <path clip-path="url(#p389b224911)" d="M 403.2 640.8 
L 403.2 86.4 
" style="fill:none;stroke:#b0b0b0;stroke-linecap:square;stroke-width:0.8;"/>
     </g>
     <g id="line2d_4">
      <g>
       <use style="stroke:#000000;stroke-width:0.8;" x="403.2" xlink:href="#m05ce007604" y="640.8"/>
      </g>
     </g>
     <g id="text_2">
      <!-- $2$ -->
      <defs>
       <path d="M 41.703125 15.453125 
L 39.90625 15.453125 
C 38.90625 8.375 38.09375 7.171875 37.703125 6.5625 
C 37.203125 5.765625 30 5.765625 28.59375 5.765625 
L 9.40625 5.765625 
C 13 9.671875 20 16.75 28.5 24.953125 
C 34.59375 30.734375 41.703125 37.53125 41.703125 47.421875 
C 41.703125 59.21875 32.296875 66 21.796875 66 
C 10.796875 66 4.09375 56.3125 4.09375 47.34375 
C 4.09375 43.4375 7 42.9375 8.203125 42.9375 
C 9.203125 42.9375 12.203125 43.546875 12.203125 47.03125 
C 12.203125 50.109375 9.59375 51 8.203125 51 
C 7.59375 51 7 50.90625 6.59375 50.703125 
C 8.5 59.21875 14.296875 63.40625 20.40625 63.40625 
C 29.09375 63.40625 34.796875 56.515625 34.796875 47.421875 
C 34.796875 38.734375 29.703125 31.25 24 24.75 
L 4.09375 2.28125 
L 4.09375 0 
L 39.296875 0 
z
" id="CMR17-50"/>
      </defs>
      <g transform="translate(395.204167 669.514752)scale(0.35 -0.35)">
       <use transform="scale(0.996264)" xlink:href="#CMR17-50"/>
      </g>
     </g>
    </g>
    <g id="xtick_3">
     <g id="line2d_5">
      <path clip-path="url(#p389b224911)" d="M 626.4 640.8 
L 626.4 86.4 
" style="fill:none;stroke:#b0b0b0;stroke-linecap:square;stroke-width:0.8;"/>
     </g>
     <g id="line2d_6">
      <g>
       <use style="stroke:#000000;stroke-width:0.8;" x="626.4" xlink:href="#m05ce007604" y="640.8"/>
      </g>
     </g>
     <g id="text_3">
      <!-- $4$ -->
      <defs>
       <path d="M 33.59375 64.40625 
C 33.59375 66.5 33.5 66.5 31.703125 66.5 
L 2 19.59375 
L 2 17 
L 27.796875 17 
L 27.796875 7.140625 
C 27.796875 3.5 27.59375 2.5 20.59375 2.5 
L 18.703125 2.5 
L 18.703125 0 
C 21.90625 0 27.296875 0 30.703125 0 
C 34.09375 0 39.5 0 42.703125 0 
L 42.703125 2.5 
L 40.796875 2.5 
C 33.796875 2.5 33.59375 3.5 33.59375 7.140625 
L 33.59375 17 
L 43.796875 17 
L 43.796875 19.59375 
L 33.59375 19.59375 
z
M 28.09375 57.859375 
L 28.09375 19.59375 
L 4 19.59375 
z
" id="CMR17-52"/>
      </defs>
      <g transform="translate(618.404167 669.514752)scale(0.35 -0.35)">
       <use transform="scale(0.996264)" xlink:href="#CMR17-52"/>
      </g>
     </g>
    </g>
    <g id="xtick_4">
     <g id="line2d_7">
      <path clip-path="url(#p389b224911)" d="M 849.6 640.8 
L 849.6 86.4 
" style="fill:none;stroke:#b0b0b0;stroke-linecap:square;stroke-width:0.8;"/>
     </g>
     <g id="line2d_8">
      <g>
       <use style="stroke:#000000;stroke-width:0.8;" x="849.6" xlink:href="#m05ce007604" y="640.8"/>
      </g>
     </g>
     <g id="text_4">
      <!-- $6$ -->
      <defs>
       <path d="M 10.59375 34 
C 10.59375 57.65625 21.796875 63 28.296875 63 
C 30.40625 63 35.5 62.640625 37.5 59 
C 35.90625 59 32.90625 59 32.90625 55.515625 
C 32.90625 52.828125 35.09375 51.921875 36.5 51.921875 
C 37.40625 51.921875 40.09375 52.3125 40.09375 55.625 
C 40.09375 61.78125 35.09375 65.296875 28.203125 65.296875 
C 16.296875 65.296875 3.796875 52.96875 3.796875 31 
C 3.796875 3.953125 15.09375 -2 23.09375 -2 
C 32.796875 -2 42 6.671875 42 20.046875 
C 42 32.515625 33.90625 41.59375 23.703125 41.59375 
C 17.59375 41.59375 13.09375 37.609375 10.59375 30.625 
z
M 23.09375 0.390625 
C 10.796875 0.390625 10.796875 18.75 10.796875 22.4375 
C 10.796875 29.625 14.203125 40 23.5 40 
C 25.203125 40 30.09375 40 33.40625 33.125 
C 35.203125 29.21875 35.203125 25.140625 35.203125 20.140625 
C 35.203125 14.75 35.203125 10.78125 33.09375 6.78125 
C 30.90625 2.671875 27.703125 0.390625 23.09375 0.390625 
z
" id="CMR17-54"/>
      </defs>
      <g transform="translate(841.604167 669.514752)scale(0.35 -0.35)">
       <use transform="scale(0.996264)" xlink:href="#CMR17-54"/>
      </g>
     </g>
    </g>
    <g id="xtick_5">
     <g id="line2d_9">
      <path clip-path="url(#p389b224911)" d="M 1072.8 640.8 
L 1072.8 86.4 
" style="fill:none;stroke:#b0b0b0;stroke-linecap:square;stroke-width:0.8;"/>
     </g>
     <g id="line2d_10">
      <g>
       <use style="stroke:#000000;stroke-width:0.8;" x="1072.8" xlink:href="#m05ce007604" y="640.8"/>
      </g>
     </g>
     <g id="text_5">
      <!-- $8$ -->
      <defs>
       <path d="M 27.203125 35.375 
C 33.5 38.546875 39.90625 43.328125 39.90625 50.984375 
C 39.90625 60.015625 31.09375 65.296875 23 65.296875 
C 13.90625 65.296875 5.90625 58.734375 5.90625 49.6875 
C 5.90625 47.203125 6.5 42.921875 10.40625 39.140625 
C 11.40625 38.15625 15.59375 35.171875 18.296875 33.28125 
C 13.796875 30.984375 3.296875 25.53125 3.296875 14.59375 
C 3.296875 4.359375 13.09375 -2 22.796875 -2 
C 33.5 -2 42.5 5.65625 42.5 15.78125 
C 42.5 24.84375 36.40625 29.015625 32.40625 31.703125 
z
M 14.09375 44.09375 
C 13.296875 44.59375 9.296875 47.671875 9.296875 52.359375 
C 9.296875 58.421875 15.59375 63 22.796875 63 
C 30.703125 63 36.5 57.4375 36.5 50.96875 
C 36.5 41.703125 26.09375 36.421875 25.59375 36.421875 
C 25.5 36.421875 25.40625 36.421875 24.59375 37.03125 
z
M 32.5 23.734375 
C 34 22.640625 38.796875 19.375 38.796875 13.296875 
C 38.796875 5.953125 31.40625 0.390625 23 0.390625 
C 13.90625 0.390625 7 6.84375 7 14.6875 
C 7 22.546875 13.09375 29.09375 20 32.1875 
z
" id="CMR17-56"/>
      </defs>
      <g transform="translate(1064.804167 669.514752)scale(0.35 -0.35)">
       <use transform="scale(0.996264)" xlink:href="#CMR17-56"/>
      </g>
     </g>
    </g>
    <g id="xtick_6">
     <g id="line2d_11">
      <path clip-path="url(#p389b224911)" d="M 1296 640.8 
L 1296 86.4 
" style="fill:none;stroke:#b0b0b0;stroke-linecap:square;stroke-width:0.8;"/>
     </g>
     <g id="line2d_12">
      <g>
       <use style="stroke:#000000;stroke-width:0.8;" x="1296" xlink:href="#m05ce007604" y="640.8"/>
      </g>
     </g>
     <g id="text_6">
      <!-- $10$ -->
      <defs>
       <path d="M 26.59375 63.40625 
C 26.59375 65.5 26.5 65.5 25.09375 65.5 
C 21.203125 61.1875 15.296875 59.796875 9.703125 59.796875 
C 9.40625 59.796875 8.90625 59.796875 8.796875 59.5 
C 8.703125 59.296875 8.703125 59.09375 8.703125 57 
C 11.796875 57 17 57.59375 21 59.984375 
L 21 7.203125 
C 21 3.6875 20.796875 2.5 12.203125 2.5 
L 9.203125 2.5 
L 9.203125 0 
C 14 0 19 0 23.796875 0 
C 28.59375 0 33.59375 0 38.40625 0 
L 38.40625 2.5 
L 35.40625 2.5 
C 26.796875 2.5 26.59375 3.59375 26.59375 7.15625 
z
" id="CMR17-49"/>
      </defs>
      <g transform="translate(1280.008333 669.514752)scale(0.35 -0.35)">
       <use transform="scale(0.996264)" xlink:href="#CMR17-49"/>
       <use transform="translate(45.690477 0)scale(0.996264)" xlink:href="#CMR17-48"/>
      </g>
     </g>
    </g>
    <g id="text_7">
     <!-- $\Omega\tau/2\pi$ -->
     <defs>
      <path d="M 63.09375 14.609375 
L 61.296875 14.609375 
C 60.40625 10.015625 60.09375 8.796875 59.59375 7.203125 
C 59.09375 5.703125 58.796875 4.90625 53 4.90625 
L 44.90625 4.90625 
C 46 10.71875 48.40625 15.015625 52.59375 21.734375 
C 57.796875 30.234375 62.09375 37.140625 62.09375 45.46875 
C 62.09375 58.984375 49.296875 70 33.40625 70 
C 17.09375 70 4.59375 58.875 4.59375 45.46875 
C 4.59375 37.140625 9 30.03125 13.90625 22.125 
C 18.296875 15.015625 20.703125 10.71875 21.796875 4.90625 
L 13.703125 4.90625 
C 8 4.90625 7.703125 5.703125 7.203125 7.09375 
C 6.59375 8.703125 6.40625 10.015625 5.40625 14.609375 
L 3.59375 14.609375 
L 6.5 0 
L 21.59375 0 
C 23.703125 0 23.796875 0.09375 23.796875 1.59375 
C 23.796875 8.71875 20.09375 18.03125 18.40625 22.328125 
C 15.203125 30.140625 12.203125 37.75 12.203125 45.5625 
C 12.203125 60.484375 22.90625 68.390625 33.296875 68.390625 
C 44.203125 68.390625 54.5 60.171875 54.5 45.5625 
C 54.5 37.84375 51.796875 30.953125 48.09375 21.828125 
C 46.5 17.734375 42.90625 8.609375 42.90625 1.59375 
C 42.90625 0 43 0 45.09375 0 
L 60.203125 0 
z
" id="CMR17-10"/>
      <path d="M 28.703125 37.625 
L 45.296875 37.625 
C 46.59375 37.625 49.90625 37.625 49.90625 40.8125 
C 49.90625 43 48 43 46.203125 43 
L 18.703125 43 
C 16.40625 43 13 43 8.40625 38.125 
C 5.796875 35.234375 2.59375 29.953125 2.59375 29.359375 
C 2.59375 28.765625 3.09375 28.5625 3.703125 28.5625 
C 4.40625 28.5625 4.5 28.859375 5 29.453125 
C 10.203125 37.625 15.40625 37.625 17.90625 37.625 
L 26.203125 37.625 
L 15.796875 3.484375 
C 15.296875 1.984375 15.296875 1.78125 15.296875 1.484375 
C 15.296875 0.390625 16 -1 18 -1 
C 21.09375 -1 21.59375 1.6875 21.90625 3.171875 
z
" id="CMMI12-28"/>
      <path d="M 42.90625 71.28125 
C 42.90625 71.390625 43.5 72.90625 43.5 73.09375 
C 43.5 74.296875 42.5 75 41.703125 75 
C 41.203125 75 40.296875 75 39.5 72.796875 
L 6 -21.296875 
C 6 -21.40625 5.40625 -22.890625 5.40625 -23.09375 
C 5.40625 -24.296875 6.40625 -25 7.203125 -25 
C 7.796875 -25 8.703125 -24.890625 9.40625 -22.796875 
z
" id="CMMI12-61"/>
      <path d="M 25.90625 37.625 
L 37.203125 37.625 
C 34.5 26.4375 32.796875 19.15625 32.796875 11.1875 
C 32.796875 9.78125 32.796875 -1 36.90625 -1 
C 39 -1 40.796875 0.890625 40.796875 2.59375 
C 40.796875 3.078125 40.796875 3.28125 40.09375 4.78125 
C 37.40625 11.671875 37.40625 20.25 37.40625 20.953125 
C 37.40625 21.546875 37.40625 28.625 39.5 37.625 
L 50.703125 37.625 
C 52 37.625 55.296875 37.625 55.296875 40.8125 
C 55.296875 43 53.40625 43 51.59375 43 
L 18.703125 43 
C 16.40625 43 13 43 8.40625 38.125 
C 5.796875 35.21875 2.59375 29.9375 2.59375 29.34375 
C 2.59375 28.75 3.09375 28.546875 3.703125 28.546875 
C 4.40625 28.546875 4.5 28.84375 5 29.4375 
C 10.203125 37.625 15.40625 37.625 17.90625 37.625 
L 23.59375 37.625 
C 21.40625 30.140625 18.90625 21.453125 10.703125 4 
C 9.90625 2.40625 9.90625 2.1875 9.90625 1.59375 
C 9.90625 -0.5 11.703125 -1 12.59375 -1 
C 15.5 -1 16.296875 1.59375 17.5 5.78125 
C 19.09375 10.875 19.09375 11.078125 20.09375 15.0625 
z
" id="CMMI12-25"/>
     </defs>
     <g transform="translate(657.059265 716.128984)scale(0.6 -0.6)">
      <use transform="scale(0.996264)" xlink:href="#CMR17-10"/>
      <use transform="translate(66.509881 0)scale(0.996264)" xlink:href="#CMMI12-28"/>
      <use transform="translate(120.001046 0)scale(0.996264)" xlink:href="#CMMI12-61"/>
      <use transform="translate(168.775965 0)scale(0.996264)" xlink:href="#CMR17-50"/>
      <use transform="translate(214.466442 0)scale(0.996264)" xlink:href="#CMMI12-25"/>
     </g>
    </g>
   </g>
   <g id="matplotlib.axis_2">
    <g id="ytick_1">
     <g id="line2d_13">
      <path clip-path="url(#p389b224911)" d="M 180 559.51011 
L 1296 559.51011 
" style="fill:none;stroke:#b0b0b0;stroke-linecap:square;stroke-width:0.8;"/>
     </g>
     <g id="line2d_14">
      <defs>
       <path d="M 0 0 
L -3.5 0 
" id="mb843d971a3" style="stroke:#000000;stroke-width:0.8;"/>
      </defs>
      <g>
       <use style="stroke:#000000;stroke-width:0.8;" x="180" xlink:href="#mb843d971a3" y="559.51011"/>
      </g>
     </g>
     <g id="text_8">
      <!-- $-0.2$ -->
      <defs>
       <path d="M 65.90625 23 
C 67.59375 23 69.40625 23 69.40625 25 
C 69.40625 27 67.59375 27 65.90625 27 
L 11.796875 27 
C 10.09375 27 8.296875 27 8.296875 25 
C 8.296875 23 10.09375 23 11.796875 23 
z
" id="CMSY10-0"/>
       <path d="M 18.40625 4.796875 
C 18.40625 7.6875 16 9.671875 13.59375 9.671875 
C 10.703125 9.671875 8.703125 7.28125 8.703125 4.890625 
C 8.703125 2 11.09375 0 13.5 0 
C 16.40625 0 18.40625 2.390625 18.40625 4.796875 
z
" id="CMMI12-58"/>
      </defs>
      <g transform="translate(106.912051 571.617486)scale(0.35 -0.35)">
       <use transform="scale(0.996264)" xlink:href="#CMSY10-0"/>
       <use transform="translate(77.487468 0)scale(0.996264)" xlink:href="#CMR17-48"/>
       <use transform="translate(123.177945 0)scale(0.996264)" xlink:href="#CMMI12-58"/>
       <use transform="translate(150.275122 0)scale(0.996264)" xlink:href="#CMR17-50"/>
      </g>
     </g>
    </g>
    <g id="ytick_2">
     <g id="line2d_15">
      <path clip-path="url(#p389b224911)" d="M 180 429.149127 
L 1296 429.149127 
" style="fill:none;stroke:#b0b0b0;stroke-linecap:square;stroke-width:0.8;"/>
     </g>
     <g id="line2d_16">
      <g>
       <use style="stroke:#000000;stroke-width:0.8;" x="180" xlink:href="#mb843d971a3" y="429.149127"/>
      </g>
     </g>
     <g id="text_9">
      <!-- $-0.1$ -->
      <g transform="translate(106.912051 441.256503)scale(0.35 -0.35)">
       <use transform="scale(0.996264)" xlink:href="#CMSY10-0"/>
       <use transform="translate(77.487468 0)scale(0.996264)" xlink:href="#CMR17-48"/>
       <use transform="translate(123.177945 0)scale(0.996264)" xlink:href="#CMMI12-58"/>
       <use transform="translate(150.275122 0)scale(0.996264)" xlink:href="#CMR17-49"/>
      </g>
     </g>
    </g>
    <g id="ytick_3">
     <g id="line2d_17">
      <path clip-path="url(#p389b224911)" d="M 180 298.788144 
L 1296 298.788144 
" style="fill:none;stroke:#b0b0b0;stroke-linecap:square;stroke-width:0.8;"/>
     </g>
     <g id="line2d_18">
      <g>
       <use style="stroke:#000000;stroke-width:0.8;" x="180" xlink:href="#mb843d971a3" y="298.788144"/>
      </g>
     </g>
     <g id="text_10">
      <!-- $0.0$ -->
      <g transform="translate(134.032654 310.89552)scale(0.35 -0.35)">
       <use transform="scale(0.996264)" xlink:href="#CMR17-48"/>
       <use transform="translate(45.690477 0)scale(0.996264)" xlink:href="#CMMI12-58"/>
       <use transform="translate(72.787654 0)scale(0.996264)" xlink:href="#CMR17-48"/>
      </g>
     </g>
    </g>
    <g id="ytick_4">
     <g id="line2d_19">
      <path clip-path="url(#p389b224911)" d="M 180 168.427161 
L 1296 168.427161 
" style="fill:none;stroke:#b0b0b0;stroke-linecap:square;stroke-width:0.8;"/>
     </g>
     <g id="line2d_20">
      <g>
       <use style="stroke:#000000;stroke-width:0.8;" x="180" xlink:href="#mb843d971a3" y="168.427161"/>
      </g>
     </g>
     <g id="text_11">
      <!-- $0.1$ -->
      <g transform="translate(134.032654 180.534537)scale(0.35 -0.35)">
       <use transform="scale(0.996264)" xlink:href="#CMR17-48"/>
       <use transform="translate(45.690477 0)scale(0.996264)" xlink:href="#CMMI12-58"/>
       <use transform="translate(72.787654 0)scale(0.996264)" xlink:href="#CMR17-49"/>
      </g>
     </g>
    </g>
    <g id="text_12">
     <!-- $\frac{2\pi\sigma}{\omega}$\\[33pt] $\frac{\gamma}{\omega}$ -->
     <defs>
      <path d="M 50.796875 37.625 
C 52.09375 37.625 55.40625 37.625 55.40625 40.8125 
C 55.40625 43 53.5 43 51.703125 43 
L 29.59375 43 
C 14.59375 43 3.796875 26.34375 3.796875 14.5625 
C 3.796875 6.09375 9.296875 -1 18.296875 -1 
C 30.09375 -1 43 11.671875 43 26.640625 
C 43 30.53125 42.09375 34.3125 39.703125 37.625 
z
M 18.40625 1 
C 13.296875 1 9.59375 4.890625 9.59375 11.78125 
C 9.59375 17.765625 13.203125 37.625 27.90625 37.625 
C 32.203125 37.625 37 35.53125 37 27.828125 
C 37 24.34375 35.40625 15.953125 31.90625 10.1875 
C 28.296875 4.296875 22.90625 1 18.40625 1 
z
" id="CMMI12-27"/>
      <path d="M 59.40625 37.421875 
C 59.40625 40.3125 58.59375 44 55.09375 44 
C 53.09375 44 50.796875 41.515625 50.796875 39.515625 
C 50.796875 38.625 51.203125 38.03125 52 37.125 
C 53.5 35.4375 55.40625 32.75 55.40625 28.078125 
C 55.40625 24.484375 53.203125 18.8125 51.59375 15.734375 
C 48.796875 10.25 44.203125 5.578125 39 5.578125 
C 32.703125 5.578125 30.296875 9.609375 29.203125 15.234375 
C 30.296875 17.859375 32.59375 24.375 32.59375 27 
C 32.59375 28.09375 32.203125 29 30.90625 29 
C 30.203125 29 29.40625 28.609375 28.90625 27.796875 
C 27.5 25.59375 26.203125 17.640625 26.296875 15.53125 
C 24.40625 11.8125 19 5.578125 12.59375 5.578125 
C 5.90625 5.578125 4.09375 11.453125 4.09375 17.125 
C 4.09375 27.46875 10.59375 36.53125 12.40625 39.015625 
C 13.40625 40.515625 14.09375 41.515625 14.09375 41.703125 
C 14.09375 42.40625 13.703125 43.5 12.796875 43.5 
C 11.203125 43.5 10.703125 42.203125 9.90625 41.015625 
C 4.796875 33.140625 1.203125 22.09375 1.203125 12.546875 
C 1.203125 6.375 3.5 -1 11 -1 
C 19.296875 -1 24.5 6.109375 26.59375 9.90625 
C 27.40625 4.296875 30.40625 -1 37.703125 -1 
C 45.296875 -1 50.09375 5.671875 53.703125 13.734375 
C 56.296875 19.515625 59.40625 31.953125 59.40625 37.421875 
z
" id="CMMI12-33"/>
      <path d="M 37.796875 11.875 
C 37.59375 16.734375 37.40625 24.390625 33.59375 33.328125 
C 31.59375 38.3125 28.203125 43.5625 20.90625 43.5625 
C 8.59375 43.5625 1.90625 27.96875 1.90625 25.390625 
C 1.90625 24.484375 2.59375 24.484375 2.90625 24.484375 
C 3.796875 24.484375 3.796875 24.6875 4.296875 25.984375 
C 6.40625 32.140625 12.796875 37 19.703125 37 
C 33.59375 37 35.59375 21.609375 35.59375 11.78125 
C 35.59375 5.5 34.90625 3.4375 34.296875 1.4375 
C 32.40625 -4.71875 29.09375 -17.03125 29.09375 -19.8125 
C 29.09375 -20.609375 29.40625 -21.5 30.203125 -21.5 
C 31.703125 -21.5 32.59375 -18.21875 33.703125 -14.25 
C 36.09375 -5.515625 36.703125 -1.140625 37.203125 2.828125 
C 37.5 5.21875 43.203125 21.625 51.09375 37.21875 
C 51.796875 38.796875 53.203125 41.484375 53.203125 41.78125 
C 53.203125 41.875 53.09375 42.578125 52.203125 42.578125 
C 52 42.578125 51.5 42.578125 51.296875 42.171875 
C 51.09375 41.984375 47.59375 35.21875 44.59375 28.46875 
C 43.09375 25.09375 41.09375 20.625 37.796875 11.875 
z
" id="CMMI12-13"/>
     </defs>
     <g transform="translate(20.763006 347.12855)scale(0.85 -0.85)">
      <use transform="translate(14.94396 216.279984)scale(0.697382)" xlink:href="#CMR17-50"/>
      <use transform="translate(46.927142 216.279984)scale(0.697382)" xlink:href="#CMMI12-25"/>
      <use transform="translate(88.164363 216.279984)scale(0.697382)" xlink:href="#CMMI12-27"/>
      <use transform="translate(49.699765 142.69863)scale(0.697382)" xlink:href="#CMMI12-33"/>
      <use transform="translate(2.904924 78.799427)scale(0.697382)" xlink:href="#CMMI12-13"/>
      <use transform="scale(0.697382)" xlink:href="#CMMI12-33"/>
      <path d="M 14.94396 199.968015 
L 129.478202 199.968015 
L 129.478202 203.952965 
L 14.94396 203.952965 
L 14.94396 199.968015 
z
"/>
      <path d="M 0 57.269386 
L 45.022632 57.269386 
L 45.022632 61.254336 
L 0 61.254336 
L 0 57.269386 
z
"/>
     </g>
    </g>
   </g>
   <g id="line2d_21">
    <path clip-path="url(#p389b224911)" d="M 180 298.788144 
L 1296 298.788144 
" style="fill:none;stroke:#008000;stroke-linecap:square;stroke-width:3;"/>
   </g>
   <g id="line2d_22">
    <path clip-path="url(#p389b224911)" d="M 180 111.6 
L 180.894787 544.321731 
L 193.421807 547.531294 
L 205.054039 550.72702 
L 216.686271 554.156401 
L 227.423717 557.555656 
L 235.476801 560.269785 
L 236.371588 117.487045 
L 263.215201 119.893629 
L 290.953601 122.161924 
L 291.848388 580.476332 
L 299.901472 584.419546 
L 307.059769 588.175638 
L 314.218066 592.1995 
L 320.481576 595.968686 
L 326.745086 600.000446 
L 332.113808 603.692075 
L 337.482531 607.629705 
L 342.851254 611.845755 
L 347.325189 615.6 
L 348.219976 127.266217 
L 369.694867 128.69165 
L 369.694867 128.69165 
" style="fill:none;stroke:#0000ff;stroke-linecap:square;stroke-width:4;"/>
   </g>
   <g id="line2d_23">
    <defs>
     <path d="M 0 1 
C 0.265203 1 0.51958 0.894634 0.707107 0.707107 
C 0.894634 0.51958 1 0.265203 1 0 
C 1 -0.265203 0.894634 -0.51958 0.707107 -0.707107 
C 0.51958 -0.894634 0.265203 -1 0 -1 
C -0.265203 -1 -0.51958 -0.894634 -0.707107 -0.707107 
C -0.894634 -0.51958 -1 -0.265203 -1 0 
C -1 0.265203 -0.894634 0.51958 -0.707107 0.707107 
C -0.51958 0.894634 -0.265203 1 0 1 
z
" id="m4304ec137a" style="stroke:#008000;"/>
    </defs>
    <g clip-path="url(#p389b224911)">
     <use style="fill:#008000;stroke:#008000;" x="180" xlink:href="#m4304ec137a" y="298.788144"/>
     <use style="fill:#008000;stroke:#008000;" x="180.894787" xlink:href="#m4304ec137a" y="298.788144"/>
     <use style="fill:#008000;stroke:#008000;" x="181.789574" xlink:href="#m4304ec137a" y="298.788144"/>
     <use style="fill:#008000;stroke:#008000;" x="182.684361" xlink:href="#m4304ec137a" y="298.788144"/>
     <use style="fill:#008000;stroke:#008000;" x="183.579148" xlink:href="#m4304ec137a" y="298.788144"/>
     <use style="fill:#008000;stroke:#008000;" x="184.473936" xlink:href="#m4304ec137a" y="298.788144"/>
     <use style="fill:#008000;stroke:#008000;" x="185.368723" xlink:href="#m4304ec137a" y="298.788144"/>
     <use style="fill:#008000;stroke:#008000;" x="186.26351" xlink:href="#m4304ec137a" y="298.788144"/>
     <use style="fill:#008000;stroke:#008000;" x="187.158297" xlink:href="#m4304ec137a" y="298.788144"/>
     <use style="fill:#008000;stroke:#008000;" x="188.053084" xlink:href="#m4304ec137a" y="298.788144"/>
     <use style="fill:#008000;stroke:#008000;" x="188.947871" xlink:href="#m4304ec137a" y="298.788144"/>
     <use style="fill:#008000;stroke:#008000;" x="189.842658" xlink:href="#m4304ec137a" y="298.788144"/>
     <use style="fill:#008000;stroke:#008000;" x="190.737445" xlink:href="#m4304ec137a" y="298.788144"/>
     <use style="fill:#008000;stroke:#008000;" x="191.632232" xlink:href="#m4304ec137a" y="298.788144"/>
     <use style="fill:#008000;stroke:#008000;" x="192.52702" xlink:href="#m4304ec137a" y="298.788144"/>
     <use style="fill:#008000;stroke:#008000;" x="193.421807" xlink:href="#m4304ec137a" y="298.788144"/>
     <use style="fill:#008000;stroke:#008000;" x="194.316594" xlink:href="#m4304ec137a" y="298.788144"/>
     <use style="fill:#008000;stroke:#008000;" x="195.211381" xlink:href="#m4304ec137a" y="298.788144"/>
     <use style="fill:#008000;stroke:#008000;" x="196.106168" xlink:href="#m4304ec137a" y="298.788144"/>
     <use style="fill:#008000;stroke:#008000;" x="197.000955" xlink:href="#m4304ec137a" y="298.788144"/>
     <use style="fill:#008000;stroke:#008000;" x="197.895742" xlink:href="#m4304ec137a" y="298.788144"/>
     <use style="fill:#008000;stroke:#008000;" x="198.790529" xlink:href="#m4304ec137a" y="298.788144"/>
     <use style="fill:#008000;stroke:#008000;" x="199.685316" xlink:href="#m4304ec137a" y="298.788144"/>
     <use style="fill:#008000;stroke:#008000;" x="200.580103" xlink:href="#m4304ec137a" y="298.788144"/>
     <use style="fill:#008000;stroke:#008000;" x="201.474891" xlink:href="#m4304ec137a" y="298.788144"/>
     <use style="fill:#008000;stroke:#008000;" x="202.369678" xlink:href="#m4304ec137a" y="298.788144"/>
     <use style="fill:#008000;stroke:#008000;" x="203.264465" xlink:href="#m4304ec137a" y="298.788144"/>
     <use style="fill:#008000;stroke:#008000;" x="204.159252" xlink:href="#m4304ec137a" y="298.788144"/>
     <use style="fill:#008000;stroke:#008000;" x="205.054039" xlink:href="#m4304ec137a" y="298.788144"/>
     <use style="fill:#008000;stroke:#008000;" x="205.948826" xlink:href="#m4304ec137a" y="298.788144"/>
     <use style="fill:#008000;stroke:#008000;" x="206.843613" xlink:href="#m4304ec137a" y="298.788144"/>
     <use style="fill:#008000;stroke:#008000;" x="207.7384" xlink:href="#m4304ec137a" y="298.788144"/>
     <use style="fill:#008000;stroke:#008000;" x="208.633187" xlink:href="#m4304ec137a" y="298.788144"/>
     <use style="fill:#008000;stroke:#008000;" x="209.527975" xlink:href="#m4304ec137a" y="298.788144"/>
     <use style="fill:#008000;stroke:#008000;" x="210.422762" xlink:href="#m4304ec137a" y="298.788144"/>
     <use style="fill:#008000;stroke:#008000;" x="211.317549" xlink:href="#m4304ec137a" y="298.788144"/>
     <use style="fill:#008000;stroke:#008000;" x="212.212336" xlink:href="#m4304ec137a" y="298.788144"/>
     <use style="fill:#008000;stroke:#008000;" x="213.107123" xlink:href="#m4304ec137a" y="298.788144"/>
     <use style="fill:#008000;stroke:#008000;" x="214.00191" xlink:href="#m4304ec137a" y="298.788144"/>
     <use style="fill:#008000;stroke:#008000;" x="214.896697" xlink:href="#m4304ec137a" y="298.788144"/>
     <use style="fill:#008000;stroke:#008000;" x="215.791484" xlink:href="#m4304ec137a" y="298.788144"/>
     <use style="fill:#008000;stroke:#008000;" x="216.686271" xlink:href="#m4304ec137a" y="298.788144"/>
     <use style="fill:#008000;stroke:#008000;" x="217.581059" xlink:href="#m4304ec137a" y="298.788144"/>
     <use style="fill:#008000;stroke:#008000;" x="218.475846" xlink:href="#m4304ec137a" y="298.788144"/>
     <use style="fill:#008000;stroke:#008000;" x="219.370633" xlink:href="#m4304ec137a" y="298.788144"/>
     <use style="fill:#008000;stroke:#008000;" x="220.26542" xlink:href="#m4304ec137a" y="298.788144"/>
     <use style="fill:#008000;stroke:#008000;" x="221.160207" xlink:href="#m4304ec137a" y="298.788144"/>
     <use style="fill:#008000;stroke:#008000;" x="222.054994" xlink:href="#m4304ec137a" y="298.788144"/>
     <use style="fill:#008000;stroke:#008000;" x="222.949781" xlink:href="#m4304ec137a" y="298.788144"/>
     <use style="fill:#008000;stroke:#008000;" x="223.844568" xlink:href="#m4304ec137a" y="298.788144"/>
     <use style="fill:#008000;stroke:#008000;" x="224.739355" xlink:href="#m4304ec137a" y="298.788144"/>
     <use style="fill:#008000;stroke:#008000;" x="225.634142" xlink:href="#m4304ec137a" y="298.788144"/>
     <use style="fill:#008000;stroke:#008000;" x="226.52893" xlink:href="#m4304ec137a" y="298.788144"/>
     <use style="fill:#008000;stroke:#008000;" x="227.423717" xlink:href="#m4304ec137a" y="298.788144"/>
     <use style="fill:#008000;stroke:#008000;" x="228.318504" xlink:href="#m4304ec137a" y="298.788144"/>
     <use style="fill:#008000;stroke:#008000;" x="229.213291" xlink:href="#m4304ec137a" y="298.788144"/>
     <use style="fill:#008000;stroke:#008000;" x="230.108078" xlink:href="#m4304ec137a" y="298.788144"/>
     <use style="fill:#008000;stroke:#008000;" x="231.002865" xlink:href="#m4304ec137a" y="298.788144"/>
     <use style="fill:#008000;stroke:#008000;" x="231.897652" xlink:href="#m4304ec137a" y="298.788144"/>
     <use style="fill:#008000;stroke:#008000;" x="232.792439" xlink:href="#m4304ec137a" y="298.788144"/>
     <use style="fill:#008000;stroke:#008000;" x="233.687226" xlink:href="#m4304ec137a" y="298.788144"/>
     <use style="fill:#008000;stroke:#008000;" x="234.582014" xlink:href="#m4304ec137a" y="298.788144"/>
     <use style="fill:#008000;stroke:#008000;" x="235.476801" xlink:href="#m4304ec137a" y="298.788144"/>
     <use style="fill:#008000;stroke:#008000;" x="236.371588" xlink:href="#m4304ec137a" y="298.788144"/>
     <use style="fill:#008000;stroke:#008000;" x="237.266375" xlink:href="#m4304ec137a" y="298.788144"/>
     <use style="fill:#008000;stroke:#008000;" x="238.161162" xlink:href="#m4304ec137a" y="298.788144"/>
     <use style="fill:#008000;stroke:#008000;" x="239.055949" xlink:href="#m4304ec137a" y="298.788144"/>
     <use style="fill:#008000;stroke:#008000;" x="239.950736" xlink:href="#m4304ec137a" y="298.788144"/>
     <use style="fill:#008000;stroke:#008000;" x="240.845523" xlink:href="#m4304ec137a" y="298.788144"/>
     <use style="fill:#008000;stroke:#008000;" x="241.74031" xlink:href="#m4304ec137a" y="298.788144"/>
     <use style="fill:#008000;stroke:#008000;" x="242.635098" xlink:href="#m4304ec137a" y="298.788144"/>
     <use style="fill:#008000;stroke:#008000;" x="243.529885" xlink:href="#m4304ec137a" y="298.788144"/>
     <use style="fill:#008000;stroke:#008000;" x="244.424672" xlink:href="#m4304ec137a" y="298.788144"/>
     <use style="fill:#008000;stroke:#008000;" x="245.319459" xlink:href="#m4304ec137a" y="298.788144"/>
     <use style="fill:#008000;stroke:#008000;" x="246.214246" xlink:href="#m4304ec137a" y="298.788144"/>
     <use style="fill:#008000;stroke:#008000;" x="247.109033" xlink:href="#m4304ec137a" y="298.788144"/>
     <use style="fill:#008000;stroke:#008000;" x="248.00382" xlink:href="#m4304ec137a" y="298.788144"/>
     <use style="fill:#008000;stroke:#008000;" x="248.898607" xlink:href="#m4304ec137a" y="298.788144"/>
     <use style="fill:#008000;stroke:#008000;" x="249.793394" xlink:href="#m4304ec137a" y="298.788144"/>
     <use style="fill:#008000;stroke:#008000;" x="250.688182" xlink:href="#m4304ec137a" y="298.788144"/>
     <use style="fill:#008000;stroke:#008000;" x="251.582969" xlink:href="#m4304ec137a" y="298.788144"/>
     <use style="fill:#008000;stroke:#008000;" x="252.477756" xlink:href="#m4304ec137a" y="298.788144"/>
     <use style="fill:#008000;stroke:#008000;" x="253.372543" xlink:href="#m4304ec137a" y="298.788144"/>
     <use style="fill:#008000;stroke:#008000;" x="254.26733" xlink:href="#m4304ec137a" y="298.788144"/>
     <use style="fill:#008000;stroke:#008000;" x="255.162117" xlink:href="#m4304ec137a" y="298.788144"/>
     <use style="fill:#008000;stroke:#008000;" x="256.056904" xlink:href="#m4304ec137a" y="298.788144"/>
     <use style="fill:#008000;stroke:#008000;" x="256.951691" xlink:href="#m4304ec137a" y="298.788144"/>
     <use style="fill:#008000;stroke:#008000;" x="257.846478" xlink:href="#m4304ec137a" y="298.788144"/>
     <use style="fill:#008000;stroke:#008000;" x="258.741265" xlink:href="#m4304ec137a" y="298.788144"/>
     <use style="fill:#008000;stroke:#008000;" x="259.636053" xlink:href="#m4304ec137a" y="298.788144"/>
     <use style="fill:#008000;stroke:#008000;" x="260.53084" xlink:href="#m4304ec137a" y="298.788144"/>
     <use style="fill:#008000;stroke:#008000;" x="261.425627" xlink:href="#m4304ec137a" y="298.788144"/>
     <use style="fill:#008000;stroke:#008000;" x="262.320414" xlink:href="#m4304ec137a" y="298.788144"/>
     <use style="fill:#008000;stroke:#008000;" x="263.215201" xlink:href="#m4304ec137a" y="298.788144"/>
     <use style="fill:#008000;stroke:#008000;" x="264.109988" xlink:href="#m4304ec137a" y="298.788144"/>
     <use style="fill:#008000;stroke:#008000;" x="265.004775" xlink:href="#m4304ec137a" y="298.788144"/>
     <use style="fill:#008000;stroke:#008000;" x="265.899562" xlink:href="#m4304ec137a" y="298.788144"/>
     <use style="fill:#008000;stroke:#008000;" x="266.794349" xlink:href="#m4304ec137a" y="298.788144"/>
     <use style="fill:#008000;stroke:#008000;" x="267.689137" xlink:href="#m4304ec137a" y="298.788144"/>
     <use style="fill:#008000;stroke:#008000;" x="268.583924" xlink:href="#m4304ec137a" y="298.788144"/>
     <use style="fill:#008000;stroke:#008000;" x="269.478711" xlink:href="#m4304ec137a" y="298.788144"/>
     <use style="fill:#008000;stroke:#008000;" x="270.373498" xlink:href="#m4304ec137a" y="298.788144"/>
     <use style="fill:#008000;stroke:#008000;" x="271.268285" xlink:href="#m4304ec137a" y="298.788144"/>
     <use style="fill:#008000;stroke:#008000;" x="272.163072" xlink:href="#m4304ec137a" y="298.788144"/>
     <use style="fill:#008000;stroke:#008000;" x="273.057859" xlink:href="#m4304ec137a" y="298.788144"/>
     <use style="fill:#008000;stroke:#008000;" x="273.952646" xlink:href="#m4304ec137a" y="298.788144"/>
     <use style="fill:#008000;stroke:#008000;" x="274.847433" xlink:href="#m4304ec137a" y="298.788144"/>
     <use style="fill:#008000;stroke:#008000;" x="275.742221" xlink:href="#m4304ec137a" y="298.788144"/>
     <use style="fill:#008000;stroke:#008000;" x="276.637008" xlink:href="#m4304ec137a" y="298.788144"/>
     <use style="fill:#008000;stroke:#008000;" x="277.531795" xlink:href="#m4304ec137a" y="298.788144"/>
     <use style="fill:#008000;stroke:#008000;" x="278.426582" xlink:href="#m4304ec137a" y="298.788144"/>
     <use style="fill:#008000;stroke:#008000;" x="279.321369" xlink:href="#m4304ec137a" y="298.788144"/>
     <use style="fill:#008000;stroke:#008000;" x="280.216156" xlink:href="#m4304ec137a" y="298.788144"/>
     <use style="fill:#008000;stroke:#008000;" x="281.110943" xlink:href="#m4304ec137a" y="298.788144"/>
     <use style="fill:#008000;stroke:#008000;" x="282.00573" xlink:href="#m4304ec137a" y="298.788144"/>
     <use style="fill:#008000;stroke:#008000;" x="282.900517" xlink:href="#m4304ec137a" y="298.788144"/>
     <use style="fill:#008000;stroke:#008000;" x="283.795304" xlink:href="#m4304ec137a" y="298.788144"/>
     <use style="fill:#008000;stroke:#008000;" x="284.690092" xlink:href="#m4304ec137a" y="298.788144"/>
     <use style="fill:#008000;stroke:#008000;" x="285.584879" xlink:href="#m4304ec137a" y="298.788144"/>
     <use style="fill:#008000;stroke:#008000;" x="286.479666" xlink:href="#m4304ec137a" y="298.788144"/>
     <use style="fill:#008000;stroke:#008000;" x="287.374453" xlink:href="#m4304ec137a" y="298.788144"/>
     <use style="fill:#008000;stroke:#008000;" x="288.26924" xlink:href="#m4304ec137a" y="298.788144"/>
     <use style="fill:#008000;stroke:#008000;" x="289.164027" xlink:href="#m4304ec137a" y="298.788144"/>
     <use style="fill:#008000;stroke:#008000;" x="290.058814" xlink:href="#m4304ec137a" y="298.788144"/>
     <use style="fill:#008000;stroke:#008000;" x="290.953601" xlink:href="#m4304ec137a" y="298.788144"/>
     <use style="fill:#008000;stroke:#008000;" x="291.848388" xlink:href="#m4304ec137a" y="298.788144"/>
     <use style="fill:#008000;stroke:#008000;" x="292.743176" xlink:href="#m4304ec137a" y="298.788144"/>
     <use style="fill:#008000;stroke:#008000;" x="293.637963" xlink:href="#m4304ec137a" y="298.788144"/>
     <use style="fill:#008000;stroke:#008000;" x="294.53275" xlink:href="#m4304ec137a" y="298.788144"/>
     <use style="fill:#008000;stroke:#008000;" x="295.427537" xlink:href="#m4304ec137a" y="298.788144"/>
     <use style="fill:#008000;stroke:#008000;" x="296.322324" xlink:href="#m4304ec137a" y="298.788144"/>
     <use style="fill:#008000;stroke:#008000;" x="297.217111" xlink:href="#m4304ec137a" y="298.788144"/>
     <use style="fill:#008000;stroke:#008000;" x="298.111898" xlink:href="#m4304ec137a" y="298.788144"/>
     <use style="fill:#008000;stroke:#008000;" x="299.006685" xlink:href="#m4304ec137a" y="298.788144"/>
     <use style="fill:#008000;stroke:#008000;" x="299.901472" xlink:href="#m4304ec137a" y="298.788144"/>
     <use style="fill:#008000;stroke:#008000;" x="300.79626" xlink:href="#m4304ec137a" y="298.788144"/>
     <use style="fill:#008000;stroke:#008000;" x="301.691047" xlink:href="#m4304ec137a" y="298.788144"/>
     <use style="fill:#008000;stroke:#008000;" x="302.585834" xlink:href="#m4304ec137a" y="298.788144"/>
     <use style="fill:#008000;stroke:#008000;" x="303.480621" xlink:href="#m4304ec137a" y="298.788144"/>
     <use style="fill:#008000;stroke:#008000;" x="304.375408" xlink:href="#m4304ec137a" y="298.788144"/>
     <use style="fill:#008000;stroke:#008000;" x="305.270195" xlink:href="#m4304ec137a" y="298.788144"/>
     <use style="fill:#008000;stroke:#008000;" x="306.164982" xlink:href="#m4304ec137a" y="298.788144"/>
     <use style="fill:#008000;stroke:#008000;" x="307.059769" xlink:href="#m4304ec137a" y="298.788144"/>
     <use style="fill:#008000;stroke:#008000;" x="307.954556" xlink:href="#m4304ec137a" y="298.788144"/>
     <use style="fill:#008000;stroke:#008000;" x="308.849343" xlink:href="#m4304ec137a" y="298.788144"/>
     <use style="fill:#008000;stroke:#008000;" x="309.744131" xlink:href="#m4304ec137a" y="298.788144"/>
     <use style="fill:#008000;stroke:#008000;" x="310.638918" xlink:href="#m4304ec137a" y="298.788144"/>
     <use style="fill:#008000;stroke:#008000;" x="311.533705" xlink:href="#m4304ec137a" y="298.788144"/>
     <use style="fill:#008000;stroke:#008000;" x="312.428492" xlink:href="#m4304ec137a" y="298.788144"/>
     <use style="fill:#008000;stroke:#008000;" x="313.323279" xlink:href="#m4304ec137a" y="298.788144"/>
     <use style="fill:#008000;stroke:#008000;" x="314.218066" xlink:href="#m4304ec137a" y="298.788144"/>
     <use style="fill:#008000;stroke:#008000;" x="315.112853" xlink:href="#m4304ec137a" y="298.788144"/>
     <use style="fill:#008000;stroke:#008000;" x="316.00764" xlink:href="#m4304ec137a" y="298.788144"/>
     <use style="fill:#008000;stroke:#008000;" x="316.902427" xlink:href="#m4304ec137a" y="298.788144"/>
     <use style="fill:#008000;stroke:#008000;" x="317.797215" xlink:href="#m4304ec137a" y="298.788144"/>
     <use style="fill:#008000;stroke:#008000;" x="318.692002" xlink:href="#m4304ec137a" y="298.788144"/>
     <use style="fill:#008000;stroke:#008000;" x="319.586789" xlink:href="#m4304ec137a" y="298.788144"/>
     <use style="fill:#008000;stroke:#008000;" x="320.481576" xlink:href="#m4304ec137a" y="298.788144"/>
     <use style="fill:#008000;stroke:#008000;" x="321.376363" xlink:href="#m4304ec137a" y="298.788144"/>
     <use style="fill:#008000;stroke:#008000;" x="322.27115" xlink:href="#m4304ec137a" y="298.788144"/>
     <use style="fill:#008000;stroke:#008000;" x="323.165937" xlink:href="#m4304ec137a" y="298.788144"/>
     <use style="fill:#008000;stroke:#008000;" x="324.060724" xlink:href="#m4304ec137a" y="298.788144"/>
     <use style="fill:#008000;stroke:#008000;" x="324.955511" xlink:href="#m4304ec137a" y="298.788144"/>
     <use style="fill:#008000;stroke:#008000;" x="325.850299" xlink:href="#m4304ec137a" y="298.788144"/>
     <use style="fill:#008000;stroke:#008000;" x="326.745086" xlink:href="#m4304ec137a" y="298.788144"/>
     <use style="fill:#008000;stroke:#008000;" x="327.639873" xlink:href="#m4304ec137a" y="298.788144"/>
     <use style="fill:#008000;stroke:#008000;" x="328.53466" xlink:href="#m4304ec137a" y="298.788144"/>
     <use style="fill:#008000;stroke:#008000;" x="329.429447" xlink:href="#m4304ec137a" y="298.788144"/>
     <use style="fill:#008000;stroke:#008000;" x="330.324234" xlink:href="#m4304ec137a" y="298.788144"/>
     <use style="fill:#008000;stroke:#008000;" x="331.219021" xlink:href="#m4304ec137a" y="298.788144"/>
     <use style="fill:#008000;stroke:#008000;" x="332.113808" xlink:href="#m4304ec137a" y="298.788144"/>
     <use style="fill:#008000;stroke:#008000;" x="333.008595" xlink:href="#m4304ec137a" y="298.788144"/>
     <use style="fill:#008000;stroke:#008000;" x="333.903383" xlink:href="#m4304ec137a" y="298.788144"/>
     <use style="fill:#008000;stroke:#008000;" x="334.79817" xlink:href="#m4304ec137a" y="298.788144"/>
     <use style="fill:#008000;stroke:#008000;" x="335.692957" xlink:href="#m4304ec137a" y="298.788144"/>
     <use style="fill:#008000;stroke:#008000;" x="336.587744" xlink:href="#m4304ec137a" y="298.788144"/>
     <use style="fill:#008000;stroke:#008000;" x="337.482531" xlink:href="#m4304ec137a" y="298.788144"/>
     <use style="fill:#008000;stroke:#008000;" x="338.377318" xlink:href="#m4304ec137a" y="298.788144"/>
     <use style="fill:#008000;stroke:#008000;" x="339.272105" xlink:href="#m4304ec137a" y="298.788144"/>
     <use style="fill:#008000;stroke:#008000;" x="340.166892" xlink:href="#m4304ec137a" y="298.788144"/>
     <use style="fill:#008000;stroke:#008000;" x="341.061679" xlink:href="#m4304ec137a" y="298.788144"/>
     <use style="fill:#008000;stroke:#008000;" x="341.956466" xlink:href="#m4304ec137a" y="298.788144"/>
     <use style="fill:#008000;stroke:#008000;" x="342.851254" xlink:href="#m4304ec137a" y="298.788144"/>
     <use style="fill:#008000;stroke:#008000;" x="343.746041" xlink:href="#m4304ec137a" y="298.788144"/>
     <use style="fill:#008000;stroke:#008000;" x="344.640828" xlink:href="#m4304ec137a" y="298.788144"/>
     <use style="fill:#008000;stroke:#008000;" x="345.535615" xlink:href="#m4304ec137a" y="298.788144"/>
     <use style="fill:#008000;stroke:#008000;" x="346.430402" xlink:href="#m4304ec137a" y="298.788144"/>
     <use style="fill:#008000;stroke:#008000;" x="347.325189" xlink:href="#m4304ec137a" y="298.788144"/>
     <use style="fill:#008000;stroke:#008000;" x="348.219976" xlink:href="#m4304ec137a" y="298.788144"/>
     <use style="fill:#008000;stroke:#008000;" x="349.114763" xlink:href="#m4304ec137a" y="298.788144"/>
     <use style="fill:#008000;stroke:#008000;" x="350.00955" xlink:href="#m4304ec137a" y="298.788144"/>
     <use style="fill:#008000;stroke:#008000;" x="350.904338" xlink:href="#m4304ec137a" y="298.788144"/>
     <use style="fill:#008000;stroke:#008000;" x="351.799125" xlink:href="#m4304ec137a" y="298.788144"/>
     <use style="fill:#008000;stroke:#008000;" x="352.693912" xlink:href="#m4304ec137a" y="298.788144"/>
     <use style="fill:#008000;stroke:#008000;" x="353.588699" xlink:href="#m4304ec137a" y="298.788144"/>
     <use style="fill:#008000;stroke:#008000;" x="354.483486" xlink:href="#m4304ec137a" y="298.788144"/>
     <use style="fill:#008000;stroke:#008000;" x="355.378273" xlink:href="#m4304ec137a" y="298.788144"/>
     <use style="fill:#008000;stroke:#008000;" x="356.27306" xlink:href="#m4304ec137a" y="298.788144"/>
     <use style="fill:#008000;stroke:#008000;" x="357.167847" xlink:href="#m4304ec137a" y="298.788144"/>
     <use style="fill:#008000;stroke:#008000;" x="358.062634" xlink:href="#m4304ec137a" y="298.788144"/>
     <use style="fill:#008000;stroke:#008000;" x="358.957422" xlink:href="#m4304ec137a" y="298.788144"/>
     <use style="fill:#008000;stroke:#008000;" x="359.852209" xlink:href="#m4304ec137a" y="298.788144"/>
     <use style="fill:#008000;stroke:#008000;" x="360.746996" xlink:href="#m4304ec137a" y="298.788144"/>
     <use style="fill:#008000;stroke:#008000;" x="361.641783" xlink:href="#m4304ec137a" y="298.788144"/>
     <use style="fill:#008000;stroke:#008000;" x="362.53657" xlink:href="#m4304ec137a" y="298.788144"/>
     <use style="fill:#008000;stroke:#008000;" x="363.431357" xlink:href="#m4304ec137a" y="298.788144"/>
     <use style="fill:#008000;stroke:#008000;" x="364.326144" xlink:href="#m4304ec137a" y="298.788144"/>
     <use style="fill:#008000;stroke:#008000;" x="365.220931" xlink:href="#m4304ec137a" y="298.788144"/>
     <use style="fill:#008000;stroke:#008000;" x="366.115718" xlink:href="#m4304ec137a" y="298.788144"/>
     <use style="fill:#008000;stroke:#008000;" x="367.010505" xlink:href="#m4304ec137a" y="298.788144"/>
     <use style="fill:#008000;stroke:#008000;" x="367.905293" xlink:href="#m4304ec137a" y="298.788144"/>
     <use style="fill:#008000;stroke:#008000;" x="368.80008" xlink:href="#m4304ec137a" y="298.788144"/>
     <use style="fill:#008000;stroke:#008000;" x="369.694867" xlink:href="#m4304ec137a" y="298.788144"/>
    </g>
   </g>
   <g id="patch_3">
    <path d="M 180 640.8 
L 180 86.4 
" style="fill:none;stroke:#000000;stroke-linecap:square;stroke-linejoin:miter;stroke-width:0.8;"/>
   </g>
   <g id="patch_4">
    <path d="M 1296 640.8 
L 1296 86.4 
" style="fill:none;stroke:#000000;stroke-linecap:square;stroke-linejoin:miter;stroke-width:0.8;"/>
   </g>
   <g id="patch_5">
    <path d="M 180 640.8 
L 1296 640.8 
" style="fill:none;stroke:#000000;stroke-linecap:square;stroke-linejoin:miter;stroke-width:0.8;"/>
   </g>
   <g id="patch_6">
    <path d="M 180 86.4 
L 1296 86.4 
" style="fill:none;stroke:#000000;stroke-linecap:square;stroke-linejoin:miter;stroke-width:0.8;"/>
   </g>
   <g id="legend_1">
    <g id="patch_7">
     <path d="M 1032.714 207 
L 1189.146296 207 
Q 1196.346296 207 1196.346296 199.8 
L 1196.346296 85.550092 
Q 1196.346296 78.350092 1189.146296 78.350092 
L 1032.714 78.350092 
Q 1025.514 78.350092 1025.514 85.550092 
L 1025.514 199.8 
Q 1025.514 207 1032.714 207 
z
" style="fill:#ffffff;opacity:0.8;stroke:#cccccc;stroke-linejoin:miter;"/>
    </g>
    <g id="line2d_24">
     <path d="M 1039.914 115.846659 
L 1111.914 115.846659 
" style="fill:none;stroke:#0000ff;stroke-linecap:square;stroke-width:4;"/>
    </g>
    <g id="line2d_25"/>
    <g id="text_13">
     <!-- $\frac{2\pi\sigma}{\omega}$ -->
     <g transform="translate(1140.714 128.446659)scale(0.36 -0.36)">
      <use transform="translate(0 73.581354)scale(0.697382)" xlink:href="#CMR17-50"/>
      <use transform="translate(31.983182 73.581354)scale(0.697382)" xlink:href="#CMMI12-25"/>
      <use transform="translate(73.220403 73.581354)scale(0.697382)" xlink:href="#CMMI12-27"/>
      <use transform="translate(34.755805 0)scale(0.697382)" xlink:href="#CMMI12-33"/>
      <path d="M 0 57.269386 
L 114.534242 57.269386 
L 114.534242 61.254336 
L 0 61.254336 
L 0 57.269386 
z
"/>
     </g>
    </g>
    <g id="line2d_26"/>
    <g id="line2d_27">
     <g>
      <use style="fill:#008000;stroke:#008000;" x="1075.914" xlink:href="#m4304ec137a" y="173.023856"/>
     </g>
    </g>
    <g id="text_14">
     <!-- $\frac{\gamma}{\omega}$ -->
     <g transform="translate(1140.714 185.623856)scale(0.36 -0.36)">
      <use transform="translate(2.904924 78.799427)scale(0.697382)" xlink:href="#CMMI12-13"/>
      <use transform="scale(0.697382)" xlink:href="#CMMI12-33"/>
      <path d="M 0 57.269386 
L 45.022632 57.269386 
L 45.022632 61.254336 
L 0 61.254336 
L 0 57.269386 
z
"/>
     </g>
    </g>
   </g>
  </g>
 </g>
 <defs>
  <clipPath id="p389b224911">
   <rect height="554.4" width="1116" x="180" y="86.4"/>
  </clipPath>
 </defs>
</svg>
