<?xml version="1.0" encoding="utf-8" standalone="no"?>
<!DOCTYPE svg PUBLIC "-//W3C//DTD SVG 1.1//EN"
  "http://www.w3.org/Graphics/SVG/1.1/DTD/svg11.dtd">
<!-- Created with matplotlib (https://matplotlib.org/) -->
<svg height="720pt" version="1.1" viewBox="0 0 1440 720" width="1440pt" xmlns="http://www.w3.org/2000/svg" xmlns:xlink="http://www.w3.org/1999/xlink">
 <defs>
  <style type="text/css">
*{stroke-linecap:butt;stroke-linejoin:round;}
  </style>
 </defs>
 <g id="figure_1">
  <g id="patch_1">
   <path d="M 0 720 
L 1440 720 
L 1440 0 
L 0 0 
z
" style="fill:#ffffff;"/>
  </g>
  <g id="axes_1">
   <g id="patch_2">
    <path d="M 180 338.4 
L 1296 338.4 
L 1296 86.4 
L 180 86.4 
z
" style="fill:#ffffff;"/>
   </g>
   <g id="matplotlib.axis_1">
    <g id="xtick_1">
     <g id="line2d_1">
      <path clip-path="url(#pdb194ffb7c)" d="M 180 338.4 
L 180 86.4 
" style="fill:none;stroke:#b0b0b0;stroke-linecap:square;stroke-width:0.8;"/>
     </g>
     <g id="line2d_2">
      <defs>
       <path d="M 0 0 
L 0 3.5 
" id="m934813d994" style="stroke:#000000;stroke-width:0.8;"/>
      </defs>
      <g>
       <use style="stroke:#000000;stroke-width:0.8;" x="180" xlink:href="#m934813d994" y="338.4"/>
      </g>
     </g>
     <g id="text_1">
      <!-- $0$ -->
      <defs>
       <path d="M 42 31.640625 
C 42 37.75 41.90625 48.125 37.703125 56.109375 
C 34 63.109375 28.09375 65.59375 22.90625 65.59375 
C 18.09375 65.59375 12 63.40625 8.203125 56.203125 
C 4.203125 48.71875 3.796875 39.4375 3.796875 31.640625 
C 3.796875 25.953125 3.90625 17.28125 7 9.671875 
C 11.296875 -0.609375 19 -2 22.90625 -2 
C 27.5 -2 34.5 -0.109375 38.59375 9.375 
C 41.59375 16.28125 42 24.359375 42 31.640625 
z
M 22.90625 -0.40625 
C 16.5 -0.40625 12.703125 5.078125 11.296875 12.6875 
C 10.203125 18.5625 10.203125 27.15625 10.203125 32.75 
C 10.203125 40.4375 10.203125 46.828125 11.5 52.921875 
C 13.40625 61.390625 19 64 22.90625 64 
C 27 64 32.296875 61.296875 34.203125 53.125 
C 35.5 47.4375 35.59375 40.734375 35.59375 32.75 
C 35.59375 26.25 35.59375 18.265625 34.40625 12.375 
C 32.296875 1.484375 26.40625 -0.40625 22.90625 -0.40625 
z
" id="CMR17-48"/>
      </defs>
      <g transform="translate(172.004167 367.114752)scale(0.35 -0.35)">
       <use transform="scale(0.996264)" xlink:href="#CMR17-48"/>
      </g>
     </g>
    </g>
    <g id="xtick_2">
     <g id="line2d_3">
      <path clip-path="url(#pdb194ffb7c)" d="M 320.240696 338.4 
L 320.240696 86.4 
" style="fill:none;stroke:#b0b0b0;stroke-linecap:square;stroke-width:0.8;"/>
     </g>
     <g id="line2d_4">
      <g>
       <use style="stroke:#000000;stroke-width:0.8;" x="320.240696" xlink:href="#m934813d994" y="338.4"/>
      </g>
     </g>
     <g id="text_2">
      <!-- $1$ -->
      <defs>
       <path d="M 26.59375 63.40625 
C 26.59375 65.5 26.5 65.5 25.09375 65.5 
C 21.203125 61.1875 15.296875 59.796875 9.703125 59.796875 
C 9.40625 59.796875 8.90625 59.796875 8.796875 59.5 
C 8.703125 59.296875 8.703125 59.09375 8.703125 57 
C 11.796875 57 17 57.59375 21 59.984375 
L 21 7.203125 
C 21 3.6875 20.796875 2.5 12.203125 2.5 
L 9.203125 2.5 
L 9.203125 0 
C 14 0 19 0 23.796875 0 
C 28.59375 0 33.59375 0 38.40625 0 
L 38.40625 2.5 
L 35.40625 2.5 
C 26.796875 2.5 26.59375 3.59375 26.59375 7.15625 
z
" id="CMR17-49"/>
      </defs>
      <g transform="translate(312.244863 367.114752)scale(0.35 -0.35)">
       <use transform="scale(0.996264)" xlink:href="#CMR17-49"/>
      </g>
     </g>
    </g>
    <g id="xtick_3">
     <g id="line2d_5">
      <path clip-path="url(#pdb194ffb7c)" d="M 460.481392 338.4 
L 460.481392 86.4 
" style="fill:none;stroke:#b0b0b0;stroke-linecap:square;stroke-width:0.8;"/>
     </g>
     <g id="line2d_6">
      <g>
       <use style="stroke:#000000;stroke-width:0.8;" x="460.481392" xlink:href="#m934813d994" y="338.4"/>
      </g>
     </g>
     <g id="text_3">
      <!-- $2$ -->
      <defs>
       <path d="M 41.703125 15.453125 
L 39.90625 15.453125 
C 38.90625 8.375 38.09375 7.171875 37.703125 6.5625 
C 37.203125 5.765625 30 5.765625 28.59375 5.765625 
L 9.40625 5.765625 
C 13 9.671875 20 16.75 28.5 24.953125 
C 34.59375 30.734375 41.703125 37.53125 41.703125 47.421875 
C 41.703125 59.21875 32.296875 66 21.796875 66 
C 10.796875 66 4.09375 56.3125 4.09375 47.34375 
C 4.09375 43.4375 7 42.9375 8.203125 42.9375 
C 9.203125 42.9375 12.203125 43.546875 12.203125 47.03125 
C 12.203125 50.109375 9.59375 51 8.203125 51 
C 7.59375 51 7 50.90625 6.59375 50.703125 
C 8.5 59.21875 14.296875 63.40625 20.40625 63.40625 
C 29.09375 63.40625 34.796875 56.515625 34.796875 47.421875 
C 34.796875 38.734375 29.703125 31.25 24 24.75 
L 4.09375 2.28125 
L 4.09375 0 
L 39.296875 0 
z
" id="CMR17-50"/>
      </defs>
      <g transform="translate(452.485559 367.114752)scale(0.35 -0.35)">
       <use transform="scale(0.996264)" xlink:href="#CMR17-50"/>
      </g>
     </g>
    </g>
    <g id="xtick_4">
     <g id="line2d_7">
      <path clip-path="url(#pdb194ffb7c)" d="M 600.722088 338.4 
L 600.722088 86.4 
" style="fill:none;stroke:#b0b0b0;stroke-linecap:square;stroke-width:0.8;"/>
     </g>
     <g id="line2d_8">
      <g>
       <use style="stroke:#000000;stroke-width:0.8;" x="600.722088" xlink:href="#m934813d994" y="338.4"/>
      </g>
     </g>
     <g id="text_4">
      <!-- $3$ -->
      <defs>
       <path d="M 22.09375 33.703125 
C 31 33.703125 34.90625 25.96875 34.90625 17.03125 
C 34.90625 5 28.5 0.390625 22.703125 0.390625 
C 17.40625 0.390625 8.796875 3.03125 6.09375 10.828125 
C 6.59375 10.625 7.09375 10.625 7.59375 10.625 
C 10 10.625 11.796875 12.21875 11.796875 14.8125 
C 11.796875 17.703125 9.59375 19 7.59375 19 
C 5.90625 19 3.296875 18.203125 3.296875 14.46875 
C 3.296875 5.234375 12.296875 -2 22.90625 -2 
C 34 -2 42.5 6.71875 42.5 16.953125 
C 42.5 26.671875 34.5 33.703125 25 34.796875 
C 32.59375 36.375 39.90625 43.0625 39.90625 52.015625 
C 39.90625 59.6875 32 65.296875 23 65.296875 
C 13.90625 65.296875 5.90625 59.828125 5.90625 52.015625 
C 5.90625 48.59375 8.5 48 9.796875 48 
C 11.90625 48 13.703125 49.296875 13.703125 51.890625 
C 13.703125 54.46875 11.90625 55.765625 9.796875 55.765625 
C 9.40625 55.765625 8.90625 55.765625 8.5 55.578125 
C 11.40625 61.859375 19.296875 63 22.796875 63 
C 26.296875 63 32.90625 61.328125 32.90625 51.875 
C 32.90625 49.109375 32.5 44.1875 29.09375 39.84375 
C 26.09375 36 22.703125 36 19.40625 35.6875 
C 18.90625 35.6875 16.59375 35.453125 16.203125 35.453125 
C 15.5 35.359375 15.09375 35.265625 15.09375 34.5 
C 15.09375 33.796875 15.203125 33.703125 17.203125 33.703125 
z
" id="CMR17-51"/>
      </defs>
      <g transform="translate(592.726255 367.114752)scale(0.35 -0.35)">
       <use transform="scale(0.996264)" xlink:href="#CMR17-51"/>
      </g>
     </g>
    </g>
    <g id="xtick_5">
     <g id="line2d_9">
      <path clip-path="url(#pdb194ffb7c)" d="M 740.962784 338.4 
L 740.962784 86.4 
" style="fill:none;stroke:#b0b0b0;stroke-linecap:square;stroke-width:0.8;"/>
     </g>
     <g id="line2d_10">
      <g>
       <use style="stroke:#000000;stroke-width:0.8;" x="740.962784" xlink:href="#m934813d994" y="338.4"/>
      </g>
     </g>
     <g id="text_5">
      <!-- $4$ -->
      <defs>
       <path d="M 33.59375 64.40625 
C 33.59375 66.5 33.5 66.5 31.703125 66.5 
L 2 19.59375 
L 2 17 
L 27.796875 17 
L 27.796875 7.140625 
C 27.796875 3.5 27.59375 2.5 20.59375 2.5 
L 18.703125 2.5 
L 18.703125 0 
C 21.90625 0 27.296875 0 30.703125 0 
C 34.09375 0 39.5 0 42.703125 0 
L 42.703125 2.5 
L 40.796875 2.5 
C 33.796875 2.5 33.59375 3.5 33.59375 7.140625 
L 33.59375 17 
L 43.796875 17 
L 43.796875 19.59375 
L 33.59375 19.59375 
z
M 28.09375 57.859375 
L 28.09375 19.59375 
L 4 19.59375 
z
" id="CMR17-52"/>
      </defs>
      <g transform="translate(732.966951 367.114752)scale(0.35 -0.35)">
       <use transform="scale(0.996264)" xlink:href="#CMR17-52"/>
      </g>
     </g>
    </g>
    <g id="xtick_6">
     <g id="line2d_11">
      <path clip-path="url(#pdb194ffb7c)" d="M 881.20348 338.4 
L 881.20348 86.4 
" style="fill:none;stroke:#b0b0b0;stroke-linecap:square;stroke-width:0.8;"/>
     </g>
     <g id="line2d_12">
      <g>
       <use style="stroke:#000000;stroke-width:0.8;" x="881.20348" xlink:href="#m934813d994" y="338.4"/>
      </g>
     </g>
     <g id="text_6">
      <!-- $5$ -->
      <defs>
       <path d="M 11.40625 57.6875 
C 12.40625 57.28125 16.5 56 20.703125 56 
C 30 56 35.09375 61.109375 38 64.0625 
C 38 64.953125 38 65.5 37.40625 65.5 
C 37.296875 65.5 37.09375 65.5 36.296875 65.046875 
C 32.796875 63.40625 28.703125 62.078125 23.703125 62.078125 
C 20.703125 62.078125 16.203125 62.484375 11.296875 64.671875 
C 10.203125 65.171875 10 65.171875 9.90625 65.171875 
C 9.40625 65.171875 9.296875 65.0625 9.296875 63.078125 
L 9.296875 34.421875 
C 9.296875 32.640625 9.296875 32.140625 10.296875 32.140625 
C 10.796875 32.140625 11 32.34375 11.5 33.03125 
C 14.703125 37.515625 19.09375 39.40625 24.09375 39.40625 
C 27.59375 39.40625 35.09375 37.21875 35.09375 20.140625 
C 35.09375 16.953125 35.09375 11.171875 32.09375 6.578125 
C 29.59375 2.484375 25.703125 0.390625 21.40625 0.390625 
C 14.796875 0.390625 8.09375 5 6.296875 12.71875 
C 6.703125 12.609375 7.5 12.421875 7.90625 12.421875 
C 9.203125 12.421875 11.703125 13.125 11.703125 16.21875 
C 11.703125 18.90625 9.796875 20 7.90625 20 
C 5.59375 20 4.09375 18.59375 4.09375 15.796875 
C 4.09375 7.09375 11 -2 21.59375 -2 
C 31.90625 -2 41.703125 6.875 41.703125 19.75 
C 41.703125 31.71875 33.90625 41 24.203125 41 
C 19.09375 41 14.796875 39.109375 11.40625 35.53125 
z
" id="CMR17-53"/>
      </defs>
      <g transform="translate(873.207647 367.114752)scale(0.35 -0.35)">
       <use transform="scale(0.996264)" xlink:href="#CMR17-53"/>
      </g>
     </g>
    </g>
    <g id="xtick_7">
     <g id="line2d_13">
      <path clip-path="url(#pdb194ffb7c)" d="M 1021.444176 338.4 
L 1021.444176 86.4 
" style="fill:none;stroke:#b0b0b0;stroke-linecap:square;stroke-width:0.8;"/>
     </g>
     <g id="line2d_14">
      <g>
       <use style="stroke:#000000;stroke-width:0.8;" x="1021.444176" xlink:href="#m934813d994" y="338.4"/>
      </g>
     </g>
     <g id="text_7">
      <!-- $6$ -->
      <defs>
       <path d="M 10.59375 34 
C 10.59375 57.65625 21.796875 63 28.296875 63 
C 30.40625 63 35.5 62.640625 37.5 59 
C 35.90625 59 32.90625 59 32.90625 55.515625 
C 32.90625 52.828125 35.09375 51.921875 36.5 51.921875 
C 37.40625 51.921875 40.09375 52.3125 40.09375 55.625 
C 40.09375 61.78125 35.09375 65.296875 28.203125 65.296875 
C 16.296875 65.296875 3.796875 52.96875 3.796875 31 
C 3.796875 3.953125 15.09375 -2 23.09375 -2 
C 32.796875 -2 42 6.671875 42 20.046875 
C 42 32.515625 33.90625 41.59375 23.703125 41.59375 
C 17.59375 41.59375 13.09375 37.609375 10.59375 30.625 
z
M 23.09375 0.390625 
C 10.796875 0.390625 10.796875 18.75 10.796875 22.4375 
C 10.796875 29.625 14.203125 40 23.5 40 
C 25.203125 40 30.09375 40 33.40625 33.125 
C 35.203125 29.21875 35.203125 25.140625 35.203125 20.140625 
C 35.203125 14.75 35.203125 10.78125 33.09375 6.78125 
C 30.90625 2.671875 27.703125 0.390625 23.09375 0.390625 
z
" id="CMR17-54"/>
      </defs>
      <g transform="translate(1013.448343 367.114752)scale(0.35 -0.35)">
       <use transform="scale(0.996264)" xlink:href="#CMR17-54"/>
      </g>
     </g>
    </g>
    <g id="xtick_8">
     <g id="line2d_15">
      <path clip-path="url(#pdb194ffb7c)" d="M 1161.684872 338.4 
L 1161.684872 86.4 
" style="fill:none;stroke:#b0b0b0;stroke-linecap:square;stroke-width:0.8;"/>
     </g>
     <g id="line2d_16">
      <g>
       <use style="stroke:#000000;stroke-width:0.8;" x="1161.684872" xlink:href="#m934813d994" y="338.4"/>
      </g>
     </g>
     <g id="text_8">
      <!-- $7$ -->
      <defs>
       <path d="M 45.09375 61.578125 
L 45.09375 63.765625 
L 21.59375 63.765625 
C 9.90625 63.765625 9.703125 65.078125 9.296875 67 
L 7.5 67 
L 4.59375 48.34375 
L 6.40625 48.34375 
C 6.703125 50.234375 7.40625 55.3125 8.59375 57.203125 
C 9.203125 58 16.59375 58 18.296875 58 
L 40.296875 58 
L 29.203125 41.578125 
C 21.796875 30.53125 16.703125 15.609375 16.703125 2.578125 
C 16.703125 1.390625 16.703125 -2 20.296875 -2 
C 23.90625 -2 23.90625 1.390625 23.90625 2.671875 
L 23.90625 7.265625 
C 23.90625 23.5625 26.703125 34.3125 31.296875 41.1875 
z
" id="CMR17-55"/>
      </defs>
      <g transform="translate(1153.689039 367.114752)scale(0.35 -0.35)">
       <use transform="scale(0.996264)" xlink:href="#CMR17-55"/>
      </g>
     </g>
    </g>
    <g id="text_9">
     <!-- $\Omega\tau/2\pi$ -->
     <defs>
      <path d="M 63.09375 14.609375 
L 61.296875 14.609375 
C 60.40625 10.015625 60.09375 8.796875 59.59375 7.203125 
C 59.09375 5.703125 58.796875 4.90625 53 4.90625 
L 44.90625 4.90625 
C 46 10.71875 48.40625 15.015625 52.59375 21.734375 
C 57.796875 30.234375 62.09375 37.140625 62.09375 45.46875 
C 62.09375 58.984375 49.296875 70 33.40625 70 
C 17.09375 70 4.59375 58.875 4.59375 45.46875 
C 4.59375 37.140625 9 30.03125 13.90625 22.125 
C 18.296875 15.015625 20.703125 10.71875 21.796875 4.90625 
L 13.703125 4.90625 
C 8 4.90625 7.703125 5.703125 7.203125 7.09375 
C 6.59375 8.703125 6.40625 10.015625 5.40625 14.609375 
L 3.59375 14.609375 
L 6.5 0 
L 21.59375 0 
C 23.703125 0 23.796875 0.09375 23.796875 1.59375 
C 23.796875 8.71875 20.09375 18.03125 18.40625 22.328125 
C 15.203125 30.140625 12.203125 37.75 12.203125 45.5625 
C 12.203125 60.484375 22.90625 68.390625 33.296875 68.390625 
C 44.203125 68.390625 54.5 60.171875 54.5 45.5625 
C 54.5 37.84375 51.796875 30.953125 48.09375 21.828125 
C 46.5 17.734375 42.90625 8.609375 42.90625 1.59375 
C 42.90625 0 43 0 45.09375 0 
L 60.203125 0 
z
" id="CMR17-10"/>
      <path d="M 28.703125 37.625 
L 45.296875 37.625 
C 46.59375 37.625 49.90625 37.625 49.90625 40.8125 
C 49.90625 43 48 43 46.203125 43 
L 18.703125 43 
C 16.40625 43 13 43 8.40625 38.125 
C 5.796875 35.234375 2.59375 29.953125 2.59375 29.359375 
C 2.59375 28.765625 3.09375 28.5625 3.703125 28.5625 
C 4.40625 28.5625 4.5 28.859375 5 29.453125 
C 10.203125 37.625 15.40625 37.625 17.90625 37.625 
L 26.203125 37.625 
L 15.796875 3.484375 
C 15.296875 1.984375 15.296875 1.78125 15.296875 1.484375 
C 15.296875 0.390625 16 -1 18 -1 
C 21.09375 -1 21.59375 1.6875 21.90625 3.171875 
z
" id="CMMI12-28"/>
      <path d="M 42.90625 71.28125 
C 42.90625 71.390625 43.5 72.90625 43.5 73.09375 
C 43.5 74.296875 42.5 75 41.703125 75 
C 41.203125 75 40.296875 75 39.5 72.796875 
L 6 -21.296875 
C 6 -21.40625 5.40625 -22.890625 5.40625 -23.09375 
C 5.40625 -24.296875 6.40625 -25 7.203125 -25 
C 7.796875 -25 8.703125 -24.890625 9.40625 -22.796875 
z
" id="CMMI12-61"/>
      <path d="M 25.90625 37.625 
L 37.203125 37.625 
C 34.5 26.4375 32.796875 19.15625 32.796875 11.1875 
C 32.796875 9.78125 32.796875 -1 36.90625 -1 
C 39 -1 40.796875 0.890625 40.796875 2.59375 
C 40.796875 3.078125 40.796875 3.28125 40.09375 4.78125 
C 37.40625 11.671875 37.40625 20.25 37.40625 20.953125 
C 37.40625 21.546875 37.40625 28.625 39.5 37.625 
L 50.703125 37.625 
C 52 37.625 55.296875 37.625 55.296875 40.8125 
C 55.296875 43 53.40625 43 51.59375 43 
L 18.703125 43 
C 16.40625 43 13 43 8.40625 38.125 
C 5.796875 35.21875 2.59375 29.9375 2.59375 29.34375 
C 2.59375 28.75 3.09375 28.546875 3.703125 28.546875 
C 4.40625 28.546875 4.5 28.84375 5 29.4375 
C 10.203125 37.625 15.40625 37.625 17.90625 37.625 
L 23.59375 37.625 
C 21.40625 30.140625 18.90625 21.453125 10.703125 4 
C 9.90625 2.40625 9.90625 2.1875 9.90625 1.59375 
C 9.90625 -0.5 11.703125 -1 12.59375 -1 
C 15.5 -1 16.296875 1.59375 17.5 5.78125 
C 19.09375 10.875 19.09375 11.078125 20.09375 15.0625 
z
" id="CMMI12-25"/>
     </defs>
     <g transform="translate(657.059265 413.728984)scale(0.6 -0.6)">
      <use transform="scale(0.996264)" xlink:href="#CMR17-10"/>
      <use transform="translate(66.509881 0)scale(0.996264)" xlink:href="#CMMI12-28"/>
      <use transform="translate(120.001046 0)scale(0.996264)" xlink:href="#CMMI12-61"/>
      <use transform="translate(168.775965 0)scale(0.996264)" xlink:href="#CMR17-50"/>
      <use transform="translate(214.466442 0)scale(0.996264)" xlink:href="#CMMI12-25"/>
     </g>
    </g>
   </g>
   <g id="matplotlib.axis_2">
    <g id="ytick_1">
     <g id="line2d_17">
      <path clip-path="url(#pdb194ffb7c)" d="M 180 276.821992 
L 1296 276.821992 
" style="fill:none;stroke:#b0b0b0;stroke-linecap:square;stroke-width:0.8;"/>
     </g>
     <g id="line2d_18">
      <defs>
       <path d="M 0 0 
L -3.5 0 
" id="m04fad8f8ac" style="stroke:#000000;stroke-width:0.8;"/>
      </defs>
      <g>
       <use style="stroke:#000000;stroke-width:0.8;" x="180" xlink:href="#m04fad8f8ac" y="276.821992"/>
      </g>
     </g>
     <g id="text_10">
      <!-- $0.0$ -->
      <defs>
       <path d="M 18.40625 4.796875 
C 18.40625 7.6875 16 9.671875 13.59375 9.671875 
C 10.703125 9.671875 8.703125 7.28125 8.703125 4.890625 
C 8.703125 2 11.09375 0 13.5 0 
C 16.40625 0 18.40625 2.390625 18.40625 4.796875 
z
" id="CMMI12-58"/>
      </defs>
      <g transform="translate(134.032654 288.929368)scale(0.35 -0.35)">
       <use transform="scale(0.996264)" xlink:href="#CMR17-48"/>
       <use transform="translate(45.690477 0)scale(0.996264)" xlink:href="#CMMI12-58"/>
       <use transform="translate(72.787654 0)scale(0.996264)" xlink:href="#CMR17-48"/>
      </g>
     </g>
    </g>
    <g id="ytick_2">
     <g id="line2d_19">
      <path clip-path="url(#pdb194ffb7c)" d="M 180 128.860202 
L 1296 128.860202 
" style="fill:none;stroke:#b0b0b0;stroke-linecap:square;stroke-width:0.8;"/>
     </g>
     <g id="line2d_20">
      <g>
       <use style="stroke:#000000;stroke-width:0.8;" x="180" xlink:href="#m04fad8f8ac" y="128.860202"/>
      </g>
     </g>
     <g id="text_11">
      <!-- $0.5$ -->
      <g transform="translate(134.032654 140.967578)scale(0.35 -0.35)">
       <use transform="scale(0.996264)" xlink:href="#CMR17-48"/>
       <use transform="translate(45.690477 0)scale(0.996264)" xlink:href="#CMMI12-58"/>
       <use transform="translate(72.787654 0)scale(0.996264)" xlink:href="#CMR17-53"/>
      </g>
     </g>
    </g>
    <g id="text_12">
     <!--  $\frac{ 2\pi\sigma}{\omega}$,  $\frac{\gamma}{\omega}$  -->
     <defs>
      <path d="M 50.796875 37.625 
C 52.09375 37.625 55.40625 37.625 55.40625 40.8125 
C 55.40625 43 53.5 43 51.703125 43 
L 29.59375 43 
C 14.59375 43 3.796875 26.34375 3.796875 14.5625 
C 3.796875 6.09375 9.296875 -1 18.296875 -1 
C 30.09375 -1 43 11.671875 43 26.640625 
C 43 30.53125 42.09375 34.3125 39.703125 37.625 
z
M 18.40625 1 
C 13.296875 1 9.59375 4.890625 9.59375 11.78125 
C 9.59375 17.765625 13.203125 37.625 27.90625 37.625 
C 32.203125 37.625 37 35.53125 37 27.828125 
C 37 24.34375 35.40625 15.953125 31.90625 10.1875 
C 28.296875 4.296875 22.90625 1 18.40625 1 
z
" id="CMMI12-27"/>
      <path d="M 59.40625 37.421875 
C 59.40625 40.3125 58.59375 44 55.09375 44 
C 53.09375 44 50.796875 41.515625 50.796875 39.515625 
C 50.796875 38.625 51.203125 38.03125 52 37.125 
C 53.5 35.4375 55.40625 32.75 55.40625 28.078125 
C 55.40625 24.484375 53.203125 18.8125 51.59375 15.734375 
C 48.796875 10.25 44.203125 5.578125 39 5.578125 
C 32.703125 5.578125 30.296875 9.609375 29.203125 15.234375 
C 30.296875 17.859375 32.59375 24.375 32.59375 27 
C 32.59375 28.09375 32.203125 29 30.90625 29 
C 30.203125 29 29.40625 28.609375 28.90625 27.796875 
C 27.5 25.59375 26.203125 17.640625 26.296875 15.53125 
C 24.40625 11.8125 19 5.578125 12.59375 5.578125 
C 5.90625 5.578125 4.09375 11.453125 4.09375 17.125 
C 4.09375 27.46875 10.59375 36.53125 12.40625 39.015625 
C 13.40625 40.515625 14.09375 41.515625 14.09375 41.703125 
C 14.09375 42.40625 13.703125 43.5 12.796875 43.5 
C 11.203125 43.5 10.703125 42.203125 9.90625 41.015625 
C 4.796875 33.140625 1.203125 22.09375 1.203125 12.546875 
C 1.203125 6.375 3.5 -1 11 -1 
C 19.296875 -1 24.5 6.109375 26.59375 9.90625 
C 27.40625 4.296875 30.40625 -1 37.703125 -1 
C 45.296875 -1 50.09375 5.671875 53.703125 13.734375 
C 56.296875 19.515625 59.40625 31.953125 59.40625 37.421875 
z
" id="CMMI12-33"/>
      <path d="M 17 0.09375 
L 17 7.96875 
L 9 7.96875 
L 9 0 
L 11.5 0 
L 8.90625 -12.5 
L 12.90625 -12.5 
z
" id="CMSS17-44"/>
      <path d="M 37.796875 11.875 
C 37.59375 16.734375 37.40625 24.390625 33.59375 33.328125 
C 31.59375 38.3125 28.203125 43.5625 20.90625 43.5625 
C 8.59375 43.5625 1.90625 27.96875 1.90625 25.390625 
C 1.90625 24.484375 2.59375 24.484375 2.90625 24.484375 
C 3.796875 24.484375 3.796875 24.6875 4.296875 25.984375 
C 6.40625 32.140625 12.796875 37 19.703125 37 
C 33.59375 37 35.59375 21.609375 35.59375 11.78125 
C 35.59375 5.5 34.90625 3.4375 34.296875 1.4375 
C 32.40625 -4.71875 29.09375 -17.03125 29.09375 -19.8125 
C 29.09375 -20.609375 29.40625 -21.5 30.203125 -21.5 
C 31.703125 -21.5 32.59375 -18.21875 33.703125 -14.25 
C 36.09375 -5.515625 36.703125 -1.140625 37.203125 2.828125 
C 37.5 5.21875 43.203125 21.625 51.09375 37.21875 
C 51.796875 38.796875 53.203125 41.484375 53.203125 41.78125 
C 53.203125 41.875 53.09375 42.578125 52.203125 42.578125 
C 52 42.578125 51.5 42.578125 51.296875 42.171875 
C 51.09375 41.984375 47.59375 35.21875 44.59375 28.46875 
C 43.09375 25.09375 41.09375 20.625 37.796875 11.875 
z
" id="CMMI12-13"/>
     </defs>
     <g transform="translate(87.561204 305.739856)rotate(-90)scale(0.85 -0.85)">
      <use transform="translate(0 73.581354)scale(0.697382)" xlink:href="#CMR17-50"/>
      <use transform="translate(31.983182 73.581354)scale(0.697382)" xlink:href="#CMMI12-25"/>
      <use transform="translate(73.220403 73.581354)scale(0.697382)" xlink:href="#CMMI12-27"/>
      <use transform="translate(34.755805 0)scale(0.697382)" xlink:href="#CMMI12-33"/>
      <use transform="translate(115.729755 34.355253)scale(0.996264)" xlink:href="#CMSS17-44"/>
      <use transform="translate(177.083511 78.799427)scale(0.697382)" xlink:href="#CMMI12-13"/>
      <use transform="translate(174.178587 0)scale(0.697382)" xlink:href="#CMMI12-33"/>
      <path d="M 0 57.269386 
L 114.534242 57.269386 
L 114.534242 61.254336 
L 0 61.254336 
L 0 57.269386 
z
"/>
      <path d="M 174.178587 57.269386 
L 219.201219 57.269386 
L 219.201219 61.254336 
L 174.178587 61.254336 
L 174.178587 57.269386 
z
"/>
     </g>
    </g>
   </g>
   <g id="line2d_21">
    <path clip-path="url(#pdb194ffb7c)" d="M 180.223245 271.898454 
L 181.116223 255.485182 
L 182.232446 239.183331 
L 183.571914 223.017811 
L 185.134627 207.053936 
L 186.697339 193.227106 
L 188.483297 179.361333 
L 190.269254 167.131233 
L 192.278456 154.988456 
L 194.287658 144.319294 
L 196.073615 135.938414 
L 197.859572 128.510052 
L 199.645529 121.973894 
L 201.431486 116.283927 
L 202.994199 111.970938 
L 204.556911 108.258874 
L 206.119624 105.131691 
L 207.459092 102.906509 
L 208.79856 101.093878 
L 210.138028 99.687501 
L 211.254251 98.821871 
L 212.370474 98.231747 
L 213.486697 97.914658 
L 214.602921 97.868433 
L 215.719144 98.091197 
L 216.835367 98.581368 
L 217.95159 99.337666 
L 219.067814 100.359124 
L 220.407281 101.934031 
L 221.746749 103.889517 
L 223.086217 106.226088 
L 224.64893 109.435827 
L 226.211642 113.170874 
L 227.9976 118.092127 
L 229.783557 123.725285 
L 231.569514 130.094187 
L 233.355471 137.232798 
L 235.364673 146.244042 
L 237.373875 156.388983 
L 239.383077 167.814651 
L 241.169034 179.226443 
L 242.954991 192.07625 
L 244.517704 204.813446 
L 246.080416 219.426516 
L 247.419884 234.093337 
L 248.536107 248.661079 
L 249.429086 262.892281 
L 250.09882 276.326894 
L 250.545309 287.928011 
L 250.991798 305.313828 
L 251.215043 326.945455 
L 256.796159 321.584572 
L 262.154031 316.553622 
L 265.502701 313.703406 
L 268.404881 311.505633 
L 271.083817 309.74076 
L 273.539508 308.365856 
L 275.995199 307.235086 
L 278.45089 306.354939 
L 280.906581 305.728139 
L 283.139028 305.378134 
L 285.371474 305.23593 
L 287.603921 305.299054 
L 290.059612 305.601966 
L 292.515303 306.145081 
L 294.970994 306.92377 
L 297.426685 307.933583 
L 299.882376 309.170487 
L 302.561312 310.774826 
L 305.240248 312.641981 
L 307.919184 314.769919 
L 310.821364 317.369003 
L 313.723545 320.275562 
L 316.625725 323.49448 
L 319.081416 326.46826 
L 319.527906 298.039634 
L 320.19764 277.828175 
L 321.090618 260.189522 
L 322.206841 243.605395 
L 323.546309 227.688494 
L 324.885777 214.359335 
L 326.44849 200.989548 
L 328.234447 187.787516 
L 330.020404 176.279984 
L 331.806361 166.141021 
L 333.592318 157.162561 
L 335.378276 149.2035 
L 337.164233 142.163782 
L 338.95019 135.969974 
L 340.736147 130.566676 
L 342.522104 125.911141 
L 344.084817 122.424346 
L 345.64753 119.466031 
L 347.210242 117.021118 
L 348.54971 115.32451 
L 349.889178 113.989111 
L 351.005401 113.148024 
L 352.121624 112.550883 
L 353.237848 112.195178 
L 354.354071 112.078745 
L 355.470294 112.199752 
L 356.586517 112.556693 
L 357.702741 113.148384 
L 358.818964 113.973974 
L 360.158432 115.272744 
L 361.4979 116.907452 
L 362.837367 118.878776 
L 364.40008 121.606336 
L 365.962793 124.798841 
L 367.525505 128.463259 
L 369.311462 133.241999 
L 371.097419 138.671387 
L 372.883377 144.781138 
L 374.892579 152.520056 
L 376.90178 161.257514 
L 378.910982 171.118596 
L 380.696939 180.979174 
L 382.482897 192.083064 
L 384.045609 203.074056 
L 385.608322 215.634717 
L 386.94779 228.136964 
L 388.064013 240.361295 
L 389.180236 255.232483 
L 390.073215 270.627414 
L 390.742949 286.81566 
L 391.189438 304.89842 
L 391.412683 324.471656 
L 393.421884 318.444218 
L 395.431086 313.15971 
L 397.440288 308.535524 
L 399.44949 304.499084 
L 401.458692 300.986507 
L 403.467894 297.941727 
L 405.477095 295.315853 
L 407.486297 293.066629 
L 409.495499 291.157932 
L 411.504701 289.559273 
L 413.513903 288.245303 
L 415.523105 287.195302 
L 417.532306 286.39269 
L 419.541508 285.824545 
L 421.55071 285.481153 
L 423.559912 285.355601 
L 425.569114 285.443421 
L 427.578316 285.742288 
L 429.587518 286.251789 
L 431.596719 286.973259 
L 433.829166 288.027192 
L 436.061612 289.353053 
L 438.294059 290.960024 
L 440.526505 292.860316 
L 442.758952 295.06977 
L 444.991398 297.608769 
L 447.223845 300.503603 
L 449.456291 303.788465 
L 451.688738 307.508439 
L 453.69794 311.278057 
L 455.707141 315.508405 
L 457.716343 320.280745 
L 459.279056 324.438924 
L 459.5023 318.130964 
L 459.94879 291.641771 
L 460.618524 273.761829 
L 461.511502 257.499492 
L 462.627726 242.077505 
L 463.967193 227.258691 
L 465.306661 214.860241 
L 466.869374 202.440306 
L 468.655331 190.192175 
L 470.441288 179.527009 
L 472.227245 170.136509 
L 474.013203 161.824074 
L 475.79916 154.456764 
L 477.585117 147.940751 
L 479.371074 142.20761 
L 481.157031 137.206147 
L 482.942989 132.897275 
L 484.505701 129.671143 
L 486.068414 126.935792 
L 487.631126 124.678047 
L 488.970594 123.114745 
L 490.310062 121.888764 
L 491.64953 120.995388 
L 492.765753 120.502136 
L 493.881976 120.235245 
L 494.9982 120.193154 
L 496.114423 120.374606 
L 497.230646 120.77864 
L 498.346869 121.404591 
L 499.686337 122.448167 
L 501.025805 123.810751 
L 502.365273 125.492996 
L 503.927986 127.861577 
L 505.490698 130.671004 
L 507.053411 133.926991 
L 508.839368 138.205426 
L 510.625325 143.094688 
L 512.411282 148.618456 
L 514.197239 154.809667 
L 516.206441 162.630489 
L 518.215643 171.449635 
L 520.0016 180.241576 
L 521.787558 190.088852 
L 523.573515 201.23367 
L 525.136227 212.364302 
L 526.475695 223.299437 
L 527.815163 236.102628 
L 528.931386 249.012578 
L 529.824365 261.891779 
L 530.494099 274.410985 
L 530.940588 285.671707 
L 531.387077 304.44467 
L 531.610322 321.421573 
L 532.726545 315.604141 
L 533.842769 310.815223 
L 535.182236 306.04995 
L 536.521704 302.088416 
L 537.861172 298.745989 
L 539.423885 295.462163 
L 540.986597 292.707511 
L 542.54931 290.379221 
L 544.335267 288.142443 
L 546.121224 286.275343 
L 547.907181 284.711826 
L 549.916383 283.253031 
L 551.925585 282.05966 
L 554.158032 280.995935 
L 556.390478 280.170168 
L 558.846169 279.505364 
L 561.30186 279.075982 
L 563.757552 278.873532 
L 566.213243 278.899226 
L 568.668934 279.162177 
L 570.90138 279.620292 
L 573.133827 280.303705 
L 575.366273 281.232717 
L 577.375475 282.299148 
L 579.384677 283.606081 
L 581.393879 285.179373 
L 583.403081 287.05041 
L 585.412282 289.258065 
L 587.19824 291.542598 
L 588.984197 294.176329 
L 590.770154 297.217121 
L 592.556111 300.742675 
L 594.118824 304.309263 
L 595.681536 308.431845 
L 597.244249 313.259746 
L 598.583717 318.13058 
L 599.69994 322.875432 
L 600.146429 293.543125 
L 600.816163 274.704159 
L 601.709142 258.429422 
L 602.825365 243.309078 
L 603.941588 231.130051 
L 605.281056 218.835757 
L 606.843769 206.617223 
L 608.406481 196.026195 
L 610.192438 185.424055 
L 611.978396 176.100159 
L 613.764353 167.841256 
L 615.55031 160.506569 
L 617.336267 153.998782 
L 619.122224 148.248291 
L 620.908182 143.204009 
L 622.694139 138.827691 
L 624.256851 135.523334 
L 625.819564 132.692887 
L 627.382276 130.324266 
L 628.721744 128.654225 
L 630.061212 127.311458 
L 631.40068 126.291955 
L 632.516903 125.686952 
L 633.633127 125.302674 
L 634.74935 125.137914 
L 635.865573 125.191744 
L 636.981796 125.463502 
L 638.09802 125.952783 
L 639.214243 126.659437 
L 640.553711 127.794532 
L 641.893179 129.243531 
L 643.232647 131.007757 
L 644.795359 133.467153 
L 646.358072 136.362925 
L 647.920784 139.701395 
L 649.706741 144.06993 
L 651.492699 149.045236 
L 653.278656 154.65121 
L 655.287858 161.753465 
L 657.297059 169.763952 
L 659.306261 178.784276 
L 661.092218 187.775851 
L 662.878176 197.863712 
L 664.664133 209.335334 
L 666.226845 220.904298 
L 667.566313 232.463543 
L 668.682537 243.874032 
L 669.575515 254.901301 
L 670.468494 269.071688 
L 671.138228 284.505943 
L 671.361472 292.09306 
L 671.807962 318.012251 
L 672.70094 311.727515 
L 673.593919 306.944423 
L 674.710142 302.292591 
L 675.826365 298.637049 
L 676.942589 295.686104 
L 678.282056 292.827455 
L 679.621524 290.528068 
L 680.960992 288.654824 
L 682.523705 286.884296 
L 684.086417 285.459552 
L 685.872374 284.155107 
L 687.881576 282.999331 
L 690.114023 281.999724 
L 692.569714 281.148491 
L 695.471894 280.378326 
L 698.820564 279.716013 
L 702.615723 279.198882 
L 706.187638 278.939386 
L 709.313063 278.930134 
L 711.991998 279.126823 
L 714.44769 279.513905 
L 716.680136 280.074522 
L 718.912583 280.873569 
L 720.921784 281.834374 
L 722.707742 282.91419 
L 724.493699 284.242077 
L 726.279656 285.860283 
L 727.842368 287.556077 
L 729.405081 289.5609 
L 730.967794 291.934829 
L 732.530506 294.759136 
L 733.869974 297.624096 
L 735.209442 301.006926 
L 736.54891 305.060558 
L 737.665133 309.120863 
L 738.781356 314.037911 
L 739.674335 318.841043 
L 739.89758 320.202114 
L 740.790558 281.042932 
L 741.460292 266.734259 
L 742.353271 252.873322 
L 743.469494 239.409043 
L 744.808962 226.306752 
L 746.14843 215.254084 
L 747.711142 204.109494 
L 749.497099 193.048982 
L 751.283057 183.359256 
L 753.069014 174.779693 
L 755.078216 166.251328 
L 757.087417 158.76586 
L 758.873375 152.903467 
L 760.659332 147.732336 
L 762.445289 143.215141 
L 764.231246 139.324096 
L 765.793959 136.416532 
L 767.356671 133.961619 
L 768.919384 131.951026 
L 770.258852 130.576378 
L 771.59832 129.520269 
L 772.937788 128.780265 
L 774.054011 128.403738 
L 775.170234 128.244699 
L 776.286457 128.302636 
L 777.402681 128.577268 
L 778.518904 129.068536 
L 779.635127 129.776606 
L 780.974595 130.913032 
L 782.314063 132.363349 
L 783.653531 134.129212 
L 785.216243 136.59124 
L 786.778956 139.490629 
L 788.341668 142.833717 
L 790.127626 147.208455 
L 791.913583 152.190179 
L 793.69954 157.801388 
L 795.708742 164.905427 
L 797.717944 172.909034 
L 799.727145 181.907601 
L 801.736347 192.050923 
L 803.522304 202.226211 
L 805.308262 213.803137 
L 806.870974 225.516822 
L 808.210442 237.318821 
L 809.326665 249.17128 
L 810.219644 261.008557 
L 810.889378 272.627463 
L 811.335867 283.329997 
L 811.559112 290.844845 
L 812.005601 314.532039 
L 812.675335 308.846889 
L 813.568314 303.465682 
L 814.461292 299.53151 
L 815.354271 296.508733 
L 816.470494 293.595369 
L 817.586717 291.358641 
L 818.702941 289.610875 
L 819.819164 288.23005 
L 821.158632 286.940015 
L 822.4981 285.953812 
L 824.060812 285.08909 
L 825.846769 284.374741 
L 827.855971 283.812351 
L 830.534907 283.310905 
L 834.553311 282.819534 
L 851.296659 281.190264 
L 854.645329 281.098427 
L 857.324265 281.228134 
L 859.556711 281.534379 
L 861.565913 282.01193 
L 863.35187 282.637222 
L 865.137828 283.494269 
L 866.70054 284.474178 
L 868.263253 285.713551 
L 869.825965 287.267659 
L 871.165433 288.905343 
L 872.504901 290.890387 
L 873.844369 293.308975 
L 874.960592 295.743859 
L 876.076815 298.670851 
L 877.193039 302.249339 
L 878.309262 306.738619 
L 879.20224 311.288786 
L 880.095219 317.170645 
L 880.318464 318.943646 
L 880.541708 298.621763 
L 880.988198 282.215603 
L 881.657932 267.584142 
L 882.55091 253.789964 
L 883.667133 240.537871 
L 885.006601 227.696039 
L 886.569314 215.211048 
L 888.132026 204.499835 
L 889.917984 193.814313 
L 891.703941 184.409871 
L 893.713143 175.070549 
L 895.722344 166.847204 
L 897.731546 159.60733 
L 899.740748 153.262888 
L 901.526705 148.325894 
L 903.312663 144.018377 
L 905.09862 140.318197 
L 906.661332 137.565789 
L 908.224045 135.257607 
L 909.563513 133.627981 
L 910.902981 132.317166 
L 912.242448 131.32291 
L 913.358672 130.734978 
L 914.474895 130.365065 
L 915.591118 130.212739 
L 916.707341 130.277786 
L 917.823565 130.560196 
L 918.939788 131.060157 
L 920.056011 131.778055 
L 921.395479 132.928054 
L 922.734947 134.394165 
L 924.074415 136.178297 
L 925.637127 138.665037 
L 927.19984 141.59301 
L 928.762553 144.968668 
L 930.54851 149.385465 
L 932.334467 154.41407 
L 934.120424 160.076235 
L 936.129626 167.240807 
L 938.138828 175.305382 
L 940.14803 184.360664 
L 942.157231 194.549743 
L 943.943189 204.749739 
L 945.729146 216.331247 
L 947.291858 228.036589 
L 948.631326 239.849333 
L 949.74755 251.801807 
L 950.640528 263.977565 
L 951.310262 276.510075 
L 951.756751 289.530582 
L 952.203241 311.224732 
L 952.872975 305.141365 
L 953.542709 300.974021 
L 954.435687 297.022331 
L 955.328666 294.179973 
L 956.221644 292.054721 
L 957.114623 290.430628 
L 958.230846 288.907092 
L 959.347069 287.794433 
L 960.463293 286.9834 
L 961.802761 286.303047 
L 963.365473 285.799095 
L 965.15143 285.482701 
L 967.383877 285.327743 
L 970.955791 285.342284 
L 978.322865 285.410443 
L 982.564513 285.193235 
L 987.029406 284.727597 
L 999.531106 283.225676 
L 1001.986797 283.262777 
L 1003.995999 283.503123 
L 1005.781956 283.930997 
L 1007.344669 284.517386 
L 1008.907381 285.352582 
L 1010.246849 286.314145 
L 1011.586317 287.557553 
L 1012.925785 289.153681 
L 1014.042008 290.823948 
L 1015.158232 292.889881 
L 1016.274455 295.471806 
L 1017.167433 298.031474 
L 1018.060412 301.19103 
L 1018.953391 305.201024 
L 1019.846369 310.525715 
L 1020.516103 315.959847 
L 1020.962593 290.90291 
L 1021.409082 277.643697 
L 1022.078816 264.551951 
L 1022.971794 251.776451 
L 1024.088018 239.286002 
L 1025.427485 227.043283 
L 1026.990198 215.03716 
L 1028.552911 204.666748 
L 1030.338868 194.263407 
L 1032.124825 185.063524 
L 1034.134027 175.889932 
L 1036.143229 167.783963 
L 1038.15243 160.627017 
L 1040.161632 154.340844 
L 1041.94759 149.440792 
L 1043.733547 145.160287 
L 1045.519504 141.480244 
L 1047.082216 138.741756 
L 1048.644929 136.445464 
L 1049.984397 134.825274 
L 1051.323865 133.523843 
L 1052.663333 132.539444 
L 1053.779556 131.960418 
L 1054.895779 131.600292 
L 1056.012002 131.458845 
L 1057.128226 131.53605 
L 1058.244449 131.832069 
L 1059.360672 132.347247 
L 1060.476895 133.082112 
L 1061.816363 134.254968 
L 1063.155831 135.746857 
L 1064.495299 137.559881 
L 1066.058012 140.084501 
L 1067.620724 143.05509 
L 1069.183437 146.478319 
L 1070.969394 150.955763 
L 1072.755351 156.051835 
L 1074.541308 161.788198 
L 1076.55051 169.043724 
L 1078.559712 177.205724 
L 1080.568914 186.362037 
L 1082.578116 196.650961 
L 1084.364073 206.933293 
L 1086.15003 218.586795 
L 1087.712743 230.351381 
L 1089.05221 242.242085 
L 1090.168434 254.371751 
L 1091.061412 267.029138 
L 1091.507902 275.543804 
L 1091.954391 288.167753 
L 1092.40088 308.231878 
L 1093.070614 302.025312 
L 1093.740348 298.04536 
L 1094.410082 295.229824 
L 1095.303061 292.556587 
L 1096.196039 290.674031 
L 1097.089018 289.318996 
L 1097.981996 288.337186 
L 1099.09822 287.486801 
L 1100.214443 286.938035 
L 1101.553911 286.558489 
L 1103.116623 286.376074 
L 1105.125825 286.394759 
L 1108.028006 286.669842 
L 1116.288058 287.560694 
L 1120.083217 287.699839 
L 1123.655131 287.614379 
L 1127.45029 287.291197 
L 1131.468694 286.716633 
L 1138.166033 285.474039 
L 1141.961192 284.891233 
L 1144.416883 284.725024 
L 1146.426085 284.807116 
L 1148.212042 285.119763 
L 1149.774755 285.644628 
L 1151.114223 286.33869 
L 1152.230446 287.135709 
L 1153.346669 288.182044 
L 1154.462893 289.542634 
L 1155.579116 291.309436 
L 1156.472094 293.105669 
L 1157.365073 295.355357 
L 1158.258052 298.225108 
L 1159.15103 301.99913 
L 1159.820764 305.736629 
L 1160.490498 310.750923 
L 1160.713743 312.859925 
L 1160.936987 313.03124 
L 1161.160232 293.0844 
L 1161.606721 278.685365 
L 1162.276455 265.364225 
L 1163.169434 252.634039 
L 1164.285657 240.276715 
L 1165.625125 228.180984 
L 1167.187838 216.302152 
L 1168.973795 204.647296 
L 1170.759752 194.457876 
L 1172.768954 184.343994 
L 1174.778156 175.405837 
L 1176.787357 167.483777 
L 1178.796559 160.476716 
L 1180.805761 154.317978 
L 1182.591718 149.518848 
L 1184.377676 145.331865 
L 1186.163633 141.740946 
L 1187.726345 139.078633 
L 1189.289058 136.858074 
L 1190.628526 135.303161 
L 1191.967994 134.067856 
L 1193.307461 133.150833 
L 1194.423685 132.629156 
L 1195.539908 132.327655 
L 1196.656131 132.246261 
L 1197.772354 132.385089 
L 1198.888578 132.74443 
L 1200.004801 133.324752 
L 1201.121024 134.126707 
L 1202.460492 135.382813 
L 1203.79996 136.961153 
L 1205.139428 138.864067 
L 1206.70214 141.498257 
L 1208.264853 144.583925 
L 1209.827566 148.128285 
L 1211.613523 152.752386 
L 1213.39948 158.004935 
L 1215.185437 163.908874 
L 1217.194639 171.368047 
L 1219.203841 179.752109 
L 1221.213043 189.152045 
L 1223.222244 199.711032 
L 1225.008202 210.264025 
L 1226.794159 222.238536 
L 1228.356871 234.378671 
L 1229.696339 246.792489 
L 1230.589318 256.918752 
L 1231.259052 266.4185 
L 1231.705541 274.616222 
L 1232.15203 286.778247 
L 1232.375275 299.605345 
L 1232.59852 305.603576 
L 1233.045009 301.10891 
L 1233.714743 296.773741 
L 1234.384477 293.917843 
L 1235.054211 291.905256 
L 1235.723945 290.437771 
L 1236.616923 289.052467 
L 1237.509902 288.117103 
L 1238.402881 287.494542 
L 1239.519104 287.02406 
L 1240.635327 286.791006 
L 1242.19804 286.723697 
L 1244.207241 286.89543 
L 1247.555911 287.446551 
L 1254.030006 288.513563 
L 1258.04841 288.935611 
L 1261.843569 289.113964 
L 1265.638728 289.061573 
L 1269.210642 288.793225 
L 1273.005801 288.279707 
L 1277.247449 287.471012 
L 1285.284257 285.874243 
L 1287.516703 285.704093 
L 1289.302661 285.792654 
L 1290.865373 286.113264 
L 1292.204841 286.637434 
L 1293.321064 287.307273 
L 1294.437287 288.253218 
L 1295.330266 289.265195 
L 1296 290.212007 
L 1296 290.212007 
" style="fill:none;stroke:#0000ff;stroke-linecap:square;stroke-width:4.5;"/>
   </g>
   <g id="patch_3">
    <path d="M 180 338.4 
L 180 86.4 
" style="fill:none;stroke:#000000;stroke-linecap:square;stroke-linejoin:miter;stroke-width:0.8;"/>
   </g>
   <g id="patch_4">
    <path d="M 1296 338.4 
L 1296 86.4 
" style="fill:none;stroke:#000000;stroke-linecap:square;stroke-linejoin:miter;stroke-width:0.8;"/>
   </g>
   <g id="patch_5">
    <path d="M 180 338.4 
L 1296 338.4 
" style="fill:none;stroke:#000000;stroke-linecap:square;stroke-linejoin:miter;stroke-width:0.8;"/>
   </g>
   <g id="patch_6">
    <path d="M 180 86.4 
L 1296 86.4 
" style="fill:none;stroke:#000000;stroke-linecap:square;stroke-linejoin:miter;stroke-width:0.8;"/>
   </g>
  </g>
  <g id="axes_2">
   <g id="patch_7">
    <path d="M 180 640.8 
L 1296 640.8 
L 1296 388.8 
L 180 388.8 
z
" style="fill:#ffffff;"/>
   </g>
   <g id="matplotlib.axis_3">
    <g id="xtick_9">
     <g id="line2d_22">
      <path clip-path="url(#pcf4c5dfa87)" d="M 180 640.8 
L 180 388.8 
" style="fill:none;stroke:#b0b0b0;stroke-linecap:square;stroke-width:0.8;"/>
     </g>
     <g id="line2d_23">
      <g>
       <use style="stroke:#000000;stroke-width:0.8;" x="180" xlink:href="#m934813d994" y="640.8"/>
      </g>
     </g>
     <g id="text_13">
      <!-- $0.0$ -->
      <g transform="translate(159.266327 669.514752)scale(0.35 -0.35)">
       <use transform="scale(0.996264)" xlink:href="#CMR17-48"/>
       <use transform="translate(45.690477 0)scale(0.996264)" xlink:href="#CMMI12-58"/>
       <use transform="translate(72.787654 0)scale(0.996264)" xlink:href="#CMR17-48"/>
      </g>
     </g>
    </g>
    <g id="xtick_10">
     <g id="line2d_24">
      <path clip-path="url(#pcf4c5dfa87)" d="M 403.2 640.8 
L 403.2 388.8 
" style="fill:none;stroke:#b0b0b0;stroke-linecap:square;stroke-width:0.8;"/>
     </g>
     <g id="line2d_25">
      <g>
       <use style="stroke:#000000;stroke-width:0.8;" x="403.2" xlink:href="#m934813d994" y="640.8"/>
      </g>
     </g>
     <g id="text_14">
      <!-- $0.2$ -->
      <g transform="translate(382.466327 669.514752)scale(0.35 -0.35)">
       <use transform="scale(0.996264)" xlink:href="#CMR17-48"/>
       <use transform="translate(45.690477 0)scale(0.996264)" xlink:href="#CMMI12-58"/>
       <use transform="translate(72.787654 0)scale(0.996264)" xlink:href="#CMR17-50"/>
      </g>
     </g>
    </g>
    <g id="xtick_11">
     <g id="line2d_26">
      <path clip-path="url(#pcf4c5dfa87)" d="M 626.4 640.8 
L 626.4 388.8 
" style="fill:none;stroke:#b0b0b0;stroke-linecap:square;stroke-width:0.8;"/>
     </g>
     <g id="line2d_27">
      <g>
       <use style="stroke:#000000;stroke-width:0.8;" x="626.4" xlink:href="#m934813d994" y="640.8"/>
      </g>
     </g>
     <g id="text_15">
      <!-- $0.4$ -->
      <g transform="translate(605.666327 669.514752)scale(0.35 -0.35)">
       <use transform="scale(0.996264)" xlink:href="#CMR17-48"/>
       <use transform="translate(45.690477 0)scale(0.996264)" xlink:href="#CMMI12-58"/>
       <use transform="translate(72.787654 0)scale(0.996264)" xlink:href="#CMR17-52"/>
      </g>
     </g>
    </g>
    <g id="xtick_12">
     <g id="line2d_28">
      <path clip-path="url(#pcf4c5dfa87)" d="M 849.6 640.8 
L 849.6 388.8 
" style="fill:none;stroke:#b0b0b0;stroke-linecap:square;stroke-width:0.8;"/>
     </g>
     <g id="line2d_29">
      <g>
       <use style="stroke:#000000;stroke-width:0.8;" x="849.6" xlink:href="#m934813d994" y="640.8"/>
      </g>
     </g>
     <g id="text_16">
      <!-- $0.6$ -->
      <g transform="translate(828.866327 669.514752)scale(0.35 -0.35)">
       <use transform="scale(0.996264)" xlink:href="#CMR17-48"/>
       <use transform="translate(45.690477 0)scale(0.996264)" xlink:href="#CMMI12-58"/>
       <use transform="translate(72.787654 0)scale(0.996264)" xlink:href="#CMR17-54"/>
      </g>
     </g>
    </g>
    <g id="xtick_13">
     <g id="line2d_30">
      <path clip-path="url(#pcf4c5dfa87)" d="M 1072.8 640.8 
L 1072.8 388.8 
" style="fill:none;stroke:#b0b0b0;stroke-linecap:square;stroke-width:0.8;"/>
     </g>
     <g id="line2d_31">
      <g>
       <use style="stroke:#000000;stroke-width:0.8;" x="1072.8" xlink:href="#m934813d994" y="640.8"/>
      </g>
     </g>
     <g id="text_17">
      <!-- $0.8$ -->
      <defs>
       <path d="M 27.203125 35.375 
C 33.5 38.546875 39.90625 43.328125 39.90625 50.984375 
C 39.90625 60.015625 31.09375 65.296875 23 65.296875 
C 13.90625 65.296875 5.90625 58.734375 5.90625 49.6875 
C 5.90625 47.203125 6.5 42.921875 10.40625 39.140625 
C 11.40625 38.15625 15.59375 35.171875 18.296875 33.28125 
C 13.796875 30.984375 3.296875 25.53125 3.296875 14.59375 
C 3.296875 4.359375 13.09375 -2 22.796875 -2 
C 33.5 -2 42.5 5.65625 42.5 15.78125 
C 42.5 24.84375 36.40625 29.015625 32.40625 31.703125 
z
M 14.09375 44.09375 
C 13.296875 44.59375 9.296875 47.671875 9.296875 52.359375 
C 9.296875 58.421875 15.59375 63 22.796875 63 
C 30.703125 63 36.5 57.4375 36.5 50.96875 
C 36.5 41.703125 26.09375 36.421875 25.59375 36.421875 
C 25.5 36.421875 25.40625 36.421875 24.59375 37.03125 
z
M 32.5 23.734375 
C 34 22.640625 38.796875 19.375 38.796875 13.296875 
C 38.796875 5.953125 31.40625 0.390625 23 0.390625 
C 13.90625 0.390625 7 6.84375 7 14.6875 
C 7 22.546875 13.09375 29.09375 20 32.1875 
z
" id="CMR17-56"/>
      </defs>
      <g transform="translate(1052.066327 669.514752)scale(0.35 -0.35)">
       <use transform="scale(0.996264)" xlink:href="#CMR17-48"/>
       <use transform="translate(45.690477 0)scale(0.996264)" xlink:href="#CMMI12-58"/>
       <use transform="translate(72.787654 0)scale(0.996264)" xlink:href="#CMR17-56"/>
      </g>
     </g>
    </g>
    <g id="xtick_14">
     <g id="line2d_32">
      <path clip-path="url(#pcf4c5dfa87)" d="M 1296 640.8 
L 1296 388.8 
" style="fill:none;stroke:#b0b0b0;stroke-linecap:square;stroke-width:0.8;"/>
     </g>
     <g id="line2d_33">
      <g>
       <use style="stroke:#000000;stroke-width:0.8;" x="1296" xlink:href="#m934813d994" y="640.8"/>
      </g>
     </g>
     <g id="text_18">
      <!-- $1.0$ -->
      <g transform="translate(1275.266327 669.514752)scale(0.35 -0.35)">
       <use transform="scale(0.996264)" xlink:href="#CMR17-49"/>
       <use transform="translate(45.690477 0)scale(0.996264)" xlink:href="#CMMI12-58"/>
       <use transform="translate(72.787654 0)scale(0.996264)" xlink:href="#CMR17-48"/>
      </g>
     </g>
    </g>
    <g id="text_19">
     <!-- $\Omega\tau/2\pi$ -->
     <g transform="translate(657.059265 716.128984)scale(0.6 -0.6)">
      <use transform="scale(0.996264)" xlink:href="#CMR17-10"/>
      <use transform="translate(66.509881 0)scale(0.996264)" xlink:href="#CMMI12-28"/>
      <use transform="translate(120.001046 0)scale(0.996264)" xlink:href="#CMMI12-61"/>
      <use transform="translate(168.775965 0)scale(0.996264)" xlink:href="#CMR17-50"/>
      <use transform="translate(214.466442 0)scale(0.996264)" xlink:href="#CMMI12-25"/>
     </g>
    </g>
   </g>
   <g id="matplotlib.axis_4">
    <g id="ytick_3">
     <g id="line2d_34">
      <path clip-path="url(#pcf4c5dfa87)" d="M 180 640.8 
L 1296 640.8 
" style="fill:none;stroke:#b0b0b0;stroke-linecap:square;stroke-width:0.8;"/>
     </g>
     <g id="line2d_35">
      <g>
       <use style="stroke:#000000;stroke-width:0.8;" x="180" xlink:href="#m04fad8f8ac" y="640.8"/>
      </g>
     </g>
     <g id="text_20">
      <!-- $0.0$ -->
      <g transform="translate(134.032654 652.907376)scale(0.35 -0.35)">
       <use transform="scale(0.996264)" xlink:href="#CMR17-48"/>
       <use transform="translate(45.690477 0)scale(0.996264)" xlink:href="#CMMI12-58"/>
       <use transform="translate(72.787654 0)scale(0.996264)" xlink:href="#CMR17-48"/>
      </g>
     </g>
    </g>
    <g id="ytick_4">
     <g id="line2d_36">
      <path clip-path="url(#pcf4c5dfa87)" d="M 180 514.8 
L 1296 514.8 
" style="fill:none;stroke:#b0b0b0;stroke-linecap:square;stroke-width:0.8;"/>
     </g>
     <g id="line2d_37">
      <g>
       <use style="stroke:#000000;stroke-width:0.8;" x="180" xlink:href="#m04fad8f8ac" y="514.8"/>
      </g>
     </g>
     <g id="text_21">
      <!-- $0.5$ -->
      <g transform="translate(134.032654 526.907376)scale(0.35 -0.35)">
       <use transform="scale(0.996264)" xlink:href="#CMR17-48"/>
       <use transform="translate(45.690477 0)scale(0.996264)" xlink:href="#CMMI12-58"/>
       <use transform="translate(72.787654 0)scale(0.996264)" xlink:href="#CMR17-53"/>
      </g>
     </g>
    </g>
    <g id="ytick_5">
     <g id="line2d_38">
      <path clip-path="url(#pcf4c5dfa87)" d="M 180 388.8 
L 1296 388.8 
" style="fill:none;stroke:#b0b0b0;stroke-linecap:square;stroke-width:0.8;"/>
     </g>
     <g id="line2d_39">
      <g>
       <use style="stroke:#000000;stroke-width:0.8;" x="180" xlink:href="#m04fad8f8ac" y="388.8"/>
      </g>
     </g>
     <g id="text_22">
      <!-- $1.0$ -->
      <g transform="translate(134.032654 400.907376)scale(0.35 -0.35)">
       <use transform="scale(0.996264)" xlink:href="#CMR17-49"/>
       <use transform="translate(45.690477 0)scale(0.996264)" xlink:href="#CMMI12-58"/>
       <use transform="translate(72.787654 0)scale(0.996264)" xlink:href="#CMR17-48"/>
      </g>
     </g>
    </g>
    <g id="text_23">
     <!--  $\frac{ 2\pi\sigma}{\omega}$,  $\frac{\gamma}{\omega}$  -->
     <g transform="translate(87.561204 608.139856)rotate(-90)scale(0.85 -0.85)">
      <use transform="translate(0 73.581354)scale(0.697382)" xlink:href="#CMR17-50"/>
      <use transform="translate(31.983182 73.581354)scale(0.697382)" xlink:href="#CMMI12-25"/>
      <use transform="translate(73.220403 73.581354)scale(0.697382)" xlink:href="#CMMI12-27"/>
      <use transform="translate(34.755805 0)scale(0.697382)" xlink:href="#CMMI12-33"/>
      <use transform="translate(115.729755 34.355253)scale(0.996264)" xlink:href="#CMSS17-44"/>
      <use transform="translate(177.083511 78.799427)scale(0.697382)" xlink:href="#CMMI12-13"/>
      <use transform="translate(174.178587 0)scale(0.697382)" xlink:href="#CMMI12-33"/>
      <path d="M 0 57.269386 
L 114.534242 57.269386 
L 114.534242 61.254336 
L 0 61.254336 
L 0 57.269386 
z
"/>
      <path d="M 174.178587 57.269386 
L 219.201219 57.269386 
L 219.201219 61.254336 
L 174.178587 61.254336 
L 174.178587 57.269386 
z
"/>
     </g>
    </g>
   </g>
   <g id="patch_8">
    <path d="M 180 640.8 
L 180 388.8 
" style="fill:none;stroke:#000000;stroke-linecap:square;stroke-linejoin:miter;stroke-width:0.8;"/>
   </g>
   <g id="patch_9">
    <path d="M 1296 640.8 
L 1296 388.8 
" style="fill:none;stroke:#000000;stroke-linecap:square;stroke-linejoin:miter;stroke-width:0.8;"/>
   </g>
   <g id="patch_10">
    <path d="M 180 640.8 
L 1296 640.8 
" style="fill:none;stroke:#000000;stroke-linecap:square;stroke-linejoin:miter;stroke-width:0.8;"/>
   </g>
   <g id="patch_11">
    <path d="M 180 388.8 
L 1296 388.8 
" style="fill:none;stroke:#000000;stroke-linecap:square;stroke-linejoin:miter;stroke-width:0.8;"/>
   </g>
   <g id="legend_1">
    <g id="patch_12">
     <path d="M 967.914 498.6 
L 982.314 498.6 
Q 989.514 498.6 989.514 491.4 
L 989.514 477 
Q 989.514 469.8 982.314 469.8 
L 967.914 469.8 
Q 960.714 469.8 960.714 477 
L 960.714 491.4 
Q 960.714 498.6 967.914 498.6 
z
" style="fill:#ffffff;opacity:0.8;stroke:#cccccc;stroke-linejoin:miter;"/>
    </g>
   </g>
  </g>
 </g>
 <defs>
  <clipPath id="pdb194ffb7c">
   <rect height="252" width="1116" x="180" y="86.4"/>
  </clipPath>
  <clipPath id="pcf4c5dfa87">
   <rect height="252" width="1116" x="180" y="388.8"/>
  </clipPath>
 </defs>
</svg>
