<?xml version="1.0" encoding="utf-8" standalone="no"?>
<!DOCTYPE svg PUBLIC "-//W3C//DTD SVG 1.1//EN"
  "http://www.w3.org/Graphics/SVG/1.1/DTD/svg11.dtd">
<!-- Created with matplotlib (https://matplotlib.org/) -->
<svg height="720pt" version="1.1" viewBox="0 0 1440 720" width="1440pt" xmlns="http://www.w3.org/2000/svg" xmlns:xlink="http://www.w3.org/1999/xlink">
 <defs>
  <style type="text/css">
*{stroke-linecap:butt;stroke-linejoin:round;}
  </style>
 </defs>
 <g id="figure_1">
  <g id="patch_1">
   <path d="M 0 720 
L 1440 720 
L 1440 0 
L 0 0 
z
" style="fill:#ffffff;"/>
  </g>
  <g id="axes_1">
   <g id="patch_2">
    <path d="M 180 640.8 
L 1296 640.8 
L 1296 86.4 
L 180 86.4 
z
" style="fill:#ffffff;"/>
   </g>
   <g id="matplotlib.axis_1">
    <g id="xtick_1">
     <g id="line2d_1">
      <path clip-path="url(#pa93a2df643)" d="M 180 640.8 
L 180 86.4 
" style="fill:none;stroke:#b0b0b0;stroke-linecap:square;stroke-width:0.8;"/>
     </g>
     <g id="line2d_2">
      <defs>
       <path d="M 0 0 
L 0 3.5 
" id="m1ba580dcc1" style="stroke:#000000;stroke-width:0.8;"/>
      </defs>
      <g>
       <use style="stroke:#000000;stroke-width:0.8;" x="180" xlink:href="#m1ba580dcc1" y="640.8"/>
      </g>
     </g>
     <g id="text_1">
      <!-- $0$ -->
      <defs>
       <path d="M 42 31.640625 
C 42 37.75 41.90625 48.125 37.703125 56.109375 
C 34 63.109375 28.09375 65.59375 22.90625 65.59375 
C 18.09375 65.59375 12 63.40625 8.203125 56.203125 
C 4.203125 48.71875 3.796875 39.4375 3.796875 31.640625 
C 3.796875 25.953125 3.90625 17.28125 7 9.671875 
C 11.296875 -0.609375 19 -2 22.90625 -2 
C 27.5 -2 34.5 -0.109375 38.59375 9.375 
C 41.59375 16.28125 42 24.359375 42 31.640625 
z
M 22.90625 -0.40625 
C 16.5 -0.40625 12.703125 5.078125 11.296875 12.6875 
C 10.203125 18.5625 10.203125 27.15625 10.203125 32.75 
C 10.203125 40.4375 10.203125 46.828125 11.5 52.921875 
C 13.40625 61.390625 19 64 22.90625 64 
C 27 64 32.296875 61.296875 34.203125 53.125 
C 35.5 47.4375 35.59375 40.734375 35.59375 32.75 
C 35.59375 26.25 35.59375 18.265625 34.40625 12.375 
C 32.296875 1.484375 26.40625 -0.40625 22.90625 -0.40625 
z
" id="CMR17-48"/>
      </defs>
      <g transform="translate(172.004167 669.514752)scale(0.35 -0.35)">
       <use transform="scale(0.996264)" xlink:href="#CMR17-48"/>
      </g>
     </g>
    </g>
    <g id="xtick_2">
     <g id="line2d_3">
      <path clip-path="url(#pa93a2df643)" d="M 320.240696 640.8 
L 320.240696 86.4 
" style="fill:none;stroke:#b0b0b0;stroke-linecap:square;stroke-width:0.8;"/>
     </g>
     <g id="line2d_4">
      <g>
       <use style="stroke:#000000;stroke-width:0.8;" x="320.240696" xlink:href="#m1ba580dcc1" y="640.8"/>
      </g>
     </g>
     <g id="text_2">
      <!-- $1$ -->
      <defs>
       <path d="M 26.59375 63.40625 
C 26.59375 65.5 26.5 65.5 25.09375 65.5 
C 21.203125 61.1875 15.296875 59.796875 9.703125 59.796875 
C 9.40625 59.796875 8.90625 59.796875 8.796875 59.5 
C 8.703125 59.296875 8.703125 59.09375 8.703125 57 
C 11.796875 57 17 57.59375 21 59.984375 
L 21 7.203125 
C 21 3.6875 20.796875 2.5 12.203125 2.5 
L 9.203125 2.5 
L 9.203125 0 
C 14 0 19 0 23.796875 0 
C 28.59375 0 33.59375 0 38.40625 0 
L 38.40625 2.5 
L 35.40625 2.5 
C 26.796875 2.5 26.59375 3.59375 26.59375 7.15625 
z
" id="CMR17-49"/>
      </defs>
      <g transform="translate(312.244863 669.514752)scale(0.35 -0.35)">
       <use transform="scale(0.996264)" xlink:href="#CMR17-49"/>
      </g>
     </g>
    </g>
    <g id="xtick_3">
     <g id="line2d_5">
      <path clip-path="url(#pa93a2df643)" d="M 460.481392 640.8 
L 460.481392 86.4 
" style="fill:none;stroke:#b0b0b0;stroke-linecap:square;stroke-width:0.8;"/>
     </g>
     <g id="line2d_6">
      <g>
       <use style="stroke:#000000;stroke-width:0.8;" x="460.481392" xlink:href="#m1ba580dcc1" y="640.8"/>
      </g>
     </g>
     <g id="text_3">
      <!-- $2$ -->
      <defs>
       <path d="M 41.703125 15.453125 
L 39.90625 15.453125 
C 38.90625 8.375 38.09375 7.171875 37.703125 6.5625 
C 37.203125 5.765625 30 5.765625 28.59375 5.765625 
L 9.40625 5.765625 
C 13 9.671875 20 16.75 28.5 24.953125 
C 34.59375 30.734375 41.703125 37.53125 41.703125 47.421875 
C 41.703125 59.21875 32.296875 66 21.796875 66 
C 10.796875 66 4.09375 56.3125 4.09375 47.34375 
C 4.09375 43.4375 7 42.9375 8.203125 42.9375 
C 9.203125 42.9375 12.203125 43.546875 12.203125 47.03125 
C 12.203125 50.109375 9.59375 51 8.203125 51 
C 7.59375 51 7 50.90625 6.59375 50.703125 
C 8.5 59.21875 14.296875 63.40625 20.40625 63.40625 
C 29.09375 63.40625 34.796875 56.515625 34.796875 47.421875 
C 34.796875 38.734375 29.703125 31.25 24 24.75 
L 4.09375 2.28125 
L 4.09375 0 
L 39.296875 0 
z
" id="CMR17-50"/>
      </defs>
      <g transform="translate(452.485559 669.514752)scale(0.35 -0.35)">
       <use transform="scale(0.996264)" xlink:href="#CMR17-50"/>
      </g>
     </g>
    </g>
    <g id="xtick_4">
     <g id="line2d_7">
      <path clip-path="url(#pa93a2df643)" d="M 600.722088 640.8 
L 600.722088 86.4 
" style="fill:none;stroke:#b0b0b0;stroke-linecap:square;stroke-width:0.8;"/>
     </g>
     <g id="line2d_8">
      <g>
       <use style="stroke:#000000;stroke-width:0.8;" x="600.722088" xlink:href="#m1ba580dcc1" y="640.8"/>
      </g>
     </g>
     <g id="text_4">
      <!-- $3$ -->
      <defs>
       <path d="M 22.09375 33.703125 
C 31 33.703125 34.90625 25.96875 34.90625 17.03125 
C 34.90625 5 28.5 0.390625 22.703125 0.390625 
C 17.40625 0.390625 8.796875 3.03125 6.09375 10.828125 
C 6.59375 10.625 7.09375 10.625 7.59375 10.625 
C 10 10.625 11.796875 12.21875 11.796875 14.8125 
C 11.796875 17.703125 9.59375 19 7.59375 19 
C 5.90625 19 3.296875 18.203125 3.296875 14.46875 
C 3.296875 5.234375 12.296875 -2 22.90625 -2 
C 34 -2 42.5 6.71875 42.5 16.953125 
C 42.5 26.671875 34.5 33.703125 25 34.796875 
C 32.59375 36.375 39.90625 43.0625 39.90625 52.015625 
C 39.90625 59.6875 32 65.296875 23 65.296875 
C 13.90625 65.296875 5.90625 59.828125 5.90625 52.015625 
C 5.90625 48.59375 8.5 48 9.796875 48 
C 11.90625 48 13.703125 49.296875 13.703125 51.890625 
C 13.703125 54.46875 11.90625 55.765625 9.796875 55.765625 
C 9.40625 55.765625 8.90625 55.765625 8.5 55.578125 
C 11.40625 61.859375 19.296875 63 22.796875 63 
C 26.296875 63 32.90625 61.328125 32.90625 51.875 
C 32.90625 49.109375 32.5 44.1875 29.09375 39.84375 
C 26.09375 36 22.703125 36 19.40625 35.6875 
C 18.90625 35.6875 16.59375 35.453125 16.203125 35.453125 
C 15.5 35.359375 15.09375 35.265625 15.09375 34.5 
C 15.09375 33.796875 15.203125 33.703125 17.203125 33.703125 
z
" id="CMR17-51"/>
      </defs>
      <g transform="translate(592.726255 669.514752)scale(0.35 -0.35)">
       <use transform="scale(0.996264)" xlink:href="#CMR17-51"/>
      </g>
     </g>
    </g>
    <g id="xtick_5">
     <g id="line2d_9">
      <path clip-path="url(#pa93a2df643)" d="M 740.962784 640.8 
L 740.962784 86.4 
" style="fill:none;stroke:#b0b0b0;stroke-linecap:square;stroke-width:0.8;"/>
     </g>
     <g id="line2d_10">
      <g>
       <use style="stroke:#000000;stroke-width:0.8;" x="740.962784" xlink:href="#m1ba580dcc1" y="640.8"/>
      </g>
     </g>
     <g id="text_5">
      <!-- $4$ -->
      <defs>
       <path d="M 33.59375 64.40625 
C 33.59375 66.5 33.5 66.5 31.703125 66.5 
L 2 19.59375 
L 2 17 
L 27.796875 17 
L 27.796875 7.140625 
C 27.796875 3.5 27.59375 2.5 20.59375 2.5 
L 18.703125 2.5 
L 18.703125 0 
C 21.90625 0 27.296875 0 30.703125 0 
C 34.09375 0 39.5 0 42.703125 0 
L 42.703125 2.5 
L 40.796875 2.5 
C 33.796875 2.5 33.59375 3.5 33.59375 7.140625 
L 33.59375 17 
L 43.796875 17 
L 43.796875 19.59375 
L 33.59375 19.59375 
z
M 28.09375 57.859375 
L 28.09375 19.59375 
L 4 19.59375 
z
" id="CMR17-52"/>
      </defs>
      <g transform="translate(732.966951 669.514752)scale(0.35 -0.35)">
       <use transform="scale(0.996264)" xlink:href="#CMR17-52"/>
      </g>
     </g>
    </g>
    <g id="xtick_6">
     <g id="line2d_11">
      <path clip-path="url(#pa93a2df643)" d="M 881.20348 640.8 
L 881.20348 86.4 
" style="fill:none;stroke:#b0b0b0;stroke-linecap:square;stroke-width:0.8;"/>
     </g>
     <g id="line2d_12">
      <g>
       <use style="stroke:#000000;stroke-width:0.8;" x="881.20348" xlink:href="#m1ba580dcc1" y="640.8"/>
      </g>
     </g>
     <g id="text_6">
      <!-- $5$ -->
      <defs>
       <path d="M 11.40625 57.6875 
C 12.40625 57.28125 16.5 56 20.703125 56 
C 30 56 35.09375 61.109375 38 64.0625 
C 38 64.953125 38 65.5 37.40625 65.5 
C 37.296875 65.5 37.09375 65.5 36.296875 65.046875 
C 32.796875 63.40625 28.703125 62.078125 23.703125 62.078125 
C 20.703125 62.078125 16.203125 62.484375 11.296875 64.671875 
C 10.203125 65.171875 10 65.171875 9.90625 65.171875 
C 9.40625 65.171875 9.296875 65.0625 9.296875 63.078125 
L 9.296875 34.421875 
C 9.296875 32.640625 9.296875 32.140625 10.296875 32.140625 
C 10.796875 32.140625 11 32.34375 11.5 33.03125 
C 14.703125 37.515625 19.09375 39.40625 24.09375 39.40625 
C 27.59375 39.40625 35.09375 37.21875 35.09375 20.140625 
C 35.09375 16.953125 35.09375 11.171875 32.09375 6.578125 
C 29.59375 2.484375 25.703125 0.390625 21.40625 0.390625 
C 14.796875 0.390625 8.09375 5 6.296875 12.71875 
C 6.703125 12.609375 7.5 12.421875 7.90625 12.421875 
C 9.203125 12.421875 11.703125 13.125 11.703125 16.21875 
C 11.703125 18.90625 9.796875 20 7.90625 20 
C 5.59375 20 4.09375 18.59375 4.09375 15.796875 
C 4.09375 7.09375 11 -2 21.59375 -2 
C 31.90625 -2 41.703125 6.875 41.703125 19.75 
C 41.703125 31.71875 33.90625 41 24.203125 41 
C 19.09375 41 14.796875 39.109375 11.40625 35.53125 
z
" id="CMR17-53"/>
      </defs>
      <g transform="translate(873.207647 669.514752)scale(0.35 -0.35)">
       <use transform="scale(0.996264)" xlink:href="#CMR17-53"/>
      </g>
     </g>
    </g>
    <g id="xtick_7">
     <g id="line2d_13">
      <path clip-path="url(#pa93a2df643)" d="M 1021.444176 640.8 
L 1021.444176 86.4 
" style="fill:none;stroke:#b0b0b0;stroke-linecap:square;stroke-width:0.8;"/>
     </g>
     <g id="line2d_14">
      <g>
       <use style="stroke:#000000;stroke-width:0.8;" x="1021.444176" xlink:href="#m1ba580dcc1" y="640.8"/>
      </g>
     </g>
     <g id="text_7">
      <!-- $6$ -->
      <defs>
       <path d="M 10.59375 34 
C 10.59375 57.65625 21.796875 63 28.296875 63 
C 30.40625 63 35.5 62.640625 37.5 59 
C 35.90625 59 32.90625 59 32.90625 55.515625 
C 32.90625 52.828125 35.09375 51.921875 36.5 51.921875 
C 37.40625 51.921875 40.09375 52.3125 40.09375 55.625 
C 40.09375 61.78125 35.09375 65.296875 28.203125 65.296875 
C 16.296875 65.296875 3.796875 52.96875 3.796875 31 
C 3.796875 3.953125 15.09375 -2 23.09375 -2 
C 32.796875 -2 42 6.671875 42 20.046875 
C 42 32.515625 33.90625 41.59375 23.703125 41.59375 
C 17.59375 41.59375 13.09375 37.609375 10.59375 30.625 
z
M 23.09375 0.390625 
C 10.796875 0.390625 10.796875 18.75 10.796875 22.4375 
C 10.796875 29.625 14.203125 40 23.5 40 
C 25.203125 40 30.09375 40 33.40625 33.125 
C 35.203125 29.21875 35.203125 25.140625 35.203125 20.140625 
C 35.203125 14.75 35.203125 10.78125 33.09375 6.78125 
C 30.90625 2.671875 27.703125 0.390625 23.09375 0.390625 
z
" id="CMR17-54"/>
      </defs>
      <g transform="translate(1013.448343 669.514752)scale(0.35 -0.35)">
       <use transform="scale(0.996264)" xlink:href="#CMR17-54"/>
      </g>
     </g>
    </g>
    <g id="xtick_8">
     <g id="line2d_15">
      <path clip-path="url(#pa93a2df643)" d="M 1161.684872 640.8 
L 1161.684872 86.4 
" style="fill:none;stroke:#b0b0b0;stroke-linecap:square;stroke-width:0.8;"/>
     </g>
     <g id="line2d_16">
      <g>
       <use style="stroke:#000000;stroke-width:0.8;" x="1161.684872" xlink:href="#m1ba580dcc1" y="640.8"/>
      </g>
     </g>
     <g id="text_8">
      <!-- $7$ -->
      <defs>
       <path d="M 45.09375 61.578125 
L 45.09375 63.765625 
L 21.59375 63.765625 
C 9.90625 63.765625 9.703125 65.078125 9.296875 67 
L 7.5 67 
L 4.59375 48.34375 
L 6.40625 48.34375 
C 6.703125 50.234375 7.40625 55.3125 8.59375 57.203125 
C 9.203125 58 16.59375 58 18.296875 58 
L 40.296875 58 
L 29.203125 41.578125 
C 21.796875 30.53125 16.703125 15.609375 16.703125 2.578125 
C 16.703125 1.390625 16.703125 -2 20.296875 -2 
C 23.90625 -2 23.90625 1.390625 23.90625 2.671875 
L 23.90625 7.265625 
C 23.90625 23.5625 26.703125 34.3125 31.296875 41.1875 
z
" id="CMR17-55"/>
      </defs>
      <g transform="translate(1153.689039 669.514752)scale(0.35 -0.35)">
       <use transform="scale(0.996264)" xlink:href="#CMR17-55"/>
      </g>
     </g>
    </g>
    <g id="text_9">
     <!-- $\Omega\tau/2\pi$ -->
     <defs>
      <path d="M 63.09375 14.609375 
L 61.296875 14.609375 
C 60.40625 10.015625 60.09375 8.796875 59.59375 7.203125 
C 59.09375 5.703125 58.796875 4.90625 53 4.90625 
L 44.90625 4.90625 
C 46 10.71875 48.40625 15.015625 52.59375 21.734375 
C 57.796875 30.234375 62.09375 37.140625 62.09375 45.46875 
C 62.09375 58.984375 49.296875 70 33.40625 70 
C 17.09375 70 4.59375 58.875 4.59375 45.46875 
C 4.59375 37.140625 9 30.03125 13.90625 22.125 
C 18.296875 15.015625 20.703125 10.71875 21.796875 4.90625 
L 13.703125 4.90625 
C 8 4.90625 7.703125 5.703125 7.203125 7.09375 
C 6.59375 8.703125 6.40625 10.015625 5.40625 14.609375 
L 3.59375 14.609375 
L 6.5 0 
L 21.59375 0 
C 23.703125 0 23.796875 0.09375 23.796875 1.59375 
C 23.796875 8.71875 20.09375 18.03125 18.40625 22.328125 
C 15.203125 30.140625 12.203125 37.75 12.203125 45.5625 
C 12.203125 60.484375 22.90625 68.390625 33.296875 68.390625 
C 44.203125 68.390625 54.5 60.171875 54.5 45.5625 
C 54.5 37.84375 51.796875 30.953125 48.09375 21.828125 
C 46.5 17.734375 42.90625 8.609375 42.90625 1.59375 
C 42.90625 0 43 0 45.09375 0 
L 60.203125 0 
z
" id="CMR17-10"/>
      <path d="M 28.703125 37.625 
L 45.296875 37.625 
C 46.59375 37.625 49.90625 37.625 49.90625 40.8125 
C 49.90625 43 48 43 46.203125 43 
L 18.703125 43 
C 16.40625 43 13 43 8.40625 38.125 
C 5.796875 35.234375 2.59375 29.953125 2.59375 29.359375 
C 2.59375 28.765625 3.09375 28.5625 3.703125 28.5625 
C 4.40625 28.5625 4.5 28.859375 5 29.453125 
C 10.203125 37.625 15.40625 37.625 17.90625 37.625 
L 26.203125 37.625 
L 15.796875 3.484375 
C 15.296875 1.984375 15.296875 1.78125 15.296875 1.484375 
C 15.296875 0.390625 16 -1 18 -1 
C 21.09375 -1 21.59375 1.6875 21.90625 3.171875 
z
" id="CMMI12-28"/>
      <path d="M 42.90625 71.28125 
C 42.90625 71.390625 43.5 72.90625 43.5 73.09375 
C 43.5 74.296875 42.5 75 41.703125 75 
C 41.203125 75 40.296875 75 39.5 72.796875 
L 6 -21.296875 
C 6 -21.40625 5.40625 -22.890625 5.40625 -23.09375 
C 5.40625 -24.296875 6.40625 -25 7.203125 -25 
C 7.796875 -25 8.703125 -24.890625 9.40625 -22.796875 
z
" id="CMMI12-61"/>
      <path d="M 25.90625 37.625 
L 37.203125 37.625 
C 34.5 26.4375 32.796875 19.15625 32.796875 11.1875 
C 32.796875 9.78125 32.796875 -1 36.90625 -1 
C 39 -1 40.796875 0.890625 40.796875 2.59375 
C 40.796875 3.078125 40.796875 3.28125 40.09375 4.78125 
C 37.40625 11.671875 37.40625 20.25 37.40625 20.953125 
C 37.40625 21.546875 37.40625 28.625 39.5 37.625 
L 50.703125 37.625 
C 52 37.625 55.296875 37.625 55.296875 40.8125 
C 55.296875 43 53.40625 43 51.59375 43 
L 18.703125 43 
C 16.40625 43 13 43 8.40625 38.125 
C 5.796875 35.21875 2.59375 29.9375 2.59375 29.34375 
C 2.59375 28.75 3.09375 28.546875 3.703125 28.546875 
C 4.40625 28.546875 4.5 28.84375 5 29.4375 
C 10.203125 37.625 15.40625 37.625 17.90625 37.625 
L 23.59375 37.625 
C 21.40625 30.140625 18.90625 21.453125 10.703125 4 
C 9.90625 2.40625 9.90625 2.1875 9.90625 1.59375 
C 9.90625 -0.5 11.703125 -1 12.59375 -1 
C 15.5 -1 16.296875 1.59375 17.5 5.78125 
C 19.09375 10.875 19.09375 11.078125 20.09375 15.0625 
z
" id="CMMI12-25"/>
     </defs>
     <g transform="translate(657.059265 716.128984)scale(0.6 -0.6)">
      <use transform="scale(0.996264)" xlink:href="#CMR17-10"/>
      <use transform="translate(66.509881 0)scale(0.996264)" xlink:href="#CMMI12-28"/>
      <use transform="translate(120.001046 0)scale(0.996264)" xlink:href="#CMMI12-61"/>
      <use transform="translate(168.775965 0)scale(0.996264)" xlink:href="#CMR17-50"/>
      <use transform="translate(214.466442 0)scale(0.996264)" xlink:href="#CMMI12-25"/>
     </g>
    </g>
   </g>
   <g id="matplotlib.axis_2">
    <g id="ytick_1">
     <g id="line2d_17">
      <path clip-path="url(#pa93a2df643)" d="M 180 538.396573 
L 1296 538.396573 
" style="fill:none;stroke:#b0b0b0;stroke-linecap:square;stroke-width:0.8;"/>
     </g>
     <g id="line2d_18">
      <defs>
       <path d="M 0 0 
L -3.5 0 
" id="mab53fa023c" style="stroke:#000000;stroke-width:0.8;"/>
      </defs>
      <g>
       <use style="stroke:#000000;stroke-width:0.8;" x="180" xlink:href="#mab53fa023c" y="538.396573"/>
      </g>
     </g>
     <g id="text_10">
      <!-- $-0.2$ -->
      <defs>
       <path d="M 65.90625 23 
C 67.59375 23 69.40625 23 69.40625 25 
C 69.40625 27 67.59375 27 65.90625 27 
L 11.796875 27 
C 10.09375 27 8.296875 27 8.296875 25 
C 8.296875 23 10.09375 23 11.796875 23 
z
" id="CMSY10-0"/>
       <path d="M 18.40625 4.796875 
C 18.40625 7.6875 16 9.671875 13.59375 9.671875 
C 10.703125 9.671875 8.703125 7.28125 8.703125 4.890625 
C 8.703125 2 11.09375 0 13.5 0 
C 16.40625 0 18.40625 2.390625 18.40625 4.796875 
z
" id="CMMI12-58"/>
      </defs>
      <g transform="translate(106.912051 550.503949)scale(0.35 -0.35)">
       <use transform="scale(0.996264)" xlink:href="#CMSY10-0"/>
       <use transform="translate(77.487468 0)scale(0.996264)" xlink:href="#CMR17-48"/>
       <use transform="translate(123.177945 0)scale(0.996264)" xlink:href="#CMMI12-58"/>
       <use transform="translate(150.275122 0)scale(0.996264)" xlink:href="#CMR17-50"/>
      </g>
     </g>
    </g>
    <g id="ytick_2">
     <g id="line2d_19">
      <path clip-path="url(#pa93a2df643)" d="M 180 432.329838 
L 1296 432.329838 
" style="fill:none;stroke:#b0b0b0;stroke-linecap:square;stroke-width:0.8;"/>
     </g>
     <g id="line2d_20">
      <g>
       <use style="stroke:#000000;stroke-width:0.8;" x="180" xlink:href="#mab53fa023c" y="432.329838"/>
      </g>
     </g>
     <g id="text_11">
      <!-- $0.0$ -->
      <g transform="translate(134.032654 444.437214)scale(0.35 -0.35)">
       <use transform="scale(0.996264)" xlink:href="#CMR17-48"/>
       <use transform="translate(45.690477 0)scale(0.996264)" xlink:href="#CMMI12-58"/>
       <use transform="translate(72.787654 0)scale(0.996264)" xlink:href="#CMR17-48"/>
      </g>
     </g>
    </g>
    <g id="ytick_3">
     <g id="line2d_21">
      <path clip-path="url(#pa93a2df643)" d="M 180 326.263103 
L 1296 326.263103 
" style="fill:none;stroke:#b0b0b0;stroke-linecap:square;stroke-width:0.8;"/>
     </g>
     <g id="line2d_22">
      <g>
       <use style="stroke:#000000;stroke-width:0.8;" x="180" xlink:href="#mab53fa023c" y="326.263103"/>
      </g>
     </g>
     <g id="text_12">
      <!-- $0.2$ -->
      <g transform="translate(134.032654 338.370478)scale(0.35 -0.35)">
       <use transform="scale(0.996264)" xlink:href="#CMR17-48"/>
       <use transform="translate(45.690477 0)scale(0.996264)" xlink:href="#CMMI12-58"/>
       <use transform="translate(72.787654 0)scale(0.996264)" xlink:href="#CMR17-50"/>
      </g>
     </g>
    </g>
    <g id="ytick_4">
     <g id="line2d_23">
      <path clip-path="url(#pa93a2df643)" d="M 180 220.196367 
L 1296 220.196367 
" style="fill:none;stroke:#b0b0b0;stroke-linecap:square;stroke-width:0.8;"/>
     </g>
     <g id="line2d_24">
      <g>
       <use style="stroke:#000000;stroke-width:0.8;" x="180" xlink:href="#mab53fa023c" y="220.196367"/>
      </g>
     </g>
     <g id="text_13">
      <!-- $0.4$ -->
      <g transform="translate(134.032654 232.303743)scale(0.35 -0.35)">
       <use transform="scale(0.996264)" xlink:href="#CMR17-48"/>
       <use transform="translate(45.690477 0)scale(0.996264)" xlink:href="#CMMI12-58"/>
       <use transform="translate(72.787654 0)scale(0.996264)" xlink:href="#CMR17-52"/>
      </g>
     </g>
    </g>
    <g id="ytick_5">
     <g id="line2d_25">
      <path clip-path="url(#pa93a2df643)" d="M 180 114.129632 
L 1296 114.129632 
" style="fill:none;stroke:#b0b0b0;stroke-linecap:square;stroke-width:0.8;"/>
     </g>
     <g id="line2d_26">
      <g>
       <use style="stroke:#000000;stroke-width:0.8;" x="180" xlink:href="#mab53fa023c" y="114.129632"/>
      </g>
     </g>
     <g id="text_14">
      <!-- $0.6$ -->
      <g transform="translate(134.032654 126.237008)scale(0.35 -0.35)">
       <use transform="scale(0.996264)" xlink:href="#CMR17-48"/>
       <use transform="translate(45.690477 0)scale(0.996264)" xlink:href="#CMMI12-58"/>
       <use transform="translate(72.787654 0)scale(0.996264)" xlink:href="#CMR17-54"/>
      </g>
     </g>
    </g>
    <g id="text_15">
     <!--  $\frac{ 2\pi\sigma}{\omega}$,  $\frac{\gamma}{\omega}$  -->
     <defs>
      <path d="M 50.796875 37.625 
C 52.09375 37.625 55.40625 37.625 55.40625 40.8125 
C 55.40625 43 53.5 43 51.703125 43 
L 29.59375 43 
C 14.59375 43 3.796875 26.34375 3.796875 14.5625 
C 3.796875 6.09375 9.296875 -1 18.296875 -1 
C 30.09375 -1 43 11.671875 43 26.640625 
C 43 30.53125 42.09375 34.3125 39.703125 37.625 
z
M 18.40625 1 
C 13.296875 1 9.59375 4.890625 9.59375 11.78125 
C 9.59375 17.765625 13.203125 37.625 27.90625 37.625 
C 32.203125 37.625 37 35.53125 37 27.828125 
C 37 24.34375 35.40625 15.953125 31.90625 10.1875 
C 28.296875 4.296875 22.90625 1 18.40625 1 
z
" id="CMMI12-27"/>
      <path d="M 59.40625 37.421875 
C 59.40625 40.3125 58.59375 44 55.09375 44 
C 53.09375 44 50.796875 41.515625 50.796875 39.515625 
C 50.796875 38.625 51.203125 38.03125 52 37.125 
C 53.5 35.4375 55.40625 32.75 55.40625 28.078125 
C 55.40625 24.484375 53.203125 18.8125 51.59375 15.734375 
C 48.796875 10.25 44.203125 5.578125 39 5.578125 
C 32.703125 5.578125 30.296875 9.609375 29.203125 15.234375 
C 30.296875 17.859375 32.59375 24.375 32.59375 27 
C 32.59375 28.09375 32.203125 29 30.90625 29 
C 30.203125 29 29.40625 28.609375 28.90625 27.796875 
C 27.5 25.59375 26.203125 17.640625 26.296875 15.53125 
C 24.40625 11.8125 19 5.578125 12.59375 5.578125 
C 5.90625 5.578125 4.09375 11.453125 4.09375 17.125 
C 4.09375 27.46875 10.59375 36.53125 12.40625 39.015625 
C 13.40625 40.515625 14.09375 41.515625 14.09375 41.703125 
C 14.09375 42.40625 13.703125 43.5 12.796875 43.5 
C 11.203125 43.5 10.703125 42.203125 9.90625 41.015625 
C 4.796875 33.140625 1.203125 22.09375 1.203125 12.546875 
C 1.203125 6.375 3.5 -1 11 -1 
C 19.296875 -1 24.5 6.109375 26.59375 9.90625 
C 27.40625 4.296875 30.40625 -1 37.703125 -1 
C 45.296875 -1 50.09375 5.671875 53.703125 13.734375 
C 56.296875 19.515625 59.40625 31.953125 59.40625 37.421875 
z
" id="CMMI12-33"/>
      <path d="M 17 0.09375 
L 17 7.96875 
L 9 7.96875 
L 9 0 
L 11.5 0 
L 8.90625 -12.5 
L 12.90625 -12.5 
z
" id="CMSS17-44"/>
      <path d="M 37.796875 11.875 
C 37.59375 16.734375 37.40625 24.390625 33.59375 33.328125 
C 31.59375 38.3125 28.203125 43.5625 20.90625 43.5625 
C 8.59375 43.5625 1.90625 27.96875 1.90625 25.390625 
C 1.90625 24.484375 2.59375 24.484375 2.90625 24.484375 
C 3.796875 24.484375 3.796875 24.6875 4.296875 25.984375 
C 6.40625 32.140625 12.796875 37 19.703125 37 
C 33.59375 37 35.59375 21.609375 35.59375 11.78125 
C 35.59375 5.5 34.90625 3.4375 34.296875 1.4375 
C 32.40625 -4.71875 29.09375 -17.03125 29.09375 -19.8125 
C 29.09375 -20.609375 29.40625 -21.5 30.203125 -21.5 
C 31.703125 -21.5 32.59375 -18.21875 33.703125 -14.25 
C 36.09375 -5.515625 36.703125 -1.140625 37.203125 2.828125 
C 37.5 5.21875 43.203125 21.625 51.09375 37.21875 
C 51.796875 38.796875 53.203125 41.484375 53.203125 41.78125 
C 53.203125 41.875 53.09375 42.578125 52.203125 42.578125 
C 52 42.578125 51.5 42.578125 51.296875 42.171875 
C 51.09375 41.984375 47.59375 35.21875 44.59375 28.46875 
C 43.09375 25.09375 41.09375 20.625 37.796875 11.875 
z
" id="CMMI12-13"/>
     </defs>
     <g transform="translate(60.440601 456.939856)rotate(-90)scale(0.85 -0.85)">
      <use transform="translate(0 73.581354)scale(0.697382)" xlink:href="#CMR17-50"/>
      <use transform="translate(31.983182 73.581354)scale(0.697382)" xlink:href="#CMMI12-25"/>
      <use transform="translate(73.220403 73.581354)scale(0.697382)" xlink:href="#CMMI12-27"/>
      <use transform="translate(34.755805 0)scale(0.697382)" xlink:href="#CMMI12-33"/>
      <use transform="translate(115.729755 34.355253)scale(0.996264)" xlink:href="#CMSS17-44"/>
      <use transform="translate(177.083511 78.799427)scale(0.697382)" xlink:href="#CMMI12-13"/>
      <use transform="translate(174.178587 0)scale(0.697382)" xlink:href="#CMMI12-33"/>
      <path d="M 0 57.269386 
L 114.534242 57.269386 
L 114.534242 61.254336 
L 0 61.254336 
L 0 57.269386 
z
"/>
      <path d="M 174.178587 57.269386 
L 219.201219 57.269386 
L 219.201219 61.254336 
L 174.178587 61.254336 
L 174.178587 57.269386 
z
"/>
     </g>
    </g>
   </g>
   <g id="line2d_27">
    <path clip-path="url(#pa93a2df643)" d="M 180 615.6 
L 180.446579 415.395352 
L 181.339736 387.727473 
L 182.679472 354.624158 
L 184.019208 327.241716 
L 185.805522 296.258423 
L 187.591837 269.663844 
L 189.378151 246.355375 
L 191.164466 225.703441 
L 192.95078 207.313075 
L 194.737095 190.920082 
L 196.523409 176.339252 
L 198.309724 163.435948 
L 200.096038 152.109372 
L 201.882353 142.282174 
L 203.668667 133.893711 
L 205.008403 128.517027 
L 206.348139 123.905239 
L 207.687875 120.043726 
L 209.027611 116.919813 
L 210.367347 114.522471 
L 211.260504 113.323094 
L 212.153661 112.439812 
L 213.046819 111.870327 
L 213.939976 111.612569 
L 214.833133 111.664683 
L 215.726291 112.025029 
L 216.619448 112.692184 
L 217.512605 113.664943 
L 218.405762 114.942334 
L 219.29892 116.523623 
L 220.638655 119.464401 
L 221.978391 123.087539 
L 223.318127 127.394237 
L 224.657863 132.387564 
L 226.444178 140.122897 
L 228.230492 149.108562 
L 230.016807 159.375285 
L 231.803121 170.96789 
L 233.589436 183.950096 
L 235.37575 198.411583 
L 237.162065 214.478793 
L 238.948379 232.332182 
L 240.734694 252.23545 
L 242.521008 274.588776 
L 244.307323 300.035691 
L 245.647059 321.800152 
L 246.986795 346.767252 
L 248.326531 376.567642 
L 249.219688 400.867141 
L 250.112845 432.019568 
L 250.559424 452.997123 
L 251.452581 521.760078 
L 256.811525 512.52356 
L 261.72389 504.226597 
L 264.84994 499.378411 
L 267.529412 495.622282 
L 269.762305 492.824934 
L 271.995198 490.360117 
L 274.228091 488.247541 
L 276.014406 486.819982 
L 277.80072 485.630256 
L 279.587035 484.6805 
L 281.373349 483.97132 
L 283.159664 483.502117 
L 284.945978 483.271359 
L 286.732293 483.276826 
L 288.518607 483.515818 
L 290.304922 483.985323 
L 292.091236 484.682171 
L 293.877551 485.603158 
L 295.663866 486.745146 
L 297.896759 488.478904 
L 300.129652 490.548076 
L 302.362545 492.948183 
L 304.595438 495.675718 
L 306.828331 498.728328 
L 309.507803 502.819213 
L 312.187275 507.377916 
L 314.866747 512.409165 
L 317.546218 517.921877 
L 318.885954 520.862879 
L 319.779112 454.31458 
L 320.672269 416.050495 
L 321.565426 388.969661 
L 322.905162 357.21098 
L 324.244898 331.357886 
L 325.584634 309.232581 
L 327.370948 283.780321 
L 329.157263 261.776588 
L 330.943577 242.473933 
L 332.729892 225.412973 
L 334.516206 210.290407 
L 336.302521 196.895443 
L 338.088836 185.075776 
L 339.87515 174.717952 
L 341.661465 165.735326 
L 343.447779 158.060361 
L 344.787515 153.129662 
L 346.127251 148.885608 
L 347.466987 145.312331 
L 348.806723 142.396224 
L 350.146459 140.125605 
L 351.039616 138.965453 
L 351.932773 138.085104 
L 352.82593 137.48223 
L 353.719088 137.154762 
L 354.612245 137.100876 
L 355.505402 137.318991 
L 356.398559 137.807762 
L 357.291717 138.566082 
L 358.184874 139.593086 
L 359.078031 140.888158 
L 360.417767 143.332692 
L 361.757503 146.379625 
L 363.097239 150.030485 
L 364.436975 154.28856 
L 365.776711 159.159163 
L 367.563025 166.619832 
L 369.34934 175.209853 
L 371.135654 184.967341 
L 372.921969 195.945963 
L 374.708283 208.220571 
L 376.494598 221.895751 
L 378.280912 237.119271 
L 380.067227 254.104377 
L 381.853541 273.169134 
L 383.639856 294.811959 
L 385.42617 319.874489 
L 386.765906 341.824443 
L 388.105642 367.880853 
L 388.9988 388.857183 
L 389.891957 414.928698 
L 390.338535 431.403025 
L 390.785114 452.556267 
L 391.678271 516.214201 
L 393.464586 506.707734 
L 395.2509 498.250729 
L 397.037215 490.738745 
L 398.823529 484.078715 
L 400.609844 478.187531 
L 402.396158 472.991098 
L 404.182473 468.423631 
L 405.968788 464.427087 
L 407.755102 460.950647 
L 409.541417 457.950224 
L 411.327731 455.387966 
L 413.114046 453.231763 
L 414.90036 451.454739 
L 416.686675 450.034759 
L 418.472989 448.95395 
L 420.259304 448.198232 
L 421.59904 447.838231 
L 422.938776 447.651612 
L 424.278511 447.635838 
L 425.618247 447.78916 
L 427.404562 448.254955 
L 429.190876 449.019035 
L 430.977191 450.08278 
L 432.763505 451.449437 
L 434.54982 453.124093 
L 436.336134 455.113721 
L 438.122449 457.42732 
L 439.908764 460.076147 
L 441.695078 463.07407 
L 443.481393 466.438062 
L 445.714286 471.189907 
L 447.947179 476.597793 
L 450.180072 482.728667 
L 452.412965 489.671282 
L 454.19928 495.88911 
L 455.985594 502.784361 
L 457.771909 510.465717 
L 459.111645 516.829631 
L 459.558223 494.254325 
L 460.004802 455.506551 
L 460.897959 416.687913 
L 461.791116 390.110356 
L 463.130852 359.441013 
L 464.470588 334.7426 
L 465.810324 313.742278 
L 467.596639 289.699213 
L 469.382953 268.985705 
L 471.169268 250.852268 
L 472.955582 234.842525 
L 474.741897 220.657714 
L 476.528211 208.091961 
L 478.314526 196.997865 
L 480.10084 187.266736 
L 481.887155 178.816535 
L 483.673469 171.584183 
L 485.013205 166.929114 
L 486.352941 162.914393 
L 487.692677 159.525903 
L 489.032413 156.751755 
L 490.372149 154.581946 
L 491.265306 153.46695 
L 492.158463 152.61467 
L 493.051621 152.023238 
L 493.944778 151.691035 
L 494.837935 151.616672 
L 495.731092 151.798982 
L 496.62425 152.237018 
L 497.517407 152.93005 
L 498.410564 153.877562 
L 499.303721 155.079261 
L 500.643457 157.358333 
L 501.983193 160.210042 
L 503.322929 163.636527 
L 504.662665 167.641436 
L 506.002401 172.230154 
L 507.788715 179.269783 
L 509.57503 187.385446 
L 511.361345 196.612032 
L 513.147659 206.998196 
L 514.933974 218.611637 
L 516.720288 231.547184 
L 518.506603 245.939686 
L 520.292917 261.985544 
L 522.079232 279.981043 
L 523.865546 300.396614 
L 525.651861 324.038631 
L 526.991597 344.772335 
L 528.331333 369.471678 
L 529.22449 389.482431 
L 530.117647 414.634256 
L 530.564226 430.793145 
L 531.010804 452.09141 
L 531.457383 492.315841 
L 531.903962 509.298287 
L 533.243697 497.66234 
L 534.583433 488.324707 
L 535.923169 480.629206 
L 537.262905 474.175137 
L 538.602641 468.695829 
L 539.942377 464.002614 
L 541.282113 459.955844 
L 542.621849 456.448603 
L 544.408163 452.468933 
L 546.194478 449.146549 
L 547.980792 446.364226 
L 549.767107 444.031934 
L 551.553421 442.080298 
L 553.339736 440.456142 
L 555.12605 439.119298 
L 556.912365 438.040228 
L 558.698679 437.198185 
L 560.484994 436.579757 
L 562.271309 436.177694 
L 564.057623 435.98996 
L 565.843938 436.018968 
L 567.630252 436.270983 
L 569.416567 436.755683 
L 571.202881 437.485857 
L 572.989196 438.477271 
L 574.77551 439.748686 
L 576.561825 441.322066 
L 578.348139 443.223 
L 580.134454 445.48139 
L 581.920768 448.132496 
L 583.707083 451.218456 
L 585.493397 454.790483 
L 587.279712 458.912095 
L 589.066026 463.663908 
L 590.852341 469.151015 
L 592.638655 475.514769 
L 594.42497 482.952584 
L 595.764706 489.404579 
L 597.104442 496.796201 
L 598.444178 505.383029 
L 599.337335 511.957238 
L 599.783914 508.606686 
L 600.230492 456.802242 
L 600.677071 434.219959 
L 601.570228 403.313055 
L 602.463385 380.323933 
L 603.803121 352.949302 
L 605.142857 330.523594 
L 606.482593 311.281665 
L 608.268908 289.107349 
L 610.055222 269.905339 
L 611.841537 253.032231 
L 613.627851 238.0923 
L 615.414166 224.825421 
L 617.20048 213.052334 
L 618.986795 202.645127 
L 620.773109 193.510081 
L 622.559424 185.577138 
L 624.345738 178.793124 
L 625.685474 174.434187 
L 627.02521 170.684722 
L 628.364946 167.533459 
L 629.704682 164.971123 
L 631.044418 162.990118 
L 631.937575 161.989321 
L 632.830732 161.242629 
L 633.72389 160.748768 
L 634.617047 160.50668 
L 635.510204 160.515507 
L 636.403361 160.77459 
L 637.296519 161.28346 
L 638.189676 162.041833 
L 639.082833 163.049616 
L 639.97599 164.306907 
L 641.315726 166.661371 
L 642.655462 169.579826 
L 643.995198 173.065322 
L 645.334934 177.122231 
L 646.67467 181.756465 
L 648.460984 188.847205 
L 650.247299 197.003098 
L 652.033613 206.258386 
L 653.819928 216.660323 
L 655.606242 228.274545 
L 657.392557 241.193483 
L 659.178872 255.550039 
L 660.965186 271.541011 
L 662.751501 289.469969 
L 664.537815 309.833303 
L 665.877551 327.210513 
L 667.217287 347.104069 
L 668.557023 370.788459 
L 669.45018 390.016406 
L 670.343337 414.351185 
L 670.789916 430.191413 
L 671.236495 451.600098 
L 671.683073 508.033593 
L 672.57623 496.265709 
L 673.469388 487.388961 
L 674.362545 480.348215 
L 675.255702 474.590299 
L 676.595438 467.66829 
L 677.935174 462.232476 
L 679.27491 457.877927 
L 680.614646 454.340939 
L 681.954382 451.438236 
L 683.294118 449.036286 
L 684.633854 447.034378 
L 685.973589 445.354628 
L 687.759904 443.512017 
L 689.546218 442.022591 
L 691.332533 440.803083 
L 693.565426 439.565889 
L 695.798319 438.570451 
L 698.477791 437.621066 
L 701.157263 436.895407 
L 703.836735 436.383266 
L 706.516206 436.104023 
L 708.7491 436.079733 
L 710.981993 436.282476 
L 712.768307 436.637774 
L 714.554622 437.193547 
L 716.340936 437.980454 
L 718.127251 439.03349 
L 719.913565 440.392861 
L 721.69988 442.105351 
L 723.486194 444.22639 
L 724.82593 446.125133 
L 726.165666 448.325274 
L 727.505402 450.867717 
L 728.845138 453.802444 
L 730.184874 457.191868 
L 731.52461 461.115861 
L 732.864346 465.679608 
L 734.204082 471.02642 
L 735.543818 477.359895 
L 736.883553 484.985194 
L 738.223289 494.393923 
L 739.116447 502.063026 
L 740.009604 511.348391 
L 740.456182 458.227756 
L 740.902761 434.865047 
L 741.795918 404.074658 
L 742.689076 381.550355 
L 744.028812 354.916415 
L 745.368547 333.161898 
L 746.708283 314.503517 
L 748.494598 292.981158 
L 750.280912 274.306789 
L 752.067227 257.856685 
L 753.853541 243.25135 
L 755.639856 230.243909 
L 757.42617 218.666052 
L 759.212485 208.399065 
L 760.9988 199.357099 
L 762.785114 191.476926 
L 764.571429 184.711384 
L 765.911164 180.347027 
L 767.2509 176.577911 
L 768.590636 173.394654 
L 769.930372 170.789725 
L 771.270108 168.757146 
L 772.163265 167.717716 
L 773.056423 166.929477 
L 773.94958 166.391543 
L 774.842737 166.103222 
L 775.735894 166.064 
L 776.629052 166.273537 
L 777.522209 166.731659 
L 778.415366 167.438356 
L 779.308523 168.393779 
L 780.201681 169.598246 
L 781.541417 171.873017 
L 782.881152 174.71168 
L 784.220888 178.117639 
L 785.560624 182.095428 
L 786.90036 186.650906 
L 788.686675 193.636633 
L 790.472989 201.686 
L 792.259304 210.830452 
L 794.045618 221.112865 
L 795.831933 232.592404 
L 797.618247 245.352203 
L 799.404562 259.512005 
L 801.190876 275.250008 
L 802.977191 292.843327 
L 804.763505 312.75003 
L 806.103241 329.671966 
L 807.442977 348.975768 
L 808.782713 371.887842 
L 809.67587 390.473032 
L 810.569028 414.078373 
L 811.015606 429.59917 
L 811.462185 451.079978 
L 811.908764 501.715968 
L 812.801921 488.137227 
L 813.695078 478.94998 
L 814.588235 472.173441 
L 815.481393 466.940266 
L 816.37455 462.785039 
L 817.267707 459.425699 
L 818.160864 456.67663 
L 819.5006 453.423524 
L 820.840336 450.956802 
L 822.180072 449.073351 
L 823.519808 447.629242 
L 824.859544 446.518378 
L 826.19928 445.660334 
L 827.985594 444.804204 
L 830.218487 444.046545 
L 832.897959 443.402275 
L 838.256903 442.415454 
L 851.654262 440.122872 
L 854.333733 439.990789 
L 856.566627 440.119042 
L 858.352941 440.432768 
L 860.139256 440.984084 
L 861.92557 441.826928 
L 863.265306 442.688252 
L 864.605042 443.780728 
L 865.944778 445.141377 
L 867.284514 446.814411 
L 868.62425 448.853789 
L 869.963986 451.327023 
L 871.303721 454.321018 
L 872.643457 457.951437 
L 873.983193 462.378444 
L 875.322929 467.835027 
L 876.662665 474.682393 
L 877.555822 480.304539 
L 878.44898 487.101759 
L 879.342137 495.563507 
L 880.235294 506.602027 
L 880.681873 459.820248 
L 881.128451 435.520334 
L 882.021609 404.802512 
L 882.914766 382.678041 
L 884.254502 356.652764 
L 885.594238 335.42035 
L 886.933974 317.192482 
L 888.720288 296.122021 
L 890.506603 277.78584 
L 892.292917 261.583113 
L 894.079232 247.152094 
L 895.865546 234.259806 
L 897.651861 222.749038 
L 899.438175 212.510117 
L 901.22449 203.464684 
L 903.010804 195.555808 
L 904.797119 188.741686 
L 906.583433 182.991475 
L 907.923169 179.363096 
L 909.262905 176.313019 
L 910.602641 173.835599 
L 911.942377 171.926524 
L 912.835534 170.967945 
L 913.728691 170.259839 
L 914.621849 169.801693 
L 915.515006 169.593159 
L 916.408163 169.634045 
L 917.301321 169.924311 
L 918.194478 170.464065 
L 919.087635 171.253556 
L 919.980792 172.293183 
L 921.320528 174.322863 
L 922.660264 176.919121 
L 924 180.085327 
L 925.339736 183.825823 
L 926.679472 188.146081 
L 928.465786 194.820273 
L 930.252101 202.558247 
L 932.038415 211.387681 
L 933.82473 221.345685 
L 935.611044 232.482702 
L 937.397359 244.868663 
L 939.183673 258.603071 
L 940.969988 273.832405 
L 942.756303 290.782101 
L 944.542617 309.82055 
L 946.328932 331.603359 
L 947.668667 350.49219 
L 949.008403 372.810701 
L 949.901561 390.863195 
L 950.794718 413.814773 
L 951.241297 429.017584 
L 951.687875 450.528904 
L 952.134454 495.421957 
L 953.027611 481.129414 
L 953.920768 472.304294 
L 954.813926 466.182352 
L 955.707083 461.693729 
L 956.60024 458.301404 
L 957.493397 455.693519 
L 958.386555 453.67086 
L 959.279712 452.097276 
L 960.172869 450.874928 
L 961.066026 449.930766 
L 962.405762 448.916619 
L 963.745498 448.262422 
L 965.085234 447.865351 
L 966.871549 447.607089 
L 969.104442 447.544517 
L 979.822329 447.631327 
L 982.948379 447.276551 
L 986.07443 446.707785 
L 990.093637 445.744257 
L 996.345738 444.221088 
L 998.578631 443.882465 
L 1000.364946 443.781836 
L 1002.151261 443.893414 
L 1003.490996 444.156567 
L 1004.830732 444.610546 
L 1006.170468 445.294859 
L 1007.510204 446.256689 
L 1008.84994 447.553636 
L 1010.189676 449.257904 
L 1011.529412 451.462881 
L 1012.869148 454.293957 
L 1013.762305 456.613194 
L 1014.655462 459.358423 
L 1015.548619 462.624823 
L 1016.441777 466.544547 
L 1017.334934 471.309793 
L 1018.228091 477.217577 
L 1019.121248 484.767135 
L 1020.014406 494.910248 
L 1020.460984 501.547515 
L 1020.907563 461.635357 
L 1021.354142 436.187668 
L 1022.247299 405.500535 
L 1023.140456 383.721447 
L 1024.480192 358.199598 
L 1025.819928 337.375253 
L 1027.159664 319.464553 
L 1028.945978 298.702501 
L 1030.732293 280.573211 
L 1032.518607 264.500244 
L 1034.304922 250.13999 
L 1036.091236 237.273207 
L 1037.877551 225.753307 
L 1039.663866 215.478984 
L 1041.45018 206.378565 
L 1043.236495 198.40053 
L 1045.022809 191.507494 
L 1046.809124 185.672242 
L 1048.14886 181.977886 
L 1049.488595 178.861156 
L 1050.828331 176.317338 
L 1052.168067 174.342933 
L 1053.061224 173.341748 
L 1053.954382 172.592013 
L 1054.847539 172.093387 
L 1055.740696 171.845677 
L 1056.633854 171.848835 
L 1057.527011 172.10295 
L 1058.420168 172.608248 
L 1059.313325 173.365089 
L 1060.206483 174.373968 
L 1061.09964 175.63552 
L 1062.439376 178.003366 
L 1063.779112 180.944833 
L 1065.118848 184.464116 
L 1066.458583 188.566428 
L 1067.798319 193.258184 
L 1069.584634 200.444593 
L 1071.370948 208.716733 
L 1073.157263 218.105762 
L 1074.943577 228.653164 
L 1076.729892 240.415126 
L 1078.516206 253.469574 
L 1080.302521 267.928058 
L 1082.088836 283.957072 
L 1083.87515 301.819346 
L 1085.661465 321.9623 
L 1087.447779 345.237254 
L 1088.787515 365.825344 
L 1089.680672 381.980943 
L 1090.57383 401.537875 
L 1091.466987 428.447642 
L 1091.913565 449.945072 
L 1092.360144 489.520001 
L 1092.806723 481.22003 
L 1093.69988 470.725441 
L 1094.593037 464.187526 
L 1095.486194 459.740489 
L 1096.379352 456.589932 
L 1097.272509 454.31686 
L 1098.165666 452.670199 
L 1099.058824 451.486067 
L 1099.951981 450.650808 
L 1100.845138 450.082034 
L 1101.738295 449.718057 
L 1103.078031 449.45556 
L 1104.417767 449.431421 
L 1106.204082 449.629421 
L 1109.330132 450.266385 
L 1114.242497 451.281233 
L 1117.368547 451.687176 
L 1120.048019 451.823958 
L 1122.727491 451.748054 
L 1125.406963 451.455786 
L 1128.086435 450.955245 
L 1131.212485 450.138652 
L 1135.231693 448.832471 
L 1140.144058 447.23141 
L 1142.376951 446.712485 
L 1144.163265 446.502998 
L 1145.503001 446.518774 
L 1146.842737 446.7296 
L 1148.182473 447.187186 
L 1149.522209 447.955321 
L 1150.415366 448.678919 
L 1151.308523 449.605584 
L 1152.201681 450.77137 
L 1153.094838 452.221038 
L 1153.987995 454.011487 
L 1154.881152 456.217086 
L 1155.77431 458.938335 
L 1156.667467 462.3167 
L 1157.560624 466.561885 
L 1158.453782 472.006784 
L 1159.346939 479.233375 
L 1160.240096 489.422866 
L 1160.686675 496.428641 
L 1161.579832 436.869127 
L 1162.472989 406.17207 
L 1163.366146 384.692255 
L 1164.705882 359.588554 
L 1166.045618 339.083162 
L 1167.831933 315.981134 
L 1169.618247 296.129236 
L 1171.404562 278.652157 
L 1173.190876 263.070318 
L 1174.977191 249.094765 
L 1176.763505 236.540126 
L 1178.54982 225.282184 
L 1180.336134 215.23509 
L 1182.122449 206.338201 
L 1183.908764 198.548054 
L 1185.695078 191.833253 
L 1187.481393 186.171097 
L 1188.821128 182.605288 
L 1190.160864 179.617309 
L 1191.5006 177.203394 
L 1192.840336 175.360834 
L 1193.733493 174.448957 
L 1194.626651 173.789864 
L 1195.519808 173.383369 
L 1196.412965 173.229425 
L 1197.306122 173.328115 
L 1198.19928 173.679656 
L 1199.092437 174.284394 
L 1199.985594 175.142806 
L 1200.878752 176.255503 
L 1202.218487 178.403022 
L 1203.558223 181.127597 
L 1204.897959 184.433258 
L 1206.237695 188.325006 
L 1207.577431 192.808969 
L 1209.363745 199.721956 
L 1211.15006 207.723601 
L 1212.936375 216.84303 
L 1214.722689 227.118494 
L 1216.509004 238.600943 
L 1218.295318 251.359629 
L 1220.081633 265.491428 
L 1221.867947 281.137346 
L 1223.654262 298.514118 
L 1225.440576 317.980968 
L 1227.226891 340.200897 
L 1228.566627 359.478998 
L 1229.906363 382.465788 
L 1230.79952 401.576175 
L 1231.692677 427.890143 
L 1232.139256 449.32717 
L 1232.585834 484.195777 
L 1233.032413 476.040944 
L 1233.478992 470.425017 
L 1234.372149 463.04618 
L 1235.265306 458.443819 
L 1236.158463 455.401649 
L 1237.051621 453.349602 
L 1237.944778 451.970091 
L 1238.837935 451.066069 
L 1239.731092 450.506124 
L 1240.62425 450.198151 
L 1241.963986 450.067389 
L 1243.303721 450.19929 
L 1245.090036 450.609652 
L 1248.662665 451.731302 
L 1252.681873 452.942075 
L 1255.807923 453.667423 
L 1258.933974 454.149263 
L 1261.613445 454.350815 
L 1264.292917 454.346737 
L 1266.972389 454.130013 
L 1269.651861 453.698004 
L 1272.331333 453.056241 
L 1275.457383 452.069848 
L 1279.923169 450.369886 
L 1283.495798 449.051985 
L 1285.728691 448.458347 
L 1287.515006 448.247771 
L 1288.854742 448.323559 
L 1290.194478 448.674824 
L 1291.087635 449.104752 
L 1291.980792 449.728825 
L 1292.87395 450.587482 
L 1293.767107 451.731524 
L 1294.660264 453.226479 
L 1295.553421 455.159622 
L 1296 456.326493 
L 1296 456.326493 
" style="fill:none;stroke:#0000ff;stroke-linecap:square;stroke-width:4.5;"/>
   </g>
   <g id="patch_3">
    <path d="M 180 640.8 
L 180 86.4 
" style="fill:none;stroke:#000000;stroke-linecap:square;stroke-linejoin:miter;stroke-width:0.8;"/>
   </g>
   <g id="patch_4">
    <path d="M 1296 640.8 
L 1296 86.4 
" style="fill:none;stroke:#000000;stroke-linecap:square;stroke-linejoin:miter;stroke-width:0.8;"/>
   </g>
   <g id="patch_5">
    <path d="M 180 640.8 
L 1296 640.8 
" style="fill:none;stroke:#000000;stroke-linecap:square;stroke-linejoin:miter;stroke-width:0.8;"/>
   </g>
   <g id="patch_6">
    <path d="M 180 86.4 
L 1296 86.4 
" style="fill:none;stroke:#000000;stroke-linecap:square;stroke-linejoin:miter;stroke-width:0.8;"/>
   </g>
   <g id="legend_1">
    <g id="patch_7">
     <path d="M 1032.714 307.603207 
L 1428.934864 307.603207 
Q 1436.134864 307.603207 1436.134864 300.403207 
L 1436.134864 250.2 
Q 1436.134864 243 1428.934864 243 
L 1032.714 243 
Q 1025.514 243 1025.514 250.2 
L 1025.514 300.403207 
Q 1025.514 307.603207 1032.714 307.603207 
z
" style="fill:#ffffff;opacity:0.8;stroke:#cccccc;stroke-linejoin:miter;"/>
    </g>
    <g id="line2d_28">
     <path d="M 1039.914 271.66684 
L 1111.914 271.66684 
" style="fill:none;stroke:#0000ff;stroke-linecap:square;stroke-width:4.5;"/>
    </g>
    <g id="line2d_29"/>
    <g id="text_16">
     <!-- Re$(\lambda)$ and $\zeta=$-0.50 -->
     <defs>
      <path d="M 39.40625 32.953125 
L 39.59375 33.046875 
C 55.203125 38.421875 55.296875 49.171875 55.296875 51.0625 
C 55.296875 60.515625 45.703125 69.578125 31.296875 69.578125 
L 8.90625 69.578125 
L 8.90625 0.5 
L 17.09375 0.5 
L 17.09375 32 
L 31.796875 32 
L 49.5 0.5 
L 57.90625 0.5 
z
M 17.09375 38.078125 
L 17.09375 64 
L 30.203125 64 
C 42.90625 64 47.40625 56.828125 47.40625 51.046875 
C 47.40625 45.65625 43.40625 38.078125 30.203125 38.078125 
z
" id="CMSS17-82"/>
      <path d="M 39.09375 21.515625 
C 39.09375 24.84375 38.90625 31.296875 35.703125 36.640625 
C 32.203125 42.390625 26.5 44 22.203125 44 
C 11.796875 44 3 34.1875 3 21.484375 
C 3 9.09375 12.09375 -1 23.59375 -1 
C 28.09375 -1 33.59375 0.296875 38.59375 3.875 
C 38.59375 4.28125 38.40625 6.46875 38.296875 6.5625 
C 38.296875 6.765625 38 9.84375 38 10.25 
C 33.203125 6.359375 27.703125 5.078125 23.703125 5.078125 
C 17.296875 5.078125 10.40625 10.421875 10.09375 21.515625 
z
M 10.90625 27 
C 12.203125 32.5625 16.59375 37.828125 22.203125 37.828125 
C 23.703125 37.828125 30.703125 37.828125 32.5 27 
z
" id="CMSS17-101"/>
      <path d="M 30.59375 -24.390625 
C 30.59375 -24.296875 30.59375 -24.09375 30.296875 -23.796875 
C 25.703125 -19.125 13.40625 -6.359375 13.40625 24.703125 
C 13.40625 55.765625 25.5 68.421875 30.40625 73.390625 
C 30.40625 73.5 30.59375 73.703125 30.59375 74 
C 30.59375 74.296875 30.296875 74.5 29.90625 74.5 
C 28.796875 74.5 20.296875 67.125 15.40625 56.15625 
C 10.40625 45.109375 9 34.359375 9 24.8125 
C 9 17.625 9.703125 5.484375 15.703125 -7.359375 
C 20.5 -17.734375 28.703125 -25 29.90625 -25 
C 30.40625 -25 30.59375 -24.796875 30.59375 -24.390625 
z
" id="CMR17-40"/>
      <path d="M 30.90625 61.953125 
C 28.40625 69 20.5 69 19.203125 69 
C 18.59375 69 17.5 69 17.5 68 
C 17.5 67.21875 18.09375 67.109375 18.59375 67.015625 
C 20.09375 66.8125 21.296875 66.609375 22.90625 63.75 
C 23.90625 61.859375 34.203125 32.171875 34.203125 31.96875 
C 34.203125 31.875 34.09375 31.765625 33.296875 30.96875 
L 7.296875 4.859375 
C 6.09375 3.65625 5.296875 2.859375 5.296875 1.59375 
C 5.296875 0.1875 6.5 -1 8.09375 -1 
C 8.5 -1 9.59375 -0.796875 10.203125 -0.203125 
C 11.796875 1.28125 26.09375 18.65625 35.203125 29.390625 
C 37.796875 21.609375 41 12.453125 44.09375 4.078125 
C 44.59375 2.59375 45.09375 1.1875 46.5 -0.09375 
C 47.5 -1 47.703125 -1 50.5 -1 
L 52.40625 -1 
C 52.796875 -1 53.5 -1 53.5 -0.203125 
C 53.5 0.203125 53.40625 0.296875 53 0.703125 
C 52.09375 1.796875 51.40625 3.578125 51 4.78125 
z
" id="CMMI12-21"/>
      <path d="M 26.296875 24.703125 
C 26.296875 31.875 25.59375 44.015625 19.59375 56.859375 
C 14.796875 67.234375 6.59375 74.5 5.40625 74.5 
C 5.09375 74.5 4.703125 74.390625 4.703125 73.890625 
C 4.703125 73.703125 4.796875 73.59375 4.90625 73.390625 
C 9.703125 68.40625 21.90625 55.75 21.90625 24.75 
C 21.90625 -6.359375 9.796875 -19.015625 4.90625 -24.015625 
C 4.796875 -24.203125 4.703125 -24.3125 4.703125 -24.5 
C 4.703125 -25 5.09375 -25 5.40625 -25 
C 6.5 -25 15 -17.625 19.90625 -6.65625 
C 24.90625 4.390625 26.296875 15.140625 26.296875 24.703125 
z
" id="CMR17-41"/>
      <path d="M 37.59375 27.984375 
C 37.59375 37.375 30.90625 43.875 21.90625 43.875 
C 17.5 43.875 12.703125 43.078125 7.203125 39.890625 
L 7.796875 33.359375 
C 10.296875 35.125 14.59375 38 21.796875 38 
C 26.90625 38 30 34.0625 30 27.84375 
L 30 24 
C 14 24 4 19.34375 4 11.34375 
C 4 7.203125 6.5 -1 14.796875 -1 
C 16.296875 -1 24.40625 -1 30.203125 3.390625 
L 30.203125 -0.296875 
L 37.59375 -0.296875 
z
M 30 12.75 
C 30 10.953125 30 8.5625 27 6.78125 
C 24.40625 5.078125 21.09375 5.078125 19.703125 5.078125 
C 14.703125 5.078125 11.296875 7.984375 11.296875 11.625 
C 11.296875 18.921875 26.90625 18.921875 30 18.921875 
z
" id="CMSS17-97"/>
      <path d="M 40.90625 29.328125 
C 40.90625 35.671875 39.40625 44 28.09375 44 
C 21.703125 44 17.5 40.71875 14.703125 37.328125 
L 14.703125 43.09375 
L 7.40625 43.09375 
L 7.40625 0 
L 15 0 
L 15 24.359375 
C 15 30.6875 17.40625 37.9375 24.203125 37.9375 
C 33 37.9375 33.296875 32 33.296875 28.578125 
L 33.296875 0 
L 40.90625 0 
z
" id="CMSS17-110"/>
      <path d="M 40.796875 69 
L 33.40625 69 
L 33.40625 38.09375 
C 30.296875 40.671875 25.203125 43.0625 19.59375 43.0625 
C 10.5 43.0625 3.296875 33.296875 3.296875 21.046875 
C 3.296875 8.78125 10.40625 -1 19.296875 -1 
C 26.203125 -1 30.796875 2.6875 33.203125 4.78125 
L 33.203125 -0.203125 
L 40.796875 -0.203125 
z
M 33.203125 13.0625 
C 33.203125 11.671875 33.203125 10.203125 30.09375 7.53125 
C 28.09375 5.859375 25.703125 5.078125 23.40625 5.078125 
C 18 5.078125 10.90625 9 10.90625 20.9375 
C 10.90625 33.34375 18.90625 37 24.40625 37 
C 28.09375 37 31.09375 35.21875 33.203125 32.265625 
z
" id="CMSS17-100"/>
      <path d="M 18.90625 5.296875 
C 13 7.609375 9.59375 12.09375 9.59375 19.59375 
C 9.59375 33.296875 19.703125 51.59375 32 58.6875 
C 33.796875 57 36.09375 57 38 57 
C 40.5 57 46.59375 57 46.59375 59.6875 
C 46.59375 61.890625 42.09375 61.890625 38.90625 61.890625 
C 36.90625 61.890625 35.203125 61.890625 32.59375 60.890625 
C 32 62.1875 31.703125 63.5625 31.703125 65.046875 
C 31.703125 66.828125 32.09375 68.203125 32.09375 68.5 
C 32.09375 69.09375 31.59375 69.5 31.09375 69.5 
C 29.5 69.5 29.5 65.8125 29.5 65.015625 
C 29.5 64.125 29.5 62.046875 30.703125 59.953125 
C 19.09375 53.984375 4.5 35.390625 4.5 16.8125 
C 4.5 3.1875 13.59375 0 18.796875 -1.796875 
C 20.09375 -2.1875 23.296875 -3.28125 24.59375 -3.78125 
C 28.703125 -5.171875 32.59375 -6.46875 32.59375 -11.234375 
C 32.59375 -14.125 30.5 -18 26.796875 -18 
C 24.796875 -18 22.09375 -17.3125 19.59375 -14.796875 
C 19.203125 -14.40625 19 -14.203125 18.5 -14.203125 
C 17.703125 -14.203125 17.5 -15 17.5 -15.203125 
C 17.5 -16.203125 21.796875 -20 26.796875 -20 
C 33.203125 -20 37.59375 -13.296875 37.59375 -8.109375 
C 37.59375 -1.109375 31.796875 0.90625 28.09375 2.09375 
z
M 34.203125 59.5 
C 35.703125 60 37.09375 60 38.796875 60 
C 42 60 42.296875 59.9375 44.296875 59.5625 
C 43.09375 59.203125 42.296875 58.984375 38.09375 58.984375 
C 36 58.984375 35.296875 58.984375 34.203125 59.5 
z
" id="CMMI12-16"/>
      <path d="M 64.296875 31.515625 
C 65.796875 31.515625 67.296875 31.515625 67.296875 33.203125 
C 67.296875 35 65.59375 35 63.90625 35 
L 8 35 
C 6.296875 35 4.59375 35 4.59375 33.203125 
C 4.59375 31.515625 6.09375 31.515625 7.59375 31.515625 
z
M 63.90625 14 
C 65.59375 14 67.296875 14 67.296875 15.796875 
C 67.296875 17.484375 65.796875 17.484375 64.296875 17.484375 
L 7.59375 17.484375 
C 6.09375 17.484375 4.59375 17.484375 4.59375 15.796875 
C 4.59375 14 6.296875 14 8 14 
z
" id="CMR17-61"/>
      <path d="M 26 19 
L 26 24.765625 
L 1 24.765625 
L 1 19 
z
" id="CMSS17-45"/>
      <path d="M 43.09375 31.9375 
C 43.09375 37.578125 43 48.078125 38.90625 56.1875 
C 34.796875 64 28.203125 66.078125 23.5 66.078125 
C 16.703125 66.078125 10.90625 62.109375 7.90625 55.78125 
C 4.703125 49.15625 3.796875 42.328125 3.796875 31.9375 
C 3.796875 24.828125 4.09375 16.109375 7.703125 8.484375 
C 11.796875 0.078125 18.703125 -2 23.40625 -2 
C 29.59375 -2 35.59375 1.265625 39 8.09375 
C 42.5 15.21875 43.09375 23.03125 43.09375 31.9375 
z
M 23.40625 4.078125 
C 15.796875 4.078125 13.5 12.671875 12.796875 15.546875 
C 11.59375 20.46875 11.40625 25.21875 11.40625 33.03125 
C 11.40625 39.15625 11.40625 46.0625 13.296875 51.515625 
C 15.59375 57.828125 19.59375 60 23.40625 60 
C 30.796875 60 33.203125 52.6875 34 50.125 
C 35.5 44.890625 35.5 38.765625 35.5 33.03125 
C 35.5 23.84375 35.5 4.078125 23.40625 4.078125 
z
" id="CMSS17-48"/>
      <path d="M 17 7.96875 
L 9 7.96875 
L 9 0 
L 17 0 
z
" id="CMSS17-46"/>
      <path d="M 14.59375 58.625 
L 39.09375 58.625 
L 39.09375 65 
L 7.296875 65 
L 7.296875 27.828125 
L 14 27.828125 
C 15.796875 31.96875 19.5 35 24.296875 35 
C 28.796875 35 33.796875 31.078125 33.796875 19.78125 
C 33.796875 7.703125 26.703125 4.171875 21.5 4.171875 
C 15.09375 4.171875 9.203125 8 6.59375 13.296875 
L 3.40625 7.796875 
C 8 0.765625 15.5 -2 21.5 -2 
C 33.09375 -2 42.203125 7.765625 42.203125 19.578125 
C 42.203125 31.71875 34.09375 41.078125 24.40625 41.078125 
C 20.90625 41.078125 17.5 39.890625 14.59375 37.484375 
z
" id="CMSS17-53"/>
     </defs>
     <g transform="translate(1140.714 284.26684)scale(0.36 -0.36)">
      <use transform="scale(0.996264)" xlink:href="#CMSS17-82"/>
      <use transform="translate(60.416155 0)scale(0.996264)" xlink:href="#CMSS17-101"/>
      <use transform="translate(102.054977 0)scale(0.996264)" xlink:href="#CMR17-40"/>
      <use transform="translate(137.335745 0)scale(0.996264)" xlink:href="#CMMI12-21"/>
      <use transform="translate(194.239817 0)scale(0.996264)" xlink:href="#CMR17-41"/>
      <use transform="translate(260.749697 0)scale(0.996264)" xlink:href="#CMSS17-97"/>
      <use transform="translate(305.671618 0)scale(0.996264)" xlink:href="#CMSS17-110"/>
      <use transform="translate(353.876561 0)scale(0.996264)" xlink:href="#CMSS17-100"/>
      <use transform="translate(433.310617 0)scale(0.996264)" xlink:href="#CMMI12-16"/>
      <use transform="translate(511.114677 0)scale(0.996264)" xlink:href="#CMR17-61"/>
      <use transform="translate(582.829465 0)scale(0.996264)" xlink:href="#CMSS17-45"/>
      <use transform="translate(614.058578 0)scale(0.996264)" xlink:href="#CMSS17-48"/>
      <use transform="translate(660.902201 0)scale(0.996264)" xlink:href="#CMSS17-46"/>
      <use transform="translate(686.926406 0)scale(0.996264)" xlink:href="#CMSS17-53"/>
      <use transform="translate(733.77003 0)scale(0.996264)" xlink:href="#CMSS17-48"/>
     </g>
    </g>
   </g>
  </g>
 </g>
 <defs>
  <clipPath id="pa93a2df643">
   <rect height="554.4" width="1116" x="180" y="86.4"/>
  </clipPath>
 </defs>
</svg>
