<?xml version="1.0" encoding="utf-8" standalone="no"?>
<!DOCTYPE svg PUBLIC "-//W3C//DTD SVG 1.1//EN"
  "http://www.w3.org/Graphics/SVG/1.1/DTD/svg11.dtd">
<!-- Created with matplotlib (https://matplotlib.org/) -->
<svg height="720pt" version="1.1" viewBox="0 0 1440 720" width="1440pt" xmlns="http://www.w3.org/2000/svg" xmlns:xlink="http://www.w3.org/1999/xlink">
 <defs>
  <style type="text/css">
*{stroke-linecap:butt;stroke-linejoin:round;}
  </style>
 </defs>
 <g id="figure_1">
  <g id="patch_1">
   <path d="M 0 720 
L 1440 720 
L 1440 0 
L 0 0 
z
" style="fill:#ffffff;"/>
  </g>
  <g id="axes_1">
   <g id="patch_2">
    <path d="M 180 640.8 
L 1296 640.8 
L 1296 86.4 
L 180 86.4 
z
" style="fill:#ffffff;"/>
   </g>
   <g id="matplotlib.axis_1">
    <g id="xtick_1">
     <g id="line2d_1">
      <path clip-path="url(#pfb294c9f40)" d="M 292.713814 640.8 
L 292.713814 86.4 
" style="fill:none;stroke:#b0b0b0;stroke-linecap:square;stroke-width:0.8;"/>
     </g>
     <g id="line2d_2">
      <defs>
       <path d="M 0 0 
L 0 3.5 
" id="meb74b57914" style="stroke:#000000;stroke-width:0.8;"/>
      </defs>
      <g>
       <use style="stroke:#000000;stroke-width:0.8;" x="292.713814" xlink:href="#meb74b57914" y="640.8"/>
      </g>
     </g>
     <g id="text_1">
      <!-- $4.0$ -->
      <defs>
       <path d="M 33.59375 64.40625 
C 33.59375 66.5 33.5 66.5 31.703125 66.5 
L 2 19.59375 
L 2 17 
L 27.796875 17 
L 27.796875 7.140625 
C 27.796875 3.5 27.59375 2.5 20.59375 2.5 
L 18.703125 2.5 
L 18.703125 0 
C 21.90625 0 27.296875 0 30.703125 0 
C 34.09375 0 39.5 0 42.703125 0 
L 42.703125 2.5 
L 40.796875 2.5 
C 33.796875 2.5 33.59375 3.5 33.59375 7.140625 
L 33.59375 17 
L 43.796875 17 
L 43.796875 19.59375 
L 33.59375 19.59375 
z
M 28.09375 57.859375 
L 28.09375 19.59375 
L 4 19.59375 
z
" id="CMR17-52"/>
       <path d="M 18.40625 4.796875 
C 18.40625 7.6875 16 9.671875 13.59375 9.671875 
C 10.703125 9.671875 8.703125 7.28125 8.703125 4.890625 
C 8.703125 2 11.09375 0 13.5 0 
C 16.40625 0 18.40625 2.390625 18.40625 4.796875 
z
" id="CMMI12-58"/>
       <path d="M 42 31.640625 
C 42 37.75 41.90625 48.125 37.703125 56.109375 
C 34 63.109375 28.09375 65.59375 22.90625 65.59375 
C 18.09375 65.59375 12 63.40625 8.203125 56.203125 
C 4.203125 48.71875 3.796875 39.4375 3.796875 31.640625 
C 3.796875 25.953125 3.90625 17.28125 7 9.671875 
C 11.296875 -0.609375 19 -2 22.90625 -2 
C 27.5 -2 34.5 -0.109375 38.59375 9.375 
C 41.59375 16.28125 42 24.359375 42 31.640625 
z
M 22.90625 -0.40625 
C 16.5 -0.40625 12.703125 5.078125 11.296875 12.6875 
C 10.203125 18.5625 10.203125 27.15625 10.203125 32.75 
C 10.203125 40.4375 10.203125 46.828125 11.5 52.921875 
C 13.40625 61.390625 19 64 22.90625 64 
C 27 64 32.296875 61.296875 34.203125 53.125 
C 35.5 47.4375 35.59375 40.734375 35.59375 32.75 
C 35.59375 26.25 35.59375 18.265625 34.40625 12.375 
C 32.296875 1.484375 26.40625 -0.40625 22.90625 -0.40625 
z
" id="CMR17-48"/>
      </defs>
      <g transform="translate(271.980141 669.514752)scale(0.35 -0.35)">
       <use transform="scale(0.996264)" xlink:href="#CMR17-52"/>
       <use transform="translate(45.690477 0)scale(0.996264)" xlink:href="#CMMI12-58"/>
       <use transform="translate(72.787654 0)scale(0.996264)" xlink:href="#CMR17-48"/>
      </g>
     </g>
    </g>
    <g id="xtick_2">
     <g id="line2d_3">
      <path clip-path="url(#pfb294c9f40)" d="M 420.205356 640.8 
L 420.205356 86.4 
" style="fill:none;stroke:#b0b0b0;stroke-linecap:square;stroke-width:0.8;"/>
     </g>
     <g id="line2d_4">
      <g>
       <use style="stroke:#000000;stroke-width:0.8;" x="420.205356" xlink:href="#meb74b57914" y="640.8"/>
      </g>
     </g>
     <g id="text_2">
      <!-- $4.2$ -->
      <defs>
       <path d="M 41.703125 15.453125 
L 39.90625 15.453125 
C 38.90625 8.375 38.09375 7.171875 37.703125 6.5625 
C 37.203125 5.765625 30 5.765625 28.59375 5.765625 
L 9.40625 5.765625 
C 13 9.671875 20 16.75 28.5 24.953125 
C 34.59375 30.734375 41.703125 37.53125 41.703125 47.421875 
C 41.703125 59.21875 32.296875 66 21.796875 66 
C 10.796875 66 4.09375 56.3125 4.09375 47.34375 
C 4.09375 43.4375 7 42.9375 8.203125 42.9375 
C 9.203125 42.9375 12.203125 43.546875 12.203125 47.03125 
C 12.203125 50.109375 9.59375 51 8.203125 51 
C 7.59375 51 7 50.90625 6.59375 50.703125 
C 8.5 59.21875 14.296875 63.40625 20.40625 63.40625 
C 29.09375 63.40625 34.796875 56.515625 34.796875 47.421875 
C 34.796875 38.734375 29.703125 31.25 24 24.75 
L 4.09375 2.28125 
L 4.09375 0 
L 39.296875 0 
z
" id="CMR17-50"/>
      </defs>
      <g transform="translate(399.471683 669.514752)scale(0.35 -0.35)">
       <use transform="scale(0.996264)" xlink:href="#CMR17-52"/>
       <use transform="translate(45.690477 0)scale(0.996264)" xlink:href="#CMMI12-58"/>
       <use transform="translate(72.787654 0)scale(0.996264)" xlink:href="#CMR17-50"/>
      </g>
     </g>
    </g>
    <g id="xtick_3">
     <g id="line2d_5">
      <path clip-path="url(#pfb294c9f40)" d="M 547.696898 640.8 
L 547.696898 86.4 
" style="fill:none;stroke:#b0b0b0;stroke-linecap:square;stroke-width:0.8;"/>
     </g>
     <g id="line2d_6">
      <g>
       <use style="stroke:#000000;stroke-width:0.8;" x="547.696898" xlink:href="#meb74b57914" y="640.8"/>
      </g>
     </g>
     <g id="text_3">
      <!-- $4.4$ -->
      <g transform="translate(526.963225 669.514752)scale(0.35 -0.35)">
       <use transform="scale(0.996264)" xlink:href="#CMR17-52"/>
       <use transform="translate(45.690477 0)scale(0.996264)" xlink:href="#CMMI12-58"/>
       <use transform="translate(72.787654 0)scale(0.996264)" xlink:href="#CMR17-52"/>
      </g>
     </g>
    </g>
    <g id="xtick_4">
     <g id="line2d_7">
      <path clip-path="url(#pfb294c9f40)" d="M 675.18844 640.8 
L 675.18844 86.4 
" style="fill:none;stroke:#b0b0b0;stroke-linecap:square;stroke-width:0.8;"/>
     </g>
     <g id="line2d_8">
      <g>
       <use style="stroke:#000000;stroke-width:0.8;" x="675.18844" xlink:href="#meb74b57914" y="640.8"/>
      </g>
     </g>
     <g id="text_4">
      <!-- $4.6$ -->
      <defs>
       <path d="M 10.59375 34 
C 10.59375 57.65625 21.796875 63 28.296875 63 
C 30.40625 63 35.5 62.640625 37.5 59 
C 35.90625 59 32.90625 59 32.90625 55.515625 
C 32.90625 52.828125 35.09375 51.921875 36.5 51.921875 
C 37.40625 51.921875 40.09375 52.3125 40.09375 55.625 
C 40.09375 61.78125 35.09375 65.296875 28.203125 65.296875 
C 16.296875 65.296875 3.796875 52.96875 3.796875 31 
C 3.796875 3.953125 15.09375 -2 23.09375 -2 
C 32.796875 -2 42 6.671875 42 20.046875 
C 42 32.515625 33.90625 41.59375 23.703125 41.59375 
C 17.59375 41.59375 13.09375 37.609375 10.59375 30.625 
z
M 23.09375 0.390625 
C 10.796875 0.390625 10.796875 18.75 10.796875 22.4375 
C 10.796875 29.625 14.203125 40 23.5 40 
C 25.203125 40 30.09375 40 33.40625 33.125 
C 35.203125 29.21875 35.203125 25.140625 35.203125 20.140625 
C 35.203125 14.75 35.203125 10.78125 33.09375 6.78125 
C 30.90625 2.671875 27.703125 0.390625 23.09375 0.390625 
z
" id="CMR17-54"/>
      </defs>
      <g transform="translate(654.454767 669.514752)scale(0.35 -0.35)">
       <use transform="scale(0.996264)" xlink:href="#CMR17-52"/>
       <use transform="translate(45.690477 0)scale(0.996264)" xlink:href="#CMMI12-58"/>
       <use transform="translate(72.787654 0)scale(0.996264)" xlink:href="#CMR17-54"/>
      </g>
     </g>
    </g>
    <g id="xtick_5">
     <g id="line2d_9">
      <path clip-path="url(#pfb294c9f40)" d="M 802.679982 640.8 
L 802.679982 86.4 
" style="fill:none;stroke:#b0b0b0;stroke-linecap:square;stroke-width:0.8;"/>
     </g>
     <g id="line2d_10">
      <g>
       <use style="stroke:#000000;stroke-width:0.8;" x="802.679982" xlink:href="#meb74b57914" y="640.8"/>
      </g>
     </g>
     <g id="text_5">
      <!-- $4.8$ -->
      <defs>
       <path d="M 27.203125 35.375 
C 33.5 38.546875 39.90625 43.328125 39.90625 50.984375 
C 39.90625 60.015625 31.09375 65.296875 23 65.296875 
C 13.90625 65.296875 5.90625 58.734375 5.90625 49.6875 
C 5.90625 47.203125 6.5 42.921875 10.40625 39.140625 
C 11.40625 38.15625 15.59375 35.171875 18.296875 33.28125 
C 13.796875 30.984375 3.296875 25.53125 3.296875 14.59375 
C 3.296875 4.359375 13.09375 -2 22.796875 -2 
C 33.5 -2 42.5 5.65625 42.5 15.78125 
C 42.5 24.84375 36.40625 29.015625 32.40625 31.703125 
z
M 14.09375 44.09375 
C 13.296875 44.59375 9.296875 47.671875 9.296875 52.359375 
C 9.296875 58.421875 15.59375 63 22.796875 63 
C 30.703125 63 36.5 57.4375 36.5 50.96875 
C 36.5 41.703125 26.09375 36.421875 25.59375 36.421875 
C 25.5 36.421875 25.40625 36.421875 24.59375 37.03125 
z
M 32.5 23.734375 
C 34 22.640625 38.796875 19.375 38.796875 13.296875 
C 38.796875 5.953125 31.40625 0.390625 23 0.390625 
C 13.90625 0.390625 7 6.84375 7 14.6875 
C 7 22.546875 13.09375 29.09375 20 32.1875 
z
" id="CMR17-56"/>
      </defs>
      <g transform="translate(781.946309 669.514752)scale(0.35 -0.35)">
       <use transform="scale(0.996264)" xlink:href="#CMR17-52"/>
       <use transform="translate(45.690477 0)scale(0.996264)" xlink:href="#CMMI12-58"/>
       <use transform="translate(72.787654 0)scale(0.996264)" xlink:href="#CMR17-56"/>
      </g>
     </g>
    </g>
    <g id="xtick_6">
     <g id="line2d_11">
      <path clip-path="url(#pfb294c9f40)" d="M 930.171524 640.8 
L 930.171524 86.4 
" style="fill:none;stroke:#b0b0b0;stroke-linecap:square;stroke-width:0.8;"/>
     </g>
     <g id="line2d_12">
      <g>
       <use style="stroke:#000000;stroke-width:0.8;" x="930.171524" xlink:href="#meb74b57914" y="640.8"/>
      </g>
     </g>
     <g id="text_6">
      <!-- $5.0$ -->
      <defs>
       <path d="M 11.40625 57.6875 
C 12.40625 57.28125 16.5 56 20.703125 56 
C 30 56 35.09375 61.109375 38 64.0625 
C 38 64.953125 38 65.5 37.40625 65.5 
C 37.296875 65.5 37.09375 65.5 36.296875 65.046875 
C 32.796875 63.40625 28.703125 62.078125 23.703125 62.078125 
C 20.703125 62.078125 16.203125 62.484375 11.296875 64.671875 
C 10.203125 65.171875 10 65.171875 9.90625 65.171875 
C 9.40625 65.171875 9.296875 65.0625 9.296875 63.078125 
L 9.296875 34.421875 
C 9.296875 32.640625 9.296875 32.140625 10.296875 32.140625 
C 10.796875 32.140625 11 32.34375 11.5 33.03125 
C 14.703125 37.515625 19.09375 39.40625 24.09375 39.40625 
C 27.59375 39.40625 35.09375 37.21875 35.09375 20.140625 
C 35.09375 16.953125 35.09375 11.171875 32.09375 6.578125 
C 29.59375 2.484375 25.703125 0.390625 21.40625 0.390625 
C 14.796875 0.390625 8.09375 5 6.296875 12.71875 
C 6.703125 12.609375 7.5 12.421875 7.90625 12.421875 
C 9.203125 12.421875 11.703125 13.125 11.703125 16.21875 
C 11.703125 18.90625 9.796875 20 7.90625 20 
C 5.59375 20 4.09375 18.59375 4.09375 15.796875 
C 4.09375 7.09375 11 -2 21.59375 -2 
C 31.90625 -2 41.703125 6.875 41.703125 19.75 
C 41.703125 31.71875 33.90625 41 24.203125 41 
C 19.09375 41 14.796875 39.109375 11.40625 35.53125 
z
" id="CMR17-53"/>
      </defs>
      <g transform="translate(909.437851 669.514752)scale(0.35 -0.35)">
       <use transform="scale(0.996264)" xlink:href="#CMR17-53"/>
       <use transform="translate(45.690477 0)scale(0.996264)" xlink:href="#CMMI12-58"/>
       <use transform="translate(72.787654 0)scale(0.996264)" xlink:href="#CMR17-48"/>
      </g>
     </g>
    </g>
    <g id="xtick_7">
     <g id="line2d_13">
      <path clip-path="url(#pfb294c9f40)" d="M 1057.663065 640.8 
L 1057.663065 86.4 
" style="fill:none;stroke:#b0b0b0;stroke-linecap:square;stroke-width:0.8;"/>
     </g>
     <g id="line2d_14">
      <g>
       <use style="stroke:#000000;stroke-width:0.8;" x="1057.663065" xlink:href="#meb74b57914" y="640.8"/>
      </g>
     </g>
     <g id="text_7">
      <!-- $5.2$ -->
      <g transform="translate(1036.929392 669.514752)scale(0.35 -0.35)">
       <use transform="scale(0.996264)" xlink:href="#CMR17-53"/>
       <use transform="translate(45.690477 0)scale(0.996264)" xlink:href="#CMMI12-58"/>
       <use transform="translate(72.787654 0)scale(0.996264)" xlink:href="#CMR17-50"/>
      </g>
     </g>
    </g>
    <g id="xtick_8">
     <g id="line2d_15">
      <path clip-path="url(#pfb294c9f40)" d="M 1185.154607 640.8 
L 1185.154607 86.4 
" style="fill:none;stroke:#b0b0b0;stroke-linecap:square;stroke-width:0.8;"/>
     </g>
     <g id="line2d_16">
      <g>
       <use style="stroke:#000000;stroke-width:0.8;" x="1185.154607" xlink:href="#meb74b57914" y="640.8"/>
      </g>
     </g>
     <g id="text_8">
      <!-- $5.4$ -->
      <g transform="translate(1164.420934 669.514752)scale(0.35 -0.35)">
       <use transform="scale(0.996264)" xlink:href="#CMR17-53"/>
       <use transform="translate(45.690477 0)scale(0.996264)" xlink:href="#CMMI12-58"/>
       <use transform="translate(72.787654 0)scale(0.996264)" xlink:href="#CMR17-52"/>
      </g>
     </g>
    </g>
    <g id="text_9">
     <!-- $\Omega\tau/2\pi$ -->
     <defs>
      <path d="M 63.09375 14.609375 
L 61.296875 14.609375 
C 60.40625 10.015625 60.09375 8.796875 59.59375 7.203125 
C 59.09375 5.703125 58.796875 4.90625 53 4.90625 
L 44.90625 4.90625 
C 46 10.71875 48.40625 15.015625 52.59375 21.734375 
C 57.796875 30.234375 62.09375 37.140625 62.09375 45.46875 
C 62.09375 58.984375 49.296875 70 33.40625 70 
C 17.09375 70 4.59375 58.875 4.59375 45.46875 
C 4.59375 37.140625 9 30.03125 13.90625 22.125 
C 18.296875 15.015625 20.703125 10.71875 21.796875 4.90625 
L 13.703125 4.90625 
C 8 4.90625 7.703125 5.703125 7.203125 7.09375 
C 6.59375 8.703125 6.40625 10.015625 5.40625 14.609375 
L 3.59375 14.609375 
L 6.5 0 
L 21.59375 0 
C 23.703125 0 23.796875 0.09375 23.796875 1.59375 
C 23.796875 8.71875 20.09375 18.03125 18.40625 22.328125 
C 15.203125 30.140625 12.203125 37.75 12.203125 45.5625 
C 12.203125 60.484375 22.90625 68.390625 33.296875 68.390625 
C 44.203125 68.390625 54.5 60.171875 54.5 45.5625 
C 54.5 37.84375 51.796875 30.953125 48.09375 21.828125 
C 46.5 17.734375 42.90625 8.609375 42.90625 1.59375 
C 42.90625 0 43 0 45.09375 0 
L 60.203125 0 
z
" id="CMR17-10"/>
      <path d="M 28.703125 37.625 
L 45.296875 37.625 
C 46.59375 37.625 49.90625 37.625 49.90625 40.8125 
C 49.90625 43 48 43 46.203125 43 
L 18.703125 43 
C 16.40625 43 13 43 8.40625 38.125 
C 5.796875 35.234375 2.59375 29.953125 2.59375 29.359375 
C 2.59375 28.765625 3.09375 28.5625 3.703125 28.5625 
C 4.40625 28.5625 4.5 28.859375 5 29.453125 
C 10.203125 37.625 15.40625 37.625 17.90625 37.625 
L 26.203125 37.625 
L 15.796875 3.484375 
C 15.296875 1.984375 15.296875 1.78125 15.296875 1.484375 
C 15.296875 0.390625 16 -1 18 -1 
C 21.09375 -1 21.59375 1.6875 21.90625 3.171875 
z
" id="CMMI12-28"/>
      <path d="M 42.90625 71.28125 
C 42.90625 71.390625 43.5 72.90625 43.5 73.09375 
C 43.5 74.296875 42.5 75 41.703125 75 
C 41.203125 75 40.296875 75 39.5 72.796875 
L 6 -21.296875 
C 6 -21.40625 5.40625 -22.890625 5.40625 -23.09375 
C 5.40625 -24.296875 6.40625 -25 7.203125 -25 
C 7.796875 -25 8.703125 -24.890625 9.40625 -22.796875 
z
" id="CMMI12-61"/>
      <path d="M 25.90625 37.625 
L 37.203125 37.625 
C 34.5 26.4375 32.796875 19.15625 32.796875 11.1875 
C 32.796875 9.78125 32.796875 -1 36.90625 -1 
C 39 -1 40.796875 0.890625 40.796875 2.59375 
C 40.796875 3.078125 40.796875 3.28125 40.09375 4.78125 
C 37.40625 11.671875 37.40625 20.25 37.40625 20.953125 
C 37.40625 21.546875 37.40625 28.625 39.5 37.625 
L 50.703125 37.625 
C 52 37.625 55.296875 37.625 55.296875 40.8125 
C 55.296875 43 53.40625 43 51.59375 43 
L 18.703125 43 
C 16.40625 43 13 43 8.40625 38.125 
C 5.796875 35.21875 2.59375 29.9375 2.59375 29.34375 
C 2.59375 28.75 3.09375 28.546875 3.703125 28.546875 
C 4.40625 28.546875 4.5 28.84375 5 29.4375 
C 10.203125 37.625 15.40625 37.625 17.90625 37.625 
L 23.59375 37.625 
C 21.40625 30.140625 18.90625 21.453125 10.703125 4 
C 9.90625 2.40625 9.90625 2.1875 9.90625 1.59375 
C 9.90625 -0.5 11.703125 -1 12.59375 -1 
C 15.5 -1 16.296875 1.59375 17.5 5.78125 
C 19.09375 10.875 19.09375 11.078125 20.09375 15.0625 
z
" id="CMMI12-25"/>
     </defs>
     <g transform="translate(657.059265 716.128984)scale(0.6 -0.6)">
      <use transform="scale(0.996264)" xlink:href="#CMR17-10"/>
      <use transform="translate(66.509881 0)scale(0.996264)" xlink:href="#CMMI12-28"/>
      <use transform="translate(120.001046 0)scale(0.996264)" xlink:href="#CMMI12-61"/>
      <use transform="translate(168.775965 0)scale(0.996264)" xlink:href="#CMR17-50"/>
      <use transform="translate(214.466442 0)scale(0.996264)" xlink:href="#CMMI12-25"/>
     </g>
    </g>
    <g id="text_10">
     <!-- $+1.591{\times}10^{4}$ -->
     <defs>
      <path d="M 37.703125 23 
L 64.203125 23 
C 65.59375 23 67.296875 23 67.296875 24.6875 
C 67.296875 26.484375 65.703125 26.484375 64.203125 26.484375 
L 37.703125 26.484375 
L 37.703125 52.90625 
C 37.703125 54.296875 37.703125 56 36 56 
C 34.203125 56 34.203125 54.40625 34.203125 52.90625 
L 34.203125 26.484375 
L 7.703125 26.484375 
C 6.296875 26.484375 4.59375 26.484375 4.59375 24.796875 
C 4.59375 23 6.203125 23 7.703125 23 
L 34.203125 23 
L 34.203125 -3.40625 
C 34.203125 -4.796875 34.203125 -6.5 35.90625 -6.5 
C 37.703125 -6.5 37.703125 -4.90625 37.703125 -3.40625 
z
" id="CMR17-43"/>
      <path d="M 26.59375 63.40625 
C 26.59375 65.5 26.5 65.5 25.09375 65.5 
C 21.203125 61.1875 15.296875 59.796875 9.703125 59.796875 
C 9.40625 59.796875 8.90625 59.796875 8.796875 59.5 
C 8.703125 59.296875 8.703125 59.09375 8.703125 57 
C 11.796875 57 17 57.59375 21 59.984375 
L 21 7.203125 
C 21 3.6875 20.796875 2.5 12.203125 2.5 
L 9.203125 2.5 
L 9.203125 0 
C 14 0 19 0 23.796875 0 
C 28.59375 0 33.59375 0 38.40625 0 
L 38.40625 2.5 
L 35.40625 2.5 
C 26.796875 2.5 26.59375 3.59375 26.59375 7.15625 
z
" id="CMR17-49"/>
      <path d="M 35.203125 29.125 
C 35.203125 7.25 26.09375 0.484375 18.59375 0.484375 
C 16.296875 0.484375 10.703125 0.484375 8.40625 4.59375 
C 11 4.1875 12.90625 5.578125 12.90625 8.09375 
C 12.90625 10.8125 10.703125 11.703125 9.296875 11.703125 
C 8.40625 11.703125 5.703125 11.296875 5.703125 7.90625 
C 5.703125 1.109375 11.59375 -2 18.796875 -2 
C 30.296875 -2 42 10.53125 42 32.390625 
C 42 59.640625 30.796875 65.296875 23.203125 65.296875 
C 13.296875 65.296875 3.796875 56.6875 3.796875 43.40625 
C 3.796875 31.109375 11.90625 22 22.09375 22 
C 30.5 22 34.203125 29.734375 35.203125 33 
z
M 22.296875 23.59375 
C 19.59375 23.59375 15.796875 24.09375 12.703125 30.03125 
C 10.59375 33.890625 10.59375 38.453125 10.59375 43.296875 
C 10.59375 49.15625 10.59375 53.203125 13.40625 57.5625 
C 14.796875 59.640625 17.40625 63 23.203125 63 
C 35 63 35 45.078125 35 41.125 
C 35 34.09375 31.796875 23.59375 22.296875 23.59375 
z
" id="CMR17-57"/>
      <path d="M 38.90625 27.890625 
L 18.90625 47.796875 
C 17.703125 49 17.5 49.1875 16.703125 49.1875 
C 15.703125 49.1875 14.703125 48.296875 14.703125 47.1875 
C 14.703125 46.5 14.90625 46.296875 16 45.1875 
L 36 25.09375 
L 16 5 
C 14.90625 3.890625 14.703125 3.6875 14.703125 3 
C 14.703125 1.890625 15.703125 1 16.703125 1 
C 17.5 1 17.703125 1.1875 18.90625 2.390625 
L 38.796875 22.296875 
L 59.5 1.59375 
C 59.703125 1.5 60.40625 1 61 1 
C 62.203125 1 63 1.890625 63 3 
C 63 3.1875 63 3.59375 62.703125 4.09375 
C 62.59375 4.296875 46.703125 20 41.703125 25.09375 
L 60 43.390625 
C 60.5 44 62 45.296875 62.5 45.890625 
C 62.59375 46.09375 63 46.5 63 47.1875 
C 63 48.296875 62.203125 49.1875 61 49.1875 
C 60.203125 49.1875 59.796875 48.796875 58.703125 47.6875 
z
" id="CMSY10-2"/>
     </defs>
     <g transform="translate(1243.875855 686.299759)scale(0.1 -0.1)">
      <use transform="scale(0.996264)" xlink:href="#CMR17-43"/>
      <use transform="translate(71.714788 0)scale(0.996264)" xlink:href="#CMR17-49"/>
      <use transform="translate(117.405266 0)scale(0.996264)" xlink:href="#CMMI12-58"/>
      <use transform="translate(144.502443 0)scale(0.996264)" xlink:href="#CMR17-53"/>
      <use transform="translate(190.19292 0)scale(0.996264)" xlink:href="#CMR17-57"/>
      <use transform="translate(235.883397 0)scale(0.996264)" xlink:href="#CMR17-49"/>
      <use transform="translate(281.573874 0)scale(0.996264)" xlink:href="#CMSY10-2"/>
      <use transform="translate(359.061342 0)scale(0.996264)" xlink:href="#CMR17-49"/>
      <use transform="translate(404.751819 0)scale(0.996264)" xlink:href="#CMR17-48"/>
      <use transform="translate(450.442296 36.153639)scale(0.697382)" xlink:href="#CMR17-52"/>
     </g>
    </g>
   </g>
   <g id="matplotlib.axis_2">
    <g id="ytick_1">
     <g id="line2d_17">
      <path clip-path="url(#pfb294c9f40)" d="M 180 615.152155 
L 1296 615.152155 
" style="fill:none;stroke:#b0b0b0;stroke-linecap:square;stroke-width:0.8;"/>
     </g>
     <g id="line2d_18">
      <defs>
       <path d="M 0 0 
L -3.5 0 
" id="m6ba1d4b0d0" style="stroke:#000000;stroke-width:0.8;"/>
      </defs>
      <g>
       <use style="stroke:#000000;stroke-width:0.8;" x="180" xlink:href="#m6ba1d4b0d0" y="615.152155"/>
      </g>
     </g>
     <g id="text_11">
      <!-- $0.0$ -->
      <g transform="translate(134.032654 627.259531)scale(0.35 -0.35)">
       <use transform="scale(0.996264)" xlink:href="#CMR17-48"/>
       <use transform="translate(45.690477 0)scale(0.996264)" xlink:href="#CMMI12-58"/>
       <use transform="translate(72.787654 0)scale(0.996264)" xlink:href="#CMR17-48"/>
      </g>
     </g>
    </g>
    <g id="ytick_2">
     <g id="line2d_19">
      <path clip-path="url(#pfb294c9f40)" d="M 180 511.127209 
L 1296 511.127209 
" style="fill:none;stroke:#b0b0b0;stroke-linecap:square;stroke-width:0.8;"/>
     </g>
     <g id="line2d_20">
      <g>
       <use style="stroke:#000000;stroke-width:0.8;" x="180" xlink:href="#m6ba1d4b0d0" y="511.127209"/>
      </g>
     </g>
     <g id="text_12">
      <!-- $0.1$ -->
      <g transform="translate(134.032654 523.234585)scale(0.35 -0.35)">
       <use transform="scale(0.996264)" xlink:href="#CMR17-48"/>
       <use transform="translate(45.690477 0)scale(0.996264)" xlink:href="#CMMI12-58"/>
       <use transform="translate(72.787654 0)scale(0.996264)" xlink:href="#CMR17-49"/>
      </g>
     </g>
    </g>
    <g id="ytick_3">
     <g id="line2d_21">
      <path clip-path="url(#pfb294c9f40)" d="M 180 407.102262 
L 1296 407.102262 
" style="fill:none;stroke:#b0b0b0;stroke-linecap:square;stroke-width:0.8;"/>
     </g>
     <g id="line2d_22">
      <g>
       <use style="stroke:#000000;stroke-width:0.8;" x="180" xlink:href="#m6ba1d4b0d0" y="407.102262"/>
      </g>
     </g>
     <g id="text_13">
      <!-- $0.2$ -->
      <g transform="translate(134.032654 419.209638)scale(0.35 -0.35)">
       <use transform="scale(0.996264)" xlink:href="#CMR17-48"/>
       <use transform="translate(45.690477 0)scale(0.996264)" xlink:href="#CMMI12-58"/>
       <use transform="translate(72.787654 0)scale(0.996264)" xlink:href="#CMR17-50"/>
      </g>
     </g>
    </g>
    <g id="ytick_4">
     <g id="line2d_23">
      <path clip-path="url(#pfb294c9f40)" d="M 180 303.077316 
L 1296 303.077316 
" style="fill:none;stroke:#b0b0b0;stroke-linecap:square;stroke-width:0.8;"/>
     </g>
     <g id="line2d_24">
      <g>
       <use style="stroke:#000000;stroke-width:0.8;" x="180" xlink:href="#m6ba1d4b0d0" y="303.077316"/>
      </g>
     </g>
     <g id="text_14">
      <!-- $0.3$ -->
      <defs>
       <path d="M 22.09375 33.703125 
C 31 33.703125 34.90625 25.96875 34.90625 17.03125 
C 34.90625 5 28.5 0.390625 22.703125 0.390625 
C 17.40625 0.390625 8.796875 3.03125 6.09375 10.828125 
C 6.59375 10.625 7.09375 10.625 7.59375 10.625 
C 10 10.625 11.796875 12.21875 11.796875 14.8125 
C 11.796875 17.703125 9.59375 19 7.59375 19 
C 5.90625 19 3.296875 18.203125 3.296875 14.46875 
C 3.296875 5.234375 12.296875 -2 22.90625 -2 
C 34 -2 42.5 6.71875 42.5 16.953125 
C 42.5 26.671875 34.5 33.703125 25 34.796875 
C 32.59375 36.375 39.90625 43.0625 39.90625 52.015625 
C 39.90625 59.6875 32 65.296875 23 65.296875 
C 13.90625 65.296875 5.90625 59.828125 5.90625 52.015625 
C 5.90625 48.59375 8.5 48 9.796875 48 
C 11.90625 48 13.703125 49.296875 13.703125 51.890625 
C 13.703125 54.46875 11.90625 55.765625 9.796875 55.765625 
C 9.40625 55.765625 8.90625 55.765625 8.5 55.578125 
C 11.40625 61.859375 19.296875 63 22.796875 63 
C 26.296875 63 32.90625 61.328125 32.90625 51.875 
C 32.90625 49.109375 32.5 44.1875 29.09375 39.84375 
C 26.09375 36 22.703125 36 19.40625 35.6875 
C 18.90625 35.6875 16.59375 35.453125 16.203125 35.453125 
C 15.5 35.359375 15.09375 35.265625 15.09375 34.5 
C 15.09375 33.796875 15.203125 33.703125 17.203125 33.703125 
z
" id="CMR17-51"/>
      </defs>
      <g transform="translate(134.032654 315.184692)scale(0.35 -0.35)">
       <use transform="scale(0.996264)" xlink:href="#CMR17-48"/>
       <use transform="translate(45.690477 0)scale(0.996264)" xlink:href="#CMMI12-58"/>
       <use transform="translate(72.787654 0)scale(0.996264)" xlink:href="#CMR17-51"/>
      </g>
     </g>
    </g>
    <g id="ytick_5">
     <g id="line2d_25">
      <path clip-path="url(#pfb294c9f40)" d="M 180 199.052369 
L 1296 199.052369 
" style="fill:none;stroke:#b0b0b0;stroke-linecap:square;stroke-width:0.8;"/>
     </g>
     <g id="line2d_26">
      <g>
       <use style="stroke:#000000;stroke-width:0.8;" x="180" xlink:href="#m6ba1d4b0d0" y="199.052369"/>
      </g>
     </g>
     <g id="text_15">
      <!-- $0.4$ -->
      <g transform="translate(134.032654 211.159745)scale(0.35 -0.35)">
       <use transform="scale(0.996264)" xlink:href="#CMR17-48"/>
       <use transform="translate(45.690477 0)scale(0.996264)" xlink:href="#CMMI12-58"/>
       <use transform="translate(72.787654 0)scale(0.996264)" xlink:href="#CMR17-52"/>
      </g>
     </g>
    </g>
    <g id="ytick_6">
     <g id="line2d_27">
      <path clip-path="url(#pfb294c9f40)" d="M 180 95.027422 
L 1296 95.027422 
" style="fill:none;stroke:#b0b0b0;stroke-linecap:square;stroke-width:0.8;"/>
     </g>
     <g id="line2d_28">
      <g>
       <use style="stroke:#000000;stroke-width:0.8;" x="180" xlink:href="#m6ba1d4b0d0" y="95.027422"/>
      </g>
     </g>
     <g id="text_16">
      <!-- $0.5$ -->
      <g transform="translate(134.032654 107.134798)scale(0.35 -0.35)">
       <use transform="scale(0.996264)" xlink:href="#CMR17-48"/>
       <use transform="translate(45.690477 0)scale(0.996264)" xlink:href="#CMMI12-58"/>
       <use transform="translate(72.787654 0)scale(0.996264)" xlink:href="#CMR17-53"/>
      </g>
     </g>
    </g>
    <g id="text_17">
     <!-- $\frac{2\pi\sigma}{\omega}$ $\frac{\gamma}{\omega}$  -->
     <defs>
      <path d="M 50.796875 37.625 
C 52.09375 37.625 55.40625 37.625 55.40625 40.8125 
C 55.40625 43 53.5 43 51.703125 43 
L 29.59375 43 
C 14.59375 43 3.796875 26.34375 3.796875 14.5625 
C 3.796875 6.09375 9.296875 -1 18.296875 -1 
C 30.09375 -1 43 11.671875 43 26.640625 
C 43 30.53125 42.09375 34.3125 39.703125 37.625 
z
M 18.40625 1 
C 13.296875 1 9.59375 4.890625 9.59375 11.78125 
C 9.59375 17.765625 13.203125 37.625 27.90625 37.625 
C 32.203125 37.625 37 35.53125 37 27.828125 
C 37 24.34375 35.40625 15.953125 31.90625 10.1875 
C 28.296875 4.296875 22.90625 1 18.40625 1 
z
" id="CMMI12-27"/>
      <path d="M 59.40625 37.421875 
C 59.40625 40.3125 58.59375 44 55.09375 44 
C 53.09375 44 50.796875 41.515625 50.796875 39.515625 
C 50.796875 38.625 51.203125 38.03125 52 37.125 
C 53.5 35.4375 55.40625 32.75 55.40625 28.078125 
C 55.40625 24.484375 53.203125 18.8125 51.59375 15.734375 
C 48.796875 10.25 44.203125 5.578125 39 5.578125 
C 32.703125 5.578125 30.296875 9.609375 29.203125 15.234375 
C 30.296875 17.859375 32.59375 24.375 32.59375 27 
C 32.59375 28.09375 32.203125 29 30.90625 29 
C 30.203125 29 29.40625 28.609375 28.90625 27.796875 
C 27.5 25.59375 26.203125 17.640625 26.296875 15.53125 
C 24.40625 11.8125 19 5.578125 12.59375 5.578125 
C 5.90625 5.578125 4.09375 11.453125 4.09375 17.125 
C 4.09375 27.46875 10.59375 36.53125 12.40625 39.015625 
C 13.40625 40.515625 14.09375 41.515625 14.09375 41.703125 
C 14.09375 42.40625 13.703125 43.5 12.796875 43.5 
C 11.203125 43.5 10.703125 42.203125 9.90625 41.015625 
C 4.796875 33.140625 1.203125 22.09375 1.203125 12.546875 
C 1.203125 6.375 3.5 -1 11 -1 
C 19.296875 -1 24.5 6.109375 26.59375 9.90625 
C 27.40625 4.296875 30.40625 -1 37.703125 -1 
C 45.296875 -1 50.09375 5.671875 53.703125 13.734375 
C 56.296875 19.515625 59.40625 31.953125 59.40625 37.421875 
z
" id="CMMI12-33"/>
      <path d="M 37.796875 11.875 
C 37.59375 16.734375 37.40625 24.390625 33.59375 33.328125 
C 31.59375 38.3125 28.203125 43.5625 20.90625 43.5625 
C 8.59375 43.5625 1.90625 27.96875 1.90625 25.390625 
C 1.90625 24.484375 2.59375 24.484375 2.90625 24.484375 
C 3.796875 24.484375 3.796875 24.6875 4.296875 25.984375 
C 6.40625 32.140625 12.796875 37 19.703125 37 
C 33.59375 37 35.59375 21.609375 35.59375 11.78125 
C 35.59375 5.5 34.90625 3.4375 34.296875 1.4375 
C 32.40625 -4.71875 29.09375 -17.03125 29.09375 -19.8125 
C 29.09375 -20.609375 29.40625 -21.5 30.203125 -21.5 
C 31.703125 -21.5 32.59375 -18.21875 33.703125 -14.25 
C 36.09375 -5.515625 36.703125 -1.140625 37.203125 2.828125 
C 37.5 5.21875 43.203125 21.625 51.09375 37.21875 
C 51.796875 38.796875 53.203125 41.484375 53.203125 41.78125 
C 53.203125 41.875 53.09375 42.578125 52.203125 42.578125 
C 52 42.578125 51.5 42.578125 51.296875 42.171875 
C 51.09375 41.984375 47.59375 35.21875 44.59375 28.46875 
C 43.09375 25.09375 41.09375 20.625 37.796875 11.875 
z
" id="CMMI12-13"/>
     </defs>
     <g transform="translate(87.561204 445.879571)rotate(-90)scale(0.85 -0.85)">
      <use transform="translate(0 73.581354)scale(0.697382)" xlink:href="#CMR17-50"/>
      <use transform="translate(31.983182 73.581354)scale(0.697382)" xlink:href="#CMMI12-25"/>
      <use transform="translate(73.220403 73.581354)scale(0.697382)" xlink:href="#CMMI12-27"/>
      <use transform="translate(34.755805 0)scale(0.697382)" xlink:href="#CMMI12-33"/>
      <use transform="translate(151.059306 78.799427)scale(0.697382)" xlink:href="#CMMI12-13"/>
      <use transform="translate(148.154382 0)scale(0.697382)" xlink:href="#CMMI12-33"/>
      <path d="M 0 57.269386 
L 114.534242 57.269386 
L 114.534242 61.254336 
L 0 61.254336 
L 0 57.269386 
z
"/>
      <path d="M 148.154382 57.269386 
L 193.177014 57.269386 
L 193.177014 61.254336 
L 148.154382 61.254336 
L 148.154382 57.269386 
z
"/>
     </g>
    </g>
   </g>
   <g id="line2d_29">
    <path clip-path="url(#pfb294c9f40)" d="M 230.727273 614.706334 
L 235.825491 614.557727 
L 240.923709 614.706334 
L 261.316583 614.706334 
L 266.414801 615.199788 
L 271.51302 615.205304 
L 276.611238 614.854941 
L 281.709456 614.854941 
L 286.807675 614.706334 
L 291.905893 615.6 
L 297.004111 614.706334 
L 302.10233 615.304411 
L 307.200548 488.031832 
L 312.298767 454.749809 
L 317.396985 424.730225 
L 322.495203 615.206917 
L 327.593422 372.021377 
L 332.69164 614.854941 
L 337.789858 326.767269 
L 342.888077 306.405548 
L 347.986295 287.37215 
L 353.084513 269.568239 
L 358.182732 252.915472 
L 363.28095 237.35094 
L 368.379169 222.823578 
L 373.477387 209.291572 
L 378.575605 196.720426 
L 383.673824 185.081523 
L 388.772042 174.351007 
L 393.87026 164.508927 
L 398.968479 614.854941 
L 404.066697 147.425884 
L 409.164915 140.159142 
L 414.263134 133.728508 
L 419.361352 614.854941 
L 424.459571 123.344315 
L 429.557789 119.37854 
L 434.656007 116.224121 
L 439.754226 113.877702 
L 444.852444 112.336851 
L 449.950662 111.6 
L 455.048881 111.666406 
L 460.147099 112.536137 
L 465.245317 114.210069 
L 470.343536 116.689909 
L 475.441754 119.97824 
L 480.539973 124.078576 
L 485.638191 128.995459 
L 490.736409 134.734565 
L 495.834628 141.302856 
L 500.932846 148.708759 
L 506.031064 156.962399 
L 511.129283 166.07588 
L 516.227501 176.063642 
L 521.32572 186.9429 
L 526.423938 198.7342 
L 531.522156 211.462119 
L 536.620375 225.156165 
L 541.718593 239.85193 
L 546.816811 255.592612 
L 551.91503 614.854941 
L 557.013248 290.432371 
L 562.111466 615.261561 
L 567.209685 330.270666 
L 572.307903 352.342717 
L 577.406122 376.067616 
L 582.50434 615.219113 
L 587.602558 429.501123 
L 592.700777 460.005571 
L 597.798995 614.854941 
L 602.897213 615.261019 
L 607.995432 615.350472 
L 613.09365 615.222894 
L 618.191868 615.308344 
L 623.290087 614.854941 
L 679.370489 614.854941 
L 684.468707 615.165547 
L 689.566926 614.854941 
L 704.861581 614.854941 
L 709.959799 614.706334 
L 715.058017 614.854941 
L 720.156236 615.162615 
L 725.254454 614.854941 
L 735.450891 614.854941 
L 740.549109 615.194809 
L 745.647328 614.854941 
L 755.843764 614.854941 
L 760.941983 614.706334 
L 766.040201 615.164908 
L 771.138419 614.706334 
L 776.236638 615.165204 
L 781.334856 615.189018 
L 786.433074 614.706334 
L 811.924166 614.706334 
L 817.022385 614.854941 
L 822.120603 615.164633 
L 827.218821 615.237225 
L 832.31704 614.706334 
L 837.415258 614.854941 
L 842.513476 615.165612 
L 847.611695 614.706334 
L 868.004568 614.706334 
L 873.102787 615.188932 
L 878.201005 614.706334 
L 893.49566 614.706334 
L 898.593878 614.557727 
L 903.692097 614.706334 
L 908.790315 615.210364 
L 913.888534 614.854941 
L 918.986752 615.431973 
L 924.08497 614.706334 
L 929.183189 615.532055 
L 939.379625 527.116461 
L 944.477844 489.281203 
L 949.576062 455.866981 
L 954.67428 425.745193 
L 959.772499 398.233071 
L 964.870717 372.883005 
L 969.968936 615.206096 
L 975.067154 327.51363 
L 980.165372 307.102774 
L 985.263591 288.024197 
L 990.361809 270.178218 
L 995.460027 253.485867 
L 1000.558246 237.883758 
L 1005.656464 615.251126 
L 1010.754683 614.854941 
L 1015.852901 197.149224 
L 1020.951119 185.477764 
L 1026.049338 174.715463 
L 1031.147556 164.842246 
L 1036.245774 155.841286 
L 1041.343993 147.698471 
L 1046.442211 614.854941 
L 1051.540429 133.941898 
L 1056.638648 128.310026 
L 1061.736866 614.40912 
L 1066.835085 119.505008 
L 1071.933303 116.32194 
L 1077.031521 113.946975 
L 1082.12974 112.377649 
L 1087.227958 111.612364 
L 1092.326176 111.650348 
L 1097.424395 112.491641 
L 1102.522613 114.13709 
L 1107.620831 116.588372 
L 1112.71905 119.848038 
L 1117.817268 123.919569 
L 1122.915487 128.807466 
L 1128.013705 134.517365 
L 1133.111923 615.204805 
L 1138.210142 148.432278 
L 1143.30836 156.655724 
L 1148.406578 165.738546 
L 1153.504797 175.695094 
L 1158.603015 186.542475 
L 1163.701233 198.301106 
L 1168.799452 210.995409 
L 1173.89767 224.654698 
L 1178.995889 239.314327 
L 1184.094107 255.017194 
L 1189.192325 271.815737 
L 1194.290544 289.774644 
L 1199.388762 308.974596 
L 1204.48698 614.854941 
L 1209.585199 351.534598 
L 1214.683417 375.197445 
L 1219.781635 400.737057 
L 1224.879854 428.474119 
L 1229.978072 458.873228 
L 1235.076291 614.706334 
L 1240.174509 615.19403 
L 1245.272727 614.854941 
L 1245.272727 614.854941 
" style="fill:none;stroke:#0000ff;stroke-linecap:square;stroke-width:1.5;"/>
   </g>
   <g id="line2d_30">
    <defs>
     <path d="M 0 0.275 
C 0.072931 0.275 0.142884 0.246024 0.194454 0.194454 
C 0.246024 0.142884 0.275 0.072931 0.275 0 
C 0.275 -0.072931 0.246024 -0.142884 0.194454 -0.194454 
C 0.142884 -0.246024 0.072931 -0.275 0 -0.275 
C -0.072931 -0.275 -0.142884 -0.246024 -0.194454 -0.194454 
C -0.246024 -0.142884 -0.275 -0.072931 -0.275 0 
C -0.275 0.072931 -0.246024 0.142884 -0.194454 0.194454 
C -0.142884 0.246024 -0.072931 0.275 0 0.275 
z
" id="mc3a39839f2" style="stroke:#0000ff;"/>
    </defs>
    <g clip-path="url(#pfb294c9f40)">
     <use style="fill:#0000ff;stroke:#0000ff;" x="230.727273" xlink:href="#mc3a39839f2" y="549.765046"/>
     <use style="fill:#0000ff;stroke:#0000ff;" x="235.825491" xlink:href="#mc3a39839f2" y="514.09935"/>
     <use style="fill:#0000ff;stroke:#0000ff;" x="240.923709" xlink:href="#mc3a39839f2" y="549.765046"/>
     <use style="fill:#0000ff;stroke:#0000ff;" x="246.021928" xlink:href="#mc3a39839f2" y="549.765046"/>
     <use style="fill:#0000ff;stroke:#0000ff;" x="251.120146" xlink:href="#mc3a39839f2" y="549.765046"/>
     <use style="fill:#0000ff;stroke:#0000ff;" x="256.218365" xlink:href="#mc3a39839f2" y="549.765046"/>
     <use style="fill:#0000ff;stroke:#0000ff;" x="261.316583" xlink:href="#mc3a39839f2" y="549.765046"/>
     <use style="fill:#0000ff;stroke:#0000ff;" x="266.414801" xlink:href="#mc3a39839f2" y="573.517393"/>
     <use style="fill:#0000ff;stroke:#0000ff;" x="271.51302" xlink:href="#mc3a39839f2" y="609.094078"/>
     <use style="fill:#0000ff;stroke:#0000ff;" x="276.611238" xlink:href="#mc3a39839f2" y="585.430742"/>
     <use style="fill:#0000ff;stroke:#0000ff;" x="281.709456" xlink:href="#mc3a39839f2" y="585.430742"/>
     <use style="fill:#0000ff;stroke:#0000ff;" x="286.807675" xlink:href="#mc3a39839f2" y="549.765046"/>
     <use style="fill:#0000ff;stroke:#0000ff;" x="291.905893" xlink:href="#mc3a39839f2" y="502.210483"/>
     <use style="fill:#0000ff;stroke:#0000ff;" x="297.004111" xlink:href="#mc3a39839f2" y="549.765046"/>
     <use style="fill:#0000ff;stroke:#0000ff;" x="302.10233" xlink:href="#mc3a39839f2" y="573.536566"/>
     <use style="fill:#0000ff;stroke:#0000ff;" x="307.200548" xlink:href="#mc3a39839f2" y="615.152155"/>
     <use style="fill:#0000ff;stroke:#0000ff;" x="312.298767" xlink:href="#mc3a39839f2" y="615.152155"/>
     <use style="fill:#0000ff;stroke:#0000ff;" x="317.396985" xlink:href="#mc3a39839f2" y="615.152155"/>
     <use style="fill:#0000ff;stroke:#0000ff;" x="322.495203" xlink:href="#mc3a39839f2" y="608.88"/>
     <use style="fill:#0000ff;stroke:#0000ff;" x="327.593422" xlink:href="#mc3a39839f2" y="615.152155"/>
     <use style="fill:#0000ff;stroke:#0000ff;" x="332.69164" xlink:href="#mc3a39839f2" y="585.430742"/>
     <use style="fill:#0000ff;stroke:#0000ff;" x="337.789858" xlink:href="#mc3a39839f2" y="615.152155"/>
     <use style="fill:#0000ff;stroke:#0000ff;" x="342.888077" xlink:href="#mc3a39839f2" y="615.152155"/>
     <use style="fill:#0000ff;stroke:#0000ff;" x="347.986295" xlink:href="#mc3a39839f2" y="615.152155"/>
     <use style="fill:#0000ff;stroke:#0000ff;" x="353.084513" xlink:href="#mc3a39839f2" y="615.152155"/>
     <use style="fill:#0000ff;stroke:#0000ff;" x="358.182732" xlink:href="#mc3a39839f2" y="615.152155"/>
     <use style="fill:#0000ff;stroke:#0000ff;" x="363.28095" xlink:href="#mc3a39839f2" y="615.152155"/>
     <use style="fill:#0000ff;stroke:#0000ff;" x="368.379169" xlink:href="#mc3a39839f2" y="615.152155"/>
     <use style="fill:#0000ff;stroke:#0000ff;" x="373.477387" xlink:href="#mc3a39839f2" y="615.152155"/>
     <use style="fill:#0000ff;stroke:#0000ff;" x="378.575605" xlink:href="#mc3a39839f2" y="615.152155"/>
     <use style="fill:#0000ff;stroke:#0000ff;" x="383.673824" xlink:href="#mc3a39839f2" y="615.152155"/>
     <use style="fill:#0000ff;stroke:#0000ff;" x="388.772042" xlink:href="#mc3a39839f2" y="615.152155"/>
     <use style="fill:#0000ff;stroke:#0000ff;" x="393.87026" xlink:href="#mc3a39839f2" y="615.152155"/>
     <use style="fill:#0000ff;stroke:#0000ff;" x="398.968479" xlink:href="#mc3a39839f2" y="585.430742"/>
     <use style="fill:#0000ff;stroke:#0000ff;" x="404.066697" xlink:href="#mc3a39839f2" y="615.152155"/>
     <use style="fill:#0000ff;stroke:#0000ff;" x="409.164915" xlink:href="#mc3a39839f2" y="615.152155"/>
     <use style="fill:#0000ff;stroke:#0000ff;" x="414.263134" xlink:href="#mc3a39839f2" y="615.152155"/>
     <use style="fill:#0000ff;stroke:#0000ff;" x="419.361352" xlink:href="#mc3a39839f2" y="585.430742"/>
     <use style="fill:#0000ff;stroke:#0000ff;" x="424.459571" xlink:href="#mc3a39839f2" y="615.152155"/>
     <use style="fill:#0000ff;stroke:#0000ff;" x="429.557789" xlink:href="#mc3a39839f2" y="615.152155"/>
     <use style="fill:#0000ff;stroke:#0000ff;" x="434.656007" xlink:href="#mc3a39839f2" y="615.152155"/>
     <use style="fill:#0000ff;stroke:#0000ff;" x="439.754226" xlink:href="#mc3a39839f2" y="615.152155"/>
     <use style="fill:#0000ff;stroke:#0000ff;" x="444.852444" xlink:href="#mc3a39839f2" y="615.152155"/>
     <use style="fill:#0000ff;stroke:#0000ff;" x="449.950662" xlink:href="#mc3a39839f2" y="615.152155"/>
     <use style="fill:#0000ff;stroke:#0000ff;" x="455.048881" xlink:href="#mc3a39839f2" y="615.152155"/>
     <use style="fill:#0000ff;stroke:#0000ff;" x="460.147099" xlink:href="#mc3a39839f2" y="615.152155"/>
     <use style="fill:#0000ff;stroke:#0000ff;" x="465.245317" xlink:href="#mc3a39839f2" y="615.152155"/>
     <use style="fill:#0000ff;stroke:#0000ff;" x="470.343536" xlink:href="#mc3a39839f2" y="615.152155"/>
     <use style="fill:#0000ff;stroke:#0000ff;" x="475.441754" xlink:href="#mc3a39839f2" y="615.152155"/>
     <use style="fill:#0000ff;stroke:#0000ff;" x="480.539973" xlink:href="#mc3a39839f2" y="615.152155"/>
     <use style="fill:#0000ff;stroke:#0000ff;" x="485.638191" xlink:href="#mc3a39839f2" y="615.152155"/>
     <use style="fill:#0000ff;stroke:#0000ff;" x="490.736409" xlink:href="#mc3a39839f2" y="615.152155"/>
     <use style="fill:#0000ff;stroke:#0000ff;" x="495.834628" xlink:href="#mc3a39839f2" y="615.152155"/>
     <use style="fill:#0000ff;stroke:#0000ff;" x="500.932846" xlink:href="#mc3a39839f2" y="615.152155"/>
     <use style="fill:#0000ff;stroke:#0000ff;" x="506.031064" xlink:href="#mc3a39839f2" y="615.152155"/>
     <use style="fill:#0000ff;stroke:#0000ff;" x="511.129283" xlink:href="#mc3a39839f2" y="615.152155"/>
     <use style="fill:#0000ff;stroke:#0000ff;" x="516.227501" xlink:href="#mc3a39839f2" y="615.152155"/>
     <use style="fill:#0000ff;stroke:#0000ff;" x="521.32572" xlink:href="#mc3a39839f2" y="615.152155"/>
     <use style="fill:#0000ff;stroke:#0000ff;" x="526.423938" xlink:href="#mc3a39839f2" y="615.152155"/>
     <use style="fill:#0000ff;stroke:#0000ff;" x="531.522156" xlink:href="#mc3a39839f2" y="615.152155"/>
     <use style="fill:#0000ff;stroke:#0000ff;" x="536.620375" xlink:href="#mc3a39839f2" y="615.152155"/>
     <use style="fill:#0000ff;stroke:#0000ff;" x="541.718593" xlink:href="#mc3a39839f2" y="615.152155"/>
     <use style="fill:#0000ff;stroke:#0000ff;" x="546.816811" xlink:href="#mc3a39839f2" y="615.152155"/>
     <use style="fill:#0000ff;stroke:#0000ff;" x="551.91503" xlink:href="#mc3a39839f2" y="585.430742"/>
     <use style="fill:#0000ff;stroke:#0000ff;" x="557.013248" xlink:href="#mc3a39839f2" y="615.152155"/>
     <use style="fill:#0000ff;stroke:#0000ff;" x="562.111466" xlink:href="#mc3a39839f2" y="502.219558"/>
     <use style="fill:#0000ff;stroke:#0000ff;" x="567.209685" xlink:href="#mc3a39839f2" y="615.152155"/>
     <use style="fill:#0000ff;stroke:#0000ff;" x="572.307903" xlink:href="#mc3a39839f2" y="615.152155"/>
     <use style="fill:#0000ff;stroke:#0000ff;" x="577.406122" xlink:href="#mc3a39839f2" y="615.152155"/>
     <use style="fill:#0000ff;stroke:#0000ff;" x="582.50434" xlink:href="#mc3a39839f2" y="573.56401"/>
     <use style="fill:#0000ff;stroke:#0000ff;" x="587.602558" xlink:href="#mc3a39839f2" y="615.152155"/>
     <use style="fill:#0000ff;stroke:#0000ff;" x="592.700777" xlink:href="#mc3a39839f2" y="615.152155"/>
     <use style="fill:#0000ff;stroke:#0000ff;" x="597.798995" xlink:href="#mc3a39839f2" y="585.430742"/>
     <use style="fill:#0000ff;stroke:#0000ff;" x="602.897213" xlink:href="#mc3a39839f2" y="573.533372"/>
     <use style="fill:#0000ff;stroke:#0000ff;" x="607.995432" xlink:href="#mc3a39839f2" y="537.865261"/>
     <use style="fill:#0000ff;stroke:#0000ff;" x="613.09365" xlink:href="#mc3a39839f2" y="609.8608"/>
     <use style="fill:#0000ff;stroke:#0000ff;" x="618.191868" xlink:href="#mc3a39839f2" y="537.86253"/>
     <use style="fill:#0000ff;stroke:#0000ff;" x="623.290087" xlink:href="#mc3a39839f2" y="585.430742"/>
     <use style="fill:#0000ff;stroke:#0000ff;" x="628.388305" xlink:href="#mc3a39839f2" y="585.430742"/>
     <use style="fill:#0000ff;stroke:#0000ff;" x="633.486524" xlink:href="#mc3a39839f2" y="585.430742"/>
     <use style="fill:#0000ff;stroke:#0000ff;" x="638.584742" xlink:href="#mc3a39839f2" y="585.430742"/>
     <use style="fill:#0000ff;stroke:#0000ff;" x="643.68296" xlink:href="#mc3a39839f2" y="585.430742"/>
     <use style="fill:#0000ff;stroke:#0000ff;" x="648.781179" xlink:href="#mc3a39839f2" y="585.430742"/>
     <use style="fill:#0000ff;stroke:#0000ff;" x="653.879397" xlink:href="#mc3a39839f2" y="585.430742"/>
     <use style="fill:#0000ff;stroke:#0000ff;" x="658.977615" xlink:href="#mc3a39839f2" y="585.430742"/>
     <use style="fill:#0000ff;stroke:#0000ff;" x="664.075834" xlink:href="#mc3a39839f2" y="585.430742"/>
     <use style="fill:#0000ff;stroke:#0000ff;" x="669.174052" xlink:href="#mc3a39839f2" y="585.430742"/>
     <use style="fill:#0000ff;stroke:#0000ff;" x="674.27227" xlink:href="#mc3a39839f2" y="585.430742"/>
     <use style="fill:#0000ff;stroke:#0000ff;" x="679.370489" xlink:href="#mc3a39839f2" y="585.430742"/>
     <use style="fill:#0000ff;stroke:#0000ff;" x="684.468707" xlink:href="#mc3a39839f2" y="537.874647"/>
     <use style="fill:#0000ff;stroke:#0000ff;" x="689.566926" xlink:href="#mc3a39839f2" y="585.430742"/>
     <use style="fill:#0000ff;stroke:#0000ff;" x="694.665144" xlink:href="#mc3a39839f2" y="585.430742"/>
     <use style="fill:#0000ff;stroke:#0000ff;" x="699.763362" xlink:href="#mc3a39839f2" y="585.430742"/>
     <use style="fill:#0000ff;stroke:#0000ff;" x="704.861581" xlink:href="#mc3a39839f2" y="585.430742"/>
     <use style="fill:#0000ff;stroke:#0000ff;" x="709.959799" xlink:href="#mc3a39839f2" y="549.765046"/>
     <use style="fill:#0000ff;stroke:#0000ff;" x="715.058017" xlink:href="#mc3a39839f2" y="585.430742"/>
     <use style="fill:#0000ff;stroke:#0000ff;" x="720.156236" xlink:href="#mc3a39839f2" y="537.862167"/>
     <use style="fill:#0000ff;stroke:#0000ff;" x="725.254454" xlink:href="#mc3a39839f2" y="585.430742"/>
     <use style="fill:#0000ff;stroke:#0000ff;" x="730.352672" xlink:href="#mc3a39839f2" y="585.430742"/>
     <use style="fill:#0000ff;stroke:#0000ff;" x="735.450891" xlink:href="#mc3a39839f2" y="585.430742"/>
     <use style="fill:#0000ff;stroke:#0000ff;" x="740.549109" xlink:href="#mc3a39839f2" y="609.002307"/>
     <use style="fill:#0000ff;stroke:#0000ff;" x="745.647328" xlink:href="#mc3a39839f2" y="585.430742"/>
     <use style="fill:#0000ff;stroke:#0000ff;" x="750.745546" xlink:href="#mc3a39839f2" y="585.430742"/>
     <use style="fill:#0000ff;stroke:#0000ff;" x="755.843764" xlink:href="#mc3a39839f2" y="585.430742"/>
     <use style="fill:#0000ff;stroke:#0000ff;" x="760.941983" xlink:href="#mc3a39839f2" y="549.765046"/>
     <use style="fill:#0000ff;stroke:#0000ff;" x="766.040201" xlink:href="#mc3a39839f2" y="537.89044"/>
     <use style="fill:#0000ff;stroke:#0000ff;" x="771.138419" xlink:href="#mc3a39839f2" y="549.765046"/>
     <use style="fill:#0000ff;stroke:#0000ff;" x="776.236638" xlink:href="#mc3a39839f2" y="502.194217"/>
     <use style="fill:#0000ff;stroke:#0000ff;" x="781.334856" xlink:href="#mc3a39839f2" y="573.552931"/>
     <use style="fill:#0000ff;stroke:#0000ff;" x="786.433074" xlink:href="#mc3a39839f2" y="549.765046"/>
     <use style="fill:#0000ff;stroke:#0000ff;" x="791.531293" xlink:href="#mc3a39839f2" y="549.765046"/>
     <use style="fill:#0000ff;stroke:#0000ff;" x="796.629511" xlink:href="#mc3a39839f2" y="549.765046"/>
     <use style="fill:#0000ff;stroke:#0000ff;" x="801.72773" xlink:href="#mc3a39839f2" y="549.765046"/>
     <use style="fill:#0000ff;stroke:#0000ff;" x="806.825948" xlink:href="#mc3a39839f2" y="549.765046"/>
     <use style="fill:#0000ff;stroke:#0000ff;" x="811.924166" xlink:href="#mc3a39839f2" y="549.765046"/>
     <use style="fill:#0000ff;stroke:#0000ff;" x="817.022385" xlink:href="#mc3a39839f2" y="585.430742"/>
     <use style="fill:#0000ff;stroke:#0000ff;" x="822.120603" xlink:href="#mc3a39839f2" y="537.850557"/>
     <use style="fill:#0000ff;stroke:#0000ff;" x="827.218821" xlink:href="#mc3a39839f2" y="466.559466"/>
     <use style="fill:#0000ff;stroke:#0000ff;" x="832.31704" xlink:href="#mc3a39839f2" y="549.765046"/>
     <use style="fill:#0000ff;stroke:#0000ff;" x="837.415258" xlink:href="#mc3a39839f2" y="585.430742"/>
     <use style="fill:#0000ff;stroke:#0000ff;" x="842.513476" xlink:href="#mc3a39839f2" y="537.88519"/>
     <use style="fill:#0000ff;stroke:#0000ff;" x="847.611695" xlink:href="#mc3a39839f2" y="549.765046"/>
     <use style="fill:#0000ff;stroke:#0000ff;" x="852.709913" xlink:href="#mc3a39839f2" y="549.765046"/>
     <use style="fill:#0000ff;stroke:#0000ff;" x="857.808132" xlink:href="#mc3a39839f2" y="549.765046"/>
     <use style="fill:#0000ff;stroke:#0000ff;" x="862.90635" xlink:href="#mc3a39839f2" y="549.765046"/>
     <use style="fill:#0000ff;stroke:#0000ff;" x="868.004568" xlink:href="#mc3a39839f2" y="549.765046"/>
     <use style="fill:#0000ff;stroke:#0000ff;" x="873.102787" xlink:href="#mc3a39839f2" y="573.544901"/>
     <use style="fill:#0000ff;stroke:#0000ff;" x="878.201005" xlink:href="#mc3a39839f2" y="549.765046"/>
     <use style="fill:#0000ff;stroke:#0000ff;" x="883.299223" xlink:href="#mc3a39839f2" y="549.765046"/>
     <use style="fill:#0000ff;stroke:#0000ff;" x="888.397442" xlink:href="#mc3a39839f2" y="549.765046"/>
     <use style="fill:#0000ff;stroke:#0000ff;" x="893.49566" xlink:href="#mc3a39839f2" y="549.765046"/>
     <use style="fill:#0000ff;stroke:#0000ff;" x="898.593878" xlink:href="#mc3a39839f2" y="514.09935"/>
     <use style="fill:#0000ff;stroke:#0000ff;" x="903.692097" xlink:href="#mc3a39839f2" y="549.765046"/>
     <use style="fill:#0000ff;stroke:#0000ff;" x="908.790315" xlink:href="#mc3a39839f2" y="573.525866"/>
     <use style="fill:#0000ff;stroke:#0000ff;" x="913.888534" xlink:href="#mc3a39839f2" y="585.430742"/>
     <use style="fill:#0000ff;stroke:#0000ff;" x="918.986752" xlink:href="#mc3a39839f2" y="466.574663"/>
     <use style="fill:#0000ff;stroke:#0000ff;" x="924.08497" xlink:href="#mc3a39839f2" y="549.765046"/>
     <use style="fill:#0000ff;stroke:#0000ff;" x="929.183189" xlink:href="#mc3a39839f2" y="538.541764"/>
     <use style="fill:#0000ff;stroke:#0000ff;" x="934.281407" xlink:href="#mc3a39839f2" y="615.152155"/>
     <use style="fill:#0000ff;stroke:#0000ff;" x="939.379625" xlink:href="#mc3a39839f2" y="615.152155"/>
     <use style="fill:#0000ff;stroke:#0000ff;" x="944.477844" xlink:href="#mc3a39839f2" y="615.152155"/>
     <use style="fill:#0000ff;stroke:#0000ff;" x="949.576062" xlink:href="#mc3a39839f2" y="615.152155"/>
     <use style="fill:#0000ff;stroke:#0000ff;" x="954.67428" xlink:href="#mc3a39839f2" y="615.152155"/>
     <use style="fill:#0000ff;stroke:#0000ff;" x="959.772499" xlink:href="#mc3a39839f2" y="615.152155"/>
     <use style="fill:#0000ff;stroke:#0000ff;" x="964.870717" xlink:href="#mc3a39839f2" y="615.152155"/>
     <use style="fill:#0000ff;stroke:#0000ff;" x="969.968936" xlink:href="#mc3a39839f2" y="609.219629"/>
     <use style="fill:#0000ff;stroke:#0000ff;" x="975.067154" xlink:href="#mc3a39839f2" y="615.152155"/>
     <use style="fill:#0000ff;stroke:#0000ff;" x="980.165372" xlink:href="#mc3a39839f2" y="615.152155"/>
     <use style="fill:#0000ff;stroke:#0000ff;" x="985.263591" xlink:href="#mc3a39839f2" y="615.152155"/>
     <use style="fill:#0000ff;stroke:#0000ff;" x="990.361809" xlink:href="#mc3a39839f2" y="615.152155"/>
     <use style="fill:#0000ff;stroke:#0000ff;" x="995.460027" xlink:href="#mc3a39839f2" y="615.152155"/>
     <use style="fill:#0000ff;stroke:#0000ff;" x="1000.558246" xlink:href="#mc3a39839f2" y="615.152155"/>
     <use style="fill:#0000ff;stroke:#0000ff;" x="1005.656464" xlink:href="#mc3a39839f2" y="537.881884"/>
     <use style="fill:#0000ff;stroke:#0000ff;" x="1010.754683" xlink:href="#mc3a39839f2" y="585.430742"/>
     <use style="fill:#0000ff;stroke:#0000ff;" x="1015.852901" xlink:href="#mc3a39839f2" y="615.152155"/>
     <use style="fill:#0000ff;stroke:#0000ff;" x="1020.951119" xlink:href="#mc3a39839f2" y="615.152155"/>
     <use style="fill:#0000ff;stroke:#0000ff;" x="1026.049338" xlink:href="#mc3a39839f2" y="615.152155"/>
     <use style="fill:#0000ff;stroke:#0000ff;" x="1031.147556" xlink:href="#mc3a39839f2" y="615.152155"/>
     <use style="fill:#0000ff;stroke:#0000ff;" x="1036.245774" xlink:href="#mc3a39839f2" y="615.152155"/>
     <use style="fill:#0000ff;stroke:#0000ff;" x="1041.343993" xlink:href="#mc3a39839f2" y="615.152155"/>
     <use style="fill:#0000ff;stroke:#0000ff;" x="1046.442211" xlink:href="#mc3a39839f2" y="585.430742"/>
     <use style="fill:#0000ff;stroke:#0000ff;" x="1051.540429" xlink:href="#mc3a39839f2" y="615.152155"/>
     <use style="fill:#0000ff;stroke:#0000ff;" x="1056.638648" xlink:href="#mc3a39839f2" y="615.152155"/>
     <use style="fill:#0000ff;stroke:#0000ff;" x="1061.736866" xlink:href="#mc3a39839f2" y="478.433654"/>
     <use style="fill:#0000ff;stroke:#0000ff;" x="1066.835085" xlink:href="#mc3a39839f2" y="615.152155"/>
     <use style="fill:#0000ff;stroke:#0000ff;" x="1071.933303" xlink:href="#mc3a39839f2" y="615.152155"/>
     <use style="fill:#0000ff;stroke:#0000ff;" x="1077.031521" xlink:href="#mc3a39839f2" y="615.152155"/>
     <use style="fill:#0000ff;stroke:#0000ff;" x="1082.12974" xlink:href="#mc3a39839f2" y="615.152155"/>
     <use style="fill:#0000ff;stroke:#0000ff;" x="1087.227958" xlink:href="#mc3a39839f2" y="615.152155"/>
     <use style="fill:#0000ff;stroke:#0000ff;" x="1092.326176" xlink:href="#mc3a39839f2" y="615.152155"/>
     <use style="fill:#0000ff;stroke:#0000ff;" x="1097.424395" xlink:href="#mc3a39839f2" y="615.152155"/>
     <use style="fill:#0000ff;stroke:#0000ff;" x="1102.522613" xlink:href="#mc3a39839f2" y="615.152155"/>
     <use style="fill:#0000ff;stroke:#0000ff;" x="1107.620831" xlink:href="#mc3a39839f2" y="615.152155"/>
     <use style="fill:#0000ff;stroke:#0000ff;" x="1112.71905" xlink:href="#mc3a39839f2" y="615.152155"/>
     <use style="fill:#0000ff;stroke:#0000ff;" x="1117.817268" xlink:href="#mc3a39839f2" y="615.152155"/>
     <use style="fill:#0000ff;stroke:#0000ff;" x="1122.915487" xlink:href="#mc3a39839f2" y="615.152155"/>
     <use style="fill:#0000ff;stroke:#0000ff;" x="1128.013705" xlink:href="#mc3a39839f2" y="615.152155"/>
     <use style="fill:#0000ff;stroke:#0000ff;" x="1133.111923" xlink:href="#mc3a39839f2" y="573.555367"/>
     <use style="fill:#0000ff;stroke:#0000ff;" x="1138.210142" xlink:href="#mc3a39839f2" y="615.152155"/>
     <use style="fill:#0000ff;stroke:#0000ff;" x="1143.30836" xlink:href="#mc3a39839f2" y="615.152155"/>
     <use style="fill:#0000ff;stroke:#0000ff;" x="1148.406578" xlink:href="#mc3a39839f2" y="615.152155"/>
     <use style="fill:#0000ff;stroke:#0000ff;" x="1153.504797" xlink:href="#mc3a39839f2" y="615.152155"/>
     <use style="fill:#0000ff;stroke:#0000ff;" x="1158.603015" xlink:href="#mc3a39839f2" y="615.152155"/>
     <use style="fill:#0000ff;stroke:#0000ff;" x="1163.701233" xlink:href="#mc3a39839f2" y="615.152155"/>
     <use style="fill:#0000ff;stroke:#0000ff;" x="1168.799452" xlink:href="#mc3a39839f2" y="615.152155"/>
     <use style="fill:#0000ff;stroke:#0000ff;" x="1173.89767" xlink:href="#mc3a39839f2" y="615.152155"/>
     <use style="fill:#0000ff;stroke:#0000ff;" x="1178.995889" xlink:href="#mc3a39839f2" y="615.152155"/>
     <use style="fill:#0000ff;stroke:#0000ff;" x="1184.094107" xlink:href="#mc3a39839f2" y="615.152155"/>
     <use style="fill:#0000ff;stroke:#0000ff;" x="1189.192325" xlink:href="#mc3a39839f2" y="615.152155"/>
     <use style="fill:#0000ff;stroke:#0000ff;" x="1194.290544" xlink:href="#mc3a39839f2" y="615.152155"/>
     <use style="fill:#0000ff;stroke:#0000ff;" x="1199.388762" xlink:href="#mc3a39839f2" y="615.152155"/>
     <use style="fill:#0000ff;stroke:#0000ff;" x="1204.48698" xlink:href="#mc3a39839f2" y="585.430742"/>
     <use style="fill:#0000ff;stroke:#0000ff;" x="1209.585199" xlink:href="#mc3a39839f2" y="615.152155"/>
     <use style="fill:#0000ff;stroke:#0000ff;" x="1214.683417" xlink:href="#mc3a39839f2" y="615.152155"/>
     <use style="fill:#0000ff;stroke:#0000ff;" x="1219.781635" xlink:href="#mc3a39839f2" y="615.152155"/>
     <use style="fill:#0000ff;stroke:#0000ff;" x="1224.879854" xlink:href="#mc3a39839f2" y="615.152155"/>
     <use style="fill:#0000ff;stroke:#0000ff;" x="1229.978072" xlink:href="#mc3a39839f2" y="615.152155"/>
     <use style="fill:#0000ff;stroke:#0000ff;" x="1235.076291" xlink:href="#mc3a39839f2" y="549.765046"/>
     <use style="fill:#0000ff;stroke:#0000ff;" x="1240.174509" xlink:href="#mc3a39839f2" y="609.258174"/>
     <use style="fill:#0000ff;stroke:#0000ff;" x="1245.272727" xlink:href="#mc3a39839f2" y="585.430742"/>
    </g>
   </g>
   <g id="line2d_31">
    <path clip-path="url(#pfb294c9f40)" d="M 230.727273 614.706334 
L 235.825491 614.706334 
L 240.923709 614.854941 
L 246.021928 614.706334 
L 251.120146 614.706334 
L 256.218365 615.258027 
L 261.316583 615.247019 
L 266.414801 614.854941 
L 276.611238 614.854941 
L 281.709456 614.706334 
L 286.807675 615.536599 
L 291.905893 615.003548 
L 297.004111 614.854941 
L 302.10233 614.854941 
L 307.200548 488.031832 
L 312.298767 454.749809 
L 317.396985 424.730225 
L 322.495203 397.301238 
L 327.593422 372.021377 
L 332.69164 348.584007 
L 337.789858 326.767269 
L 342.888077 306.405548 
L 347.986295 287.37215 
L 353.084513 269.568239 
L 358.182732 252.915472 
L 363.28095 237.35094 
L 368.379169 222.823578 
L 373.477387 209.291572 
L 378.575605 196.720426 
L 383.673824 185.081523 
L 388.772042 174.351007 
L 393.87026 164.508927 
L 398.968479 614.854941 
L 404.066697 147.425884 
L 409.164915 140.159142 
L 414.263134 133.728508 
L 419.361352 128.125812 
L 424.459571 123.344315 
L 429.557789 119.37854 
L 434.656007 116.224121 
L 439.754226 113.877702 
L 444.852444 112.336851 
L 449.950662 111.6 
L 455.048881 111.666406 
L 460.147099 112.536137 
L 465.245317 614.40912 
L 470.343536 116.689909 
L 475.441754 119.97824 
L 480.539973 614.854941 
L 485.638191 128.995459 
L 490.736409 134.734565 
L 495.834628 141.302856 
L 500.932846 148.708759 
L 506.031064 156.962399 
L 511.129283 614.854941 
L 516.227501 176.063642 
L 521.32572 186.9429 
L 526.423938 198.7342 
L 531.522156 211.462119 
L 536.620375 615.310574 
L 541.718593 239.85193 
L 546.816811 255.592612 
L 551.91503 272.431031 
L 557.013248 614.854941 
L 562.111466 309.677963 
L 567.209685 330.270666 
L 572.307903 614.706334 
L 577.406122 615.252808 
L 582.50434 401.678864 
L 587.602558 429.501123 
L 592.700777 460.005571 
L 597.798995 493.917272 
L 602.897213 532.450505 
L 607.995432 577.928876 
L 613.09365 615.003548 
L 618.191868 615.345253 
L 623.290087 614.854941 
L 628.388305 615.240311 
L 633.486524 614.854941 
L 664.075834 614.854941 
L 669.174052 615.217284 
L 674.27227 614.854941 
L 689.566926 614.854941 
L 694.665144 615.202792 
L 699.763362 614.854941 
L 725.254454 614.854941 
L 730.352672 615.213456 
L 735.450891 614.854941 
L 745.647328 614.854941 
L 750.745546 615.207926 
L 755.843764 614.854941 
L 760.941983 614.854941 
L 766.040201 615.209786 
L 771.138419 614.854941 
L 791.531293 614.854941 
L 796.629511 615.212525 
L 801.72773 614.854941 
L 806.825948 615.213148 
L 811.924166 614.854941 
L 817.022385 614.854941 
L 822.120603 615.21401 
L 832.31704 615.214808 
L 837.415258 614.854941 
L 842.513476 614.854941 
L 847.611695 614.706334 
L 862.90635 614.706334 
L 868.004568 614.854941 
L 873.102787 614.706334 
L 878.201005 614.706334 
L 883.299223 614.854941 
L 888.397442 614.854941 
L 893.49566 615.243747 
L 898.593878 615.24686 
L 903.692097 614.854941 
L 908.790315 614.854941 
L 913.888534 614.706334 
L 918.986752 614.706334 
L 924.08497 615.49439 
L 929.183189 615.003548 
L 934.281407 571.48635 
L 939.379625 614.854941 
L 944.477844 489.281203 
L 949.576062 455.866981 
L 954.67428 425.745193 
L 959.772499 398.233071 
L 964.870717 372.883005 
L 969.968936 349.38462 
L 975.067154 327.51363 
L 980.165372 307.102774 
L 985.263591 288.024197 
L 990.361809 270.178218 
L 995.460027 253.485867 
L 1000.558246 237.883758 
L 1005.656464 614.854941 
L 1010.754683 209.753853 
L 1015.852901 614.854941 
L 1020.951119 185.477764 
L 1026.049338 174.715463 
L 1031.147556 164.842246 
L 1036.245774 155.841286 
L 1041.343993 147.698471 
L 1046.442211 140.401971 
L 1051.540429 614.854941 
L 1056.638648 128.310026 
L 1061.736866 123.49957 
L 1066.835085 119.505008 
L 1071.933303 116.32194 
L 1077.031521 113.946975 
L 1082.12974 112.377649 
L 1087.227958 111.612364 
L 1092.326176 111.650348 
L 1097.424395 112.491641 
L 1102.522613 114.13709 
L 1107.620831 116.588372 
L 1112.71905 615.311025 
L 1117.817268 123.919569 
L 1122.915487 128.807466 
L 1128.013705 134.517365 
L 1133.111923 615.266236 
L 1138.210142 148.432278 
L 1143.30836 156.655724 
L 1148.406578 165.738546 
L 1153.504797 175.695094 
L 1158.603015 186.542475 
L 1163.701233 614.557727 
L 1168.799452 210.995409 
L 1173.89767 224.654698 
L 1178.995889 239.314327 
L 1184.094107 255.017194 
L 1189.192325 271.815737 
L 1194.290544 289.774644 
L 1199.388762 308.974596 
L 1204.48698 614.854941 
L 1209.585199 351.534598 
L 1214.683417 375.197445 
L 1219.781635 400.737057 
L 1224.879854 428.474119 
L 1229.978072 458.873228 
L 1235.076291 492.647583 
L 1240.174509 530.987261 
L 1245.272727 576.155864 
L 1245.272727 576.155864 
" style="fill:none;stroke:#ffa500;stroke-linecap:square;stroke-width:1.5;"/>
   </g>
   <g id="line2d_32">
    <defs>
     <path d="M 0 0.275 
C 0.072931 0.275 0.142884 0.246024 0.194454 0.194454 
C 0.246024 0.142884 0.275 0.072931 0.275 0 
C 0.275 -0.072931 0.246024 -0.142884 0.194454 -0.194454 
C 0.142884 -0.246024 0.072931 -0.275 0 -0.275 
C -0.072931 -0.275 -0.142884 -0.246024 -0.194454 -0.194454 
C -0.246024 -0.142884 -0.275 -0.072931 -0.275 0 
C -0.275 0.072931 -0.246024 0.142884 -0.194454 0.194454 
C -0.142884 0.246024 -0.072931 0.275 0 0.275 
z
" id="ma027cb1ce5" style="stroke:#ffa500;"/>
    </defs>
    <g clip-path="url(#pfb294c9f40)">
     <use style="fill:#ffa500;stroke:#ffa500;" x="230.727273" xlink:href="#ma027cb1ce5" y="549.765046"/>
     <use style="fill:#ffa500;stroke:#ffa500;" x="235.825491" xlink:href="#ma027cb1ce5" y="549.765046"/>
     <use style="fill:#ffa500;stroke:#ffa500;" x="240.923709" xlink:href="#ma027cb1ce5" y="585.430742"/>
     <use style="fill:#ffa500;stroke:#ffa500;" x="246.021928" xlink:href="#ma027cb1ce5" y="549.765046"/>
     <use style="fill:#ffa500;stroke:#ffa500;" x="251.120146" xlink:href="#ma027cb1ce5" y="549.765046"/>
     <use style="fill:#ffa500;stroke:#ffa500;" x="256.218365" xlink:href="#ma027cb1ce5" y="609.095053"/>
     <use style="fill:#ffa500;stroke:#ffa500;" x="261.316583" xlink:href="#ma027cb1ce5" y="573.568945"/>
     <use style="fill:#ffa500;stroke:#ffa500;" x="266.414801" xlink:href="#ma027cb1ce5" y="585.430742"/>
     <use style="fill:#ffa500;stroke:#ffa500;" x="271.51302" xlink:href="#ma027cb1ce5" y="585.430742"/>
     <use style="fill:#ffa500;stroke:#ffa500;" x="276.611238" xlink:href="#ma027cb1ce5" y="585.430742"/>
     <use style="fill:#ffa500;stroke:#ffa500;" x="281.709456" xlink:href="#ma027cb1ce5" y="549.765046"/>
     <use style="fill:#ffa500;stroke:#ffa500;" x="286.807675" xlink:href="#ma027cb1ce5" y="466.967242"/>
     <use style="fill:#ffa500;stroke:#ffa500;" x="291.905893" xlink:href="#ma027cb1ce5" y="609.207873"/>
     <use style="fill:#ffa500;stroke:#ffa500;" x="297.004111" xlink:href="#ma027cb1ce5" y="585.430742"/>
     <use style="fill:#ffa500;stroke:#ffa500;" x="302.10233" xlink:href="#ma027cb1ce5" y="585.430742"/>
     <use style="fill:#ffa500;stroke:#ffa500;" x="307.200548" xlink:href="#ma027cb1ce5" y="615.152155"/>
     <use style="fill:#ffa500;stroke:#ffa500;" x="312.298767" xlink:href="#ma027cb1ce5" y="615.152155"/>
     <use style="fill:#ffa500;stroke:#ffa500;" x="317.396985" xlink:href="#ma027cb1ce5" y="615.152155"/>
     <use style="fill:#ffa500;stroke:#ffa500;" x="322.495203" xlink:href="#ma027cb1ce5" y="615.152155"/>
     <use style="fill:#ffa500;stroke:#ffa500;" x="327.593422" xlink:href="#ma027cb1ce5" y="615.152155"/>
     <use style="fill:#ffa500;stroke:#ffa500;" x="332.69164" xlink:href="#ma027cb1ce5" y="615.152155"/>
     <use style="fill:#ffa500;stroke:#ffa500;" x="337.789858" xlink:href="#ma027cb1ce5" y="615.152155"/>
     <use style="fill:#ffa500;stroke:#ffa500;" x="342.888077" xlink:href="#ma027cb1ce5" y="615.152155"/>
     <use style="fill:#ffa500;stroke:#ffa500;" x="347.986295" xlink:href="#ma027cb1ce5" y="615.152155"/>
     <use style="fill:#ffa500;stroke:#ffa500;" x="353.084513" xlink:href="#ma027cb1ce5" y="615.152155"/>
     <use style="fill:#ffa500;stroke:#ffa500;" x="358.182732" xlink:href="#ma027cb1ce5" y="615.152155"/>
     <use style="fill:#ffa500;stroke:#ffa500;" x="363.28095" xlink:href="#ma027cb1ce5" y="615.152155"/>
     <use style="fill:#ffa500;stroke:#ffa500;" x="368.379169" xlink:href="#ma027cb1ce5" y="615.152155"/>
     <use style="fill:#ffa500;stroke:#ffa500;" x="373.477387" xlink:href="#ma027cb1ce5" y="615.152155"/>
     <use style="fill:#ffa500;stroke:#ffa500;" x="378.575605" xlink:href="#ma027cb1ce5" y="615.152155"/>
     <use style="fill:#ffa500;stroke:#ffa500;" x="383.673824" xlink:href="#ma027cb1ce5" y="615.152155"/>
     <use style="fill:#ffa500;stroke:#ffa500;" x="388.772042" xlink:href="#ma027cb1ce5" y="615.152155"/>
     <use style="fill:#ffa500;stroke:#ffa500;" x="393.87026" xlink:href="#ma027cb1ce5" y="615.152155"/>
     <use style="fill:#ffa500;stroke:#ffa500;" x="398.968479" xlink:href="#ma027cb1ce5" y="585.430742"/>
     <use style="fill:#ffa500;stroke:#ffa500;" x="404.066697" xlink:href="#ma027cb1ce5" y="615.152155"/>
     <use style="fill:#ffa500;stroke:#ffa500;" x="409.164915" xlink:href="#ma027cb1ce5" y="615.152155"/>
     <use style="fill:#ffa500;stroke:#ffa500;" x="414.263134" xlink:href="#ma027cb1ce5" y="615.152155"/>
     <use style="fill:#ffa500;stroke:#ffa500;" x="419.361352" xlink:href="#ma027cb1ce5" y="615.152155"/>
     <use style="fill:#ffa500;stroke:#ffa500;" x="424.459571" xlink:href="#ma027cb1ce5" y="615.152155"/>
     <use style="fill:#ffa500;stroke:#ffa500;" x="429.557789" xlink:href="#ma027cb1ce5" y="615.152155"/>
     <use style="fill:#ffa500;stroke:#ffa500;" x="434.656007" xlink:href="#ma027cb1ce5" y="615.152155"/>
     <use style="fill:#ffa500;stroke:#ffa500;" x="439.754226" xlink:href="#ma027cb1ce5" y="615.152155"/>
     <use style="fill:#ffa500;stroke:#ffa500;" x="444.852444" xlink:href="#ma027cb1ce5" y="615.152155"/>
     <use style="fill:#ffa500;stroke:#ffa500;" x="449.950662" xlink:href="#ma027cb1ce5" y="615.152155"/>
     <use style="fill:#ffa500;stroke:#ffa500;" x="455.048881" xlink:href="#ma027cb1ce5" y="615.152155"/>
     <use style="fill:#ffa500;stroke:#ffa500;" x="460.147099" xlink:href="#ma027cb1ce5" y="615.152155"/>
     <use style="fill:#ffa500;stroke:#ffa500;" x="465.245317" xlink:href="#ma027cb1ce5" y="478.433654"/>
     <use style="fill:#ffa500;stroke:#ffa500;" x="470.343536" xlink:href="#ma027cb1ce5" y="615.152155"/>
     <use style="fill:#ffa500;stroke:#ffa500;" x="475.441754" xlink:href="#ma027cb1ce5" y="615.152155"/>
     <use style="fill:#ffa500;stroke:#ffa500;" x="480.539973" xlink:href="#ma027cb1ce5" y="585.430742"/>
     <use style="fill:#ffa500;stroke:#ffa500;" x="485.638191" xlink:href="#ma027cb1ce5" y="615.152155"/>
     <use style="fill:#ffa500;stroke:#ffa500;" x="490.736409" xlink:href="#ma027cb1ce5" y="615.152155"/>
     <use style="fill:#ffa500;stroke:#ffa500;" x="495.834628" xlink:href="#ma027cb1ce5" y="615.152155"/>
     <use style="fill:#ffa500;stroke:#ffa500;" x="500.932846" xlink:href="#ma027cb1ce5" y="615.152155"/>
     <use style="fill:#ffa500;stroke:#ffa500;" x="506.031064" xlink:href="#ma027cb1ce5" y="615.152155"/>
     <use style="fill:#ffa500;stroke:#ffa500;" x="511.129283" xlink:href="#ma027cb1ce5" y="585.430742"/>
     <use style="fill:#ffa500;stroke:#ffa500;" x="516.227501" xlink:href="#ma027cb1ce5" y="615.152155"/>
     <use style="fill:#ffa500;stroke:#ffa500;" x="521.32572" xlink:href="#ma027cb1ce5" y="615.152155"/>
     <use style="fill:#ffa500;stroke:#ffa500;" x="526.423938" xlink:href="#ma027cb1ce5" y="615.152155"/>
     <use style="fill:#ffa500;stroke:#ffa500;" x="531.522156" xlink:href="#ma027cb1ce5" y="615.152155"/>
     <use style="fill:#ffa500;stroke:#ffa500;" x="536.620375" xlink:href="#ma027cb1ce5" y="466.55259"/>
     <use style="fill:#ffa500;stroke:#ffa500;" x="541.718593" xlink:href="#ma027cb1ce5" y="615.152155"/>
     <use style="fill:#ffa500;stroke:#ffa500;" x="546.816811" xlink:href="#ma027cb1ce5" y="615.152155"/>
     <use style="fill:#ffa500;stroke:#ffa500;" x="551.91503" xlink:href="#ma027cb1ce5" y="615.152155"/>
     <use style="fill:#ffa500;stroke:#ffa500;" x="557.013248" xlink:href="#ma027cb1ce5" y="585.430742"/>
     <use style="fill:#ffa500;stroke:#ffa500;" x="562.111466" xlink:href="#ma027cb1ce5" y="615.152155"/>
     <use style="fill:#ffa500;stroke:#ffa500;" x="567.209685" xlink:href="#ma027cb1ce5" y="615.152155"/>
     <use style="fill:#ffa500;stroke:#ffa500;" x="572.307903" xlink:href="#ma027cb1ce5" y="549.765046"/>
     <use style="fill:#ffa500;stroke:#ffa500;" x="577.406122" xlink:href="#ma027cb1ce5" y="573.609599"/>
     <use style="fill:#ffa500;stroke:#ffa500;" x="582.50434" xlink:href="#ma027cb1ce5" y="615.152155"/>
     <use style="fill:#ffa500;stroke:#ffa500;" x="587.602558" xlink:href="#ma027cb1ce5" y="615.152155"/>
     <use style="fill:#ffa500;stroke:#ffa500;" x="592.700777" xlink:href="#ma027cb1ce5" y="615.152155"/>
     <use style="fill:#ffa500;stroke:#ffa500;" x="597.798995" xlink:href="#ma027cb1ce5" y="615.152155"/>
     <use style="fill:#ffa500;stroke:#ffa500;" x="602.897213" xlink:href="#ma027cb1ce5" y="615.152155"/>
     <use style="fill:#ffa500;stroke:#ffa500;" x="607.995432" xlink:href="#ma027cb1ce5" y="615.152155"/>
     <use style="fill:#ffa500;stroke:#ffa500;" x="613.09365" xlink:href="#ma027cb1ce5" y="609.207873"/>
     <use style="fill:#ffa500;stroke:#ffa500;" x="618.191868" xlink:href="#ma027cb1ce5" y="537.889178"/>
     <use style="fill:#ffa500;stroke:#ffa500;" x="623.290087" xlink:href="#ma027cb1ce5" y="585.430742"/>
     <use style="fill:#ffa500;stroke:#ffa500;" x="628.388305" xlink:href="#ma027cb1ce5" y="573.534956"/>
     <use style="fill:#ffa500;stroke:#ffa500;" x="633.486524" xlink:href="#ma027cb1ce5" y="585.430742"/>
     <use style="fill:#ffa500;stroke:#ffa500;" x="638.584742" xlink:href="#ma027cb1ce5" y="585.430742"/>
     <use style="fill:#ffa500;stroke:#ffa500;" x="643.68296" xlink:href="#ma027cb1ce5" y="585.430742"/>
     <use style="fill:#ffa500;stroke:#ffa500;" x="648.781179" xlink:href="#ma027cb1ce5" y="585.430742"/>
     <use style="fill:#ffa500;stroke:#ffa500;" x="653.879397" xlink:href="#ma027cb1ce5" y="585.430742"/>
     <use style="fill:#ffa500;stroke:#ffa500;" x="658.977615" xlink:href="#ma027cb1ce5" y="585.430742"/>
     <use style="fill:#ffa500;stroke:#ffa500;" x="664.075834" xlink:href="#ma027cb1ce5" y="585.430742"/>
     <use style="fill:#ffa500;stroke:#ffa500;" x="669.174052" xlink:href="#ma027cb1ce5" y="573.552769"/>
     <use style="fill:#ffa500;stroke:#ffa500;" x="674.27227" xlink:href="#ma027cb1ce5" y="585.430742"/>
     <use style="fill:#ffa500;stroke:#ffa500;" x="679.370489" xlink:href="#ma027cb1ce5" y="585.430742"/>
     <use style="fill:#ffa500;stroke:#ffa500;" x="684.468707" xlink:href="#ma027cb1ce5" y="585.430742"/>
     <use style="fill:#ffa500;stroke:#ffa500;" x="689.566926" xlink:href="#ma027cb1ce5" y="585.430742"/>
     <use style="fill:#ffa500;stroke:#ffa500;" x="694.665144" xlink:href="#ma027cb1ce5" y="537.882798"/>
     <use style="fill:#ffa500;stroke:#ffa500;" x="699.763362" xlink:href="#ma027cb1ce5" y="585.430742"/>
     <use style="fill:#ffa500;stroke:#ffa500;" x="704.861581" xlink:href="#ma027cb1ce5" y="585.430742"/>
     <use style="fill:#ffa500;stroke:#ffa500;" x="709.959799" xlink:href="#ma027cb1ce5" y="585.430742"/>
     <use style="fill:#ffa500;stroke:#ffa500;" x="715.058017" xlink:href="#ma027cb1ce5" y="585.430742"/>
     <use style="fill:#ffa500;stroke:#ffa500;" x="720.156236" xlink:href="#ma027cb1ce5" y="585.430742"/>
     <use style="fill:#ffa500;stroke:#ffa500;" x="725.254454" xlink:href="#ma027cb1ce5" y="585.430742"/>
     <use style="fill:#ffa500;stroke:#ffa500;" x="730.352672" xlink:href="#ma027cb1ce5" y="502.205129"/>
     <use style="fill:#ffa500;stroke:#ffa500;" x="735.450891" xlink:href="#ma027cb1ce5" y="585.430742"/>
     <use style="fill:#ffa500;stroke:#ffa500;" x="740.549109" xlink:href="#ma027cb1ce5" y="585.430742"/>
     <use style="fill:#ffa500;stroke:#ffa500;" x="745.647328" xlink:href="#ma027cb1ce5" y="585.430742"/>
     <use style="fill:#ffa500;stroke:#ffa500;" x="750.745546" xlink:href="#ma027cb1ce5" y="537.872813"/>
     <use style="fill:#ffa500;stroke:#ffa500;" x="755.843764" xlink:href="#ma027cb1ce5" y="585.430742"/>
     <use style="fill:#ffa500;stroke:#ffa500;" x="760.941983" xlink:href="#ma027cb1ce5" y="585.430742"/>
     <use style="fill:#ffa500;stroke:#ffa500;" x="766.040201" xlink:href="#ma027cb1ce5" y="537.858048"/>
     <use style="fill:#ffa500;stroke:#ffa500;" x="771.138419" xlink:href="#ma027cb1ce5" y="585.430742"/>
     <use style="fill:#ffa500;stroke:#ffa500;" x="776.236638" xlink:href="#ma027cb1ce5" y="585.430742"/>
     <use style="fill:#ffa500;stroke:#ffa500;" x="781.334856" xlink:href="#ma027cb1ce5" y="585.430742"/>
     <use style="fill:#ffa500;stroke:#ffa500;" x="786.433074" xlink:href="#ma027cb1ce5" y="585.430742"/>
     <use style="fill:#ffa500;stroke:#ffa500;" x="791.531293" xlink:href="#ma027cb1ce5" y="585.430742"/>
     <use style="fill:#ffa500;stroke:#ffa500;" x="796.629511" xlink:href="#ma027cb1ce5" y="537.858992"/>
     <use style="fill:#ffa500;stroke:#ffa500;" x="801.72773" xlink:href="#ma027cb1ce5" y="585.430742"/>
     <use style="fill:#ffa500;stroke:#ffa500;" x="806.825948" xlink:href="#ma027cb1ce5" y="537.871933"/>
     <use style="fill:#ffa500;stroke:#ffa500;" x="811.924166" xlink:href="#ma027cb1ce5" y="585.430742"/>
     <use style="fill:#ffa500;stroke:#ffa500;" x="817.022385" xlink:href="#ma027cb1ce5" y="585.430742"/>
     <use style="fill:#ffa500;stroke:#ffa500;" x="822.120603" xlink:href="#ma027cb1ce5" y="537.886156"/>
     <use style="fill:#ffa500;stroke:#ffa500;" x="827.218821" xlink:href="#ma027cb1ce5" y="573.542931"/>
     <use style="fill:#ffa500;stroke:#ffa500;" x="832.31704" xlink:href="#ma027cb1ce5" y="537.851666"/>
     <use style="fill:#ffa500;stroke:#ffa500;" x="837.415258" xlink:href="#ma027cb1ce5" y="585.430742"/>
     <use style="fill:#ffa500;stroke:#ffa500;" x="842.513476" xlink:href="#ma027cb1ce5" y="585.430742"/>
     <use style="fill:#ffa500;stroke:#ffa500;" x="847.611695" xlink:href="#ma027cb1ce5" y="549.765046"/>
     <use style="fill:#ffa500;stroke:#ffa500;" x="852.709913" xlink:href="#ma027cb1ce5" y="549.765046"/>
     <use style="fill:#ffa500;stroke:#ffa500;" x="857.808132" xlink:href="#ma027cb1ce5" y="549.765046"/>
     <use style="fill:#ffa500;stroke:#ffa500;" x="862.90635" xlink:href="#ma027cb1ce5" y="549.765046"/>
     <use style="fill:#ffa500;stroke:#ffa500;" x="868.004568" xlink:href="#ma027cb1ce5" y="585.430742"/>
     <use style="fill:#ffa500;stroke:#ffa500;" x="873.102787" xlink:href="#ma027cb1ce5" y="549.765046"/>
     <use style="fill:#ffa500;stroke:#ffa500;" x="878.201005" xlink:href="#ma027cb1ce5" y="549.765046"/>
     <use style="fill:#ffa500;stroke:#ffa500;" x="883.299223" xlink:href="#ma027cb1ce5" y="585.430742"/>
     <use style="fill:#ffa500;stroke:#ffa500;" x="888.397442" xlink:href="#ma027cb1ce5" y="585.430742"/>
     <use style="fill:#ffa500;stroke:#ffa500;" x="893.49566" xlink:href="#ma027cb1ce5" y="573.528518"/>
     <use style="fill:#ffa500;stroke:#ffa500;" x="898.593878" xlink:href="#ma027cb1ce5" y="573.575041"/>
     <use style="fill:#ffa500;stroke:#ffa500;" x="903.692097" xlink:href="#ma027cb1ce5" y="585.430742"/>
     <use style="fill:#ffa500;stroke:#ffa500;" x="908.790315" xlink:href="#ma027cb1ce5" y="585.430742"/>
     <use style="fill:#ffa500;stroke:#ffa500;" x="913.888534" xlink:href="#ma027cb1ce5" y="549.765046"/>
     <use style="fill:#ffa500;stroke:#ffa500;" x="918.986752" xlink:href="#ma027cb1ce5" y="549.765046"/>
     <use style="fill:#ffa500;stroke:#ffa500;" x="924.08497" xlink:href="#ma027cb1ce5" y="502.209728"/>
     <use style="fill:#ffa500;stroke:#ffa500;" x="929.183189" xlink:href="#ma027cb1ce5" y="609.207873"/>
     <use style="fill:#ffa500;stroke:#ffa500;" x="934.281407" xlink:href="#ma027cb1ce5" y="615.152155"/>
     <use style="fill:#ffa500;stroke:#ffa500;" x="939.379625" xlink:href="#ma027cb1ce5" y="585.430742"/>
     <use style="fill:#ffa500;stroke:#ffa500;" x="944.477844" xlink:href="#ma027cb1ce5" y="615.152155"/>
     <use style="fill:#ffa500;stroke:#ffa500;" x="949.576062" xlink:href="#ma027cb1ce5" y="615.152155"/>
     <use style="fill:#ffa500;stroke:#ffa500;" x="954.67428" xlink:href="#ma027cb1ce5" y="615.152155"/>
     <use style="fill:#ffa500;stroke:#ffa500;" x="959.772499" xlink:href="#ma027cb1ce5" y="615.152155"/>
     <use style="fill:#ffa500;stroke:#ffa500;" x="964.870717" xlink:href="#ma027cb1ce5" y="615.152155"/>
     <use style="fill:#ffa500;stroke:#ffa500;" x="969.968936" xlink:href="#ma027cb1ce5" y="615.152155"/>
     <use style="fill:#ffa500;stroke:#ffa500;" x="975.067154" xlink:href="#ma027cb1ce5" y="615.152155"/>
     <use style="fill:#ffa500;stroke:#ffa500;" x="980.165372" xlink:href="#ma027cb1ce5" y="615.152155"/>
     <use style="fill:#ffa500;stroke:#ffa500;" x="985.263591" xlink:href="#ma027cb1ce5" y="615.152155"/>
     <use style="fill:#ffa500;stroke:#ffa500;" x="990.361809" xlink:href="#ma027cb1ce5" y="615.152155"/>
     <use style="fill:#ffa500;stroke:#ffa500;" x="995.460027" xlink:href="#ma027cb1ce5" y="615.152155"/>
     <use style="fill:#ffa500;stroke:#ffa500;" x="1000.558246" xlink:href="#ma027cb1ce5" y="615.152155"/>
     <use style="fill:#ffa500;stroke:#ffa500;" x="1005.656464" xlink:href="#ma027cb1ce5" y="585.430742"/>
     <use style="fill:#ffa500;stroke:#ffa500;" x="1010.754683" xlink:href="#ma027cb1ce5" y="615.152155"/>
     <use style="fill:#ffa500;stroke:#ffa500;" x="1015.852901" xlink:href="#ma027cb1ce5" y="585.430742"/>
     <use style="fill:#ffa500;stroke:#ffa500;" x="1020.951119" xlink:href="#ma027cb1ce5" y="615.152155"/>
     <use style="fill:#ffa500;stroke:#ffa500;" x="1026.049338" xlink:href="#ma027cb1ce5" y="615.152155"/>
     <use style="fill:#ffa500;stroke:#ffa500;" x="1031.147556" xlink:href="#ma027cb1ce5" y="615.152155"/>
     <use style="fill:#ffa500;stroke:#ffa500;" x="1036.245774" xlink:href="#ma027cb1ce5" y="615.152155"/>
     <use style="fill:#ffa500;stroke:#ffa500;" x="1041.343993" xlink:href="#ma027cb1ce5" y="615.152155"/>
     <use style="fill:#ffa500;stroke:#ffa500;" x="1046.442211" xlink:href="#ma027cb1ce5" y="615.152155"/>
     <use style="fill:#ffa500;stroke:#ffa500;" x="1051.540429" xlink:href="#ma027cb1ce5" y="585.430742"/>
     <use style="fill:#ffa500;stroke:#ffa500;" x="1056.638648" xlink:href="#ma027cb1ce5" y="615.152155"/>
     <use style="fill:#ffa500;stroke:#ffa500;" x="1061.736866" xlink:href="#ma027cb1ce5" y="615.152155"/>
     <use style="fill:#ffa500;stroke:#ffa500;" x="1066.835085" xlink:href="#ma027cb1ce5" y="615.152155"/>
     <use style="fill:#ffa500;stroke:#ffa500;" x="1071.933303" xlink:href="#ma027cb1ce5" y="615.152155"/>
     <use style="fill:#ffa500;stroke:#ffa500;" x="1077.031521" xlink:href="#ma027cb1ce5" y="615.152155"/>
     <use style="fill:#ffa500;stroke:#ffa500;" x="1082.12974" xlink:href="#ma027cb1ce5" y="615.152155"/>
     <use style="fill:#ffa500;stroke:#ffa500;" x="1087.227958" xlink:href="#ma027cb1ce5" y="615.152155"/>
     <use style="fill:#ffa500;stroke:#ffa500;" x="1092.326176" xlink:href="#ma027cb1ce5" y="615.152155"/>
     <use style="fill:#ffa500;stroke:#ffa500;" x="1097.424395" xlink:href="#ma027cb1ce5" y="615.152155"/>
     <use style="fill:#ffa500;stroke:#ffa500;" x="1102.522613" xlink:href="#ma027cb1ce5" y="615.152155"/>
     <use style="fill:#ffa500;stroke:#ffa500;" x="1107.620831" xlink:href="#ma027cb1ce5" y="615.152155"/>
     <use style="fill:#ffa500;stroke:#ffa500;" x="1112.71905" xlink:href="#ma027cb1ce5" y="466.546318"/>
     <use style="fill:#ffa500;stroke:#ffa500;" x="1117.817268" xlink:href="#ma027cb1ce5" y="615.152155"/>
     <use style="fill:#ffa500;stroke:#ffa500;" x="1122.915487" xlink:href="#ma027cb1ce5" y="615.152155"/>
     <use style="fill:#ffa500;stroke:#ffa500;" x="1128.013705" xlink:href="#ma027cb1ce5" y="615.152155"/>
     <use style="fill:#ffa500;stroke:#ffa500;" x="1133.111923" xlink:href="#ma027cb1ce5" y="537.87179"/>
     <use style="fill:#ffa500;stroke:#ffa500;" x="1138.210142" xlink:href="#ma027cb1ce5" y="615.152155"/>
     <use style="fill:#ffa500;stroke:#ffa500;" x="1143.30836" xlink:href="#ma027cb1ce5" y="615.152155"/>
     <use style="fill:#ffa500;stroke:#ffa500;" x="1148.406578" xlink:href="#ma027cb1ce5" y="615.152155"/>
     <use style="fill:#ffa500;stroke:#ffa500;" x="1153.504797" xlink:href="#ma027cb1ce5" y="615.152155"/>
     <use style="fill:#ffa500;stroke:#ffa500;" x="1158.603015" xlink:href="#ma027cb1ce5" y="615.152155"/>
     <use style="fill:#ffa500;stroke:#ffa500;" x="1163.701233" xlink:href="#ma027cb1ce5" y="514.09935"/>
     <use style="fill:#ffa500;stroke:#ffa500;" x="1168.799452" xlink:href="#ma027cb1ce5" y="615.152155"/>
     <use style="fill:#ffa500;stroke:#ffa500;" x="1173.89767" xlink:href="#ma027cb1ce5" y="615.152155"/>
     <use style="fill:#ffa500;stroke:#ffa500;" x="1178.995889" xlink:href="#ma027cb1ce5" y="615.152155"/>
     <use style="fill:#ffa500;stroke:#ffa500;" x="1184.094107" xlink:href="#ma027cb1ce5" y="615.152155"/>
     <use style="fill:#ffa500;stroke:#ffa500;" x="1189.192325" xlink:href="#ma027cb1ce5" y="615.152155"/>
     <use style="fill:#ffa500;stroke:#ffa500;" x="1194.290544" xlink:href="#ma027cb1ce5" y="615.152155"/>
     <use style="fill:#ffa500;stroke:#ffa500;" x="1199.388762" xlink:href="#ma027cb1ce5" y="615.152155"/>
     <use style="fill:#ffa500;stroke:#ffa500;" x="1204.48698" xlink:href="#ma027cb1ce5" y="585.430742"/>
     <use style="fill:#ffa500;stroke:#ffa500;" x="1209.585199" xlink:href="#ma027cb1ce5" y="615.152155"/>
     <use style="fill:#ffa500;stroke:#ffa500;" x="1214.683417" xlink:href="#ma027cb1ce5" y="615.152155"/>
     <use style="fill:#ffa500;stroke:#ffa500;" x="1219.781635" xlink:href="#ma027cb1ce5" y="615.152155"/>
     <use style="fill:#ffa500;stroke:#ffa500;" x="1224.879854" xlink:href="#ma027cb1ce5" y="615.152155"/>
     <use style="fill:#ffa500;stroke:#ffa500;" x="1229.978072" xlink:href="#ma027cb1ce5" y="615.152155"/>
     <use style="fill:#ffa500;stroke:#ffa500;" x="1235.076291" xlink:href="#ma027cb1ce5" y="615.152155"/>
     <use style="fill:#ffa500;stroke:#ffa500;" x="1240.174509" xlink:href="#ma027cb1ce5" y="615.152155"/>
     <use style="fill:#ffa500;stroke:#ffa500;" x="1245.272727" xlink:href="#ma027cb1ce5" y="615.152155"/>
    </g>
   </g>
   <g id="patch_3">
    <path d="M 180 640.8 
L 180 86.4 
" style="fill:none;stroke:#000000;stroke-linecap:square;stroke-linejoin:miter;stroke-width:0.8;"/>
   </g>
   <g id="patch_4">
    <path d="M 1296 640.8 
L 1296 86.4 
" style="fill:none;stroke:#000000;stroke-linecap:square;stroke-linejoin:miter;stroke-width:0.8;"/>
   </g>
   <g id="patch_5">
    <path d="M 180 640.8 
L 1296 640.8 
" style="fill:none;stroke:#000000;stroke-linecap:square;stroke-linejoin:miter;stroke-width:0.8;"/>
   </g>
   <g id="patch_6">
    <path d="M 180 86.4 
L 1296 86.4 
" style="fill:none;stroke:#000000;stroke-linecap:square;stroke-linejoin:miter;stroke-width:0.8;"/>
   </g>
   <g id="legend_1">
    <g id="patch_7">
     <path d="M 586.093136 207 
L 982.314 207 
Q 989.514 207 989.514 199.8 
L 989.514 -11.81283 
Q 989.514 -19.01283 982.314 -19.01283 
L 586.093136 -19.01283 
Q 578.893136 -19.01283 578.893136 -11.81283 
L 578.893136 199.8 
Q 578.893136 207 586.093136 207 
z
" style="fill:#ffffff;opacity:0.8;stroke:#cccccc;stroke-linejoin:miter;"/>
    </g>
    <g id="line2d_33">
     <path d="M 593.293136 9.65401 
L 665.293136 9.65401 
" style="fill:none;stroke:#0000ff;stroke-linecap:square;stroke-width:1.5;"/>
    </g>
    <g id="line2d_34"/>
    <g id="text_18">
     <!-- Re$(\lambda)$ and $\zeta=$-0.50 -->
     <defs>
      <path d="M 39.40625 32.953125 
L 39.59375 33.046875 
C 55.203125 38.421875 55.296875 49.171875 55.296875 51.0625 
C 55.296875 60.515625 45.703125 69.578125 31.296875 69.578125 
L 8.90625 69.578125 
L 8.90625 0.5 
L 17.09375 0.5 
L 17.09375 32 
L 31.796875 32 
L 49.5 0.5 
L 57.90625 0.5 
z
M 17.09375 38.078125 
L 17.09375 64 
L 30.203125 64 
C 42.90625 64 47.40625 56.828125 47.40625 51.046875 
C 47.40625 45.65625 43.40625 38.078125 30.203125 38.078125 
z
" id="CMSS17-82"/>
      <path d="M 39.09375 21.515625 
C 39.09375 24.84375 38.90625 31.296875 35.703125 36.640625 
C 32.203125 42.390625 26.5 44 22.203125 44 
C 11.796875 44 3 34.1875 3 21.484375 
C 3 9.09375 12.09375 -1 23.59375 -1 
C 28.09375 -1 33.59375 0.296875 38.59375 3.875 
C 38.59375 4.28125 38.40625 6.46875 38.296875 6.5625 
C 38.296875 6.765625 38 9.84375 38 10.25 
C 33.203125 6.359375 27.703125 5.078125 23.703125 5.078125 
C 17.296875 5.078125 10.40625 10.421875 10.09375 21.515625 
z
M 10.90625 27 
C 12.203125 32.5625 16.59375 37.828125 22.203125 37.828125 
C 23.703125 37.828125 30.703125 37.828125 32.5 27 
z
" id="CMSS17-101"/>
      <path d="M 30.59375 -24.390625 
C 30.59375 -24.296875 30.59375 -24.09375 30.296875 -23.796875 
C 25.703125 -19.125 13.40625 -6.359375 13.40625 24.703125 
C 13.40625 55.765625 25.5 68.421875 30.40625 73.390625 
C 30.40625 73.5 30.59375 73.703125 30.59375 74 
C 30.59375 74.296875 30.296875 74.5 29.90625 74.5 
C 28.796875 74.5 20.296875 67.125 15.40625 56.15625 
C 10.40625 45.109375 9 34.359375 9 24.8125 
C 9 17.625 9.703125 5.484375 15.703125 -7.359375 
C 20.5 -17.734375 28.703125 -25 29.90625 -25 
C 30.40625 -25 30.59375 -24.796875 30.59375 -24.390625 
z
" id="CMR17-40"/>
      <path d="M 30.90625 61.953125 
C 28.40625 69 20.5 69 19.203125 69 
C 18.59375 69 17.5 69 17.5 68 
C 17.5 67.21875 18.09375 67.109375 18.59375 67.015625 
C 20.09375 66.8125 21.296875 66.609375 22.90625 63.75 
C 23.90625 61.859375 34.203125 32.171875 34.203125 31.96875 
C 34.203125 31.875 34.09375 31.765625 33.296875 30.96875 
L 7.296875 4.859375 
C 6.09375 3.65625 5.296875 2.859375 5.296875 1.59375 
C 5.296875 0.1875 6.5 -1 8.09375 -1 
C 8.5 -1 9.59375 -0.796875 10.203125 -0.203125 
C 11.796875 1.28125 26.09375 18.65625 35.203125 29.390625 
C 37.796875 21.609375 41 12.453125 44.09375 4.078125 
C 44.59375 2.59375 45.09375 1.1875 46.5 -0.09375 
C 47.5 -1 47.703125 -1 50.5 -1 
L 52.40625 -1 
C 52.796875 -1 53.5 -1 53.5 -0.203125 
C 53.5 0.203125 53.40625 0.296875 53 0.703125 
C 52.09375 1.796875 51.40625 3.578125 51 4.78125 
z
" id="CMMI12-21"/>
      <path d="M 26.296875 24.703125 
C 26.296875 31.875 25.59375 44.015625 19.59375 56.859375 
C 14.796875 67.234375 6.59375 74.5 5.40625 74.5 
C 5.09375 74.5 4.703125 74.390625 4.703125 73.890625 
C 4.703125 73.703125 4.796875 73.59375 4.90625 73.390625 
C 9.703125 68.40625 21.90625 55.75 21.90625 24.75 
C 21.90625 -6.359375 9.796875 -19.015625 4.90625 -24.015625 
C 4.796875 -24.203125 4.703125 -24.3125 4.703125 -24.5 
C 4.703125 -25 5.09375 -25 5.40625 -25 
C 6.5 -25 15 -17.625 19.90625 -6.65625 
C 24.90625 4.390625 26.296875 15.140625 26.296875 24.703125 
z
" id="CMR17-41"/>
      <path d="M 37.59375 27.984375 
C 37.59375 37.375 30.90625 43.875 21.90625 43.875 
C 17.5 43.875 12.703125 43.078125 7.203125 39.890625 
L 7.796875 33.359375 
C 10.296875 35.125 14.59375 38 21.796875 38 
C 26.90625 38 30 34.0625 30 27.84375 
L 30 24 
C 14 24 4 19.34375 4 11.34375 
C 4 7.203125 6.5 -1 14.796875 -1 
C 16.296875 -1 24.40625 -1 30.203125 3.390625 
L 30.203125 -0.296875 
L 37.59375 -0.296875 
z
M 30 12.75 
C 30 10.953125 30 8.5625 27 6.78125 
C 24.40625 5.078125 21.09375 5.078125 19.703125 5.078125 
C 14.703125 5.078125 11.296875 7.984375 11.296875 11.625 
C 11.296875 18.921875 26.90625 18.921875 30 18.921875 
z
" id="CMSS17-97"/>
      <path d="M 40.90625 29.328125 
C 40.90625 35.671875 39.40625 44 28.09375 44 
C 21.703125 44 17.5 40.71875 14.703125 37.328125 
L 14.703125 43.09375 
L 7.40625 43.09375 
L 7.40625 0 
L 15 0 
L 15 24.359375 
C 15 30.6875 17.40625 37.9375 24.203125 37.9375 
C 33 37.9375 33.296875 32 33.296875 28.578125 
L 33.296875 0 
L 40.90625 0 
z
" id="CMSS17-110"/>
      <path d="M 40.796875 69 
L 33.40625 69 
L 33.40625 38.09375 
C 30.296875 40.671875 25.203125 43.0625 19.59375 43.0625 
C 10.5 43.0625 3.296875 33.296875 3.296875 21.046875 
C 3.296875 8.78125 10.40625 -1 19.296875 -1 
C 26.203125 -1 30.796875 2.6875 33.203125 4.78125 
L 33.203125 -0.203125 
L 40.796875 -0.203125 
z
M 33.203125 13.0625 
C 33.203125 11.671875 33.203125 10.203125 30.09375 7.53125 
C 28.09375 5.859375 25.703125 5.078125 23.40625 5.078125 
C 18 5.078125 10.90625 9 10.90625 20.9375 
C 10.90625 33.34375 18.90625 37 24.40625 37 
C 28.09375 37 31.09375 35.21875 33.203125 32.265625 
z
" id="CMSS17-100"/>
      <path d="M 18.90625 5.296875 
C 13 7.609375 9.59375 12.09375 9.59375 19.59375 
C 9.59375 33.296875 19.703125 51.59375 32 58.6875 
C 33.796875 57 36.09375 57 38 57 
C 40.5 57 46.59375 57 46.59375 59.6875 
C 46.59375 61.890625 42.09375 61.890625 38.90625 61.890625 
C 36.90625 61.890625 35.203125 61.890625 32.59375 60.890625 
C 32 62.1875 31.703125 63.5625 31.703125 65.046875 
C 31.703125 66.828125 32.09375 68.203125 32.09375 68.5 
C 32.09375 69.09375 31.59375 69.5 31.09375 69.5 
C 29.5 69.5 29.5 65.8125 29.5 65.015625 
C 29.5 64.125 29.5 62.046875 30.703125 59.953125 
C 19.09375 53.984375 4.5 35.390625 4.5 16.8125 
C 4.5 3.1875 13.59375 0 18.796875 -1.796875 
C 20.09375 -2.1875 23.296875 -3.28125 24.59375 -3.78125 
C 28.703125 -5.171875 32.59375 -6.46875 32.59375 -11.234375 
C 32.59375 -14.125 30.5 -18 26.796875 -18 
C 24.796875 -18 22.09375 -17.3125 19.59375 -14.796875 
C 19.203125 -14.40625 19 -14.203125 18.5 -14.203125 
C 17.703125 -14.203125 17.5 -15 17.5 -15.203125 
C 17.5 -16.203125 21.796875 -20 26.796875 -20 
C 33.203125 -20 37.59375 -13.296875 37.59375 -8.109375 
C 37.59375 -1.109375 31.796875 0.90625 28.09375 2.09375 
z
M 34.203125 59.5 
C 35.703125 60 37.09375 60 38.796875 60 
C 42 60 42.296875 59.9375 44.296875 59.5625 
C 43.09375 59.203125 42.296875 58.984375 38.09375 58.984375 
C 36 58.984375 35.296875 58.984375 34.203125 59.5 
z
" id="CMMI12-16"/>
      <path d="M 64.296875 31.515625 
C 65.796875 31.515625 67.296875 31.515625 67.296875 33.203125 
C 67.296875 35 65.59375 35 63.90625 35 
L 8 35 
C 6.296875 35 4.59375 35 4.59375 33.203125 
C 4.59375 31.515625 6.09375 31.515625 7.59375 31.515625 
z
M 63.90625 14 
C 65.59375 14 67.296875 14 67.296875 15.796875 
C 67.296875 17.484375 65.796875 17.484375 64.296875 17.484375 
L 7.59375 17.484375 
C 6.09375 17.484375 4.59375 17.484375 4.59375 15.796875 
C 4.59375 14 6.296875 14 8 14 
z
" id="CMR17-61"/>
      <path d="M 26 19 
L 26 24.765625 
L 1 24.765625 
L 1 19 
z
" id="CMSS17-45"/>
      <path d="M 43.09375 31.9375 
C 43.09375 37.578125 43 48.078125 38.90625 56.1875 
C 34.796875 64 28.203125 66.078125 23.5 66.078125 
C 16.703125 66.078125 10.90625 62.109375 7.90625 55.78125 
C 4.703125 49.15625 3.796875 42.328125 3.796875 31.9375 
C 3.796875 24.828125 4.09375 16.109375 7.703125 8.484375 
C 11.796875 0.078125 18.703125 -2 23.40625 -2 
C 29.59375 -2 35.59375 1.265625 39 8.09375 
C 42.5 15.21875 43.09375 23.03125 43.09375 31.9375 
z
M 23.40625 4.078125 
C 15.796875 4.078125 13.5 12.671875 12.796875 15.546875 
C 11.59375 20.46875 11.40625 25.21875 11.40625 33.03125 
C 11.40625 39.15625 11.40625 46.0625 13.296875 51.515625 
C 15.59375 57.828125 19.59375 60 23.40625 60 
C 30.796875 60 33.203125 52.6875 34 50.125 
C 35.5 44.890625 35.5 38.765625 35.5 33.03125 
C 35.5 23.84375 35.5 4.078125 23.40625 4.078125 
z
" id="CMSS17-48"/>
      <path d="M 17 7.96875 
L 9 7.96875 
L 9 0 
L 17 0 
z
" id="CMSS17-46"/>
      <path d="M 14.59375 58.625 
L 39.09375 58.625 
L 39.09375 65 
L 7.296875 65 
L 7.296875 27.828125 
L 14 27.828125 
C 15.796875 31.96875 19.5 35 24.296875 35 
C 28.796875 35 33.796875 31.078125 33.796875 19.78125 
C 33.796875 7.703125 26.703125 4.171875 21.5 4.171875 
C 15.09375 4.171875 9.203125 8 6.59375 13.296875 
L 3.40625 7.796875 
C 8 0.765625 15.5 -2 21.5 -2 
C 33.09375 -2 42.203125 7.765625 42.203125 19.578125 
C 42.203125 31.71875 34.09375 41.078125 24.40625 41.078125 
C 20.90625 41.078125 17.5 39.890625 14.59375 37.484375 
z
" id="CMSS17-53"/>
     </defs>
     <g transform="translate(694.093136 22.25401)scale(0.36 -0.36)">
      <use transform="scale(0.996264)" xlink:href="#CMSS17-82"/>
      <use transform="translate(60.416155 0)scale(0.996264)" xlink:href="#CMSS17-101"/>
      <use transform="translate(102.054977 0)scale(0.996264)" xlink:href="#CMR17-40"/>
      <use transform="translate(137.335745 0)scale(0.996264)" xlink:href="#CMMI12-21"/>
      <use transform="translate(194.239817 0)scale(0.996264)" xlink:href="#CMR17-41"/>
      <use transform="translate(260.749697 0)scale(0.996264)" xlink:href="#CMSS17-97"/>
      <use transform="translate(305.671618 0)scale(0.996264)" xlink:href="#CMSS17-110"/>
      <use transform="translate(353.876561 0)scale(0.996264)" xlink:href="#CMSS17-100"/>
      <use transform="translate(433.310617 0)scale(0.996264)" xlink:href="#CMMI12-16"/>
      <use transform="translate(511.114677 0)scale(0.996264)" xlink:href="#CMR17-61"/>
      <use transform="translate(582.829465 0)scale(0.996264)" xlink:href="#CMSS17-45"/>
      <use transform="translate(614.058578 0)scale(0.996264)" xlink:href="#CMSS17-48"/>
      <use transform="translate(660.902201 0)scale(0.996264)" xlink:href="#CMSS17-46"/>
      <use transform="translate(686.926406 0)scale(0.996264)" xlink:href="#CMSS17-53"/>
      <use transform="translate(733.77003 0)scale(0.996264)" xlink:href="#CMSS17-48"/>
     </g>
    </g>
    <g id="line2d_35"/>
    <g id="line2d_36">
     <g>
      <use style="fill:#0000ff;stroke:#0000ff;" x="629.293136" xlink:href="#mc3a39839f2" y="63.457217"/>
     </g>
    </g>
    <g id="text_19">
     <!-- Im$(\lambda)$ and $\zeta=$-0.50 -->
     <defs>
      <path d="M 17.09375 69 
L 8.703125 69 
L 8.703125 0 
L 17.09375 0 
z
" id="CMSS17-73"/>
      <path d="M 67 29.328125 
C 67 36.0625 65.296875 44 54.09375 44 
C 46.59375 44 42.09375 39.3125 40.09375 36.421875 
C 38.296875 41.71875 34.09375 44 28.09375 44 
C 21.296875 44 17 40.125 14.703125 37.328125 
L 14.703125 43.09375 
L 7.40625 43.09375 
L 7.40625 0 
L 15 0 
L 15 24.359375 
C 15 30.296875 17.203125 37.9375 24.296875 37.9375 
C 33.40625 37.9375 33.40625 31.5 33.40625 28.578125 
L 33.40625 0 
L 41 0 
L 41 24.359375 
C 41 30.296875 43.203125 37.9375 50.296875 37.9375 
C 59.40625 37.9375 59.40625 31.5 59.40625 28.578125 
L 59.40625 0 
L 67 0 
z
" id="CMSS17-109"/>
     </defs>
     <g transform="translate(694.093136 76.057217)scale(0.36 -0.36)">
      <use transform="scale(0.996264)" xlink:href="#CMSS17-73"/>
      <use transform="translate(25.783926 0)scale(0.996264)" xlink:href="#CMSS17-109"/>
      <use transform="translate(100.01318 0)scale(0.996264)" xlink:href="#CMR17-40"/>
      <use transform="translate(135.293948 0)scale(0.996264)" xlink:href="#CMMI12-21"/>
      <use transform="translate(192.19802 0)scale(0.996264)" xlink:href="#CMR17-41"/>
      <use transform="translate(258.7079 0)scale(0.996264)" xlink:href="#CMSS17-97"/>
      <use transform="translate(303.629821 0)scale(0.996264)" xlink:href="#CMSS17-110"/>
      <use transform="translate(351.834764 0)scale(0.996264)" xlink:href="#CMSS17-100"/>
      <use transform="translate(431.26882 0)scale(0.996264)" xlink:href="#CMMI12-16"/>
      <use transform="translate(509.07288 0)scale(0.996264)" xlink:href="#CMR17-61"/>
      <use transform="translate(580.787668 0)scale(0.996264)" xlink:href="#CMSS17-45"/>
      <use transform="translate(612.016781 0)scale(0.996264)" xlink:href="#CMSS17-48"/>
      <use transform="translate(658.860404 0)scale(0.996264)" xlink:href="#CMSS17-46"/>
      <use transform="translate(684.884609 0)scale(0.996264)" xlink:href="#CMSS17-53"/>
      <use transform="translate(731.728233 0)scale(0.996264)" xlink:href="#CMSS17-48"/>
     </g>
    </g>
    <g id="line2d_37">
     <path d="M 593.293136 117.260425 
L 665.293136 117.260425 
" style="fill:none;stroke:#ffa500;stroke-linecap:square;stroke-width:1.5;"/>
    </g>
    <g id="line2d_38"/>
    <g id="text_20">
     <!-- Re$(\lambda)$ and $\zeta=$0.25 -->
     <defs>
      <path d="M 25.796875 21.203125 
C 28.59375 24.078125 32.796875 27.5625 35.703125 31.046875 
C 38.5 34.4375 42.203125 39.234375 42.203125 46.203125 
C 42.203125 57.140625 34.796875 67 22.203125 67 
C 12.296875 67 6.59375 60.828125 3.90625 51.15625 
L 7.796875 45.765625 
C 10 54.84375 13.09375 60.625 20.90625 60.625 
C 29.5 60.625 34.296875 53.640625 34.296875 45.96875 
C 34.296875 36.796875 27.296875 29.703125 22 24.421875 
C 16.09375 18.546875 10.296875 12.5625 4.703125 6.375 
L 4.703125 0 
L 42.203125 0 
L 42.203125 6.765625 
L 25.203125 6.765625 
C 24 6.765625 22.796875 6.765625 21.59375 6.765625 
L 11.59375 6.765625 
L 11.59375 6.859375 
z
" id="CMSS17-50"/>
     </defs>
     <g transform="translate(694.093136 129.860425)scale(0.36 -0.36)">
      <use transform="scale(0.996264)" xlink:href="#CMSS17-82"/>
      <use transform="translate(60.416155 0)scale(0.996264)" xlink:href="#CMSS17-101"/>
      <use transform="translate(102.054977 0)scale(0.996264)" xlink:href="#CMR17-40"/>
      <use transform="translate(137.335745 0)scale(0.996264)" xlink:href="#CMMI12-21"/>
      <use transform="translate(194.239817 0)scale(0.996264)" xlink:href="#CMR17-41"/>
      <use transform="translate(260.749697 0)scale(0.996264)" xlink:href="#CMSS17-97"/>
      <use transform="translate(305.671618 0)scale(0.996264)" xlink:href="#CMSS17-110"/>
      <use transform="translate(353.876561 0)scale(0.996264)" xlink:href="#CMSS17-100"/>
      <use transform="translate(433.310617 0)scale(0.996264)" xlink:href="#CMMI12-16"/>
      <use transform="translate(511.114677 0)scale(0.996264)" xlink:href="#CMR17-61"/>
      <use transform="translate(582.829465 0)scale(0.996264)" xlink:href="#CMSS17-48"/>
      <use transform="translate(629.673089 0)scale(0.996264)" xlink:href="#CMSS17-46"/>
      <use transform="translate(655.697294 0)scale(0.996264)" xlink:href="#CMSS17-50"/>
      <use transform="translate(702.540917 0)scale(0.996264)" xlink:href="#CMSS17-53"/>
     </g>
    </g>
    <g id="line2d_39"/>
    <g id="line2d_40">
     <g>
      <use style="fill:#ffa500;stroke:#ffa500;" x="629.293136" xlink:href="#ma027cb1ce5" y="171.063632"/>
     </g>
    </g>
    <g id="text_21">
     <!-- Im$(\lambda)$ and $\zeta=$0.25 -->
     <g transform="translate(694.093136 183.663632)scale(0.36 -0.36)">
      <use transform="scale(0.996264)" xlink:href="#CMSS17-73"/>
      <use transform="translate(25.783926 0)scale(0.996264)" xlink:href="#CMSS17-109"/>
      <use transform="translate(100.01318 0)scale(0.996264)" xlink:href="#CMR17-40"/>
      <use transform="translate(135.293948 0)scale(0.996264)" xlink:href="#CMMI12-21"/>
      <use transform="translate(192.19802 0)scale(0.996264)" xlink:href="#CMR17-41"/>
      <use transform="translate(258.7079 0)scale(0.996264)" xlink:href="#CMSS17-97"/>
      <use transform="translate(303.629821 0)scale(0.996264)" xlink:href="#CMSS17-110"/>
      <use transform="translate(351.834764 0)scale(0.996264)" xlink:href="#CMSS17-100"/>
      <use transform="translate(431.26882 0)scale(0.996264)" xlink:href="#CMMI12-16"/>
      <use transform="translate(509.07288 0)scale(0.996264)" xlink:href="#CMR17-61"/>
      <use transform="translate(580.787668 0)scale(0.996264)" xlink:href="#CMSS17-48"/>
      <use transform="translate(627.631292 0)scale(0.996264)" xlink:href="#CMSS17-46"/>
      <use transform="translate(653.655497 0)scale(0.996264)" xlink:href="#CMSS17-50"/>
      <use transform="translate(700.49912 0)scale(0.996264)" xlink:href="#CMSS17-53"/>
     </g>
    </g>
   </g>
  </g>
 </g>
 <defs>
  <clipPath id="pfb294c9f40">
   <rect height="554.4" width="1116" x="180" y="86.4"/>
  </clipPath>
 </defs>
</svg>
