<?xml version="1.0" encoding="utf-8" standalone="no"?>
<!DOCTYPE svg PUBLIC "-//W3C//DTD SVG 1.1//EN"
  "http://www.w3.org/Graphics/SVG/1.1/DTD/svg11.dtd">
<!-- Created with matplotlib (https://matplotlib.org/) -->
<svg height="720pt" version="1.1" viewBox="0 0 1440 720" width="1440pt" xmlns="http://www.w3.org/2000/svg" xmlns:xlink="http://www.w3.org/1999/xlink">
 <defs>
  <style type="text/css">
*{stroke-linecap:butt;stroke-linejoin:round;}
  </style>
 </defs>
 <g id="figure_1">
  <g id="patch_1">
   <path d="M 0 720 
L 1440 720 
L 1440 0 
L 0 0 
z
" style="fill:#ffffff;"/>
  </g>
  <g id="axes_1">
   <g id="patch_2">
    <path d="M 180 338.4 
L 1296 338.4 
L 1296 86.4 
L 180 86.4 
z
" style="fill:#ffffff;"/>
   </g>
   <g id="matplotlib.axis_1">
    <g id="xtick_1">
     <g id="line2d_1">
      <path clip-path="url(#pe46ac706ef)" d="M 321.657269 338.4 
L 321.657269 86.4 
" style="fill:none;stroke:#b0b0b0;stroke-linecap:square;stroke-width:0.8;"/>
     </g>
     <g id="line2d_2">
      <defs>
       <path d="M 0 0 
L 0 3.5 
" id="m56bc4cfefd" style="stroke:#000000;stroke-width:0.8;"/>
      </defs>
      <g>
       <use style="stroke:#000000;stroke-width:0.8;" x="321.657269" xlink:href="#m56bc4cfefd" y="338.4"/>
      </g>
     </g>
     <g id="text_1">
      <!-- $0.2$ -->
      <defs>
       <path d="M 42 31.640625 
C 42 37.75 41.90625 48.125 37.703125 56.109375 
C 34 63.109375 28.09375 65.59375 22.90625 65.59375 
C 18.09375 65.59375 12 63.40625 8.203125 56.203125 
C 4.203125 48.71875 3.796875 39.4375 3.796875 31.640625 
C 3.796875 25.953125 3.90625 17.28125 7 9.671875 
C 11.296875 -0.609375 19 -2 22.90625 -2 
C 27.5 -2 34.5 -0.109375 38.59375 9.375 
C 41.59375 16.28125 42 24.359375 42 31.640625 
z
M 22.90625 -0.40625 
C 16.5 -0.40625 12.703125 5.078125 11.296875 12.6875 
C 10.203125 18.5625 10.203125 27.15625 10.203125 32.75 
C 10.203125 40.4375 10.203125 46.828125 11.5 52.921875 
C 13.40625 61.390625 19 64 22.90625 64 
C 27 64 32.296875 61.296875 34.203125 53.125 
C 35.5 47.4375 35.59375 40.734375 35.59375 32.75 
C 35.59375 26.25 35.59375 18.265625 34.40625 12.375 
C 32.296875 1.484375 26.40625 -0.40625 22.90625 -0.40625 
z
" id="CMR17-48"/>
       <path d="M 18.40625 4.796875 
C 18.40625 7.6875 16 9.671875 13.59375 9.671875 
C 10.703125 9.671875 8.703125 7.28125 8.703125 4.890625 
C 8.703125 2 11.09375 0 13.5 0 
C 16.40625 0 18.40625 2.390625 18.40625 4.796875 
z
" id="CMMI12-58"/>
       <path d="M 41.703125 15.453125 
L 39.90625 15.453125 
C 38.90625 8.375 38.09375 7.171875 37.703125 6.5625 
C 37.203125 5.765625 30 5.765625 28.59375 5.765625 
L 9.40625 5.765625 
C 13 9.671875 20 16.75 28.5 24.953125 
C 34.59375 30.734375 41.703125 37.53125 41.703125 47.421875 
C 41.703125 59.21875 32.296875 66 21.796875 66 
C 10.796875 66 4.09375 56.3125 4.09375 47.34375 
C 4.09375 43.4375 7 42.9375 8.203125 42.9375 
C 9.203125 42.9375 12.203125 43.546875 12.203125 47.03125 
C 12.203125 50.109375 9.59375 51 8.203125 51 
C 7.59375 51 7 50.90625 6.59375 50.703125 
C 8.5 59.21875 14.296875 63.40625 20.40625 63.40625 
C 29.09375 63.40625 34.796875 56.515625 34.796875 47.421875 
C 34.796875 38.734375 29.703125 31.25 24 24.75 
L 4.09375 2.28125 
L 4.09375 0 
L 39.296875 0 
z
" id="CMR17-50"/>
      </defs>
      <g transform="translate(306.847502 360.196254)scale(0.25 -0.25)">
       <use transform="scale(0.996264)" xlink:href="#CMR17-48"/>
       <use transform="translate(45.690477 0)scale(0.996264)" xlink:href="#CMMI12-58"/>
       <use transform="translate(72.787654 0)scale(0.996264)" xlink:href="#CMR17-50"/>
      </g>
     </g>
    </g>
    <g id="xtick_2">
     <g id="line2d_3">
      <path clip-path="url(#pe46ac706ef)" d="M 463.314537 338.4 
L 463.314537 86.4 
" style="fill:none;stroke:#b0b0b0;stroke-linecap:square;stroke-width:0.8;"/>
     </g>
     <g id="line2d_4">
      <g>
       <use style="stroke:#000000;stroke-width:0.8;" x="463.314537" xlink:href="#m56bc4cfefd" y="338.4"/>
      </g>
     </g>
     <g id="text_2">
      <!-- $0.4$ -->
      <defs>
       <path d="M 33.59375 64.40625 
C 33.59375 66.5 33.5 66.5 31.703125 66.5 
L 2 19.59375 
L 2 17 
L 27.796875 17 
L 27.796875 7.140625 
C 27.796875 3.5 27.59375 2.5 20.59375 2.5 
L 18.703125 2.5 
L 18.703125 0 
C 21.90625 0 27.296875 0 30.703125 0 
C 34.09375 0 39.5 0 42.703125 0 
L 42.703125 2.5 
L 40.796875 2.5 
C 33.796875 2.5 33.59375 3.5 33.59375 7.140625 
L 33.59375 17 
L 43.796875 17 
L 43.796875 19.59375 
L 33.59375 19.59375 
z
M 28.09375 57.859375 
L 28.09375 19.59375 
L 4 19.59375 
z
" id="CMR17-52"/>
      </defs>
      <g transform="translate(448.504771 360.196254)scale(0.25 -0.25)">
       <use transform="scale(0.996264)" xlink:href="#CMR17-48"/>
       <use transform="translate(45.690477 0)scale(0.996264)" xlink:href="#CMMI12-58"/>
       <use transform="translate(72.787654 0)scale(0.996264)" xlink:href="#CMR17-52"/>
      </g>
     </g>
    </g>
    <g id="xtick_3">
     <g id="line2d_5">
      <path clip-path="url(#pe46ac706ef)" d="M 604.971806 338.4 
L 604.971806 86.4 
" style="fill:none;stroke:#b0b0b0;stroke-linecap:square;stroke-width:0.8;"/>
     </g>
     <g id="line2d_6">
      <g>
       <use style="stroke:#000000;stroke-width:0.8;" x="604.971806" xlink:href="#m56bc4cfefd" y="338.4"/>
      </g>
     </g>
     <g id="text_3">
      <!-- $0.6$ -->
      <defs>
       <path d="M 10.59375 34 
C 10.59375 57.65625 21.796875 63 28.296875 63 
C 30.40625 63 35.5 62.640625 37.5 59 
C 35.90625 59 32.90625 59 32.90625 55.515625 
C 32.90625 52.828125 35.09375 51.921875 36.5 51.921875 
C 37.40625 51.921875 40.09375 52.3125 40.09375 55.625 
C 40.09375 61.78125 35.09375 65.296875 28.203125 65.296875 
C 16.296875 65.296875 3.796875 52.96875 3.796875 31 
C 3.796875 3.953125 15.09375 -2 23.09375 -2 
C 32.796875 -2 42 6.671875 42 20.046875 
C 42 32.515625 33.90625 41.59375 23.703125 41.59375 
C 17.59375 41.59375 13.09375 37.609375 10.59375 30.625 
z
M 23.09375 0.390625 
C 10.796875 0.390625 10.796875 18.75 10.796875 22.4375 
C 10.796875 29.625 14.203125 40 23.5 40 
C 25.203125 40 30.09375 40 33.40625 33.125 
C 35.203125 29.21875 35.203125 25.140625 35.203125 20.140625 
C 35.203125 14.75 35.203125 10.78125 33.09375 6.78125 
C 30.90625 2.671875 27.703125 0.390625 23.09375 0.390625 
z
" id="CMR17-54"/>
      </defs>
      <g transform="translate(590.16204 360.196254)scale(0.25 -0.25)">
       <use transform="scale(0.996264)" xlink:href="#CMR17-48"/>
       <use transform="translate(45.690477 0)scale(0.996264)" xlink:href="#CMMI12-58"/>
       <use transform="translate(72.787654 0)scale(0.996264)" xlink:href="#CMR17-54"/>
      </g>
     </g>
    </g>
    <g id="xtick_4">
     <g id="line2d_7">
      <path clip-path="url(#pe46ac706ef)" d="M 746.629075 338.4 
L 746.629075 86.4 
" style="fill:none;stroke:#b0b0b0;stroke-linecap:square;stroke-width:0.8;"/>
     </g>
     <g id="line2d_8">
      <g>
       <use style="stroke:#000000;stroke-width:0.8;" x="746.629075" xlink:href="#m56bc4cfefd" y="338.4"/>
      </g>
     </g>
     <g id="text_4">
      <!-- $0.8$ -->
      <defs>
       <path d="M 27.203125 35.375 
C 33.5 38.546875 39.90625 43.328125 39.90625 50.984375 
C 39.90625 60.015625 31.09375 65.296875 23 65.296875 
C 13.90625 65.296875 5.90625 58.734375 5.90625 49.6875 
C 5.90625 47.203125 6.5 42.921875 10.40625 39.140625 
C 11.40625 38.15625 15.59375 35.171875 18.296875 33.28125 
C 13.796875 30.984375 3.296875 25.53125 3.296875 14.59375 
C 3.296875 4.359375 13.09375 -2 22.796875 -2 
C 33.5 -2 42.5 5.65625 42.5 15.78125 
C 42.5 24.84375 36.40625 29.015625 32.40625 31.703125 
z
M 14.09375 44.09375 
C 13.296875 44.59375 9.296875 47.671875 9.296875 52.359375 
C 9.296875 58.421875 15.59375 63 22.796875 63 
C 30.703125 63 36.5 57.4375 36.5 50.96875 
C 36.5 41.703125 26.09375 36.421875 25.59375 36.421875 
C 25.5 36.421875 25.40625 36.421875 24.59375 37.03125 
z
M 32.5 23.734375 
C 34 22.640625 38.796875 19.375 38.796875 13.296875 
C 38.796875 5.953125 31.40625 0.390625 23 0.390625 
C 13.90625 0.390625 7 6.84375 7 14.6875 
C 7 22.546875 13.09375 29.09375 20 32.1875 
z
" id="CMR17-56"/>
      </defs>
      <g transform="translate(731.819309 360.196254)scale(0.25 -0.25)">
       <use transform="scale(0.996264)" xlink:href="#CMR17-48"/>
       <use transform="translate(45.690477 0)scale(0.996264)" xlink:href="#CMMI12-58"/>
       <use transform="translate(72.787654 0)scale(0.996264)" xlink:href="#CMR17-56"/>
      </g>
     </g>
    </g>
    <g id="xtick_5">
     <g id="line2d_9">
      <path clip-path="url(#pe46ac706ef)" d="M 888.286344 338.4 
L 888.286344 86.4 
" style="fill:none;stroke:#b0b0b0;stroke-linecap:square;stroke-width:0.8;"/>
     </g>
     <g id="line2d_10">
      <g>
       <use style="stroke:#000000;stroke-width:0.8;" x="888.286344" xlink:href="#m56bc4cfefd" y="338.4"/>
      </g>
     </g>
     <g id="text_5">
      <!-- $1.0$ -->
      <defs>
       <path d="M 26.59375 63.40625 
C 26.59375 65.5 26.5 65.5 25.09375 65.5 
C 21.203125 61.1875 15.296875 59.796875 9.703125 59.796875 
C 9.40625 59.796875 8.90625 59.796875 8.796875 59.5 
C 8.703125 59.296875 8.703125 59.09375 8.703125 57 
C 11.796875 57 17 57.59375 21 59.984375 
L 21 7.203125 
C 21 3.6875 20.796875 2.5 12.203125 2.5 
L 9.203125 2.5 
L 9.203125 0 
C 14 0 19 0 23.796875 0 
C 28.59375 0 33.59375 0 38.40625 0 
L 38.40625 2.5 
L 35.40625 2.5 
C 26.796875 2.5 26.59375 3.59375 26.59375 7.15625 
z
" id="CMR17-49"/>
      </defs>
      <g transform="translate(873.476577 360.196254)scale(0.25 -0.25)">
       <use transform="scale(0.996264)" xlink:href="#CMR17-49"/>
       <use transform="translate(45.690477 0)scale(0.996264)" xlink:href="#CMMI12-58"/>
       <use transform="translate(72.787654 0)scale(0.996264)" xlink:href="#CMR17-48"/>
      </g>
     </g>
    </g>
    <g id="xtick_6">
     <g id="line2d_11">
      <path clip-path="url(#pe46ac706ef)" d="M 1029.943612 338.4 
L 1029.943612 86.4 
" style="fill:none;stroke:#b0b0b0;stroke-linecap:square;stroke-width:0.8;"/>
     </g>
     <g id="line2d_12">
      <g>
       <use style="stroke:#000000;stroke-width:0.8;" x="1029.943612" xlink:href="#m56bc4cfefd" y="338.4"/>
      </g>
     </g>
     <g id="text_6">
      <!-- $1.2$ -->
      <g transform="translate(1015.133846 360.196254)scale(0.25 -0.25)">
       <use transform="scale(0.996264)" xlink:href="#CMR17-49"/>
       <use transform="translate(45.690477 0)scale(0.996264)" xlink:href="#CMMI12-58"/>
       <use transform="translate(72.787654 0)scale(0.996264)" xlink:href="#CMR17-50"/>
      </g>
     </g>
    </g>
    <g id="xtick_7">
     <g id="line2d_13">
      <path clip-path="url(#pe46ac706ef)" d="M 1171.600881 338.4 
L 1171.600881 86.4 
" style="fill:none;stroke:#b0b0b0;stroke-linecap:square;stroke-width:0.8;"/>
     </g>
     <g id="line2d_14">
      <g>
       <use style="stroke:#000000;stroke-width:0.8;" x="1171.600881" xlink:href="#m56bc4cfefd" y="338.4"/>
      </g>
     </g>
     <g id="text_7">
      <!-- $1.4$ -->
      <g transform="translate(1156.791115 360.196254)scale(0.25 -0.25)">
       <use transform="scale(0.996264)" xlink:href="#CMR17-49"/>
       <use transform="translate(45.690477 0)scale(0.996264)" xlink:href="#CMMI12-58"/>
       <use transform="translate(72.787654 0)scale(0.996264)" xlink:href="#CMR17-52"/>
      </g>
     </g>
    </g>
   </g>
   <g id="matplotlib.axis_2">
    <g id="ytick_1">
     <g id="line2d_15">
      <path clip-path="url(#pe46ac706ef)" d="M 180 274.482999 
L 1296 274.482999 
" style="fill:none;stroke:#b0b0b0;stroke-linecap:square;stroke-width:0.8;"/>
     </g>
     <g id="line2d_16">
      <defs>
       <path d="M 0 0 
L -3.5 0 
" id="m74fc5dbbd8" style="stroke:#000000;stroke-width:0.8;"/>
      </defs>
      <g>
       <use style="stroke:#000000;stroke-width:0.8;" x="180" xlink:href="#m74fc5dbbd8" y="274.482999"/>
      </g>
     </g>
     <g id="text_8">
      <!-- $50$ -->
      <defs>
       <path d="M 11.40625 57.6875 
C 12.40625 57.28125 16.5 56 20.703125 56 
C 30 56 35.09375 61.109375 38 64.0625 
C 38 64.953125 38 65.5 37.40625 65.5 
C 37.296875 65.5 37.09375 65.5 36.296875 65.046875 
C 32.796875 63.40625 28.703125 62.078125 23.703125 62.078125 
C 20.703125 62.078125 16.203125 62.484375 11.296875 64.671875 
C 10.203125 65.171875 10 65.171875 9.90625 65.171875 
C 9.40625 65.171875 9.296875 65.0625 9.296875 63.078125 
L 9.296875 34.421875 
C 9.296875 32.640625 9.296875 32.140625 10.296875 32.140625 
C 10.796875 32.140625 11 32.34375 11.5 33.03125 
C 14.703125 37.515625 19.09375 39.40625 24.09375 39.40625 
C 27.59375 39.40625 35.09375 37.21875 35.09375 20.140625 
C 35.09375 16.953125 35.09375 11.171875 32.09375 6.578125 
C 29.59375 2.484375 25.703125 0.390625 21.40625 0.390625 
C 14.796875 0.390625 8.09375 5 6.296875 12.71875 
C 6.703125 12.609375 7.5 12.421875 7.90625 12.421875 
C 9.203125 12.421875 11.703125 13.125 11.703125 16.21875 
C 11.703125 18.90625 9.796875 20 7.90625 20 
C 5.59375 20 4.09375 18.59375 4.09375 15.796875 
C 4.09375 7.09375 11 -2 21.59375 -2 
C 31.90625 -2 41.703125 6.875 41.703125 19.75 
C 41.703125 31.71875 33.90625 41 24.203125 41 
C 19.09375 41 14.796875 39.109375 11.40625 35.53125 
z
" id="CMR17-53"/>
      </defs>
      <g transform="translate(152.654761 283.131126)scale(0.25 -0.25)">
       <use transform="scale(0.996264)" xlink:href="#CMR17-53"/>
       <use transform="translate(45.690477 0)scale(0.996264)" xlink:href="#CMR17-48"/>
      </g>
     </g>
    </g>
    <g id="ytick_2">
     <g id="line2d_17">
      <path clip-path="url(#pe46ac706ef)" d="M 180 196.87925 
L 1296 196.87925 
" style="fill:none;stroke:#b0b0b0;stroke-linecap:square;stroke-width:0.8;"/>
     </g>
     <g id="line2d_18">
      <g>
       <use style="stroke:#000000;stroke-width:0.8;" x="180" xlink:href="#m74fc5dbbd8" y="196.87925"/>
      </g>
     </g>
     <g id="text_9">
      <!-- $100$ -->
      <g transform="translate(141.232142 205.527377)scale(0.25 -0.25)">
       <use transform="scale(0.996264)" xlink:href="#CMR17-49"/>
       <use transform="translate(45.690477 0)scale(0.996264)" xlink:href="#CMR17-48"/>
       <use transform="translate(91.380954 0)scale(0.996264)" xlink:href="#CMR17-48"/>
      </g>
     </g>
    </g>
    <g id="ytick_3">
     <g id="line2d_19">
      <path clip-path="url(#pe46ac706ef)" d="M 180 119.275502 
L 1296 119.275502 
" style="fill:none;stroke:#b0b0b0;stroke-linecap:square;stroke-width:0.8;"/>
     </g>
     <g id="line2d_20">
      <g>
       <use style="stroke:#000000;stroke-width:0.8;" x="180" xlink:href="#m74fc5dbbd8" y="119.275502"/>
      </g>
     </g>
     <g id="text_10">
      <!-- $150$ -->
      <g transform="translate(141.232142 127.923629)scale(0.25 -0.25)">
       <use transform="scale(0.996264)" xlink:href="#CMR17-49"/>
       <use transform="translate(45.690477 0)scale(0.996264)" xlink:href="#CMR17-53"/>
       <use transform="translate(91.380954 0)scale(0.996264)" xlink:href="#CMR17-48"/>
      </g>
     </g>
    </g>
    <g id="text_11">
     <!-- phase margin -->
     <defs>
      <path d="M 22 -16.609375 
C 15.59375 -16.609375 15.203125 -16.203125 15.203125 -12.328125 
L 15.203125 6.28125 
C 18.09375 2.09375 22.296875 -0.59375 27.59375 -0.59375 
C 37.59375 -0.59375 47.703125 8.171875 47.703125 21.6875 
C 47.703125 34.234375 39 43.78125 28.703125 43.78125 
C 22.703125 43.78125 17.796875 40.5 15 36.53125 
L 15 43.78125 
L 3.09375 42.6875 
L 3.09375 40.109375 
C 9 40.109375 9.90625 39.5 9.90625 34.734375 
L 9.90625 -12.328125 
C 9.90625 -16.109375 9.5 -16.609375 3.09375 -16.609375 
L 3.09375 -19.1875 
C 5.5 -19 9.90625 -19 12.5 -19 
C 15.09375 -19 19.59375 -19 22 -19.1875 
z
M 15.203125 31.4375 
C 15.203125 32.84375 15.203125 34.921875 19.09375 38.609375 
C 19.59375 39.015625 23 42 28 42 
C 35.296875 42 41.296875 32.9375 41.296875 21.59375 
C 41.296875 10.25 34.90625 1 27 1 
C 23.40625 1 19.5 2.6875 16.5 7.375 
C 15.203125 9.5625 15.203125 10.15625 15.203125 11.75 
z
" id="CMR17-112"/>
      <path d="M 41.5 30.203125 
C 41.5 35.296875 40.5 43.59375 28.703125 43.59375 
C 20.5 43.59375 16.5 37 15.296875 33.703125 
L 15.203125 33.703125 
L 15.203125 68.6875 
L 3.296875 67.59375 
L 3.296875 65 
C 9.203125 65 10.09375 64.40625 10.09375 59.640625 
L 10.09375 6.65625 
C 10.09375 2.875 9.703125 2.390625 3.296875 2.390625 
L 3.296875 -0.203125 
C 5.703125 0 10.09375 0 12.703125 0 
C 15.296875 0 19.796875 0 22.203125 -0.203125 
L 22.203125 2.390625 
C 15.796875 2.390625 15.40625 2.78125 15.40625 6.6875 
L 15.40625 25.90625 
C 15.40625 35.109375 21 42 28 42 
C 35.40625 42 36.203125 35.40625 36.203125 30.59375 
L 36.203125 6.6875 
C 36.203125 2.875 35.796875 2.390625 29.40625 2.390625 
L 29.40625 -0.203125 
C 31.796875 0 36.203125 0 38.796875 0 
C 41.40625 0 45.90625 0 48.296875 -0.203125 
L 48.296875 2.390625 
C 41.90625 2.390625 41.5 2.78125 41.5 6.6875 
z
" id="CMR17-104"/>
      <path d="M 36 25.828125 
C 36 32.375 36 35.84375 31.796875 39.734375 
C 28.09375 43 23.796875 44 20.40625 44 
C 12.5 44 6.796875 37.609375 6.796875 30.796875 
C 6.796875 27 9.796875 27 10.40625 27 
C 11.703125 27 14 27.78125 14 30.53125 
C 14 33 12.09375 34.078125 10.40625 34.078125 
C 10 34.078125 9.5 33.96875 9.203125 33.875 
C 11.296875 40.5 16.703125 42.40625 20.203125 42.40625 
C 25.203125 42.40625 30.703125 37.953125 30.703125 29.453125 
L 30.703125 25 
C 24.796875 25 17.703125 24.203125 12.09375 21.203125 
C 5.796875 17.703125 4 12.703125 4 8.90625 
C 4 1.203125 13 -1 18.296875 -1 
C 23.796875 -1 28.90625 2.171875 31.09375 7.984375 
C 31.296875 3.640625 34.09375 -0.28125 38.5 -0.28125 
C 40.59375 -0.28125 45.90625 1.09375 45.90625 8.859375 
L 45.90625 14.375 
L 44.09375 14.375 
L 44.09375 8.78125 
C 44.09375 2.78125 41.40625 2 40.09375 2 
C 36 2 36 7.15625 36 11.53125 
z
M 30.703125 13.59375 
C 30.703125 4.953125 24.5 0.59375 19 0.59375 
C 14 0.59375 10.09375 4.296875 10.09375 8.90625 
C 10.09375 11.890625 11.40625 17.1875 17.203125 20.390625 
C 22 23.09375 27.5 23.5 30.703125 23.5 
z
" id="CMR17-97"/>
      <path d="M 30.90625 42.140625 
C 30.90625 43.953125 30.796875 44.046875 30.203125 44.046875 
C 29.796875 44.046875 29.703125 43.953125 28.5 42.453125 
C 28.203125 42.046875 27.296875 41.03125 27 40.640625 
C 23.796875 44.046875 19.296875 44.046875 17.59375 44.046875 
C 6.5 44.046875 2.5 38.234375 2.5 32.4375 
C 2.5 23.40625 12.703125 21.328125 15.59375 20.703125 
C 21.90625 19.421875 24.09375 19.015625 26.203125 17.203125 
C 27.5 16.015625 29.703125 13.8125 29.703125 10.21875 
C 29.703125 6 27.296875 0.59375 18.09375 0.59375 
C 9.40625 0.59375 6.296875 7.1875 4.5 15.953125 
C 4.203125 17.34375 4.203125 17.453125 3.40625 17.453125 
C 2.59375 17.453125 2.5 17.34375 2.5 15.359375 
L 2.5 0.984375 
C 2.5 -0.796875 2.59375 -0.90625 3.203125 -0.90625 
C 3.703125 -0.90625 3.796875 -0.796875 4.296875 0 
C 4.90625 0.890625 6.40625 3.296875 7 4.3125 
C 9 1.609375 12.5 -1 18.09375 -1 
C 28 -1 33.296875 4.421875 33.296875 12.25 
C 33.296875 17.375 30.59375 20.078125 29.296875 21.28125 
C 26.296875 24.390625 22.796875 25.09375 18.59375 25.890625 
C 13.09375 27.109375 6.09375 28.515625 6.09375 34.640625 
C 6.09375 37.234375 7.5 42.765625 17.59375 42.765625 
C 28.296875 42.765625 28.90625 32.71875 29.09375 29.5 
C 29.203125 29 29.703125 28.890625 30 28.890625 
C 30.90625 28.890625 30.90625 29.203125 30.90625 30.90625 
z
" id="CMR17-115"/>
      <path d="M 38.09375 23 
C 38.5 23.40625 38.5 23.609375 38.5 24.625 
C 38.5 34.96875 33.09375 44 21.703125 44 
C 11.09375 44 2.703125 33.890625 2.703125 21.609375 
C 2.703125 8.609375 12.203125 -1 22.796875 -1 
C 34 -1 38.40625 9.484375 38.40625 11.5625 
C 38.40625 12.25 37.796875 12.25 37.59375 12.25 
C 36.90625 12.25 36.796875 12.046875 36.40625 10.875 
C 34.203125 4.140625 28.703125 0.796875 23.5 0.796875 
C 19.203125 0.796875 14.90625 3.171875 12.203125 7.5 
C 9.09375 12.546875 9.09375 18.375 9.09375 23 
z
M 9.203125 24.5 
C 9.90625 39.140625 17.59375 42.40625 21.59375 42.40625 
C 28.40625 42.40625 33 35.890625 33.09375 24.5 
z
" id="CMR17-101"/>
      <path d="M 67.59375 30.203125 
C 67.59375 35.1875 66.703125 43.59375 54.796875 43.59375 
C 48 43.59375 43.296875 39 41.5 33.609375 
L 41.40625 33.609375 
C 40.203125 41.8125 34.296875 43.59375 28.703125 43.59375 
C 20.796875 43.59375 16.703125 37.5 15.203125 33.5 
L 15.09375 33.5 
L 15.09375 43.59375 
L 3.296875 42.5 
L 3.296875 39.90625 
C 9.203125 39.90625 10.09375 39.296875 10.09375 34.5 
L 10.09375 6.6875 
C 10.09375 2.875 9.703125 2.390625 3.296875 2.390625 
L 3.296875 -0.203125 
C 5.703125 0 10.09375 0 12.703125 0 
C 15.296875 0 19.796875 0 22.203125 -0.203125 
L 22.203125 2.390625 
C 15.796875 2.390625 15.40625 2.78125 15.40625 6.6875 
L 15.40625 25.90625 
C 15.40625 35.109375 21 42 28 42 
C 35.40625 42 36.203125 35.40625 36.203125 30.59375 
L 36.203125 6.6875 
C 36.203125 2.875 35.796875 2.390625 29.40625 2.390625 
L 29.40625 -0.203125 
C 31.796875 0 36.203125 0 38.796875 0 
C 41.40625 0 45.90625 0 48.296875 -0.203125 
L 48.296875 2.390625 
C 41.90625 2.390625 41.5 2.78125 41.5 6.6875 
L 41.5 25.90625 
C 41.5 35.109375 47.09375 42 54.09375 42 
C 61.5 42 62.296875 35.40625 62.296875 30.59375 
L 62.296875 6.6875 
C 62.296875 2.875 61.90625 2.390625 55.5 2.390625 
L 55.5 -0.203125 
C 57.90625 0 62.296875 0 64.90625 0 
C 67.5 0 72 0 74.40625 -0.203125 
L 74.40625 2.390625 
C 68 2.390625 67.59375 2.78125 67.59375 6.6875 
z
" id="CMR17-109"/>
      <path d="M 15 23.390625 
C 15 33 19.09375 42 26.59375 42 
C 27.296875 42 28 41.90625 28.703125 41.59375 
C 28.703125 41.59375 26.5 40.890625 26.5 38.3125 
C 26.5 35.90625 28.40625 34.90625 29.90625 34.90625 
C 31.09375 34.90625 33.296875 35.609375 33.296875 38.40625 
C 33.296875 41.609375 30.09375 43.59375 26.703125 43.59375 
C 19.09375 43.59375 15.796875 36.203125 14.796875 32.703125 
L 14.703125 32.703125 
L 14.703125 43.59375 
L 3.09375 42.5 
L 3.09375 39.90625 
C 9 39.90625 9.90625 39.296875 9.90625 34.5 
L 9.90625 6.6875 
C 9.90625 2.875 9.5 2.390625 3.09375 2.390625 
L 3.09375 -0.203125 
C 5.5 0 10.09375 0 12.703125 0 
C 15.59375 0 20.703125 0 23.40625 -0.203125 
L 23.40625 2.390625 
C 16.203125 2.390625 15 2.390625 15 6.875 
z
" id="CMR17-114"/>
      <path d="M 11.09375 18.1875 
C 13 16.6875 16.296875 15 20.296875 15 
C 28.203125 15 35 21.203125 35 29.5 
C 35 32.09375 34.203125 36.09375 31.203125 39.203125 
C 34 42.0625 38.09375 43 40.40625 43 
C 40.796875 43 41.40625 43 41.90625 42.71875 
C 41.5 42.625 40.59375 42.234375 40.59375 40.703125 
C 40.59375 39.484375 41.5 38.609375 42.796875 38.609375 
C 44.296875 38.609375 45.09375 39.578125 45.09375 40.84375 
C 45.09375 42.671875 43.59375 44.59375 40.40625 44.59375 
C 36.40625 44.59375 32.90625 42.78125 30.09375 40.3125 
C 27.09375 43.015625 23.5 44 20.296875 44 
C 12.40625 44 5.59375 37.796875 5.59375 29.5 
C 5.59375 23.78125 8.90625 20.1875 9.90625 19.1875 
C 6.90625 15.6875 6.90625 11.609375 6.90625 11.109375 
C 6.90625 8.515625 7.90625 4.71875 11.296875 2.625 
C 6.09375 1.328125 2 -2.640625 2 -7.59375 
C 2 -14.734375 11.5 -20 22.90625 -20 
C 33.90625 -20 43.796875 -14.9375 43.796875 -7.484375 
C 43.796875 6 29 6 21.296875 6 
C 19 6 14.90625 6 14.40625 6.109375 
C 11.296875 6.609375 9.203125 9.40625 9.203125 12.90625 
C 9.203125 13.796875 9.203125 16 11.09375 18.1875 
z
M 20.296875 16.6875 
C 11.5 16.6875 11.5 27.5 11.5 29.515625 
C 11.5 31.5 11.5 42.3125 20.296875 42.3125 
C 29.09375 42.3125 29.09375 31.5 29.09375 29.515625 
C 29.09375 27.5 29.09375 16.6875 20.296875 16.6875 
z
M 22.90625 -18.296875 
C 12.90625 -18.296875 6 -13.046875 6 -7.59375 
C 6 -4.515625 7.703125 -1.640625 9.90625 -0.0625 
C 12.40625 1.625 13.40625 1.625 20.203125 1.625 
C 28.40625 1.625 39.796875 1.625 39.796875 -7.59375 
C 39.796875 -13.046875 32.90625 -18.296875 22.90625 -18.296875 
z
" id="CMR17-103"/>
      <path d="M 15.5 61.078125 
C 15.5 63.265625 13.703125 65.15625 11.40625 65.15625 
C 9.203125 65.15625 7.296875 63.375 7.296875 61.078125 
C 7.296875 58.890625 9.09375 57 11.40625 57 
C 13.59375 57 15.5 58.796875 15.5 61.078125 
z
M 3.796875 42.28125 
L 3.796875 39.703125 
C 9.40625 39.703125 10.203125 39.09375 10.203125 34.328125 
L 10.203125 6.671875 
C 10.203125 2.875 9.796875 2.390625 3.40625 2.390625 
L 3.40625 -0.203125 
C 5.796875 0 10.09375 0 12.59375 0 
C 15 0 19.09375 0 21.40625 -0.203125 
L 21.40625 2.390625 
C 15.5 2.390625 15.296875 2.984375 15.296875 6.5625 
L 15.296875 43.375 
z
" id="CMR17-105"/>
      <path d="M 41.5 30.203125 
C 41.5 35.296875 40.5 43.59375 28.703125 43.59375 
C 20.796875 43.59375 16.703125 37.5 15.203125 33.5 
L 15.09375 33.5 
L 15.09375 43.59375 
L 3.296875 42.5 
L 3.296875 39.90625 
C 9.203125 39.90625 10.09375 39.296875 10.09375 34.5 
L 10.09375 6.6875 
C 10.09375 2.875 9.703125 2.390625 3.296875 2.390625 
L 3.296875 -0.203125 
C 5.703125 0 10.09375 0 12.703125 0 
C 15.296875 0 19.796875 0 22.203125 -0.203125 
L 22.203125 2.390625 
C 15.796875 2.390625 15.40625 2.78125 15.40625 6.6875 
L 15.40625 25.90625 
C 15.40625 35.109375 21 42 28 42 
C 35.40625 42 36.203125 35.40625 36.203125 30.59375 
L 36.203125 6.6875 
C 36.203125 2.875 35.796875 2.390625 29.40625 2.390625 
L 29.40625 -0.203125 
C 31.796875 0 36.203125 0 38.796875 0 
C 41.40625 0 45.90625 0 48.296875 -0.203125 
L 48.296875 2.390625 
C 41.90625 2.390625 41.5 2.78125 41.5 6.6875 
z
" id="CMR17-110"/>
     </defs>
     <g transform="translate(104.255999 308.37453)rotate(-90)scale(0.36 -0.36)">
      <use transform="scale(0.996264)" xlink:href="#CMR17-112"/>
      <use transform="translate(50.89537 0)scale(0.996264)" xlink:href="#CMR17-104"/>
      <use transform="translate(101.79074 0)scale(0.996264)" xlink:href="#CMR17-97"/>
      <use transform="translate(147.481217 0)scale(0.996264)" xlink:href="#CMR17-115"/>
      <use transform="translate(183.282554 0)scale(0.996264)" xlink:href="#CMR17-101"/>
      <use transform="translate(253.844181 0)scale(0.996264)" xlink:href="#CMR17-109"/>
      <use transform="translate(330.763771 0)scale(0.996264)" xlink:href="#CMR17-97"/>
      <use transform="translate(376.454248 0)scale(0.996264)" xlink:href="#CMR17-114"/>
      <use transform="translate(411.735016 0)scale(0.996264)" xlink:href="#CMR17-103"/>
      <use transform="translate(457.425493 0)scale(0.996264)" xlink:href="#CMR17-105"/>
      <use transform="translate(482.296552 0)scale(0.996264)" xlink:href="#CMR17-110"/>
     </g>
    </g>
   </g>
   <g id="line2d_21">
    <defs>
     <path d="M 0 0.375 
C 0.099451 0.375 0.194842 0.335488 0.265165 0.265165 
C 0.335488 0.194842 0.375 0.099451 0.375 0 
C 0.375 -0.099451 0.335488 -0.194842 0.265165 -0.265165 
C 0.194842 -0.335488 0.099451 -0.375 0 -0.375 
C -0.099451 -0.375 -0.194842 -0.335488 -0.265165 -0.265165 
C -0.335488 -0.194842 -0.375 -0.099451 -0.375 0 
C -0.375 0.099451 -0.335488 0.194842 -0.265165 0.265165 
C -0.194842 0.335488 -0.099451 0.375 0 0.375 
z
" id="m5e62296ee7" style="stroke:#0000ff;"/>
    </defs>
    <g clip-path="url(#pe46ac706ef)">
     <use style="fill:#0000ff;stroke:#0000ff;" x="180" xlink:href="#m5e62296ee7" y="212.99284"/>
     <use style="fill:#0000ff;stroke:#0000ff;" x="185.664975" xlink:href="#m5e62296ee7" y="256.747042"/>
     <use style="fill:#0000ff;stroke:#0000ff;" x="191.329949" xlink:href="#m5e62296ee7" y="278.264413"/>
     <use style="fill:#0000ff;stroke:#0000ff;" x="196.994924" xlink:href="#m5e62296ee7" y="290.008979"/>
     <use style="fill:#0000ff;stroke:#0000ff;" x="202.659898" xlink:href="#m5e62296ee7" y="297.496822"/>
     <use style="fill:#0000ff;stroke:#0000ff;" x="208.324873" xlink:href="#m5e62296ee7" y="302.808563"/>
     <use style="fill:#0000ff;stroke:#0000ff;" x="213.989848" xlink:href="#m5e62296ee7" y="306.73987"/>
     <use style="fill:#0000ff;stroke:#0000ff;" x="219.654822" xlink:href="#m5e62296ee7" y="309.840985"/>
     <use style="fill:#0000ff;stroke:#0000ff;" x="225.319797" xlink:href="#m5e62296ee7" y="312.343283"/>
     <use style="fill:#0000ff;stroke:#0000ff;" x="230.984772" xlink:href="#m5e62296ee7" y="314.418652"/>
     <use style="fill:#0000ff;stroke:#0000ff;" x="236.649746" xlink:href="#m5e62296ee7" y="316.132159"/>
     <use style="fill:#0000ff;stroke:#0000ff;" x="242.314721" xlink:href="#m5e62296ee7" y="317.622343"/>
     <use style="fill:#0000ff;stroke:#0000ff;" x="247.979695" xlink:href="#m5e62296ee7" y="318.879231"/>
     <use style="fill:#0000ff;stroke:#0000ff;" x="253.64467" xlink:href="#m5e62296ee7" y="319.996524"/>
     <use style="fill:#0000ff;stroke:#0000ff;" x="259.309645" xlink:href="#m5e62296ee7" y="320.958079"/>
     <use style="fill:#0000ff;stroke:#0000ff;" x="264.974619" xlink:href="#m5e62296ee7" y="321.798014"/>
     <use style="fill:#0000ff;stroke:#0000ff;" x="270.639594" xlink:href="#m5e62296ee7" y="322.547163"/>
     <use style="fill:#0000ff;stroke:#0000ff;" x="276.304569" xlink:href="#m5e62296ee7" y="323.210249"/>
     <use style="fill:#0000ff;stroke:#0000ff;" x="281.969543" xlink:href="#m5e62296ee7" y="323.791494"/>
     <use style="fill:#0000ff;stroke:#0000ff;" x="287.634518" xlink:href="#m5e62296ee7" y="324.317313"/>
     <use style="fill:#0000ff;stroke:#0000ff;" x="293.299492" xlink:href="#m5e62296ee7" y="324.767646"/>
     <use style="fill:#0000ff;stroke:#0000ff;" x="298.964467" xlink:href="#m5e62296ee7" y="325.167495"/>
     <use style="fill:#0000ff;stroke:#0000ff;" x="304.629442" xlink:href="#m5e62296ee7" y="325.51861"/>
     <use style="fill:#0000ff;stroke:#0000ff;" x="310.294416" xlink:href="#m5e62296ee7" y="325.822531"/>
     <use style="fill:#0000ff;stroke:#0000ff;" x="315.959391" xlink:href="#m5e62296ee7" y="326.101997"/>
     <use style="fill:#0000ff;stroke:#0000ff;" x="321.624365" xlink:href="#m5e62296ee7" y="326.31518"/>
     <use style="fill:#0000ff;stroke:#0000ff;" x="327.28934" xlink:href="#m5e62296ee7" y="326.505719"/>
     <use style="fill:#0000ff;stroke:#0000ff;" x="332.954315" xlink:href="#m5e62296ee7" y="326.653051"/>
     <use style="fill:#0000ff;stroke:#0000ff;" x="338.619289" xlink:href="#m5e62296ee7" y="326.778735"/>
     <use style="fill:#0000ff;stroke:#0000ff;" x="344.284264" xlink:href="#m5e62296ee7" y="326.862218"/>
     <use style="fill:#0000ff;stroke:#0000ff;" x="349.949239" xlink:href="#m5e62296ee7" y="326.924668"/>
     <use style="fill:#0000ff;stroke:#0000ff;" x="355.614213" xlink:href="#m5e62296ee7" y="326.945455"/>
     <use style="fill:#0000ff;stroke:#0000ff;" x="361.279188" xlink:href="#m5e62296ee7" y="326.945455"/>
     <use style="fill:#0000ff;stroke:#0000ff;" x="366.944162" xlink:href="#m5e62296ee7" y="326.903867"/>
     <use style="fill:#0000ff;stroke:#0000ff;" x="372.609137" xlink:href="#m5e62296ee7" y="326.84137"/>
     <use style="fill:#0000ff;stroke:#0000ff;" x="378.274112" xlink:href="#m5e62296ee7" y="326.736902"/>
     <use style="fill:#0000ff;stroke:#0000ff;" x="383.939086" xlink:href="#m5e62296ee7" y="326.590001"/>
     <use style="fill:#0000ff;stroke:#0000ff;" x="389.604061" xlink:href="#m5e62296ee7" y="326.42119"/>
     <use style="fill:#0000ff;stroke:#0000ff;" x="395.269036" xlink:href="#m5e62296ee7" y="326.208782"/>
     <use style="fill:#0000ff;stroke:#0000ff;" x="400.93401" xlink:href="#m5e62296ee7" y="325.97334"/>
     <use style="fill:#0000ff;stroke:#0000ff;" x="406.598985" xlink:href="#m5e62296ee7" y="325.692656"/>
     <use style="fill:#0000ff;stroke:#0000ff;" x="412.263959" xlink:href="#m5e62296ee7" y="325.343558"/>
     <use style="fill:#0000ff;stroke:#0000ff;" x="417.928934" xlink:href="#m5e62296ee7" y="324.968214"/>
     <use style="fill:#0000ff;stroke:#0000ff;" x="423.593909" xlink:href="#m5e62296ee7" y="324.543279"/>
     <use style="fill:#0000ff;stroke:#0000ff;" x="429.258883" xlink:href="#m5e62296ee7" y="324.066898"/>
     <use style="fill:#0000ff;stroke:#0000ff;" x="434.923858" xlink:href="#m5e62296ee7" y="323.513762"/>
     <use style="fill:#0000ff;stroke:#0000ff;" x="440.588832" xlink:href="#m5e62296ee7" y="322.903982"/>
     <use style="fill:#0000ff;stroke:#0000ff;" x="446.253807" xlink:href="#m5e62296ee7" y="322.18665"/>
     <use style="fill:#0000ff;stroke:#0000ff;" x="451.918782" xlink:href="#m5e62296ee7" y="321.405142"/>
     <use style="fill:#0000ff;stroke:#0000ff;" x="457.583756" xlink:href="#m5e62296ee7" y="320.505616"/>
     <use style="fill:#0000ff;stroke:#0000ff;" x="463.248731" xlink:href="#m5e62296ee7" y="319.480722"/>
     <use style="fill:#0000ff;stroke:#0000ff;" x="468.913706" xlink:href="#m5e62296ee7" y="318.295546"/>
     <use style="fill:#0000ff;stroke:#0000ff;" x="474.57868" xlink:href="#m5e62296ee7" y="316.938573"/>
     <use style="fill:#0000ff;stroke:#0000ff;" x="480.243655" xlink:href="#m5e62296ee7" y="315.340072"/>
     <use style="fill:#0000ff;stroke:#0000ff;" x="485.908629" xlink:href="#m5e62296ee7" y="313.45044"/>
     <use style="fill:#0000ff;stroke:#0000ff;" x="491.573604" xlink:href="#m5e62296ee7" y="311.213519"/>
     <use style="fill:#0000ff;stroke:#0000ff;" x="497.238579" xlink:href="#m5e62296ee7" y="308.43748"/>
     <use style="fill:#0000ff;stroke:#0000ff;" x="502.903553" xlink:href="#m5e62296ee7" y="304.967668"/>
     <use style="fill:#0000ff;stroke:#0000ff;" x="508.568528" xlink:href="#m5e62296ee7" y="300.418118"/>
     <use style="fill:#0000ff;stroke:#0000ff;" x="514.233503" xlink:href="#m5e62296ee7" y="294.206537"/>
     <use style="fill:#0000ff;stroke:#0000ff;" x="519.898477" xlink:href="#m5e62296ee7" y="285.044054"/>
     <use style="fill:#0000ff;stroke:#0000ff;" x="525.563452" xlink:href="#m5e62296ee7" y="269.665584"/>
     <use style="fill:#0000ff;stroke:#0000ff;" x="531.228426" xlink:href="#m5e62296ee7" y="238.740521"/>
     <use style="fill:#0000ff;stroke:#0000ff;" x="536.893401" xlink:href="#m5e62296ee7" y="187.372173"/>
     <use style="fill:#0000ff;stroke:#0000ff;" x="542.558376" xlink:href="#m5e62296ee7" y="155.766174"/>
     <use style="fill:#0000ff;stroke:#0000ff;" x="548.22335" xlink:href="#m5e62296ee7" y="140.104372"/>
     <use style="fill:#0000ff;stroke:#0000ff;" x="553.888325" xlink:href="#m5e62296ee7" y="130.780503"/>
     <use style="fill:#0000ff;stroke:#0000ff;" x="559.553299" xlink:href="#m5e62296ee7" y="124.524327"/>
     <use style="fill:#0000ff;stroke:#0000ff;" x="565.218274" xlink:href="#m5e62296ee7" y="119.967752"/>
     <use style="fill:#0000ff;stroke:#0000ff;" x="570.883249" xlink:href="#m5e62296ee7" y="116.459323"/>
     <use style="fill:#0000ff;stroke:#0000ff;" x="576.548223" xlink:href="#m5e62296ee7" y="113.679066"/>
     <use style="fill:#0000ff;stroke:#0000ff;" x="582.213198" xlink:href="#m5e62296ee7" y="111.408825"/>
     <use style="fill:#0000ff;stroke:#0000ff;" x="587.878173" xlink:href="#m5e62296ee7" y="109.517012"/>
     <use style="fill:#0000ff;stroke:#0000ff;" x="593.543147" xlink:href="#m5e62296ee7" y="107.916585"/>
     <use style="fill:#0000ff;stroke:#0000ff;" x="599.208122" xlink:href="#m5e62296ee7" y="106.53118"/>
     <use style="fill:#0000ff;stroke:#0000ff;" x="604.873096" xlink:href="#m5e62296ee7" y="105.345245"/>
     <use style="fill:#0000ff;stroke:#0000ff;" x="610.538071" xlink:href="#m5e62296ee7" y="104.31968"/>
     <use style="fill:#0000ff;stroke:#0000ff;" x="616.203046" xlink:href="#m5e62296ee7" y="103.419554"/>
     <use style="fill:#0000ff;stroke:#0000ff;" x="621.86802" xlink:href="#m5e62296ee7" y="102.61335"/>
     <use style="fill:#0000ff;stroke:#0000ff;" x="627.532995" xlink:href="#m5e62296ee7" y="101.919691"/>
     <use style="fill:#0000ff;stroke:#0000ff;" x="633.19797" xlink:href="#m5e62296ee7" y="101.309488"/>
     <use style="fill:#0000ff;stroke:#0000ff;" x="638.862944" xlink:href="#m5e62296ee7" y="100.755964"/>
     <use style="fill:#0000ff;stroke:#0000ff;" x="644.527919" xlink:href="#m5e62296ee7" y="100.256721"/>
     <use style="fill:#0000ff;stroke:#0000ff;" x="650.192893" xlink:href="#m5e62296ee7" y="99.831786"/>
     <use style="fill:#0000ff;stroke:#0000ff;" x="655.857868" xlink:href="#m5e62296ee7" y="99.456442"/>
     <use style="fill:#0000ff;stroke:#0000ff;" x="661.522843" xlink:href="#m5e62296ee7" y="99.129045"/>
     <use style="fill:#0000ff;stroke:#0000ff;" x="667.187817" xlink:href="#m5e62296ee7" y="98.848157"/>
     <use style="fill:#0000ff;stroke:#0000ff;" x="672.852792" xlink:href="#m5e62296ee7" y="98.591218"/>
     <use style="fill:#0000ff;stroke:#0000ff;" x="678.517766" xlink:href="#m5e62296ee7" y="98.37881"/>
     <use style="fill:#0000ff;stroke:#0000ff;" x="684.182741" xlink:href="#m5e62296ee7" y="98.209999"/>
     <use style="fill:#0000ff;stroke:#0000ff;" x="689.847716" xlink:href="#m5e62296ee7" y="98.084038"/>
     <use style="fill:#0000ff;stroke:#0000ff;" x="695.51269" xlink:href="#m5e62296ee7" y="97.979493"/>
     <use style="fill:#0000ff;stroke:#0000ff;" x="701.177665" xlink:href="#m5e62296ee7" y="97.896133"/>
     <use style="fill:#0000ff;stroke:#0000ff;" x="706.84264" xlink:href="#m5e62296ee7" y="97.854545"/>
     <use style="fill:#0000ff;stroke:#0000ff;" x="712.507614" xlink:href="#m5e62296ee7" y="97.854545"/>
     <use style="fill:#0000ff;stroke:#0000ff;" x="718.172589" xlink:href="#m5e62296ee7" y="97.875332"/>
     <use style="fill:#0000ff;stroke:#0000ff;" x="723.837563" xlink:href="#m5e62296ee7" y="97.937782"/>
     <use style="fill:#0000ff;stroke:#0000ff;" x="729.502538" xlink:href="#m5e62296ee7" y="98.021265"/>
     <use style="fill:#0000ff;stroke:#0000ff;" x="735.167513" xlink:href="#m5e62296ee7" y="98.125963"/>
     <use style="fill:#0000ff;stroke:#0000ff;" x="740.832487" xlink:href="#m5e62296ee7" y="98.294281"/>
     <use style="fill:#0000ff;stroke:#0000ff;" x="746.497462" xlink:href="#m5e62296ee7" y="98.48482"/>
     <use style="fill:#0000ff;stroke:#0000ff;" x="752.162437" xlink:href="#m5e62296ee7" y="98.698003"/>
     <use style="fill:#0000ff;stroke:#0000ff;" x="757.827411" xlink:href="#m5e62296ee7" y="98.955878"/>
     <use style="fill:#0000ff;stroke:#0000ff;" x="763.492386" xlink:href="#m5e62296ee7" y="99.28139"/>
     <use style="fill:#0000ff;stroke:#0000ff;" x="769.15736" xlink:href="#m5e62296ee7" y="99.632505"/>
     <use style="fill:#0000ff;stroke:#0000ff;" x="774.822335" xlink:href="#m5e62296ee7" y="100.032354"/>
     <use style="fill:#0000ff;stroke:#0000ff;" x="780.48731" xlink:href="#m5e62296ee7" y="100.482687"/>
     <use style="fill:#0000ff;stroke:#0000ff;" x="786.152284" xlink:href="#m5e62296ee7" y="100.985467"/>
     <use style="fill:#0000ff;stroke:#0000ff;" x="791.817259" xlink:href="#m5e62296ee7" y="101.566306"/>
     <use style="fill:#0000ff;stroke:#0000ff;" x="797.482234" xlink:href="#m5e62296ee7" y="102.228934"/>
     <use style="fill:#0000ff;stroke:#0000ff;" x="803.147208" xlink:href="#m5e62296ee7" y="102.977573"/>
     <use style="fill:#0000ff;stroke:#0000ff;" x="808.812183" xlink:href="#m5e62296ee7" y="103.816943"/>
     <use style="fill:#0000ff;stroke:#0000ff;" x="814.477157" xlink:href="#m5e62296ee7" y="104.777862"/>
     <use style="fill:#0000ff;stroke:#0000ff;" x="820.142132" xlink:href="#m5e62296ee7" y="105.868112"/>
     <use style="fill:#0000ff;stroke:#0000ff;" x="825.807107" xlink:href="#m5e62296ee7" y="107.150526"/>
     <use style="fill:#0000ff;stroke:#0000ff;" x="831.472081" xlink:href="#m5e62296ee7" y="108.61177"/>
     <use style="fill:#0000ff;stroke:#0000ff;" x="837.137056" xlink:href="#m5e62296ee7" y="110.323255"/>
     <use style="fill:#0000ff;stroke:#0000ff;" x="842.80203" xlink:href="#m5e62296ee7" y="112.396291"/>
     <use style="fill:#0000ff;stroke:#0000ff;" x="848.467005" xlink:href="#m5e62296ee7" y="114.864441"/>
     <use style="fill:#0000ff;stroke:#0000ff;" x="854.13198" xlink:href="#m5e62296ee7" y="117.961067"/>
     <use style="fill:#0000ff;stroke:#0000ff;" x="859.796954" xlink:href="#m5e62296ee7" y="121.887377"/>
     <use style="fill:#0000ff;stroke:#0000ff;" x="865.461929" xlink:href="#m5e62296ee7" y="127.120703"/>
     <use style="fill:#0000ff;stroke:#0000ff;" x="871.126904" xlink:href="#m5e62296ee7" y="134.523822"/>
     <use style="fill:#0000ff;stroke:#0000ff;" x="876.791878" xlink:href="#m5e62296ee7" y="146.110518"/>
     <use style="fill:#0000ff;stroke:#0000ff;" x="882.456853" xlink:href="#m5e62296ee7" y="167.200732"/>
     <use style="fill:#0000ff;stroke:#0000ff;" x="888.121827" xlink:href="#m5e62296ee7" y="210.799162"/>
     <use style="fill:#0000ff;stroke:#0000ff;" x="893.786802" xlink:href="#m5e62296ee7" y="255.840918"/>
     <use style="fill:#0000ff;stroke:#0000ff;" x="899.451777" xlink:href="#m5e62296ee7" y="277.801118"/>
     <use style="fill:#0000ff;stroke:#0000ff;" x="905.116751" xlink:href="#m5e62296ee7" y="289.741496"/>
     <use style="fill:#0000ff;stroke:#0000ff;" x="910.781726" xlink:href="#m5e62296ee7" y="297.314078"/>
     <use style="fill:#0000ff;stroke:#0000ff;" x="916.446701" xlink:href="#m5e62296ee7" y="302.669627"/>
     <use style="fill:#0000ff;stroke:#0000ff;" x="922.111675" xlink:href="#m5e62296ee7" y="306.640672"/>
     <use style="fill:#0000ff;stroke:#0000ff;" x="927.77665" xlink:href="#m5e62296ee7" y="309.777857"/>
     <use style="fill:#0000ff;stroke:#0000ff;" x="933.441624" xlink:href="#m5e62296ee7" y="312.28279"/>
     <use style="fill:#0000ff;stroke:#0000ff;" x="939.106599" xlink:href="#m5e62296ee7" y="314.360491"/>
     <use style="fill:#0000ff;stroke:#0000ff;" x="944.771574" xlink:href="#m5e62296ee7" y="316.104098"/>
     <use style="fill:#0000ff;stroke:#0000ff;" x="950.436548" xlink:href="#m5e62296ee7" y="317.56803"/>
     <use style="fill:#0000ff;stroke:#0000ff;" x="956.101523" xlink:href="#m5e62296ee7" y="318.852877"/>
     <use style="fill:#0000ff;stroke:#0000ff;" x="961.766497" xlink:href="#m5e62296ee7" y="319.970893"/>
     <use style="fill:#0000ff;stroke:#0000ff;" x="967.431472" xlink:href="#m5e62296ee7" y="320.933084"/>
     <use style="fill:#0000ff;stroke:#0000ff;" x="973.096447" xlink:href="#m5e62296ee7" y="321.773583"/>
     <use style="fill:#0000ff;stroke:#0000ff;" x="978.761421" xlink:href="#m5e62296ee7" y="322.523244"/>
     <use style="fill:#0000ff;stroke:#0000ff;" x="984.426396" xlink:href="#m5e62296ee7" y="323.186788"/>
     <use style="fill:#0000ff;stroke:#0000ff;" x="990.091371" xlink:href="#m5e62296ee7" y="323.768439"/>
     <use style="fill:#0000ff;stroke:#0000ff;" x="995.756345" xlink:href="#m5e62296ee7" y="324.294629"/>
     <use style="fill:#0000ff;stroke:#0000ff;" x="1001.42132" xlink:href="#m5e62296ee7" y="324.745281"/>
     <use style="fill:#0000ff;stroke:#0000ff;" x="1007.086294" xlink:href="#m5e62296ee7" y="325.145416"/>
     <use style="fill:#0000ff;stroke:#0000ff;" x="1012.751269" xlink:href="#m5e62296ee7" y="325.51861"/>
     <use style="fill:#0000ff;stroke:#0000ff;" x="1018.416244" xlink:href="#m5e62296ee7" y="325.822531"/>
     <use style="fill:#0000ff;stroke:#0000ff;" x="1024.081218" xlink:href="#m5e62296ee7" y="326.080593"/>
     <use style="fill:#0000ff;stroke:#0000ff;" x="1029.746193" xlink:href="#m5e62296ee7" y="326.31518"/>
     <use style="fill:#0000ff;stroke:#0000ff;" x="1035.411168" xlink:href="#m5e62296ee7" y="326.505719"/>
     <use style="fill:#0000ff;stroke:#0000ff;" x="1041.076142" xlink:href="#m5e62296ee7" y="326.653051"/>
     <use style="fill:#0000ff;stroke:#0000ff;" x="1046.741117" xlink:href="#m5e62296ee7" y="326.778735"/>
     <use style="fill:#0000ff;stroke:#0000ff;" x="1052.406091" xlink:href="#m5e62296ee7" y="326.862218"/>
     <use style="fill:#0000ff;stroke:#0000ff;" x="1058.071066" xlink:href="#m5e62296ee7" y="326.924668"/>
     <use style="fill:#0000ff;stroke:#0000ff;" x="1063.736041" xlink:href="#m5e62296ee7" y="326.945455"/>
     <use style="fill:#0000ff;stroke:#0000ff;" x="1069.401015" xlink:href="#m5e62296ee7" y="326.945455"/>
     <use style="fill:#0000ff;stroke:#0000ff;" x="1075.06599" xlink:href="#m5e62296ee7" y="326.903867"/>
     <use style="fill:#0000ff;stroke:#0000ff;" x="1080.730964" xlink:href="#m5e62296ee7" y="326.84137"/>
     <use style="fill:#0000ff;stroke:#0000ff;" x="1086.395939" xlink:href="#m5e62296ee7" y="326.736902"/>
     <use style="fill:#0000ff;stroke:#0000ff;" x="1092.060914" xlink:href="#m5e62296ee7" y="326.590001"/>
     <use style="fill:#0000ff;stroke:#0000ff;" x="1097.725888" xlink:href="#m5e62296ee7" y="326.42119"/>
     <use style="fill:#0000ff;stroke:#0000ff;" x="1103.390863" xlink:href="#m5e62296ee7" y="326.230093"/>
     <use style="fill:#0000ff;stroke:#0000ff;" x="1109.055838" xlink:href="#m5e62296ee7" y="325.97334"/>
     <use style="fill:#0000ff;stroke:#0000ff;" x="1114.720812" xlink:href="#m5e62296ee7" y="325.692656"/>
     <use style="fill:#0000ff;stroke:#0000ff;" x="1120.385787" xlink:href="#m5e62296ee7" y="325.365494"/>
     <use style="fill:#0000ff;stroke:#0000ff;" x="1126.050761" xlink:href="#m5e62296ee7" y="324.99042"/>
     <use style="fill:#0000ff;stroke:#0000ff;" x="1131.715736" xlink:href="#m5e62296ee7" y="324.565788"/>
     <use style="fill:#0000ff;stroke:#0000ff;" x="1137.380711" xlink:href="#m5e62296ee7" y="324.089743"/>
     <use style="fill:#0000ff;stroke:#0000ff;" x="1143.045685" xlink:href="#m5e62296ee7" y="323.536996"/>
     <use style="fill:#0000ff;stroke:#0000ff;" x="1148.71066" xlink:href="#m5e62296ee7" y="322.903982"/>
     <use style="fill:#0000ff;stroke:#0000ff;" x="1154.375635" xlink:href="#m5e62296ee7" y="322.210799"/>
     <use style="fill:#0000ff;stroke:#0000ff;" x="1160.040609" xlink:href="#m5e62296ee7" y="321.429821"/>
     <use style="fill:#0000ff;stroke:#0000ff;" x="1165.705584" xlink:href="#m5e62296ee7" y="320.530895"/>
     <use style="fill:#0000ff;stroke:#0000ff;" x="1171.370558" xlink:href="#m5e62296ee7" y="319.506672"/>
     <use style="fill:#0000ff;stroke:#0000ff;" x="1177.035533" xlink:href="#m5e62296ee7" y="318.322254"/>
     <use style="fill:#0000ff;stroke:#0000ff;" x="1182.700508" xlink:href="#m5e62296ee7" y="316.966127"/>
     <use style="fill:#0000ff;stroke:#0000ff;" x="1188.365482" xlink:href="#m5e62296ee7" y="315.397088"/>
     <use style="fill:#0000ff;stroke:#0000ff;" x="1194.030457" xlink:href="#m5e62296ee7" y="313.509638"/>
     <use style="fill:#0000ff;stroke:#0000ff;" x="1199.695431" xlink:href="#m5e62296ee7" y="311.275161"/>
     <use style="fill:#0000ff;stroke:#0000ff;" x="1205.360406" xlink:href="#m5e62296ee7" y="308.534144"/>
     <use style="fill:#0000ff;stroke:#0000ff;" x="1211.025381" xlink:href="#m5e62296ee7" y="305.069082"/>
     <use style="fill:#0000ff;stroke:#0000ff;" x="1216.690355" xlink:href="#m5e62296ee7" y="300.595898"/>
     <use style="fill:#0000ff;stroke:#0000ff;" x="1222.35533" xlink:href="#m5e62296ee7" y="294.4307"/>
     <use style="fill:#0000ff;stroke:#0000ff;" x="1228.020305" xlink:href="#m5e62296ee7" y="285.353623"/>
     <use style="fill:#0000ff;stroke:#0000ff;" x="1233.685279" xlink:href="#m5e62296ee7" y="270.262576"/>
     <use style="fill:#0000ff;stroke:#0000ff;" x="1239.350254" xlink:href="#m5e62296ee7" y="240.023013"/>
     <use style="fill:#0000ff;stroke:#0000ff;" x="1245.015228" xlink:href="#m5e62296ee7" y="188.705125"/>
     <use style="fill:#0000ff;stroke:#0000ff;" x="1250.680203" xlink:href="#m5e62296ee7" y="156.358273"/>
     <use style="fill:#0000ff;stroke:#0000ff;" x="1256.345178" xlink:href="#m5e62296ee7" y="140.45295"/>
     <use style="fill:#0000ff;stroke:#0000ff;" x="1262.010152" xlink:href="#m5e62296ee7" y="131.005234"/>
     <use style="fill:#0000ff;stroke:#0000ff;" x="1267.675127" xlink:href="#m5e62296ee7" y="124.666969"/>
     <use style="fill:#0000ff;stroke:#0000ff;" x="1273.340102" xlink:href="#m5e62296ee7" y="120.069468"/>
     <use style="fill:#0000ff;stroke:#0000ff;" x="1279.005076" xlink:href="#m5e62296ee7" y="116.556268"/>
     <use style="fill:#0000ff;stroke:#0000ff;" x="1284.670051" xlink:href="#m5e62296ee7" y="113.740871"/>
     <use style="fill:#0000ff;stroke:#0000ff;" x="1290.335025" xlink:href="#m5e62296ee7" y="111.468156"/>
     <use style="fill:#0000ff;stroke:#0000ff;" x="1296" xlink:href="#m5e62296ee7" y="109.574163"/>
    </g>
   </g>
   <g id="patch_3">
    <path d="M 180 338.4 
L 180 86.4 
" style="fill:none;stroke:#000000;stroke-linecap:square;stroke-linejoin:miter;stroke-width:0.8;"/>
   </g>
   <g id="patch_4">
    <path d="M 1296 338.4 
L 1296 86.4 
" style="fill:none;stroke:#000000;stroke-linecap:square;stroke-linejoin:miter;stroke-width:0.8;"/>
   </g>
   <g id="patch_5">
    <path d="M 180 338.4 
L 1296 338.4 
" style="fill:none;stroke:#000000;stroke-linecap:square;stroke-linejoin:miter;stroke-width:0.8;"/>
   </g>
   <g id="patch_6">
    <path d="M 180 86.4 
L 1296 86.4 
" style="fill:none;stroke:#000000;stroke-linecap:square;stroke-linejoin:miter;stroke-width:0.8;"/>
   </g>
   <g id="text_12">
    <!-- PLL1 $\omega_1=$ 1.00 , K1=0.19 , $f^c_1=$ 0.01  -->
    <defs>
     <path d="M 19.796875 31.90625 
L 35.796875 31.90625 
C 48.703125 31.90625 58.09375 40.28125 58.09375 49.75 
C 58.09375 59.234375 48.90625 68 35.796875 68 
L 5.203125 68 
L 5.203125 65.40625 
C 12.09375 65.40625 13.203125 65.40625 13.203125 60.921875 
L 13.203125 6.96875 
C 13.203125 2.5 12.09375 2.5 5.203125 2.5 
L 5.203125 0 
C 8.09375 0 13.40625 0 16.5 0 
C 19.59375 0 24.90625 0 27.796875 0 
L 27.796875 2.5 
C 20.90625 2.5 19.796875 2.5 19.796875 6.96875 
z
M 19.59375 34 
L 19.59375 61.53125 
C 19.59375 64.921875 19.796875 65.40625 23.796875 65.40625 
L 33.90625 65.40625 
C 46.796875 65.40625 50.5 58.03125 50.5 49.75 
C 50.5 40.6875 46.09375 34 33.90625 34 
z
" id="CMR17-80"/>
     <path d="M 54.203125 25.234375 
L 52.40625 25.234375 
C 51.59375 15.359375 50.296875 2.59375 33.203125 2.59375 
L 23.90625 2.59375 
C 19.90625 2.59375 19.703125 3.078125 19.703125 6.46875 
L 19.703125 60.90625 
C 19.703125 64.515625 19.90625 65.5 27.5 65.5 
L 29.703125 65.5 
L 29.703125 68 
C 25.59375 68 20.796875 68 16.703125 68 
C 13.59375 68 8 68 5.09375 68 
L 5.09375 65.5 
C 12 65.5 13.09375 65.5 13.09375 61.015625 
L 13.09375 7.0625 
C 13.09375 2.59375 12 2.59375 5.09375 2.59375 
L 5.09375 0 
L 51.796875 0 
z
" id="CMR17-76"/>
     <path d="M 59.40625 37.421875 
C 59.40625 40.3125 58.59375 44 55.09375 44 
C 53.09375 44 50.796875 41.515625 50.796875 39.515625 
C 50.796875 38.625 51.203125 38.03125 52 37.125 
C 53.5 35.4375 55.40625 32.75 55.40625 28.078125 
C 55.40625 24.484375 53.203125 18.8125 51.59375 15.734375 
C 48.796875 10.25 44.203125 5.578125 39 5.578125 
C 32.703125 5.578125 30.296875 9.609375 29.203125 15.234375 
C 30.296875 17.859375 32.59375 24.375 32.59375 27 
C 32.59375 28.09375 32.203125 29 30.90625 29 
C 30.203125 29 29.40625 28.609375 28.90625 27.796875 
C 27.5 25.59375 26.203125 17.640625 26.296875 15.53125 
C 24.40625 11.8125 19 5.578125 12.59375 5.578125 
C 5.90625 5.578125 4.09375 11.453125 4.09375 17.125 
C 4.09375 27.46875 10.59375 36.53125 12.40625 39.015625 
C 13.40625 40.515625 14.09375 41.515625 14.09375 41.703125 
C 14.09375 42.40625 13.703125 43.5 12.796875 43.5 
C 11.203125 43.5 10.703125 42.203125 9.90625 41.015625 
C 4.796875 33.140625 1.203125 22.09375 1.203125 12.546875 
C 1.203125 6.375 3.5 -1 11 -1 
C 19.296875 -1 24.5 6.109375 26.59375 9.90625 
C 27.40625 4.296875 30.40625 -1 37.703125 -1 
C 45.296875 -1 50.09375 5.671875 53.703125 13.734375 
C 56.296875 19.515625 59.40625 31.953125 59.40625 37.421875 
z
" id="CMMI12-33"/>
     <path d="M 64.296875 31.515625 
C 65.796875 31.515625 67.296875 31.515625 67.296875 33.203125 
C 67.296875 35 65.59375 35 63.90625 35 
L 8 35 
C 6.296875 35 4.59375 35 4.59375 33.203125 
C 4.59375 31.515625 6.09375 31.515625 7.59375 31.515625 
z
M 63.90625 14 
C 65.59375 14 67.296875 14 67.296875 15.796875 
C 67.296875 17.484375 65.796875 17.484375 64.296875 17.484375 
L 7.59375 17.484375 
C 6.09375 17.484375 4.59375 17.484375 4.59375 15.796875 
C 4.59375 14 6.296875 14 8 14 
z
" id="CMR17-61"/>
     <path d="M 16.59375 4.078125 
C 16.59375 6.5625 14.59375 8.15625 12.5 8.15625 
C 10.5 8.15625 8.40625 6.5625 8.40625 4.078125 
C 8.40625 1.59375 10.40625 0 12.5 0 
C 14.5 0 16.59375 1.59375 16.59375 4.078125 
z
" id="CMR17-46"/>
     <path d="M 15.796875 1.59375 
C 16 0.703125 16 0.390625 16 -1.203125 
C 16 -7.234375 14 -12.765625 9.796875 -17.796875 
C 9.296875 -18.28125 9.296875 -18.484375 9.296875 -18.703125 
C 9.296875 -19.09375 9.703125 -19.5 10.09375 -19.5 
C 10.703125 -19.5 17.59375 -12.484375 17.59375 -1.359375 
C 17.59375 1.9375 17.203125 8.15625 12.5 8.15625 
C 10.296875 8.15625 8.40625 6.671875 8.40625 4.078125 
C 8.40625 1.5 10.296875 0 12.5 0 
C 13.703125 0 15 0.5 15.796875 1.59375 
z
" id="CMR17-44"/>
     <path d="M 36.90625 41.796875 
L 54.203125 59.09375 
C 57.796875 62.59375 61.59375 65.40625 67.203125 65.40625 
L 67.203125 68 
C 65.203125 68 62.703125 68 60.703125 68 
C 58 68 53.296875 68 50.703125 68.09375 
L 50.703125 65.5 
C 53.296875 65.3125 53.703125 63.515625 53.703125 62.796875 
C 53.703125 62.109375 53.296875 61.015625 52.90625 60.421875 
L 19.703125 27.15625 
L 19.703125 60.9375 
C 19.703125 65.40625 20.796875 65.40625 27.703125 65.40625 
L 27.703125 68 
C 24.796875 68 19.5 68 16.40625 68 
C 13.296875 68 8 68 5.09375 68 
L 5.09375 65.40625 
C 12 65.40625 13.09375 65.40625 13.09375 60.921875 
L 13.09375 6.96875 
C 13.09375 2.5 12 2.5 5.09375 2.5 
L 5.09375 0 
C 8 0 13.296875 0 16.40625 0 
C 19.5 0 24.796875 0 27.703125 0 
L 27.703125 2.5 
C 20.796875 2.5 19.703125 2.5 19.703125 6.984375 
L 19.703125 24.671875 
L 32.5 37.34375 
L 51.40625 8.390625 
C 52 7.390625 52.703125 6.09375 52.703125 5.09375 
C 52.703125 2.5 49.90625 2.5 48.59375 2.5 
L 48.59375 0 
C 51.796875 0 56.40625 0 59.703125 0 
C 62.09375 0 66.203125 0 68.5 -0.09375 
L 68.5 2.5 
C 63.703125 2.5 62.203125 3.09375 59.203125 7.703125 
z
" id="CMR17-75"/>
     <path d="M 35.203125 29.125 
C 35.203125 7.25 26.09375 0.484375 18.59375 0.484375 
C 16.296875 0.484375 10.703125 0.484375 8.40625 4.59375 
C 11 4.1875 12.90625 5.578125 12.90625 8.09375 
C 12.90625 10.8125 10.703125 11.703125 9.296875 11.703125 
C 8.40625 11.703125 5.703125 11.296875 5.703125 7.90625 
C 5.703125 1.109375 11.59375 -2 18.796875 -2 
C 30.296875 -2 42 10.53125 42 32.390625 
C 42 59.640625 30.796875 65.296875 23.203125 65.296875 
C 13.296875 65.296875 3.796875 56.6875 3.796875 43.40625 
C 3.796875 31.109375 11.90625 22 22.09375 22 
C 30.5 22 34.203125 29.734375 35.203125 33 
z
M 22.296875 23.59375 
C 19.59375 23.59375 15.796875 24.09375 12.703125 30.03125 
C 10.59375 33.890625 10.59375 38.453125 10.59375 43.296875 
C 10.59375 49.15625 10.59375 53.203125 13.40625 57.5625 
C 14.796875 59.640625 17.40625 63 23.203125 63 
C 35 63 35 45.078125 35 41.125 
C 35 34.09375 31.796875 23.59375 22.296875 23.59375 
z
" id="CMR17-57"/>
     <path d="M 44.59375 40.09375 
C 46.59375 40.09375 47.40625 40.09375 47.40625 42 
C 47.40625 43 46.59375 43 44.796875 43 
L 36.703125 43 
C 38.59375 53.578125 40 60.890625 40.796875 64.171875 
C 41.40625 66.640625 43.5 69 46.09375 69 
C 48.203125 69 50.296875 68.09375 51.296875 67.15625 
C 47.40625 66.75 46.203125 63.78125 46.203125 62.015625 
C 46.203125 59.953125 47.703125 58.734375 49.59375 58.734375 
C 51.59375 58.734375 54.59375 60.46875 54.59375 64.359375 
C 54.59375 68.640625 50.40625 71 46 71 
C 41.703125 71 37.5 67.71875 35.5 63.71875 
C 33.703125 60.125 32.703125 56.421875 30.40625 43 
L 23.703125 43 
C 21.796875 43 20.796875 43 20.796875 41.203125 
C 20.796875 40.09375 21.40625 40.09375 23.40625 40.09375 
L 29.796875 40.09375 
C 28 30.875 23.90625 8.46875 21.59375 -2.140625 
C 19.90625 -10.765625 18.40625 -18 13.40625 -18 
C 13.09375 -18 10.203125 -18 8.40625 -16.109375 
C 13.5 -15.703125 13.5 -11.34375 13.5 -11.25 
C 13.5 -9.265625 12 -8.078125 10.09375 -8.078125 
C 8.09375 -8.078125 5.09375 -9.765625 5.09375 -13.546875 
C 5.09375 -17.8125 9.5 -20 13.40625 -20 
C 23.59375 -20 27.796875 -1.84375 28.90625 3.109375 
C 30.703125 10.75 35.59375 37.125 36.09375 40.09375 
z
" id="CMMI12-102"/>
     <path d="M 39.09375 37.984375 
C 37.203125 37.984375 36.296875 37.984375 34.90625 36.796875 
C 34.296875 36.296875 33.203125 34.796875 33.203125 33.203125 
C 33.203125 31.203125 34.703125 30 36.59375 30 
C 39 30 41.703125 31.9375 41.703125 35.8125 
C 41.703125 40.4375 37.09375 44 30.203125 44 
C 17.09375 44 4 29.734375 4 15.5625 
C 4 6.890625 9.40625 -1 19.59375 -1 
C 33.203125 -1 41.796875 9.71875 41.796875 11.03125 
C 41.796875 11.625 41.203125 12.125 40.796875 12.125 
C 40.5 12.125 40.40625 12.03125 39.5 11.140625 
C 33.09375 2.53125 23.59375 1 19.796875 1 
C 12.90625 1 10.703125 6.96875 10.703125 11.9375 
C 10.703125 15.4375 12.40625 25.078125 16 31.859375 
C 18.59375 36.53125 24 41.90625 30.296875 41.90625 
C 31.59375 41.90625 37.09375 41.90625 39.09375 37.984375 
z
" id="CMMI12-99"/>
    </defs>
    <g transform="translate(639.580993 80.4)scale(0.12 -0.12)">
     <use transform="translate(0 24.740171)scale(0.996264)" xlink:href="#CMR17-80"/>
     <use transform="translate(62.586301 24.740171)scale(0.996264)" xlink:href="#CMR17-76"/>
     <use transform="translate(119.967708 24.740171)scale(0.996264)" xlink:href="#CMR17-76"/>
     <use transform="translate(177.349116 24.740171)scale(0.996264)" xlink:href="#CMR17-49"/>
     <use transform="translate(253.11556 24.740171)scale(0.996264)" xlink:href="#CMMI12-33"/>
     <use transform="translate(313.859313 9.796257)scale(0.697382)" xlink:href="#CMR17-49"/>
     <use transform="translate(374.014636 24.740171)scale(0.996264)" xlink:href="#CMR17-61"/>
     <use transform="translate(475.80539 24.740171)scale(0.996264)" xlink:href="#CMR17-49"/>
     <use transform="translate(521.495868 24.740171)scale(0.996264)" xlink:href="#CMR17-46"/>
     <use transform="translate(546.366926 24.740171)scale(0.996264)" xlink:href="#CMR17-48"/>
     <use transform="translate(592.057403 24.740171)scale(0.996264)" xlink:href="#CMR17-48"/>
     <use transform="translate(667.823847 24.740171)scale(0.996264)" xlink:href="#CMR17-44"/>
     <use transform="translate(722.770871 24.740171)scale(0.996264)" xlink:href="#CMR17-75"/>
     <use transform="translate(794.445649 24.740171)scale(0.996264)" xlink:href="#CMR17-49"/>
     <use transform="translate(840.136126 24.740171)scale(0.996264)" xlink:href="#CMR17-61"/>
     <use transform="translate(911.850914 24.740171)scale(0.996264)" xlink:href="#CMR17-48"/>
     <use transform="translate(957.541391 24.740171)scale(0.996264)" xlink:href="#CMR17-46"/>
     <use transform="translate(982.41245 24.740171)scale(0.996264)" xlink:href="#CMR17-49"/>
     <use transform="translate(1028.102927 24.740171)scale(0.996264)" xlink:href="#CMR17-57"/>
     <use transform="translate(1103.86937 24.740171)scale(0.996264)" xlink:href="#CMR17-44"/>
     <use transform="translate(1158.816395 24.740171)scale(0.996264)" xlink:href="#CMMI12-102"/>
     <use transform="translate(1217.5367 60.89381)scale(0.697382)" xlink:href="#CMMI12-99"/>
     <use transform="translate(1206.899633 0)scale(0.697382)" xlink:href="#CMR17-49"/>
     <use transform="translate(1275.096972 24.740171)scale(0.996264)" xlink:href="#CMR17-61"/>
     <use transform="translate(1376.887727 24.740171)scale(0.996264)" xlink:href="#CMR17-48"/>
     <use transform="translate(1422.578204 24.740171)scale(0.996264)" xlink:href="#CMR17-46"/>
     <use transform="translate(1447.449263 24.740171)scale(0.996264)" xlink:href="#CMR17-48"/>
     <use transform="translate(1493.13974 24.740171)scale(0.996264)" xlink:href="#CMR17-49"/>
    </g>
   </g>
   <g id="legend_1">
    <g id="patch_7">
     <path d="M 1018.714 184.499476 
L 1133.213006 184.499476 
Q 1136.413006 184.499476 1136.413006 181.299476 
L 1136.413006 160.6 
Q 1136.413006 157.4 1133.213006 157.4 
L 1018.714 157.4 
Q 1015.514 157.4 1015.514 160.6 
L 1015.514 181.299476 
Q 1015.514 184.499476 1018.714 184.499476 
z
" style="fill:#ffffff;opacity:0.8;stroke:#cccccc;stroke-linejoin:miter;"/>
    </g>
    <g id="line2d_22"/>
    <g id="line2d_23">
     <g>
      <use style="fill:#0000ff;stroke:#0000ff;" x="1037.914" xlink:href="#m5e62296ee7" y="169.4"/>
     </g>
    </g>
    <g id="text_13">
     <!-- nonlinear -->
     <defs>
      <path d="M 43.09375 21.1875 
C 43.09375 34 33.796875 44 22.90625 44 
C 12 44 2.703125 34 2.703125 21.1875 
C 2.703125 8.609375 12 -1 22.90625 -1 
C 33.796875 -1 43.09375 8.609375 43.09375 21.1875 
z
M 22.90625 0.796875 
C 18.203125 0.796875 14.203125 3.59375 11.90625 7.5 
C 9.40625 11.984375 9.09375 17.59375 9.09375 22 
C 9.09375 26.203125 9.296875 31.40625 11.90625 35.90625 
C 13.90625 39.203125 17.796875 42.40625 22.90625 42.40625 
C 27.40625 42.40625 31.203125 39.90625 33.59375 36.40625 
C 36.703125 31.703125 36.703125 25.109375 36.703125 22 
C 36.703125 18.09375 36.5 12.109375 33.796875 7.296875 
C 31 2.703125 26.703125 0.796875 22.90625 0.796875 
z
" id="CMR17-111"/>
      <path d="M 15.296875 68.6875 
L 3.40625 67.59375 
L 3.40625 65 
C 9.296875 65 10.203125 64.40625 10.203125 59.640625 
L 10.203125 6.65625 
C 10.203125 2.875 9.796875 2.390625 3.40625 2.390625 
L 3.40625 -0.203125 
C 5.796875 0 10.203125 0 12.703125 0 
C 15.296875 0 19.703125 0 22.09375 -0.203125 
L 22.09375 2.390625 
C 15.703125 2.390625 15.296875 2.78125 15.296875 6.65625 
z
" id="CMR17-108"/>
     </defs>
     <g transform="translate(1066.714 175)scale(0.16 -0.16)">
      <use transform="scale(0.996264)" xlink:href="#CMR17-110"/>
      <use transform="translate(50.89537 0)scale(0.996264)" xlink:href="#CMR17-111"/>
      <use transform="translate(96.585847 0)scale(0.996264)" xlink:href="#CMR17-110"/>
      <use transform="translate(147.481217 0)scale(0.996264)" xlink:href="#CMR17-108"/>
      <use transform="translate(172.352275 0)scale(0.996264)" xlink:href="#CMR17-105"/>
      <use transform="translate(197.223334 0)scale(0.996264)" xlink:href="#CMR17-110"/>
      <use transform="translate(248.118703 0)scale(0.996264)" xlink:href="#CMR17-101"/>
      <use transform="translate(288.604364 0)scale(0.996264)" xlink:href="#CMR17-97"/>
      <use transform="translate(334.294841 0)scale(0.996264)" xlink:href="#CMR17-114"/>
     </g>
    </g>
   </g>
  </g>
  <g id="axes_2">
   <g id="patch_8">
    <path d="M 180 640.8 
L 1296 640.8 
L 1296 388.8 
L 180 388.8 
z
" style="fill:#ffffff;"/>
   </g>
   <g id="matplotlib.axis_3">
    <g id="xtick_8">
     <g id="line2d_24">
      <path clip-path="url(#p686dd62b47)" d="M 321.657269 640.8 
L 321.657269 388.8 
" style="fill:none;stroke:#b0b0b0;stroke-linecap:square;stroke-width:0.8;"/>
     </g>
     <g id="line2d_25">
      <g>
       <use style="stroke:#000000;stroke-width:0.8;" x="321.657269" xlink:href="#m56bc4cfefd" y="640.8"/>
      </g>
     </g>
     <g id="text_14">
      <!-- $0.2$ -->
      <g transform="translate(306.847502 662.596254)scale(0.25 -0.25)">
       <use transform="scale(0.996264)" xlink:href="#CMR17-48"/>
       <use transform="translate(45.690477 0)scale(0.996264)" xlink:href="#CMMI12-58"/>
       <use transform="translate(72.787654 0)scale(0.996264)" xlink:href="#CMR17-50"/>
      </g>
     </g>
    </g>
    <g id="xtick_9">
     <g id="line2d_26">
      <path clip-path="url(#p686dd62b47)" d="M 463.314537 640.8 
L 463.314537 388.8 
" style="fill:none;stroke:#b0b0b0;stroke-linecap:square;stroke-width:0.8;"/>
     </g>
     <g id="line2d_27">
      <g>
       <use style="stroke:#000000;stroke-width:0.8;" x="463.314537" xlink:href="#m56bc4cfefd" y="640.8"/>
      </g>
     </g>
     <g id="text_15">
      <!-- $0.4$ -->
      <g transform="translate(448.504771 662.596254)scale(0.25 -0.25)">
       <use transform="scale(0.996264)" xlink:href="#CMR17-48"/>
       <use transform="translate(45.690477 0)scale(0.996264)" xlink:href="#CMMI12-58"/>
       <use transform="translate(72.787654 0)scale(0.996264)" xlink:href="#CMR17-52"/>
      </g>
     </g>
    </g>
    <g id="xtick_10">
     <g id="line2d_28">
      <path clip-path="url(#p686dd62b47)" d="M 604.971806 640.8 
L 604.971806 388.8 
" style="fill:none;stroke:#b0b0b0;stroke-linecap:square;stroke-width:0.8;"/>
     </g>
     <g id="line2d_29">
      <g>
       <use style="stroke:#000000;stroke-width:0.8;" x="604.971806" xlink:href="#m56bc4cfefd" y="640.8"/>
      </g>
     </g>
     <g id="text_16">
      <!-- $0.6$ -->
      <g transform="translate(590.16204 662.596254)scale(0.25 -0.25)">
       <use transform="scale(0.996264)" xlink:href="#CMR17-48"/>
       <use transform="translate(45.690477 0)scale(0.996264)" xlink:href="#CMMI12-58"/>
       <use transform="translate(72.787654 0)scale(0.996264)" xlink:href="#CMR17-54"/>
      </g>
     </g>
    </g>
    <g id="xtick_11">
     <g id="line2d_30">
      <path clip-path="url(#p686dd62b47)" d="M 746.629075 640.8 
L 746.629075 388.8 
" style="fill:none;stroke:#b0b0b0;stroke-linecap:square;stroke-width:0.8;"/>
     </g>
     <g id="line2d_31">
      <g>
       <use style="stroke:#000000;stroke-width:0.8;" x="746.629075" xlink:href="#m56bc4cfefd" y="640.8"/>
      </g>
     </g>
     <g id="text_17">
      <!-- $0.8$ -->
      <g transform="translate(731.819309 662.596254)scale(0.25 -0.25)">
       <use transform="scale(0.996264)" xlink:href="#CMR17-48"/>
       <use transform="translate(45.690477 0)scale(0.996264)" xlink:href="#CMMI12-58"/>
       <use transform="translate(72.787654 0)scale(0.996264)" xlink:href="#CMR17-56"/>
      </g>
     </g>
    </g>
    <g id="xtick_12">
     <g id="line2d_32">
      <path clip-path="url(#p686dd62b47)" d="M 888.286344 640.8 
L 888.286344 388.8 
" style="fill:none;stroke:#b0b0b0;stroke-linecap:square;stroke-width:0.8;"/>
     </g>
     <g id="line2d_33">
      <g>
       <use style="stroke:#000000;stroke-width:0.8;" x="888.286344" xlink:href="#m56bc4cfefd" y="640.8"/>
      </g>
     </g>
     <g id="text_18">
      <!-- $1.0$ -->
      <g transform="translate(873.476577 662.596254)scale(0.25 -0.25)">
       <use transform="scale(0.996264)" xlink:href="#CMR17-49"/>
       <use transform="translate(45.690477 0)scale(0.996264)" xlink:href="#CMMI12-58"/>
       <use transform="translate(72.787654 0)scale(0.996264)" xlink:href="#CMR17-48"/>
      </g>
     </g>
    </g>
    <g id="xtick_13">
     <g id="line2d_34">
      <path clip-path="url(#p686dd62b47)" d="M 1029.943612 640.8 
L 1029.943612 388.8 
" style="fill:none;stroke:#b0b0b0;stroke-linecap:square;stroke-width:0.8;"/>
     </g>
     <g id="line2d_35">
      <g>
       <use style="stroke:#000000;stroke-width:0.8;" x="1029.943612" xlink:href="#m56bc4cfefd" y="640.8"/>
      </g>
     </g>
     <g id="text_19">
      <!-- $1.2$ -->
      <g transform="translate(1015.133846 662.596254)scale(0.25 -0.25)">
       <use transform="scale(0.996264)" xlink:href="#CMR17-49"/>
       <use transform="translate(45.690477 0)scale(0.996264)" xlink:href="#CMMI12-58"/>
       <use transform="translate(72.787654 0)scale(0.996264)" xlink:href="#CMR17-50"/>
      </g>
     </g>
    </g>
    <g id="xtick_14">
     <g id="line2d_36">
      <path clip-path="url(#p686dd62b47)" d="M 1171.600881 640.8 
L 1171.600881 388.8 
" style="fill:none;stroke:#b0b0b0;stroke-linecap:square;stroke-width:0.8;"/>
     </g>
     <g id="line2d_37">
      <g>
       <use style="stroke:#000000;stroke-width:0.8;" x="1171.600881" xlink:href="#m56bc4cfefd" y="640.8"/>
      </g>
     </g>
     <g id="text_20">
      <!-- $1.4$ -->
      <g transform="translate(1156.791115 662.596254)scale(0.25 -0.25)">
       <use transform="scale(0.996264)" xlink:href="#CMR17-49"/>
       <use transform="translate(45.690477 0)scale(0.996264)" xlink:href="#CMMI12-58"/>
       <use transform="translate(72.787654 0)scale(0.996264)" xlink:href="#CMR17-52"/>
      </g>
     </g>
    </g>
    <g id="text_21">
     <!-- $\Omega\tau/2\pi$ -->
     <defs>
      <path d="M 63.09375 14.609375 
L 61.296875 14.609375 
C 60.40625 10.015625 60.09375 8.796875 59.59375 7.203125 
C 59.09375 5.703125 58.796875 4.90625 53 4.90625 
L 44.90625 4.90625 
C 46 10.71875 48.40625 15.015625 52.59375 21.734375 
C 57.796875 30.234375 62.09375 37.140625 62.09375 45.46875 
C 62.09375 58.984375 49.296875 70 33.40625 70 
C 17.09375 70 4.59375 58.875 4.59375 45.46875 
C 4.59375 37.140625 9 30.03125 13.90625 22.125 
C 18.296875 15.015625 20.703125 10.71875 21.796875 4.90625 
L 13.703125 4.90625 
C 8 4.90625 7.703125 5.703125 7.203125 7.09375 
C 6.59375 8.703125 6.40625 10.015625 5.40625 14.609375 
L 3.59375 14.609375 
L 6.5 0 
L 21.59375 0 
C 23.703125 0 23.796875 0.09375 23.796875 1.59375 
C 23.796875 8.71875 20.09375 18.03125 18.40625 22.328125 
C 15.203125 30.140625 12.203125 37.75 12.203125 45.5625 
C 12.203125 60.484375 22.90625 68.390625 33.296875 68.390625 
C 44.203125 68.390625 54.5 60.171875 54.5 45.5625 
C 54.5 37.84375 51.796875 30.953125 48.09375 21.828125 
C 46.5 17.734375 42.90625 8.609375 42.90625 1.59375 
C 42.90625 0 43 0 45.09375 0 
L 60.203125 0 
z
" id="CMR17-10"/>
      <path d="M 28.703125 37.625 
L 45.296875 37.625 
C 46.59375 37.625 49.90625 37.625 49.90625 40.8125 
C 49.90625 43 48 43 46.203125 43 
L 18.703125 43 
C 16.40625 43 13 43 8.40625 38.125 
C 5.796875 35.234375 2.59375 29.953125 2.59375 29.359375 
C 2.59375 28.765625 3.09375 28.5625 3.703125 28.5625 
C 4.40625 28.5625 4.5 28.859375 5 29.453125 
C 10.203125 37.625 15.40625 37.625 17.90625 37.625 
L 26.203125 37.625 
L 15.796875 3.484375 
C 15.296875 1.984375 15.296875 1.78125 15.296875 1.484375 
C 15.296875 0.390625 16 -1 18 -1 
C 21.09375 -1 21.59375 1.6875 21.90625 3.171875 
z
" id="CMMI12-28"/>
      <path d="M 42.90625 71.28125 
C 42.90625 71.390625 43.5 72.90625 43.5 73.09375 
C 43.5 74.296875 42.5 75 41.703125 75 
C 41.203125 75 40.296875 75 39.5 72.796875 
L 6 -21.296875 
C 6 -21.40625 5.40625 -22.890625 5.40625 -23.09375 
C 5.40625 -24.296875 6.40625 -25 7.203125 -25 
C 7.796875 -25 8.703125 -24.890625 9.40625 -22.796875 
z
" id="CMMI12-61"/>
      <path d="M 25.90625 37.625 
L 37.203125 37.625 
C 34.5 26.4375 32.796875 19.15625 32.796875 11.1875 
C 32.796875 9.78125 32.796875 -1 36.90625 -1 
C 39 -1 40.796875 0.890625 40.796875 2.59375 
C 40.796875 3.078125 40.796875 3.28125 40.09375 4.78125 
C 37.40625 11.671875 37.40625 20.25 37.40625 20.953125 
C 37.40625 21.546875 37.40625 28.625 39.5 37.625 
L 50.703125 37.625 
C 52 37.625 55.296875 37.625 55.296875 40.8125 
C 55.296875 43 53.40625 43 51.59375 43 
L 18.703125 43 
C 16.40625 43 13 43 8.40625 38.125 
C 5.796875 35.21875 2.59375 29.9375 2.59375 29.34375 
C 2.59375 28.75 3.09375 28.546875 3.703125 28.546875 
C 4.40625 28.546875 4.5 28.84375 5 29.4375 
C 10.203125 37.625 15.40625 37.625 17.90625 37.625 
L 23.59375 37.625 
C 21.40625 30.140625 18.90625 21.453125 10.703125 4 
C 9.90625 2.40625 9.90625 2.1875 9.90625 1.59375 
C 9.90625 -0.5 11.703125 -1 12.59375 -1 
C 15.5 -1 16.296875 1.59375 17.5 5.78125 
C 19.09375 10.875 19.09375 11.078125 20.09375 15.0625 
z
" id="CMMI12-25"/>
     </defs>
     <g transform="translate(684.03951 702.328708)scale(0.4 -0.4)">
      <use transform="scale(0.996264)" xlink:href="#CMR17-10"/>
      <use transform="translate(66.509881 0)scale(0.996264)" xlink:href="#CMMI12-28"/>
      <use transform="translate(120.001046 0)scale(0.996264)" xlink:href="#CMMI12-61"/>
      <use transform="translate(168.775965 0)scale(0.996264)" xlink:href="#CMR17-50"/>
      <use transform="translate(214.466442 0)scale(0.996264)" xlink:href="#CMMI12-25"/>
     </g>
    </g>
   </g>
   <g id="matplotlib.axis_4">
    <g id="ytick_4">
     <g id="line2d_38">
      <path clip-path="url(#p686dd62b47)" d="M 180 586.953401 
L 1296 586.953401 
" style="fill:none;stroke:#b0b0b0;stroke-linecap:square;stroke-width:0.8;"/>
     </g>
     <g id="line2d_39">
      <g>
       <use style="stroke:#000000;stroke-width:0.8;" x="180" xlink:href="#m74fc5dbbd8" y="586.953401"/>
      </g>
     </g>
     <g id="text_22">
      <!-- $0.9985$ -->
      <g transform="translate(111.612609 595.601528)scale(0.25 -0.25)">
       <use transform="scale(0.996264)" xlink:href="#CMR17-48"/>
       <use transform="translate(45.690477 0)scale(0.996264)" xlink:href="#CMMI12-58"/>
       <use transform="translate(72.787654 0)scale(0.996264)" xlink:href="#CMR17-57"/>
       <use transform="translate(118.478131 0)scale(0.996264)" xlink:href="#CMR17-57"/>
       <use transform="translate(164.168608 0)scale(0.996264)" xlink:href="#CMR17-56"/>
       <use transform="translate(209.859086 0)scale(0.996264)" xlink:href="#CMR17-53"/>
      </g>
     </g>
    </g>
    <g id="ytick_5">
     <g id="line2d_40">
      <path clip-path="url(#p686dd62b47)" d="M 180 524.720449 
L 1296 524.720449 
" style="fill:none;stroke:#b0b0b0;stroke-linecap:square;stroke-width:0.8;"/>
     </g>
     <g id="line2d_41">
      <g>
       <use style="stroke:#000000;stroke-width:0.8;" x="180" xlink:href="#m74fc5dbbd8" y="524.720449"/>
      </g>
     </g>
     <g id="text_23">
      <!-- $0.9990$ -->
      <g transform="translate(111.612609 533.368576)scale(0.25 -0.25)">
       <use transform="scale(0.996264)" xlink:href="#CMR17-48"/>
       <use transform="translate(45.690477 0)scale(0.996264)" xlink:href="#CMMI12-58"/>
       <use transform="translate(72.787654 0)scale(0.996264)" xlink:href="#CMR17-57"/>
       <use transform="translate(118.478131 0)scale(0.996264)" xlink:href="#CMR17-57"/>
       <use transform="translate(164.168608 0)scale(0.996264)" xlink:href="#CMR17-57"/>
       <use transform="translate(209.859086 0)scale(0.996264)" xlink:href="#CMR17-48"/>
      </g>
     </g>
    </g>
    <g id="ytick_6">
     <g id="line2d_42">
      <path clip-path="url(#p686dd62b47)" d="M 180 462.487497 
L 1296 462.487497 
" style="fill:none;stroke:#b0b0b0;stroke-linecap:square;stroke-width:0.8;"/>
     </g>
     <g id="line2d_43">
      <g>
       <use style="stroke:#000000;stroke-width:0.8;" x="180" xlink:href="#m74fc5dbbd8" y="462.487497"/>
      </g>
     </g>
     <g id="text_24">
      <!-- $0.9995$ -->
      <g transform="translate(111.612609 471.135624)scale(0.25 -0.25)">
       <use transform="scale(0.996264)" xlink:href="#CMR17-48"/>
       <use transform="translate(45.690477 0)scale(0.996264)" xlink:href="#CMMI12-58"/>
       <use transform="translate(72.787654 0)scale(0.996264)" xlink:href="#CMR17-57"/>
       <use transform="translate(118.478131 0)scale(0.996264)" xlink:href="#CMR17-57"/>
       <use transform="translate(164.168608 0)scale(0.996264)" xlink:href="#CMR17-57"/>
       <use transform="translate(209.859086 0)scale(0.996264)" xlink:href="#CMR17-53"/>
      </g>
     </g>
    </g>
    <g id="ytick_7">
     <g id="line2d_44">
      <path clip-path="url(#p686dd62b47)" d="M 180 400.254545 
L 1296 400.254545 
" style="fill:none;stroke:#b0b0b0;stroke-linecap:square;stroke-width:0.8;"/>
     </g>
     <g id="line2d_45">
      <g>
       <use style="stroke:#000000;stroke-width:0.8;" x="180" xlink:href="#m74fc5dbbd8" y="400.254545"/>
      </g>
     </g>
     <g id="text_25">
      <!-- $1.0000$ -->
      <g transform="translate(111.612609 408.902672)scale(0.25 -0.25)">
       <use transform="scale(0.996264)" xlink:href="#CMR17-49"/>
       <use transform="translate(45.690477 0)scale(0.996264)" xlink:href="#CMMI12-58"/>
       <use transform="translate(72.787654 0)scale(0.996264)" xlink:href="#CMR17-48"/>
       <use transform="translate(118.478131 0)scale(0.996264)" xlink:href="#CMR17-48"/>
       <use transform="translate(164.168608 0)scale(0.996264)" xlink:href="#CMR17-48"/>
       <use transform="translate(209.859086 0)scale(0.996264)" xlink:href="#CMR17-48"/>
      </g>
     </g>
    </g>
    <g id="text_26">
     <!-- gain margin -->
     <g transform="translate(74.636466 600.582784)rotate(-90)scale(0.36 -0.36)">
      <use transform="scale(0.996264)" xlink:href="#CMR17-103"/>
      <use transform="translate(45.690477 0)scale(0.996264)" xlink:href="#CMR17-97"/>
      <use transform="translate(91.380954 0)scale(0.996264)" xlink:href="#CMR17-105"/>
      <use transform="translate(116.252013 0)scale(0.996264)" xlink:href="#CMR17-110"/>
      <use transform="translate(197.223349 0)scale(0.996264)" xlink:href="#CMR17-109"/>
      <use transform="translate(274.142939 0)scale(0.996264)" xlink:href="#CMR17-97"/>
      <use transform="translate(319.833416 0)scale(0.996264)" xlink:href="#CMR17-114"/>
      <use transform="translate(355.114184 0)scale(0.996264)" xlink:href="#CMR17-103"/>
      <use transform="translate(400.804661 0)scale(0.996264)" xlink:href="#CMR17-105"/>
      <use transform="translate(425.675719 0)scale(0.996264)" xlink:href="#CMR17-110"/>
     </g>
    </g>
   </g>
   <g id="line2d_46">
    <g clip-path="url(#p686dd62b47)">
     <use style="fill:#0000ff;stroke:#0000ff;" x="180" xlink:href="#m5e62296ee7" y="400.254545"/>
     <use style="fill:#0000ff;stroke:#0000ff;" x="185.664975" xlink:href="#m5e62296ee7" y="411.763352"/>
     <use style="fill:#0000ff;stroke:#0000ff;" x="191.329949" xlink:href="#m5e62296ee7" y="423.243101"/>
     <use style="fill:#0000ff;stroke:#0000ff;" x="196.994924" xlink:href="#m5e62296ee7" y="434.664805"/>
     <use style="fill:#0000ff;stroke:#0000ff;" x="202.659898" xlink:href="#m5e62296ee7" y="445.999626"/>
     <use style="fill:#0000ff;stroke:#0000ff;" x="208.324873" xlink:href="#m5e62296ee7" y="457.218945"/>
     <use style="fill:#0000ff;stroke:#0000ff;" x="213.989848" xlink:href="#m5e62296ee7" y="468.294433"/>
     <use style="fill:#0000ff;stroke:#0000ff;" x="219.654822" xlink:href="#m5e62296ee7" y="479.198127"/>
     <use style="fill:#0000ff;stroke:#0000ff;" x="225.319797" xlink:href="#m5e62296ee7" y="489.902495"/>
     <use style="fill:#0000ff;stroke:#0000ff;" x="230.984772" xlink:href="#m5e62296ee7" y="500.38051"/>
     <use style="fill:#0000ff;stroke:#0000ff;" x="236.649746" xlink:href="#m5e62296ee7" y="510.605715"/>
     <use style="fill:#0000ff;stroke:#0000ff;" x="242.314721" xlink:href="#m5e62296ee7" y="520.552293"/>
     <use style="fill:#0000ff;stroke:#0000ff;" x="247.979695" xlink:href="#m5e62296ee7" y="530.19513"/>
     <use style="fill:#0000ff;stroke:#0000ff;" x="253.64467" xlink:href="#m5e62296ee7" y="539.509878"/>
     <use style="fill:#0000ff;stroke:#0000ff;" x="259.309645" xlink:href="#m5e62296ee7" y="548.473018"/>
     <use style="fill:#0000ff;stroke:#0000ff;" x="264.974619" xlink:href="#m5e62296ee7" y="557.061919"/>
     <use style="fill:#0000ff;stroke:#0000ff;" x="270.639594" xlink:href="#m5e62296ee7" y="565.254896"/>
     <use style="fill:#0000ff;stroke:#0000ff;" x="276.304569" xlink:href="#m5e62296ee7" y="573.03126"/>
     <use style="fill:#0000ff;stroke:#0000ff;" x="281.969543" xlink:href="#m5e62296ee7" y="580.371379"/>
     <use style="fill:#0000ff;stroke:#0000ff;" x="287.634518" xlink:href="#m5e62296ee7" y="587.256718"/>
     <use style="fill:#0000ff;stroke:#0000ff;" x="293.299492" xlink:href="#m5e62296ee7" y="593.669892"/>
     <use style="fill:#0000ff;stroke:#0000ff;" x="298.964467" xlink:href="#m5e62296ee7" y="599.59471"/>
     <use style="fill:#0000ff;stroke:#0000ff;" x="304.629442" xlink:href="#m5e62296ee7" y="605.01621"/>
     <use style="fill:#0000ff;stroke:#0000ff;" x="310.294416" xlink:href="#m5e62296ee7" y="609.920706"/>
     <use style="fill:#0000ff;stroke:#0000ff;" x="315.959391" xlink:href="#m5e62296ee7" y="614.295812"/>
     <use style="fill:#0000ff;stroke:#0000ff;" x="321.624365" xlink:href="#m5e62296ee7" y="618.130483"/>
     <use style="fill:#0000ff;stroke:#0000ff;" x="327.28934" xlink:href="#m5e62296ee7" y="621.415035"/>
     <use style="fill:#0000ff;stroke:#0000ff;" x="332.954315" xlink:href="#m5e62296ee7" y="624.141177"/>
     <use style="fill:#0000ff;stroke:#0000ff;" x="338.619289" xlink:href="#m5e62296ee7" y="626.302024"/>
     <use style="fill:#0000ff;stroke:#0000ff;" x="344.284264" xlink:href="#m5e62296ee7" y="627.89212"/>
     <use style="fill:#0000ff;stroke:#0000ff;" x="349.949239" xlink:href="#m5e62296ee7" y="628.907452"/>
     <use style="fill:#0000ff;stroke:#0000ff;" x="355.614213" xlink:href="#m5e62296ee7" y="629.345455"/>
     <use style="fill:#0000ff;stroke:#0000ff;" x="361.279188" xlink:href="#m5e62296ee7" y="629.205022"/>
     <use style="fill:#0000ff;stroke:#0000ff;" x="366.944162" xlink:href="#m5e62296ee7" y="628.48651"/>
     <use style="fill:#0000ff;stroke:#0000ff;" x="372.609137" xlink:href="#m5e62296ee7" y="627.191732"/>
     <use style="fill:#0000ff;stroke:#0000ff;" x="378.274112" xlink:href="#m5e62296ee7" y="625.323957"/>
     <use style="fill:#0000ff;stroke:#0000ff;" x="383.939086" xlink:href="#m5e62296ee7" y="622.887901"/>
     <use style="fill:#0000ff;stroke:#0000ff;" x="389.604061" xlink:href="#m5e62296ee7" y="619.889715"/>
     <use style="fill:#0000ff;stroke:#0000ff;" x="395.269036" xlink:href="#m5e62296ee7" y="616.336969"/>
     <use style="fill:#0000ff;stroke:#0000ff;" x="400.93401" xlink:href="#m5e62296ee7" y="612.238633"/>
     <use style="fill:#0000ff;stroke:#0000ff;" x="406.598985" xlink:href="#m5e62296ee7" y="607.605056"/>
     <use style="fill:#0000ff;stroke:#0000ff;" x="412.263959" xlink:href="#m5e62296ee7" y="602.447937"/>
     <use style="fill:#0000ff;stroke:#0000ff;" x="417.928934" xlink:href="#m5e62296ee7" y="596.780298"/>
     <use style="fill:#0000ff;stroke:#0000ff;" x="423.593909" xlink:href="#m5e62296ee7" y="590.616447"/>
     <use style="fill:#0000ff;stroke:#0000ff;" x="429.258883" xlink:href="#m5e62296ee7" y="583.971949"/>
     <use style="fill:#0000ff;stroke:#0000ff;" x="434.923858" xlink:href="#m5e62296ee7" y="576.863581"/>
     <use style="fill:#0000ff;stroke:#0000ff;" x="440.588832" xlink:href="#m5e62296ee7" y="569.30929"/>
     <use style="fill:#0000ff;stroke:#0000ff;" x="446.253807" xlink:href="#m5e62296ee7" y="561.328151"/>
     <use style="fill:#0000ff;stroke:#0000ff;" x="451.918782" xlink:href="#m5e62296ee7" y="552.940314"/>
     <use style="fill:#0000ff;stroke:#0000ff;" x="457.583756" xlink:href="#m5e62296ee7" y="544.166959"/>
     <use style="fill:#0000ff;stroke:#0000ff;" x="463.248731" xlink:href="#m5e62296ee7" y="535.030238"/>
     <use style="fill:#0000ff;stroke:#0000ff;" x="468.913706" xlink:href="#m5e62296ee7" y="525.553219"/>
     <use style="fill:#0000ff;stroke:#0000ff;" x="474.57868" xlink:href="#m5e62296ee7" y="515.759833"/>
     <use style="fill:#0000ff;stroke:#0000ff;" x="480.243655" xlink:href="#m5e62296ee7" y="505.674805"/>
     <use style="fill:#0000ff;stroke:#0000ff;" x="485.908629" xlink:href="#m5e62296ee7" y="495.323601"/>
     <use style="fill:#0000ff;stroke:#0000ff;" x="491.573604" xlink:href="#m5e62296ee7" y="484.732355"/>
     <use style="fill:#0000ff;stroke:#0000ff;" x="497.238579" xlink:href="#m5e62296ee7" y="473.92781"/>
     <use style="fill:#0000ff;stroke:#0000ff;" x="502.903553" xlink:href="#m5e62296ee7" y="462.937246"/>
     <use style="fill:#0000ff;stroke:#0000ff;" x="508.568528" xlink:href="#m5e62296ee7" y="451.788414"/>
     <use style="fill:#0000ff;stroke:#0000ff;" x="514.233503" xlink:href="#m5e62296ee7" y="440.509464"/>
     <use style="fill:#0000ff;stroke:#0000ff;" x="519.898477" xlink:href="#m5e62296ee7" y="429.128873"/>
     <use style="fill:#0000ff;stroke:#0000ff;" x="525.563452" xlink:href="#m5e62296ee7" y="417.675377"/>
     <use style="fill:#0000ff;stroke:#0000ff;" x="531.228426" xlink:href="#m5e62296ee7" y="406.177895"/>
     <use style="fill:#0000ff;stroke:#0000ff;" x="893.786802" xlink:href="#m5e62296ee7" y="411.429395"/>
     <use style="fill:#0000ff;stroke:#0000ff;" x="899.451777" xlink:href="#m5e62296ee7" y="422.910396"/>
     <use style="fill:#0000ff;stroke:#0000ff;" x="905.116751" xlink:href="#m5e62296ee7" y="434.334193"/>
     <use style="fill:#0000ff;stroke:#0000ff;" x="910.781726" xlink:href="#m5e62296ee7" y="445.671942"/>
     <use style="fill:#0000ff;stroke:#0000ff;" x="916.446701" xlink:href="#m5e62296ee7" y="456.895016"/>
     <use style="fill:#0000ff;stroke:#0000ff;" x="922.111675" xlink:href="#m5e62296ee7" y="467.975078"/>
     <use style="fill:#0000ff;stroke:#0000ff;" x="927.77665" xlink:href="#m5e62296ee7" y="478.884152"/>
     <use style="fill:#0000ff;stroke:#0000ff;" x="933.441624" xlink:href="#m5e62296ee7" y="489.594692"/>
     <use style="fill:#0000ff;stroke:#0000ff;" x="939.106599" xlink:href="#m5e62296ee7" y="500.079656"/>
     <use style="fill:#0000ff;stroke:#0000ff;" x="944.771574" xlink:href="#m5e62296ee7" y="510.31257"/>
     <use style="fill:#0000ff;stroke:#0000ff;" x="950.436548" xlink:href="#m5e62296ee7" y="520.267598"/>
     <use style="fill:#0000ff;stroke:#0000ff;" x="956.101523" xlink:href="#m5e62296ee7" y="529.919602"/>
     <use style="fill:#0000ff;stroke:#0000ff;" x="961.766497" xlink:href="#m5e62296ee7" y="539.244214"/>
     <use style="fill:#0000ff;stroke:#0000ff;" x="967.431472" xlink:href="#m5e62296ee7" y="548.217889"/>
     <use style="fill:#0000ff;stroke:#0000ff;" x="973.096447" xlink:href="#m5e62296ee7" y="556.817969"/>
     <use style="fill:#0000ff;stroke:#0000ff;" x="978.761421" xlink:href="#m5e62296ee7" y="565.02274"/>
     <use style="fill:#0000ff;stroke:#0000ff;" x="984.426396" xlink:href="#m5e62296ee7" y="572.811485"/>
     <use style="fill:#0000ff;stroke:#0000ff;" x="990.091371" xlink:href="#m5e62296ee7" y="580.164539"/>
     <use style="fill:#0000ff;stroke:#0000ff;" x="995.756345" xlink:href="#m5e62296ee7" y="587.063336"/>
     <use style="fill:#0000ff;stroke:#0000ff;" x="1001.42132" xlink:href="#m5e62296ee7" y="593.490457"/>
     <use style="fill:#0000ff;stroke:#0000ff;" x="1007.086294" xlink:href="#m5e62296ee7" y="599.429674"/>
     <use style="fill:#0000ff;stroke:#0000ff;" x="1012.751269" xlink:href="#m5e62296ee7" y="604.865991"/>
     <use style="fill:#0000ff;stroke:#0000ff;" x="1018.416244" xlink:href="#m5e62296ee7" y="609.785681"/>
     <use style="fill:#0000ff;stroke:#0000ff;" x="1024.081218" xlink:href="#m5e62296ee7" y="614.176324"/>
     <use style="fill:#0000ff;stroke:#0000ff;" x="1029.746193" xlink:href="#m5e62296ee7" y="618.026832"/>
     <use style="fill:#0000ff;stroke:#0000ff;" x="1035.411168" xlink:href="#m5e62296ee7" y="621.327485"/>
     <use style="fill:#0000ff;stroke:#0000ff;" x="1041.076142" xlink:href="#m5e62296ee7" y="624.069947"/>
     <use style="fill:#0000ff;stroke:#0000ff;" x="1046.741117" xlink:href="#m5e62296ee7" y="626.247295"/>
     <use style="fill:#0000ff;stroke:#0000ff;" x="1052.406091" xlink:href="#m5e62296ee7" y="627.85403"/>
     <use style="fill:#0000ff;stroke:#0000ff;" x="1058.071066" xlink:href="#m5e62296ee7" y="628.886096"/>
     <use style="fill:#0000ff;stroke:#0000ff;" x="1063.736041" xlink:href="#m5e62296ee7" y="629.340888"/>
     <use style="fill:#0000ff;stroke:#0000ff;" x="1069.401015" xlink:href="#m5e62296ee7" y="629.217256"/>
     <use style="fill:#0000ff;stroke:#0000ff;" x="1075.06599" xlink:href="#m5e62296ee7" y="628.515513"/>
     <use style="fill:#0000ff;stroke:#0000ff;" x="1080.730964" xlink:href="#m5e62296ee7" y="627.237431"/>
     <use style="fill:#0000ff;stroke:#0000ff;" x="1086.395939" xlink:href="#m5e62296ee7" y="625.386237"/>
     <use style="fill:#0000ff;stroke:#0000ff;" x="1092.060914" xlink:href="#m5e62296ee7" y="622.966604"/>
     <use style="fill:#0000ff;stroke:#0000ff;" x="1097.725888" xlink:href="#m5e62296ee7" y="619.984643"/>
     <use style="fill:#0000ff;stroke:#0000ff;" x="1103.390863" xlink:href="#m5e62296ee7" y="616.447883"/>
     <use style="fill:#0000ff;stroke:#0000ff;" x="1109.055838" xlink:href="#m5e62296ee7" y="612.365253"/>
     <use style="fill:#0000ff;stroke:#0000ff;" x="1114.720812" xlink:href="#m5e62296ee7" y="607.747061"/>
     <use style="fill:#0000ff;stroke:#0000ff;" x="1120.385787" xlink:href="#m5e62296ee7" y="602.604969"/>
     <use style="fill:#0000ff;stroke:#0000ff;" x="1126.050761" xlink:href="#m5e62296ee7" y="596.95196"/>
     <use style="fill:#0000ff;stroke:#0000ff;" x="1131.715736" xlink:href="#m5e62296ee7" y="590.802306"/>
     <use style="fill:#0000ff;stroke:#0000ff;" x="1137.380711" xlink:href="#m5e62296ee7" y="584.171536"/>
     <use style="fill:#0000ff;stroke:#0000ff;" x="1143.045685" xlink:href="#m5e62296ee7" y="577.076392"/>
     <use style="fill:#0000ff;stroke:#0000ff;" x="1148.71066" xlink:href="#m5e62296ee7" y="569.534787"/>
     <use style="fill:#0000ff;stroke:#0000ff;" x="1154.375635" xlink:href="#m5e62296ee7" y="561.565765"/>
     <use style="fill:#0000ff;stroke:#0000ff;" x="1160.040609" xlink:href="#m5e62296ee7" y="553.189445"/>
     <use style="fill:#0000ff;stroke:#0000ff;" x="1165.705584" xlink:href="#m5e62296ee7" y="544.426978"/>
     <use style="fill:#0000ff;stroke:#0000ff;" x="1171.370558" xlink:href="#m5e62296ee7" y="535.300488"/>
     <use style="fill:#0000ff;stroke:#0000ff;" x="1177.035533" xlink:href="#m5e62296ee7" y="525.833019"/>
     <use style="fill:#0000ff;stroke:#0000ff;" x="1182.700508" xlink:href="#m5e62296ee7" y="516.048475"/>
     <use style="fill:#0000ff;stroke:#0000ff;" x="1188.365482" xlink:href="#m5e62296ee7" y="505.971562"/>
     <use style="fill:#0000ff;stroke:#0000ff;" x="1194.030457" xlink:href="#m5e62296ee7" y="495.627722"/>
     <use style="fill:#0000ff;stroke:#0000ff;" x="1199.695431" xlink:href="#m5e62296ee7" y="485.043073"/>
     <use style="fill:#0000ff;stroke:#0000ff;" x="1205.360406" xlink:href="#m5e62296ee7" y="474.24434"/>
     <use style="fill:#0000ff;stroke:#0000ff;" x="1211.025381" xlink:href="#m5e62296ee7" y="463.25879"/>
     <use style="fill:#0000ff;stroke:#0000ff;" x="1216.690355" xlink:href="#m5e62296ee7" y="452.114159"/>
     <use style="fill:#0000ff;stroke:#0000ff;" x="1222.35533" xlink:href="#m5e62296ee7" y="440.838587"/>
     <use style="fill:#0000ff;stroke:#0000ff;" x="1228.020305" xlink:href="#m5e62296ee7" y="429.460544"/>
     <use style="fill:#0000ff;stroke:#0000ff;" x="1233.685279" xlink:href="#m5e62296ee7" y="418.008758"/>
     <use style="fill:#0000ff;stroke:#0000ff;" x="1239.350254" xlink:href="#m5e62296ee7" y="406.512145"/>
    </g>
   </g>
   <g id="patch_9">
    <path d="M 180 640.8 
L 180 388.8 
" style="fill:none;stroke:#000000;stroke-linecap:square;stroke-linejoin:miter;stroke-width:0.8;"/>
   </g>
   <g id="patch_10">
    <path d="M 1296 640.8 
L 1296 388.8 
" style="fill:none;stroke:#000000;stroke-linecap:square;stroke-linejoin:miter;stroke-width:0.8;"/>
   </g>
   <g id="patch_11">
    <path d="M 180 640.8 
L 1296 640.8 
" style="fill:none;stroke:#000000;stroke-linecap:square;stroke-linejoin:miter;stroke-width:0.8;"/>
   </g>
   <g id="patch_12">
    <path d="M 180 388.8 
L 1296 388.8 
" style="fill:none;stroke:#000000;stroke-linecap:square;stroke-linejoin:miter;stroke-width:0.8;"/>
   </g>
  </g>
 </g>
 <defs>
  <clipPath id="pe46ac706ef">
   <rect height="252" width="1116" x="180" y="86.4"/>
  </clipPath>
  <clipPath id="p686dd62b47">
   <rect height="252" width="1116" x="180" y="388.8"/>
  </clipPath>
 </defs>
</svg>
