<?xml version="1.0" encoding="utf-8" standalone="no"?>
<!DOCTYPE svg PUBLIC "-//W3C//DTD SVG 1.1//EN"
  "http://www.w3.org/Graphics/SVG/1.1/DTD/svg11.dtd">
<!-- Created with matplotlib (https://matplotlib.org/) -->
<svg height="720pt" version="1.1" viewBox="0 0 1440 720" width="1440pt" xmlns="http://www.w3.org/2000/svg" xmlns:xlink="http://www.w3.org/1999/xlink">
 <defs>
  <style type="text/css">
*{stroke-linecap:butt;stroke-linejoin:round;}
  </style>
 </defs>
 <g id="figure_1">
  <g id="patch_1">
   <path d="M 0 720 
L 1440 720 
L 1440 0 
L 0 0 
z
" style="fill:#ffffff;"/>
  </g>
  <g id="axes_1">
   <g id="patch_2">
    <path d="M 180 338.4 
L 1296 338.4 
L 1296 86.4 
L 180 86.4 
z
" style="fill:#ffffff;"/>
   </g>
   <g id="matplotlib.axis_1">
    <g id="xtick_1">
     <g id="line2d_1">
      <path clip-path="url(#p68b9ac79e1)" d="M 180 338.4 
L 180 86.4 
" style="fill:none;stroke:#b0b0b0;stroke-linecap:square;stroke-width:0.8;"/>
     </g>
     <g id="line2d_2">
      <defs>
       <path d="M 0 0 
L 0 3.5 
" id="m1cdf844241" style="stroke:#000000;stroke-width:0.8;"/>
      </defs>
      <g>
       <use style="stroke:#000000;stroke-width:0.8;" x="180" xlink:href="#m1cdf844241" y="338.4"/>
      </g>
     </g>
     <g id="text_1">
      <!-- $0.0$ -->
      <defs>
       <path d="M 42 31.84375 
C 42 37.96875 41.90625 48.421875 37.703125 56.453125 
C 34 63.484375 28.09375 66 22.90625 66 
C 18.09375 66 12 63.78125 8.203125 56.5625 
C 4.203125 49.015625 3.796875 39.671875 3.796875 31.84375 
C 3.796875 26.109375 3.90625 17.375 7 9.734375 
C 11.296875 -0.609375 19 -2 22.90625 -2 
C 27.5 -2 34.5 -0.109375 38.59375 9.4375 
C 41.59375 16.375 42 24.5 42 31.84375 
z
M 22.90625 -0.40625 
C 16.5 -0.40625 12.703125 5.125 11.296875 12.75 
C 10.203125 18.6875 10.203125 27.328125 10.203125 32.953125 
C 10.203125 40.6875 10.203125 47.109375 11.5 53.234375 
C 13.40625 61.78125 19 64.390625 22.90625 64.390625 
C 27 64.390625 32.296875 61.671875 34.203125 53.4375 
C 35.5 47.71875 35.59375 40.984375 35.59375 32.953125 
C 35.59375 26.421875 35.59375 18.375 34.40625 12.453125 
C 32.296875 1.5 26.40625 -0.40625 22.90625 -0.40625 
z
" id="CMR17-48"/>
       <path d="M 18.40625 4.796875 
C 18.40625 7.6875 16 9.6875 13.59375 9.6875 
C 10.703125 9.6875 8.703125 7.296875 8.703125 4.890625 
C 8.703125 2 11.09375 0 13.5 0 
C 16.40625 0 18.40625 2.390625 18.40625 4.796875 
z
" id="CMMI12-58"/>
      </defs>
      <g transform="translate(159.266327 367.114752)scale(0.35 -0.35)">
       <use transform="scale(0.996264)" xlink:href="#CMR17-48"/>
       <use transform="translate(45.690477 0)scale(0.996264)" xlink:href="#CMMI12-58"/>
       <use transform="translate(72.787654 0)scale(0.996264)" xlink:href="#CMR17-48"/>
      </g>
     </g>
    </g>
    <g id="xtick_2">
     <g id="line2d_3">
      <path clip-path="url(#p68b9ac79e1)" d="M 403.201018 338.4 
L 403.201018 86.4 
" style="fill:none;stroke:#b0b0b0;stroke-linecap:square;stroke-width:0.8;"/>
     </g>
     <g id="line2d_4">
      <g>
       <use style="stroke:#000000;stroke-width:0.8;" x="403.201018" xlink:href="#m1cdf844241" y="338.4"/>
      </g>
     </g>
     <g id="text_2">
      <!-- $0.1$ -->
      <defs>
       <path d="M 26.59375 63.796875 
C 26.59375 65.890625 26.5 66 25.09375 66 
C 21.203125 61.359375 15.296875 59.890625 9.703125 59.6875 
C 9.40625 59.6875 8.90625 59.6875 8.796875 59.5 
C 8.703125 59.296875 8.703125 59.09375 8.703125 57 
C 11.796875 57 17 57.59375 21 59.984375 
L 21 7.296875 
C 21 3.796875 20.796875 2.59375 12.203125 2.59375 
L 9.203125 2.59375 
L 9.203125 0 
C 14 0.09375 19 0.1875 23.796875 0.1875 
C 28.59375 0.1875 33.59375 0.09375 38.40625 0 
L 38.40625 2.59375 
L 35.40625 2.59375 
C 26.796875 2.59375 26.59375 3.6875 26.59375 7.296875 
z
" id="CMR17-49"/>
      </defs>
      <g transform="translate(382.467345 367.114752)scale(0.35 -0.35)">
       <use transform="scale(0.996264)" xlink:href="#CMR17-48"/>
       <use transform="translate(45.690477 0)scale(0.996264)" xlink:href="#CMMI12-58"/>
       <use transform="translate(72.787654 0)scale(0.996264)" xlink:href="#CMR17-49"/>
      </g>
     </g>
    </g>
    <g id="xtick_3">
     <g id="line2d_5">
      <path clip-path="url(#p68b9ac79e1)" d="M 626.402037 338.4 
L 626.402037 86.4 
" style="fill:none;stroke:#b0b0b0;stroke-linecap:square;stroke-width:0.8;"/>
     </g>
     <g id="line2d_6">
      <g>
       <use style="stroke:#000000;stroke-width:0.8;" x="626.402037" xlink:href="#m1cdf844241" y="338.4"/>
      </g>
     </g>
     <g id="text_3">
      <!-- $0.2$ -->
      <defs>
       <path d="M 41.703125 15.46875 
L 39.90625 15.46875 
C 38.90625 8.390625 38.09375 7.1875 37.703125 6.59375 
C 37.203125 5.796875 30 5.796875 28.59375 5.796875 
L 9.40625 5.796875 
C 13 9.6875 20 16.765625 28.5 24.9375 
C 34.59375 30.71875 41.703125 37.5 41.703125 47.390625 
C 41.703125 59.1875 32.296875 66 21.796875 66 
C 10.796875 66 4.09375 56.296875 4.09375 47.296875 
C 4.09375 43.390625 7 42.890625 8.203125 42.890625 
C 9.203125 42.890625 12.203125 43.484375 12.203125 46.984375 
C 12.203125 50.09375 9.59375 51 8.203125 51 
C 7.59375 51 7 50.890625 6.59375 50.6875 
C 8.5 59.1875 14.296875 63.390625 20.40625 63.390625 
C 29.09375 63.390625 34.796875 56.5 34.796875 47.390625 
C 34.796875 38.703125 29.703125 31.21875 24 24.734375 
L 4.09375 2.296875 
L 4.09375 0 
L 39.296875 0 
z
" id="CMR17-50"/>
      </defs>
      <g transform="translate(605.668364 367.114752)scale(0.35 -0.35)">
       <use transform="scale(0.996264)" xlink:href="#CMR17-48"/>
       <use transform="translate(45.690477 0)scale(0.996264)" xlink:href="#CMMI12-58"/>
       <use transform="translate(72.787654 0)scale(0.996264)" xlink:href="#CMR17-50"/>
      </g>
     </g>
    </g>
    <g id="xtick_4">
     <g id="line2d_7">
      <path clip-path="url(#p68b9ac79e1)" d="M 849.603055 338.4 
L 849.603055 86.4 
" style="fill:none;stroke:#b0b0b0;stroke-linecap:square;stroke-width:0.8;"/>
     </g>
     <g id="line2d_8">
      <g>
       <use style="stroke:#000000;stroke-width:0.8;" x="849.603055" xlink:href="#m1cdf844241" y="338.4"/>
      </g>
     </g>
     <g id="text_4">
      <!-- $0.3$ -->
      <defs>
       <path d="M 22.09375 34 
C 31 34 34.90625 26.140625 34.90625 17.09375 
C 34.90625 5.03125 28.5 0.390625 22.703125 0.390625 
C 17.40625 0.390625 8.796875 3.015625 6.09375 10.796875 
C 6.59375 10.59375 7.09375 10.59375 7.59375 10.59375 
C 10 10.59375 11.796875 12.1875 11.796875 14.796875 
C 11.796875 17.6875 9.59375 19 7.59375 19 
C 5.90625 19 3.296875 18.1875 3.296875 14.484375 
C 3.296875 5.234375 12.296875 -2 22.90625 -2 
C 34 -2 42.5 6.75 42.5 16.984375 
C 42.5 26.84375 34.5 34 25 35.09375 
C 32.59375 36.671875 39.90625 43.375 39.90625 52.390625 
C 39.90625 60.25 32 66 23 66 
C 13.90625 66 5.90625 60.34375 5.90625 52.296875 
C 5.90625 48.796875 8.5 48.1875 9.796875 48.1875 
C 11.90625 48.1875 13.703125 49.484375 13.703125 52.09375 
C 13.703125 54.6875 11.90625 56 9.796875 56 
C 9.40625 56 8.90625 56 8.5 55.796875 
C 11.40625 62.484375 19.296875 63.6875 22.796875 63.6875 
C 26.296875 63.6875 32.90625 61.96875 32.90625 52.296875 
C 32.90625 49.484375 32.5 44.546875 29.09375 40.21875 
C 26.09375 36.390625 22.703125 36.1875 19.40625 35.890625 
C 18.90625 35.890625 16.59375 35.6875 16.203125 35.6875 
C 15.5 35.59375 15.09375 35.5 15.09375 34.796875 
C 15.09375 34.09375 15.203125 34 17.203125 34 
z
" id="CMR17-51"/>
      </defs>
      <g transform="translate(828.869382 367.114752)scale(0.35 -0.35)">
       <use transform="scale(0.996264)" xlink:href="#CMR17-48"/>
       <use transform="translate(45.690477 0)scale(0.996264)" xlink:href="#CMMI12-58"/>
       <use transform="translate(72.787654 0)scale(0.996264)" xlink:href="#CMR17-51"/>
      </g>
     </g>
    </g>
    <g id="xtick_5">
     <g id="line2d_9">
      <path clip-path="url(#p68b9ac79e1)" d="M 1072.804074 338.4 
L 1072.804074 86.4 
" style="fill:none;stroke:#b0b0b0;stroke-linecap:square;stroke-width:0.8;"/>
     </g>
     <g id="line2d_10">
      <g>
       <use style="stroke:#000000;stroke-width:0.8;" x="1072.804074" xlink:href="#m1cdf844241" y="338.4"/>
      </g>
     </g>
     <g id="text_5">
      <!-- $0.4$ -->
      <defs>
       <path d="M 33.59375 64.796875 
C 33.59375 66.890625 33.5 67 31.703125 67 
L 2 19.59375 
L 2 17 
L 27.796875 17 
L 27.796875 7.1875 
C 27.796875 3.59375 27.59375 2.59375 20.59375 2.59375 
L 18.703125 2.59375 
L 18.703125 0 
C 21.90625 0.1875 27.296875 0.1875 30.703125 0.1875 
C 34.09375 0.1875 39.5 0.1875 42.703125 0 
L 42.703125 2.59375 
L 40.796875 2.59375 
C 33.796875 2.59375 33.59375 3.59375 33.59375 7.1875 
L 33.59375 17 
L 43.796875 17 
L 43.796875 19.59375 
L 33.59375 19.59375 
z
M 28.09375 58.171875 
L 28.09375 19.59375 
L 4 19.59375 
z
" id="CMR17-52"/>
      </defs>
      <g transform="translate(1052.070401 367.114752)scale(0.35 -0.35)">
       <use transform="scale(0.996264)" xlink:href="#CMR17-48"/>
       <use transform="translate(45.690477 0)scale(0.996264)" xlink:href="#CMMI12-58"/>
       <use transform="translate(72.787654 0)scale(0.996264)" xlink:href="#CMR17-52"/>
      </g>
     </g>
    </g>
   </g>
   <g id="matplotlib.axis_2">
    <g id="ytick_1">
     <g id="line2d_11">
      <path clip-path="url(#p68b9ac79e1)" d="M 180 326.945455 
L 1296 326.945455 
" style="fill:none;stroke:#b0b0b0;stroke-linecap:square;stroke-width:0.8;"/>
     </g>
     <g id="line2d_12">
      <defs>
       <path d="M 0 0 
L -3.5 0 
" id="ma885bc06f9" style="stroke:#000000;stroke-width:0.8;"/>
      </defs>
      <g>
       <use style="stroke:#000000;stroke-width:0.8;" x="180" xlink:href="#ma885bc06f9" y="326.945455"/>
      </g>
     </g>
     <g id="text_6">
      <!-- $0$ -->
      <g transform="translate(159.508333 339.052831)scale(0.35 -0.35)">
       <use transform="scale(0.996264)" xlink:href="#CMR17-48"/>
      </g>
     </g>
    </g>
    <g id="ytick_2">
     <g id="line2d_13">
      <path clip-path="url(#p68b9ac79e1)" d="M 180 231.462595 
L 1296 231.462595 
" style="fill:none;stroke:#b0b0b0;stroke-linecap:square;stroke-width:0.8;"/>
     </g>
     <g id="line2d_14">
      <g>
       <use style="stroke:#000000;stroke-width:0.8;" x="180" xlink:href="#ma885bc06f9" y="231.462595"/>
      </g>
     </g>
     <g id="text_7">
      <!-- $25$ -->
      <defs>
       <path d="M 11.40625 58.59375 
C 12.40625 58.1875 16.5 56.890625 20.703125 56.890625 
C 30 56.890625 35.09375 61.890625 38 64.6875 
C 38 65.484375 38 66 37.40625 66 
C 37.296875 66 37.09375 66 36.296875 65.59375 
C 32.796875 64.09375 28.703125 63 23.703125 63 
C 20.703125 63 16.203125 63.359375 11.296875 65.484375 
C 10.203125 66 10 66 9.90625 66 
C 9.40625 66 9.296875 65.890625 9.296875 63.90625 
L 9.296875 34.859375 
C 9.296875 33.015625 9.296875 32.5 10.296875 32.5 
C 10.796875 32.5 11 32.703125 11.5 33.421875 
C 14.703125 38.046875 19.09375 40 24.09375 40 
C 27.59375 40 35.09375 37.734375 35.09375 20.203125 
C 35.09375 16.984375 35.09375 11.1875 32.09375 6.59375 
C 29.59375 2.484375 25.703125 0.390625 21.40625 0.390625 
C 14.796875 0.390625 8.09375 4.984375 6.296875 12.6875 
C 6.703125 12.59375 7.5 12.390625 7.90625 12.390625 
C 9.203125 12.390625 11.703125 13.09375 11.703125 16.1875 
C 11.703125 18.890625 9.796875 20 7.90625 20 
C 5.59375 20 4.09375 18.59375 4.09375 15.796875 
C 4.09375 7.09375 11 -2 21.59375 -2 
C 31.90625 -2 41.703125 6.890625 41.703125 19.796875 
C 41.703125 32.09375 33.90625 41.59375 24.203125 41.59375 
C 19.09375 41.59375 14.796875 39.6875 11.40625 36 
z
" id="CMR17-53"/>
      </defs>
      <g transform="translate(143.516666 243.569971)scale(0.35 -0.35)">
       <use transform="scale(0.996264)" xlink:href="#CMR17-50"/>
       <use transform="translate(45.690477 0)scale(0.996264)" xlink:href="#CMR17-53"/>
      </g>
     </g>
    </g>
    <g id="ytick_3">
     <g id="line2d_15">
      <path clip-path="url(#p68b9ac79e1)" d="M 180 135.979736 
L 1296 135.979736 
" style="fill:none;stroke:#b0b0b0;stroke-linecap:square;stroke-width:0.8;"/>
     </g>
     <g id="line2d_16">
      <g>
       <use style="stroke:#000000;stroke-width:0.8;" x="180" xlink:href="#ma885bc06f9" y="135.979736"/>
      </g>
     </g>
     <g id="text_8">
      <!-- $50$ -->
      <g transform="translate(143.516666 148.087112)scale(0.35 -0.35)">
       <use transform="scale(0.996264)" xlink:href="#CMR17-53"/>
       <use transform="translate(45.690477 0)scale(0.996264)" xlink:href="#CMR17-48"/>
      </g>
     </g>
    </g>
    <g id="text_9">
     <!-- $20\log\left|H_k^\textrm{\LARGE OL}(j\gamma)\right|_\textrm{max}$ -->
     <defs>
      <path d="M 15.296875 69 
L 3.40625 67.890625 
L 3.40625 65.296875 
C 9.296875 65.296875 10.203125 64.703125 10.203125 59.921875 
L 10.203125 6.859375 
C 10.203125 3.09375 9.796875 2.59375 3.40625 2.59375 
L 3.40625 0 
C 5.796875 0.1875 10.203125 0.1875 12.703125 0.1875 
C 15.296875 0.1875 19.703125 0.1875 22.09375 0 
L 22.09375 2.59375 
C 15.703125 2.59375 15.296875 2.984375 15.296875 6.859375 
z
" id="CMR17-108"/>
      <path d="M 43.09375 21.1875 
C 43.09375 34 33.796875 44 22.90625 44 
C 12 44 2.703125 34 2.703125 21.1875 
C 2.703125 8.59375 12 -1 22.90625 -1 
C 33.796875 -1 43.09375 8.59375 43.09375 21.1875 
z
M 22.90625 0.796875 
C 18.203125 0.796875 14.203125 3.59375 11.90625 7.5 
C 9.40625 12 9.09375 17.59375 9.09375 22 
C 9.09375 26.1875 9.296875 31.390625 11.90625 35.890625 
C 13.90625 39.1875 17.796875 42.390625 22.90625 42.390625 
C 27.40625 42.390625 31.203125 39.890625 33.59375 36.390625 
C 36.703125 31.6875 36.703125 25.09375 36.703125 22 
C 36.703125 18.09375 36.5 12.09375 33.796875 7.296875 
C 31 2.6875 26.703125 0.796875 22.90625 0.796875 
z
" id="CMR17-111"/>
      <path d="M 11.09375 18.203125 
C 13 16.6875 16.296875 15 20.296875 15 
C 28.203125 15 35 21.234375 35 29.609375 
C 35 32.234375 34.203125 36.265625 31.203125 39.390625 
C 34 42.390625 38.09375 43.390625 40.40625 43.390625 
C 40.796875 43.390625 41.40625 43.390625 41.90625 43.09375 
C 41.5 42.984375 40.59375 42.59375 40.59375 40.984375 
C 40.59375 39.6875 41.5 38.796875 42.796875 38.796875 
C 44.296875 38.796875 45.09375 39.796875 45.09375 41.09375 
C 45.09375 42.984375 43.59375 45 40.40625 45 
C 36.40625 45 32.90625 43.09375 30.09375 40.484375 
C 27.09375 43.1875 23.5 44.1875 20.296875 44.1875 
C 12.40625 44.1875 5.59375 37.984375 5.59375 29.609375 
C 5.59375 23.859375 8.90625 20.21875 9.90625 19.21875 
C 6.90625 15.6875 6.90625 11.59375 6.90625 11.09375 
C 6.90625 8.5 7.90625 4.6875 11.296875 2.59375 
C 6.09375 1.28125 2 -2.875 2 -8.078125 
C 2 -15.5625 11.5 -21 22.90625 -21 
C 33.90625 -21 43.796875 -15.765625 43.796875 -7.96875 
C 43.796875 6 29 6 21.296875 6 
C 19 6 14.90625 6 14.40625 6.09375 
C 11.296875 6.59375 9.203125 9.390625 9.203125 12.890625 
C 9.203125 13.796875 9.203125 16 11.09375 18.203125 
z
M 20.296875 16.6875 
C 11.5 16.6875 11.5 27.59375 11.5 29.609375 
C 11.5 31.625 11.5 42.484375 20.296875 42.484375 
C 29.09375 42.484375 29.09375 31.625 29.09375 29.609375 
C 29.09375 27.59375 29.09375 16.6875 20.296875 16.6875 
z
M 22.90625 -19.3125 
C 12.90625 -19.3125 6 -13.796875 6 -8.078125 
C 6 -4.859375 7.703125 -1.84375 9.90625 -0.171875 
C 12.40625 1.59375 13.40625 1.59375 20.203125 1.59375 
C 28.40625 1.59375 39.796875 1.59375 39.796875 -8.078125 
C 39.796875 -13.796875 32.90625 -19.3125 22.90625 -19.3125 
z
" id="CMR17-103"/>
      <path d="M 14.5 -58.40625 
C 14.5 -60 14.5 -62.109375 16.59375 -62.109375 
C 18.796875 -62.109375 18.796875 -60.109375 18.796875 -58.40625 
L 18.796875 -1.609375 
C 18.796875 0 18.796875 2.09375 16.703125 2.09375 
C 14.5 2.09375 14.5 0.09375 14.5 -1.609375 
z
" id="CMEX10-12"/>
      <path d="M 74.796875 60.71875 
C 75.703125 64.09375 75.90625 65.09375 83 65.09375 
C 84.796875 65.09375 85.796875 65.09375 85.796875 66.890625 
C 85.796875 68 84.90625 68 84.296875 68 
C 82.5 68 80.40625 67.796875 78.5 67.796875 
L 66.703125 67.796875 
C 64.796875 67.796875 62.703125 68 60.796875 68 
C 60.09375 68 58.90625 68 58.90625 66.09375 
C 58.90625 65.09375 59.59375 65.09375 61.5 65.09375 
C 67.5 65.09375 67.5 64.296875 67.5 63.203125 
C 67.5 63 67.5 62.40625 67.09375 60.921875 
L 61 36.890625 
L 30.796875 36.890625 
L 36.796875 60.71875 
C 37.703125 64.09375 37.90625 65.09375 45 65.09375 
C 46.796875 65.09375 47.796875 65.09375 47.796875 66.890625 
C 47.796875 68 46.90625 68 46.296875 68 
C 44.5 68 42.40625 67.796875 40.5 67.796875 
L 28.703125 67.796875 
C 26.796875 67.796875 24.703125 68 22.796875 68 
C 22.09375 68 20.90625 68 20.90625 66.09375 
C 20.90625 65.09375 21.59375 65.09375 23.5 65.09375 
C 29.5 65.09375 29.5 64.296875 29.5 63.203125 
C 29.5 63 29.5 62.40625 29.09375 60.921875 
L 15.59375 7.375 
C 14.703125 3.890625 14.5 2.890625 7.59375 2.890625 
C 5.296875 2.890625 4.59375 2.890625 4.59375 1 
C 4.59375 0 5.703125 0 6 0 
C 7.796875 0 9.90625 0.1875 11.796875 0.1875 
L 23.59375 0.1875 
C 25.5 0.1875 27.59375 0 29.5 0 
C 30.296875 0 31.40625 0 31.40625 1.890625 
C 31.40625 2.890625 30.5 2.890625 29 2.890625 
C 22.90625 2.890625 22.90625 3.6875 22.90625 4.6875 
C 22.90625 4.78125 22.90625 5.484375 23.09375 6.28125 
L 30 34 
L 60.296875 34 
C 58.59375 27.421875 53.5 6.578125 53.296875 5.984375 
C 52.203125 2.984375 50.59375 2.984375 44.703125 2.890625 
C 43.5 2.890625 42.59375 2.890625 42.59375 1 
C 42.59375 0 43.703125 0 44 0 
C 45.796875 0 47.90625 0.1875 49.796875 0.1875 
L 61.59375 0.1875 
C 63.5 0.1875 65.59375 0 67.5 0 
C 68.296875 0 69.40625 0 69.40625 1.890625 
C 69.40625 2.890625 68.5 2.890625 67 2.890625 
C 60.90625 2.890625 60.90625 3.6875 60.90625 4.6875 
C 60.90625 4.78125 60.90625 5.484375 61.09375 6.28125 
z
" id="CMMI12-72"/>
      <path d="M 67.296875 33.84375 
C 67.296875 54.5 52.59375 70 36 70 
C 19 70 4.59375 54.296875 4.59375 33.84375 
C 4.59375 13.390625 19.203125 -2 35.90625 -2 
C 53 -2 67.296875 13.6875 67.296875 33.84375 
z
M 36 -0.203125 
C 24.59375 -0.203125 12.203125 11.28125 12.203125 35.15625 
C 12.203125 58.921875 25.796875 68.1875 35.90625 68.1875 
C 46.5 68.1875 59.703125 58.625 59.703125 35.15625 
C 59.703125 10.875 47 -0.203125 36 -0.203125 
z
" id="CMR17-79"/>
      <path d="M 54.203125 25.1875 
L 52.40625 25.1875 
C 51.59375 15.328125 50.296875 2.59375 33.203125 2.59375 
L 23.90625 2.59375 
C 19.90625 2.59375 19.703125 3.09375 19.703125 6.46875 
L 19.703125 60.8125 
C 19.703125 64.390625 19.90625 65.390625 27.5 65.390625 
L 29.703125 65.390625 
L 29.703125 68 
C 25.59375 67.796875 20.796875 67.796875 16.703125 67.796875 
C 13.59375 67.796875 8 67.796875 5.09375 68 
L 5.09375 65.390625 
C 12 65.390625 13.09375 65.390625 13.09375 60.90625 
L 13.09375 7.078125 
C 13.09375 2.59375 12 2.59375 5.09375 2.59375 
L 5.09375 0 
L 51.796875 0 
z
" id="CMR17-76"/>
      <path d="M 28.09375 66.484375 
C 28.203125 66.890625 28.40625 67.484375 28.40625 67.984375 
C 28.40625 69 27.40625 69 27.203125 69 
C 27.09375 69 23.5 68.6875 21.703125 68.484375 
C 20 68.390625 18.5 68.1875 16.703125 68.09375 
C 14.296875 67.890625 13.59375 67.796875 13.59375 65.984375 
C 13.59375 64.984375 14.59375 64.984375 15.59375 64.984375 
C 20.703125 64.984375 20.703125 64.109375 20.703125 63.125 
C 20.703125 62.71875 20.703125 62.53125 20.203125 60.75 
L 5.90625 3.90625 
C 5.5 2.390625 5.5 2.203125 5.5 1.59375 
C 5.5 -0.609375 7.203125 -1 8.203125 -1 
C 11 -1 11.59375 1.1875 12.40625 4.296875 
L 17.09375 23.0625 
C 24.296875 22.265625 28.59375 19.25 28.59375 14.4375 
C 28.59375 13.828125 28.59375 13.4375 28.296875 11.921875 
C 27.90625 10.421875 27.90625 9.21875 27.90625 8.71875 
C 27.90625 2.890625 31.703125 -1 36.796875 -1 
C 41.40625 -1 43.796875 3.203125 44.59375 4.609375 
C 46.703125 8.3125 48 13.9375 48 14.328125 
C 48 14.828125 47.59375 15.234375 47 15.234375 
C 46.09375 15.234375 46 14.828125 45.59375 13.234375 
C 44.203125 8.015625 42.09375 1 37 1 
C 35 1 33.703125 2 33.703125 5.8125 
C 33.703125 7.71875 34.09375 9.921875 34.5 11.421875 
C 34.90625 13.234375 34.90625 13.328125 34.90625 14.53125 
C 34.90625 20.453125 29.59375 23.765625 20.40625 24.96875 
C 24 27.171875 27.59375 31.078125 29 32.59375 
C 34.703125 38.984375 38.59375 41.984375 43.203125 41.984375 
C 45.5 41.984375 46.09375 41.484375 46.796875 41 
C 43.09375 40.59375 41.703125 37.984375 41.703125 35.984375 
C 41.703125 33.59375 43.59375 32.796875 45 32.796875 
C 47.703125 32.796875 50.09375 35.09375 50.09375 38.296875 
C 50.09375 41.15625 47.796875 44 43.296875 44 
C 37.796875 44 33.296875 40.296875 26.203125 32.296875 
C 25.203125 31.078125 21.5 27.28125 17.796875 25.875 
z
" id="CMMI12-107"/>
      <path d="M 30.59375 -24.40625 
C 30.59375 -24.3125 30.59375 -24.109375 30.296875 -23.8125 
C 25.703125 -19.109375 13.40625 -6.296875 13.40625 24.9375 
C 13.40625 56.171875 25.5 68.875 30.40625 73.890625 
C 30.40625 73.984375 30.59375 74.1875 30.59375 74.484375 
C 30.59375 74.796875 30.296875 75 29.90625 75 
C 28.796875 75 20.296875 67.578125 15.40625 56.5625 
C 10.40625 45.453125 9 34.65625 9 25.046875 
C 9 17.828125 9.703125 5.625 15.703125 -7.296875 
C 20.5 -17.703125 28.703125 -25 29.90625 -25 
C 30.40625 -25 30.59375 -24.8125 30.59375 -24.40625 
z
" id="CMR17-40"/>
      <path d="M 35 31.671875 
C 35.40625 33.265625 35.40625 34.65625 35.40625 35.046875 
C 35.40625 40.796875 31.09375 44 26.59375 44 
C 16.5 44 11.09375 29.5 11.09375 28.796875 
C 11.09375 28.296875 11.5 27.90625 12.09375 27.90625 
C 12.90625 27.90625 13 28.296875 13.5 29.296875 
C 17.5 38.921875 22.5 41.984375 26.296875 41.984375 
C 28.40625 41.984375 29.5 40.890625 29.5 37.421875 
C 29.5 35.046875 29.203125 34.0625 28.796875 32.265625 
L 19.296875 -5.109375 
C 17.40625 -12.453125 12.703125 -18 7.203125 -18 
C 6.796875 -18 4.703125 -18 2.796875 -17.015625 
C 5.203125 -16.515625 7.09375 -14.640625 7.09375 -12.25 
C 7.09375 -10.671875 5.90625 -9.078125 3.703125 -9.078125 
C 1.09375 -9.078125 -1.296875 -11.265625 -1.296875 -14.234375 
C -1.296875 -18.3125 3.09375 -20 7.203125 -20 
C 14.09375 -20 23.203125 -14.9375 25.703125 -5.015625 
z
M 39.09375 62.6875 
C 39.09375 65.1875 37 66 35.796875 66 
C 33.09375 66 30.796875 63.390625 30.796875 61.1875 
C 30.796875 59.6875 32 57.890625 34.203125 57.890625 
C 36.5 57.890625 39.09375 60.09375 39.09375 62.6875 
z
" id="CMMI12-106"/>
      <path d="M 37.796875 12.265625 
C 37.59375 17.140625 37.40625 24.78125 33.59375 33.71875 
C 31.59375 38.6875 28.203125 44 20.90625 44 
C 8.59375 44 1.90625 28.359375 1.90625 25.765625 
C 1.90625 24.875 2.59375 24.875 2.90625 24.875 
C 3.796875 24.875 3.796875 25.078125 4.296875 26.375 
C 6.40625 32.515625 12.796875 37.390625 19.703125 37.390625 
C 33.59375 37.390625 35.59375 22 35.59375 12.171875 
C 35.59375 5.90625 34.90625 3.828125 34.296875 1.84375 
C 32.40625 -4.3125 29.09375 -16.625 29.09375 -19.40625 
C 29.09375 -20.203125 29.40625 -21.109375 30.203125 -21.109375 
C 31.703125 -21.109375 32.59375 -17.8125 33.703125 -13.84375 
C 36.09375 -5.109375 36.703125 -0.734375 37.203125 3.234375 
C 37.5 5.625 43.203125 22.015625 51.09375 37.609375 
C 51.796875 39.203125 53.203125 41.890625 53.203125 42.1875 
C 53.203125 42.296875 53.09375 43 52.203125 43 
C 52 43 51.5 43 51.296875 42.59375 
C 51.09375 42.390625 47.59375 35.625 44.59375 28.875 
C 43.09375 25.46875 41.09375 21 37.796875 12.265625 
z
" id="CMMI12-13"/>
      <path d="M 26.296875 24.9375 
C 26.296875 32.140625 25.59375 44.359375 19.59375 57.265625 
C 14.796875 67.6875 6.59375 75 5.40625 75 
C 5.09375 75 4.703125 74.890625 4.703125 74.390625 
C 4.703125 74.1875 4.796875 74.09375 4.90625 73.890625 
C 9.703125 68.875 21.90625 56.171875 21.90625 25.046875 
C 21.90625 -6.1875 9.796875 -18.90625 4.90625 -23.90625 
C 4.796875 -24.109375 4.703125 -24.203125 4.703125 -24.40625 
C 4.703125 -24.90625 5.09375 -25 5.40625 -25 
C 6.5 -25 15 -17.609375 19.90625 -6.59375 
C 24.90625 4.515625 26.296875 15.328125 26.296875 24.9375 
z
" id="CMR17-41"/>
      <path d="M 67.59375 30.53125 
C 67.59375 35.5625 66.703125 44 54.796875 44 
C 48 44 43.296875 39.375 41.5 33.953125 
L 41.40625 33.953125 
C 40.203125 42.1875 34.296875 44 28.703125 44 
C 20.796875 44 16.703125 37.875 15.203125 33.84375 
L 15.09375 33.84375 
L 15.09375 44 
L 3.296875 42.890625 
L 3.296875 40.28125 
C 9.203125 40.28125 10.09375 39.6875 10.09375 34.859375 
L 10.09375 6.921875 
C 10.09375 3.09375 9.703125 2.59375 3.296875 2.59375 
L 3.296875 0 
C 5.703125 0.1875 10.09375 0.1875 12.703125 0.1875 
C 15.296875 0.1875 19.796875 0.1875 22.203125 0 
L 22.203125 2.59375 
C 15.796875 2.59375 15.40625 3 15.40625 6.921875 
L 15.40625 26.21875 
C 15.40625 35.453125 21 42.390625 28 42.390625 
C 35.40625 42.390625 36.203125 35.765625 36.203125 30.9375 
L 36.203125 6.921875 
C 36.203125 3.09375 35.796875 2.59375 29.40625 2.59375 
L 29.40625 0 
C 31.796875 0.1875 36.203125 0.1875 38.796875 0.1875 
C 41.40625 0.1875 45.90625 0.1875 48.296875 0 
L 48.296875 2.59375 
C 41.90625 2.59375 41.5 3 41.5 6.921875 
L 41.5 26.21875 
C 41.5 35.453125 47.09375 42.390625 54.09375 42.390625 
C 61.5 42.390625 62.296875 35.765625 62.296875 30.9375 
L 62.296875 6.921875 
C 62.296875 3.09375 61.90625 2.59375 55.5 2.59375 
L 55.5 0 
C 57.90625 0.1875 62.296875 0.1875 64.90625 0.1875 
C 67.5 0.1875 72 0.1875 74.40625 0 
L 74.40625 2.59375 
C 68 2.59375 67.59375 3 67.59375 6.921875 
z
" id="CMR17-109"/>
      <path d="M 36 25.875 
C 36 32 36 35.546875 31.796875 39.59375 
C 28.09375 42.984375 23.796875 44 20.40625 44 
C 12.5 44 6.796875 37.625 6.796875 30.890625 
C 6.796875 27.1875 9.796875 27 10.40625 27 
C 11.703125 27 14 27.796875 14 30.59375 
C 14 33.09375 12.09375 34.1875 10.40625 34.1875 
C 10 34.1875 9.5 34.09375 9.203125 34 
C 11.296875 40.53125 16.703125 42.390625 20.203125 42.390625 
C 25.203125 42.390625 30.703125 37.828125 30.703125 29.296875 
L 30.703125 25.5 
C 24.796875 25.296875 17.703125 24.5 12.09375 21.453125 
C 5.796875 17.921875 4 12.84375 4 9 
C 4 1.203125 13 -1 18.296875 -1 
C 23.796875 -1 28.90625 2.109375 31.09375 7.890625 
C 31.296875 3.421875 34.09375 -0.609375 38.5 -0.609375 
C 40.59375 -0.609375 45.90625 0.796875 45.90625 8.796875 
L 45.90625 14.46875 
L 44.09375 14.46875 
L 44.09375 8.703125 
C 44.09375 2.515625 41.40625 1.703125 40.09375 1.703125 
C 36 1.703125 36 6.96875 36 11.4375 
z
M 30.703125 13.859375 
C 30.703125 5.046875 24.5 0.59375 19 0.59375 
C 14 0.59375 10.09375 4.34375 10.09375 9 
C 10.09375 12.046875 11.40625 17.40625 17.203125 20.65625 
C 22 23.390625 27.5 23.796875 30.703125 24 
z
" id="CMR17-97"/>
      <path d="M 26 23.296875 
C 29 27.1875 32.40625 31.59375 35.203125 34.890625 
C 38.5 38.6875 42.296875 40.296875 46.703125 40.390625 
L 46.703125 43 
C 45 42.890625 41.5 42.796875 39.703125 42.796875 
C 37 42.796875 33.90625 42.796875 31.59375 43 
L 31.59375 40.390625 
C 33 40.1875 33.796875 39.1875 33.796875 37.796875 
C 33.796875 36 32.796875 34.890625 32.296875 34.1875 
L 24.90625 24.796875 
L 16.09375 36.296875 
C 15.203125 37.390625 15.203125 37.59375 15.203125 38.09375 
C 15.203125 39.296875 16.203125 40.296875 17.90625 40.390625 
L 17.90625 43 
C 15.5 42.796875 11.203125 42.796875 8.703125 42.796875 
C 6 42.796875 2.796875 42.796875 0.59375 43 
L 0.59375 40.390625 
C 6 40.390625 7.203125 40 9.59375 37 
L 21.09375 22.09375 
C 21.296875 21.890625 21.796875 21.296875 21.796875 21 
C 21.796875 20.59375 13.09375 9.890625 12 8.5 
C 7.5 3.09375 2.796875 2.6875 0.09375 2.59375 
L 0.09375 0 
C 1.796875 0.09375 5.296875 0.1875 7.09375 0.1875 
C 9.09375 0.1875 13.5 0.1875 15.296875 0 
L 15.296875 2.59375 
C 14.703125 2.6875 13.09375 2.890625 13.09375 5.1875 
C 13.09375 7 13.90625 8.09375 14.796875 9.296875 
L 23.09375 19.5 
L 31.796875 8.1875 
C 32.59375 7.09375 33.796875 5.59375 33.796875 4.890625 
C 33.796875 3.5 32.59375 2.6875 31 2.59375 
L 31 0 
C 33.40625 0.1875 37.703125 0.1875 40.203125 0.1875 
C 42.90625 0.1875 46.09375 0.1875 48.296875 0 
L 48.296875 2.59375 
C 43.296875 2.59375 41.796875 2.796875 39.40625 5.890625 
z
" id="CMR17-120"/>
     </defs>
     <g transform="translate(101.889765 442.64048)rotate(-90)scale(0.6 -0.6)">
      <use transform="translate(0 38.356757)scale(0.996264)" xlink:href="#CMR17-50"/>
      <use transform="translate(45.690477 38.356757)scale(0.996264)" xlink:href="#CMR17-48"/>
      <use transform="translate(107.985359 38.356757)scale(0.996264)" xlink:href="#CMR17-108"/>
      <use transform="translate(132.856418 38.356757)scale(0.996264)" xlink:href="#CMR17-111"/>
      <use transform="translate(178.546895 38.356757)scale(0.996264)" xlink:href="#CMR17-103"/>
      <use transform="translate(242.142944 123.039806)scale(0.996264)" xlink:href="#CMEX10-12"/>
      <use transform="translate(242.142944 63.263358)scale(0.996264)" xlink:href="#CMEX10-12"/>
      <use transform="translate(275.3518 38.356757)scale(0.996264)" xlink:href="#CMMI12-72"/>
      <use transform="translate(363.873572 74.510396)scale(0.172154)" xlink:href="#CMR17-79"/>
      <use transform="translate(376.265883 74.510396)scale(0.172154)" xlink:href="#CMR17-76"/>
      <use transform="translate(356.176636 10.141367)scale(0.697382)" xlink:href="#CMMI12-107"/>
      <use transform="translate(394.530019 38.356757)scale(0.996264)" xlink:href="#CMR17-40"/>
      <use transform="translate(429.810786 38.356757)scale(0.996264)" xlink:href="#CMMI12-106"/>
      <use transform="translate(475.773269 38.356757)scale(0.996264)" xlink:href="#CMMI12-13"/>
      <use transform="translate(531.791837 38.356757)scale(0.996264)" xlink:href="#CMR17-41"/>
      <use transform="translate(567.072605 123.039806)scale(0.996264)" xlink:href="#CMEX10-12"/>
      <use transform="translate(567.072605 63.263358)scale(0.996264)" xlink:href="#CMEX10-12"/>
      <use transform="translate(600.281461 0)scale(0.996264)" xlink:href="#CMR17-109"/>
      <use transform="translate(677.201051 0)scale(0.996264)" xlink:href="#CMR17-97"/>
      <use transform="translate(722.891528 0)scale(0.996264)" xlink:href="#CMR17-120"/>
     </g>
    </g>
   </g>
   <g id="line2d_17">
    <path clip-path="url(#p68b9ac79e1)" d="M 180.223201 97.854545 
L 180.560675 128.264684 
L 181.004719 147.576636 
L 181.537572 161.702516 
L 182.301328 175.023862 
L 183.065085 184.499642 
L 183.970935 193.059033 
L 184.8235 199.479808 
L 186.137871 207.428245 
L 188.038381 216.298713 
L 189.121849 220.458041 
L 191.644021 228.457431 
L 193.526769 233.3609 
L 195.977893 238.790302 
L 197.789594 242.28661 
L 200.773572 247.316777 
L 203.597694 251.43818 
L 206.741528 255.46667 
L 209.352508 258.458408 
L 213.295622 262.487759 
L 217.132165 265.957718 
L 221.359467 269.370233 
L 224.858536 271.927982 
L 229.014791 274.704993 
L 233.757184 277.582253 
L 238.393007 280.143545 
L 244.360962 283.133785 
L 249.813826 285.613183 
L 256.137018 288.23426 
L 262.549017 290.655884 
L 269.422823 293.027458 
L 277.415621 295.536735 
L 286.047843 297.992259 
L 294.910967 300.28041 
L 304.218136 302.465787 
L 314.857438 304.730858 
L 326.10064 306.893085 
L 338.054313 308.968301 
L 351.357881 311.044811 
L 365.442967 313.013272 
L 380.558235 314.898451 
L 396.828019 316.699583 
L 414.127986 318.38885 
L 432.635753 319.970506 
L 452.386844 321.431643 
L 473.345736 322.754825 
L 495.423619 323.921871 
L 518.37183 324.91143 
L 542.279176 325.719897 
L 566.985801 326.333138 
L 592.438422 326.74114 
L 618.139707 326.930926 
L 658.689834 326.945455 
L 1296 326.945455 
L 1296 326.945455 
" style="fill:none;stroke:#0000ff;stroke-linecap:square;stroke-width:1.5;"/>
   </g>
   <g id="patch_3">
    <path d="M 180 338.4 
L 180 86.4 
" style="fill:none;stroke:#000000;stroke-linecap:square;stroke-linejoin:miter;stroke-width:0.8;"/>
   </g>
   <g id="patch_4">
    <path d="M 1296 338.4 
L 1296 86.4 
" style="fill:none;stroke:#000000;stroke-linecap:square;stroke-linejoin:miter;stroke-width:0.8;"/>
   </g>
   <g id="patch_5">
    <path d="M 180 338.4 
L 1296 338.4 
" style="fill:none;stroke:#000000;stroke-linecap:square;stroke-linejoin:miter;stroke-width:0.8;"/>
   </g>
   <g id="patch_6">
    <path d="M 180 86.4 
L 1296 86.4 
" style="fill:none;stroke:#000000;stroke-linecap:square;stroke-linejoin:miter;stroke-width:0.8;"/>
   </g>
   <g id="legend_1">
    <g id="patch_7">
     <path d="M 967.914 196.2 
L 982.314 196.2 
Q 989.514 196.2 989.514 189 
L 989.514 174.6 
Q 989.514 167.4 982.314 167.4 
L 967.914 167.4 
Q 960.714 167.4 960.714 174.6 
L 960.714 189 
Q 960.714 196.2 967.914 196.2 
z
" style="fill:#ffffff;opacity:0.8;stroke:#cccccc;stroke-linejoin:miter;"/>
    </g>
   </g>
  </g>
  <g id="axes_2">
   <g id="patch_8">
    <path d="M 180 640.8 
L 1296 640.8 
L 1296 388.8 
L 180 388.8 
z
" style="fill:#ffffff;"/>
   </g>
   <g id="matplotlib.axis_3">
    <g id="xtick_6">
     <g id="line2d_18">
      <g>
       <use style="stroke:#000000;stroke-width:0.8;" x="180" xlink:href="#m1cdf844241" y="640.8"/>
      </g>
     </g>
     <g id="text_10">
      <!-- $0.0$ -->
      <g transform="translate(173.634961 654.718498)scale(0.1 -0.1)">
       <use transform="scale(0.996264)" xlink:href="#CMR17-48"/>
       <use transform="translate(45.690477 0)scale(0.996264)" xlink:href="#CMMI12-58"/>
       <use transform="translate(72.787654 0)scale(0.996264)" xlink:href="#CMR17-48"/>
      </g>
     </g>
    </g>
    <g id="xtick_7">
     <g id="line2d_19">
      <g>
       <use style="stroke:#000000;stroke-width:0.8;" x="403.201018" xlink:href="#m1cdf844241" y="640.8"/>
      </g>
     </g>
     <g id="text_11">
      <!-- $0.1$ -->
      <g transform="translate(396.835979 654.718498)scale(0.1 -0.1)">
       <use transform="scale(0.996264)" xlink:href="#CMR17-48"/>
       <use transform="translate(45.690477 0)scale(0.996264)" xlink:href="#CMMI12-58"/>
       <use transform="translate(72.787654 0)scale(0.996264)" xlink:href="#CMR17-49"/>
      </g>
     </g>
    </g>
    <g id="xtick_8">
     <g id="line2d_20">
      <g>
       <use style="stroke:#000000;stroke-width:0.8;" x="626.402037" xlink:href="#m1cdf844241" y="640.8"/>
      </g>
     </g>
     <g id="text_12">
      <!-- $0.2$ -->
      <g transform="translate(620.036997 654.718498)scale(0.1 -0.1)">
       <use transform="scale(0.996264)" xlink:href="#CMR17-48"/>
       <use transform="translate(45.690477 0)scale(0.996264)" xlink:href="#CMMI12-58"/>
       <use transform="translate(72.787654 0)scale(0.996264)" xlink:href="#CMR17-50"/>
      </g>
     </g>
    </g>
    <g id="xtick_9">
     <g id="line2d_21">
      <g>
       <use style="stroke:#000000;stroke-width:0.8;" x="849.603055" xlink:href="#m1cdf844241" y="640.8"/>
      </g>
     </g>
     <g id="text_13">
      <!-- $0.3$ -->
      <g transform="translate(843.238016 654.718498)scale(0.1 -0.1)">
       <use transform="scale(0.996264)" xlink:href="#CMR17-48"/>
       <use transform="translate(45.690477 0)scale(0.996264)" xlink:href="#CMMI12-58"/>
       <use transform="translate(72.787654 0)scale(0.996264)" xlink:href="#CMR17-51"/>
      </g>
     </g>
    </g>
    <g id="xtick_10">
     <g id="line2d_22">
      <g>
       <use style="stroke:#000000;stroke-width:0.8;" x="1072.804074" xlink:href="#m1cdf844241" y="640.8"/>
      </g>
     </g>
     <g id="text_14">
      <!-- $0.4$ -->
      <g transform="translate(1066.439034 654.718498)scale(0.1 -0.1)">
       <use transform="scale(0.996264)" xlink:href="#CMR17-48"/>
       <use transform="translate(45.690477 0)scale(0.996264)" xlink:href="#CMMI12-58"/>
       <use transform="translate(72.787654 0)scale(0.996264)" xlink:href="#CMR17-52"/>
      </g>
     </g>
    </g>
    <g id="text_15">
     <!-- $\Omega\tau/2 \pi$ -->
     <defs>
      <path d="M 63.09375 14.609375 
L 61.296875 14.609375 
C 60.40625 10 60.09375 8.796875 59.59375 7.203125 
C 59.09375 5.6875 58.796875 4.890625 53 4.890625 
L 44.90625 4.890625 
C 46 10.703125 48.40625 15.015625 52.59375 21.71875 
C 57.796875 30.234375 62.09375 37.140625 62.09375 45.453125 
C 62.09375 58.984375 49.296875 70 33.40625 70 
C 17.09375 70 4.59375 58.875 4.59375 45.453125 
C 4.59375 37.140625 9 30.03125 13.90625 22.125 
C 18.296875 15.015625 20.703125 10.703125 21.796875 4.890625 
L 13.703125 4.890625 
C 8 4.890625 7.703125 5.6875 7.203125 7.09375 
C 6.59375 8.703125 6.40625 10 5.40625 14.609375 
L 3.59375 14.609375 
L 6.5 0 
L 21.59375 0 
C 23.703125 0 23.796875 0.09375 23.796875 1.59375 
C 23.796875 8.703125 20.09375 18.015625 18.40625 22.3125 
C 15.203125 30.125 12.203125 37.75 12.203125 45.5625 
C 12.203125 60.484375 22.90625 68.390625 33.296875 68.390625 
C 44.203125 68.390625 54.5 60.1875 54.5 45.5625 
C 54.5 37.84375 51.796875 30.9375 48.09375 21.8125 
C 46.5 17.71875 42.90625 8.59375 42.90625 1.59375 
C 42.90625 0 43 0 45.09375 0 
L 60.203125 0 
z
" id="CMR17-10"/>
      <path d="M 28.703125 37.59375 
L 45.296875 37.59375 
C 46.59375 37.59375 49.90625 37.59375 49.90625 40.796875 
C 49.90625 43 48 43 46.203125 43 
L 18.703125 43 
C 16.40625 43 13 43 8.40625 38.09375 
C 5.796875 35.203125 2.59375 29.9375 2.59375 29.34375 
C 2.59375 28.734375 3.09375 28.546875 3.703125 28.546875 
C 4.40625 28.546875 4.5 28.84375 5 29.4375 
C 10.203125 37.59375 15.40625 37.59375 17.90625 37.59375 
L 26.203125 37.59375 
L 15.796875 3.484375 
C 15.296875 1.984375 15.296875 1.78125 15.296875 1.484375 
C 15.296875 0.390625 16 -1 18 -1 
C 21.09375 -1 21.59375 1.6875 21.90625 3.1875 
z
" id="CMMI12-28"/>
      <path d="M 42.90625 71.296875 
C 42.90625 71.390625 43.5 72.890625 43.5 73.09375 
C 43.5 74.296875 42.5 75 41.703125 75 
C 41.203125 75 40.296875 75 39.5 72.796875 
L 6 -21.3125 
C 6 -21.40625 5.40625 -22.90625 5.40625 -23.109375 
C 5.40625 -24.3125 6.40625 -25 7.203125 -25 
C 7.796875 -25 8.703125 -24.90625 9.40625 -22.8125 
z
" id="CMMI12-61"/>
      <path d="M 25.90625 37.59375 
L 37.203125 37.59375 
C 34.5 26.421875 32.796875 19.140625 32.796875 11.171875 
C 32.796875 9.765625 32.796875 -1 36.90625 -1 
C 39 -1 40.796875 0.890625 40.796875 2.59375 
C 40.796875 3.09375 40.796875 3.28125 40.09375 4.78125 
C 37.40625 11.65625 37.40625 20.234375 37.40625 20.9375 
C 37.40625 21.53125 37.40625 28.625 39.5 37.59375 
L 50.703125 37.59375 
C 52 37.59375 55.296875 37.59375 55.296875 40.796875 
C 55.296875 43 53.40625 43 51.59375 43 
L 18.703125 43 
C 16.40625 43 13 43 8.40625 38.09375 
C 5.796875 35.203125 2.59375 29.921875 2.59375 29.3125 
C 2.59375 28.71875 3.09375 28.515625 3.703125 28.515625 
C 4.40625 28.515625 4.5 28.8125 5 29.421875 
C 10.203125 37.59375 15.40625 37.59375 17.90625 37.59375 
L 23.59375 37.59375 
C 21.40625 30.109375 18.90625 21.4375 10.703125 3.984375 
C 9.90625 2.390625 9.90625 2.1875 9.90625 1.59375 
C 9.90625 -0.5 11.703125 -1 12.59375 -1 
C 15.5 -1 16.296875 1.59375 17.5 5.78125 
C 19.09375 10.859375 19.09375 11.0625 20.09375 15.0625 
z
" id="CMMI12-25"/>
     </defs>
     <g transform="translate(657.059265 706.487557)scale(0.6 -0.6)">
      <use transform="scale(0.996264)" xlink:href="#CMR17-10"/>
      <use transform="translate(66.509881 0)scale(0.996264)" xlink:href="#CMMI12-28"/>
      <use transform="translate(120.001046 0)scale(0.996264)" xlink:href="#CMMI12-61"/>
      <use transform="translate(168.775965 0)scale(0.996264)" xlink:href="#CMR17-50"/>
      <use transform="translate(214.466442 0)scale(0.996264)" xlink:href="#CMMI12-25"/>
     </g>
    </g>
   </g>
   <g id="matplotlib.axis_4">
    <g id="ytick_4">
     <g id="line2d_23">
      <g>
       <use style="stroke:#000000;stroke-width:0.8;" x="180" xlink:href="#ma885bc06f9" y="629.345487"/>
      </g>
     </g>
     <g id="text_16">
      <!-- $0.00$ -->
      <g transform="translate(155.288586 632.804736)scale(0.1 -0.1)">
       <use transform="scale(0.996264)" xlink:href="#CMR17-48"/>
       <use transform="translate(45.690477 0)scale(0.996264)" xlink:href="#CMMI12-58"/>
       <use transform="translate(72.787654 0)scale(0.996264)" xlink:href="#CMR17-48"/>
       <use transform="translate(118.478131 0)scale(0.996264)" xlink:href="#CMR17-48"/>
      </g>
     </g>
    </g>
    <g id="ytick_5">
     <g id="line2d_24">
      <g>
       <use style="stroke:#000000;stroke-width:0.8;" x="180" xlink:href="#ma885bc06f9" y="597.055361"/>
      </g>
     </g>
     <g id="text_17">
      <!-- $0.01$ -->
      <g transform="translate(155.288586 600.514611)scale(0.1 -0.1)">
       <use transform="scale(0.996264)" xlink:href="#CMR17-48"/>
       <use transform="translate(45.690477 0)scale(0.996264)" xlink:href="#CMMI12-58"/>
       <use transform="translate(72.787654 0)scale(0.996264)" xlink:href="#CMR17-48"/>
       <use transform="translate(118.478131 0)scale(0.996264)" xlink:href="#CMR17-49"/>
      </g>
     </g>
    </g>
    <g id="ytick_6">
     <g id="line2d_25">
      <g>
       <use style="stroke:#000000;stroke-width:0.8;" x="180" xlink:href="#ma885bc06f9" y="564.765236"/>
      </g>
     </g>
     <g id="text_18">
      <!-- $0.02$ -->
      <g transform="translate(155.288586 568.224485)scale(0.1 -0.1)">
       <use transform="scale(0.996264)" xlink:href="#CMR17-48"/>
       <use transform="translate(45.690477 0)scale(0.996264)" xlink:href="#CMMI12-58"/>
       <use transform="translate(72.787654 0)scale(0.996264)" xlink:href="#CMR17-48"/>
       <use transform="translate(118.478131 0)scale(0.996264)" xlink:href="#CMR17-50"/>
      </g>
     </g>
    </g>
    <g id="ytick_7">
     <g id="line2d_26">
      <g>
       <use style="stroke:#000000;stroke-width:0.8;" x="180" xlink:href="#ma885bc06f9" y="532.47511"/>
      </g>
     </g>
     <g id="text_19">
      <!-- $0.03$ -->
      <g transform="translate(155.288586 535.93436)scale(0.1 -0.1)">
       <use transform="scale(0.996264)" xlink:href="#CMR17-48"/>
       <use transform="translate(45.690477 0)scale(0.996264)" xlink:href="#CMMI12-58"/>
       <use transform="translate(72.787654 0)scale(0.996264)" xlink:href="#CMR17-48"/>
       <use transform="translate(118.478131 0)scale(0.996264)" xlink:href="#CMR17-51"/>
      </g>
     </g>
    </g>
    <g id="ytick_8">
     <g id="line2d_27">
      <g>
       <use style="stroke:#000000;stroke-width:0.8;" x="180" xlink:href="#ma885bc06f9" y="500.184985"/>
      </g>
     </g>
     <g id="text_20">
      <!-- $0.04$ -->
      <g transform="translate(155.288586 503.644234)scale(0.1 -0.1)">
       <use transform="scale(0.996264)" xlink:href="#CMR17-48"/>
       <use transform="translate(45.690477 0)scale(0.996264)" xlink:href="#CMMI12-58"/>
       <use transform="translate(72.787654 0)scale(0.996264)" xlink:href="#CMR17-48"/>
       <use transform="translate(118.478131 0)scale(0.996264)" xlink:href="#CMR17-52"/>
      </g>
     </g>
    </g>
    <g id="ytick_9">
     <g id="line2d_28">
      <g>
       <use style="stroke:#000000;stroke-width:0.8;" x="180" xlink:href="#ma885bc06f9" y="467.89486"/>
      </g>
     </g>
     <g id="text_21">
      <!-- $0.05$ -->
      <g transform="translate(155.288586 471.354109)scale(0.1 -0.1)">
       <use transform="scale(0.996264)" xlink:href="#CMR17-48"/>
       <use transform="translate(45.690477 0)scale(0.996264)" xlink:href="#CMMI12-58"/>
       <use transform="translate(72.787654 0)scale(0.996264)" xlink:href="#CMR17-48"/>
       <use transform="translate(118.478131 0)scale(0.996264)" xlink:href="#CMR17-53"/>
      </g>
     </g>
    </g>
    <g id="ytick_10">
     <g id="line2d_29">
      <g>
       <use style="stroke:#000000;stroke-width:0.8;" x="180" xlink:href="#ma885bc06f9" y="435.604734"/>
      </g>
     </g>
     <g id="text_22">
      <!-- $0.06$ -->
      <defs>
       <path d="M 10.59375 34.34375 
C 10.59375 58 21.796875 63.6875 28.296875 63.6875 
C 30.40625 63.6875 35.5 63.265625 37.5 59.09375 
C 35.90625 59.09375 32.90625 59.09375 32.90625 55.59375 
C 32.90625 52.890625 35.09375 52 36.5 52 
C 37.40625 52 40.09375 52.390625 40.09375 55.796875 
C 40.09375 62.296875 35.09375 66 28.203125 66 
C 16.296875 66 3.796875 53.296875 3.796875 31.421875 
C 3.796875 4.015625 15.09375 -2 23.09375 -2 
C 32.796875 -2 42 6.734375 42 20.234375 
C 42 32.828125 33.90625 42 23.703125 42 
C 17.59375 42 13.09375 37.96875 10.59375 30.921875 
z
M 23.09375 0.390625 
C 10.796875 0.390625 10.796875 18.9375 10.796875 22.65625 
C 10.796875 29.90625 14.203125 40.390625 23.5 40.390625 
C 25.203125 40.390625 30.09375 40.390625 33.40625 33.4375 
C 35.203125 29.515625 35.203125 25.375 35.203125 20.34375 
C 35.203125 14.90625 35.203125 10.875 33.09375 6.84375 
C 30.90625 2.703125 27.703125 0.390625 23.09375 0.390625 
z
" id="CMR17-54"/>
      </defs>
      <g transform="translate(155.288586 439.063983)scale(0.1 -0.1)">
       <use transform="scale(0.996264)" xlink:href="#CMR17-48"/>
       <use transform="translate(45.690477 0)scale(0.996264)" xlink:href="#CMMI12-58"/>
       <use transform="translate(72.787654 0)scale(0.996264)" xlink:href="#CMR17-48"/>
       <use transform="translate(118.478131 0)scale(0.996264)" xlink:href="#CMR17-54"/>
      </g>
     </g>
    </g>
    <g id="ytick_11">
     <g id="line2d_30">
      <g>
       <use style="stroke:#000000;stroke-width:0.8;" x="180" xlink:href="#ma885bc06f9" y="403.314609"/>
      </g>
     </g>
     <g id="text_23">
      <!-- $0.07$ -->
      <defs>
       <path d="M 45.09375 61.796875 
L 45.09375 64 
L 21.59375 64 
C 9.90625 64 9.703125 65.09375 9.296875 67 
L 7.5 67 
L 4.59375 48.5 
L 6.40625 48.5 
C 6.703125 50.40625 7.40625 55.5 8.59375 57.390625 
C 9.203125 58.1875 16.59375 58.1875 18.296875 58.1875 
L 40.296875 58.1875 
L 29.203125 41.71875 
C 21.796875 30.640625 16.703125 15.671875 16.703125 2.59375 
C 16.703125 1.390625 16.703125 -2 20.296875 -2 
C 23.90625 -2 23.90625 1.390625 23.90625 2.6875 
L 23.90625 7.28125 
C 23.90625 23.65625 26.703125 34.4375 31.296875 41.3125 
z
" id="CMR17-55"/>
      </defs>
      <g transform="translate(155.288586 406.773858)scale(0.1 -0.1)">
       <use transform="scale(0.996264)" xlink:href="#CMR17-48"/>
       <use transform="translate(45.690477 0)scale(0.996264)" xlink:href="#CMMI12-58"/>
       <use transform="translate(72.787654 0)scale(0.996264)" xlink:href="#CMR17-48"/>
       <use transform="translate(118.478131 0)scale(0.996264)" xlink:href="#CMR17-55"/>
      </g>
     </g>
    </g>
    <g id="text_24">
     <!-- $f^\textrm{pert}$ -->
     <defs>
      <path d="M 44.59375 40.09375 
C 46.59375 40.09375 47.40625 40.09375 47.40625 41.984375 
C 47.40625 43 46.59375 43 44.796875 43 
L 36.703125 43 
C 38.59375 53.09375 40 60.09375 40.796875 63.296875 
C 41.40625 65.6875 43.5 67.984375 46.09375 67.984375 
C 48.203125 67.984375 50.296875 67.09375 51.296875 66.1875 
C 47.40625 65.796875 46.203125 62.890625 46.203125 61.1875 
C 46.203125 59.1875 47.703125 58 49.59375 58 
C 51.59375 58 54.59375 59.6875 54.59375 63.5 
C 54.59375 67.6875 50.40625 70 46 70 
C 41.703125 70 37.5 66.796875 35.5 62.890625 
C 33.703125 59.390625 32.703125 55.828125 30.40625 43 
L 23.703125 43 
C 21.796875 43 20.796875 43 20.796875 41.1875 
C 20.796875 40.09375 21.40625 40.09375 23.40625 40.09375 
L 29.796875 40.09375 
C 28 30.890625 23.90625 8.515625 21.59375 -2.0625 
C 19.90625 -10.703125 18.40625 -18 13.40625 -18 
C 13.09375 -18 10.203125 -18 8.40625 -16.109375 
C 13.5 -15.703125 13.5 -11.3125 13.5 -11.203125 
C 13.5 -9.203125 12 -8 10.09375 -8 
C 8.09375 -8 5.09375 -9.703125 5.09375 -13.515625 
C 5.09375 -17.8125 9.5 -20 13.40625 -20 
C 23.59375 -20 27.796875 -1.765625 28.90625 3.171875 
C 30.703125 10.796875 35.59375 37.125 36.09375 40.09375 
z
" id="CMMI12-102"/>
      <path d="M 22 -17.40625 
C 15.59375 -17.40625 15.203125 -17 15.203125 -13.03125 
L 15.203125 5.9375 
C 18.09375 1.703125 22.296875 -1 27.59375 -1 
C 37.59375 -1 47.703125 7.859375 47.703125 21.59375 
C 47.703125 34.3125 39 44 28.703125 44 
C 22.703125 44 17.796875 40.671875 15 36.640625 
L 15 44 
L 3.09375 42.890625 
L 3.09375 40.265625 
C 9 40.265625 9.90625 39.671875 9.90625 34.8125 
L 9.90625 -13.03125 
C 9.90625 -16.890625 9.5 -17.40625 3.09375 -17.40625 
L 3.09375 -20 
C 5.5 -19.8125 9.90625 -19.8125 12.5 -19.8125 
C 15.09375 -19.8125 19.59375 -19.8125 22 -20 
z
M 15.203125 31.484375 
C 15.203125 32.90625 15.203125 35.015625 19.09375 38.765625 
C 19.59375 39.15625 23 42.1875 28 42.1875 
C 35.296875 42.1875 41.296875 33 41.296875 21.5 
C 41.296875 9.984375 34.90625 0.59375 27 0.59375 
C 23.40625 0.59375 19.5 2.3125 16.5 7.046875 
C 15.203125 9.28125 15.203125 9.875 15.203125 11.5 
z
" id="CMR17-112"/>
      <path d="M 38.09375 23.484375 
C 38.5 23.890625 38.5 24.09375 38.5 25.09375 
C 38.5 35.171875 33.09375 44 21.703125 44 
C 11.09375 44 2.703125 33.984375 2.703125 21.78125 
C 2.703125 8.65625 12.203125 -1 22.796875 -1 
C 34 -1 38.40625 9.671875 38.40625 11.796875 
C 38.40625 12.5 37.796875 12.5 37.59375 12.5 
C 36.90625 12.5 36.796875 12.296875 36.40625 11.078125 
C 34.203125 4.21875 28.703125 0.796875 23.5 0.796875 
C 19.203125 0.796875 14.90625 3.21875 12.203125 7.65625 
C 9.09375 12.796875 9.09375 18.75 9.09375 23.484375 
z
M 9.203125 25 
C 9.90625 39.234375 17.59375 42.390625 21.59375 42.390625 
C 28.40625 42.390625 33 36.0625 33.09375 25 
z
" id="CMR17-101"/>
      <path d="M 15 23.703125 
C 15 33.34375 19.09375 42.390625 26.59375 42.390625 
C 27.296875 42.390625 28 42.296875 28.703125 41.984375 
C 28.703125 41.984375 26.5 41.28125 26.5 38.671875 
C 26.5 36.265625 28.40625 35.265625 29.90625 35.265625 
C 31.09375 35.265625 33.296875 35.96875 33.296875 38.78125 
C 33.296875 41.984375 30.09375 44 26.703125 44 
C 19.09375 44 15.796875 36.5625 14.796875 33.046875 
L 14.703125 33.046875 
L 14.703125 44 
L 3.09375 42.890625 
L 3.09375 40.28125 
C 9 40.28125 9.90625 39.6875 9.90625 34.859375 
L 9.90625 6.921875 
C 9.90625 3.09375 9.5 2.59375 3.09375 2.59375 
L 3.09375 0 
C 5.5 0.1875 10.09375 0.1875 12.703125 0.1875 
C 15.59375 0.1875 20.703125 0.1875 23.40625 0 
L 23.40625 2.59375 
C 16.203125 2.59375 15 2.59375 15 7.109375 
z
" id="CMR17-114"/>
      <path d="M 15.09375 40.390625 
L 29.09375 40.390625 
L 29.09375 43 
L 15.09375 43 
L 15.09375 62 
L 13.296875 62 
C 13.09375 51.4375 9.59375 42.1875 1.09375 41.984375 
L 1.09375 40.390625 
L 9.796875 40.390625 
L 9.796875 12.15625 
C 9.796875 10.234375 9.796875 -1 21.40625 -1 
C 27.296875 -1 30.703125 4.8125 30.703125 12.25 
L 30.703125 17.984375 
L 28.90625 17.984375 
L 28.90625 12.34375 
C 28.90625 5.421875 26.203125 0.796875 22 0.796875 
C 19.09375 0.796875 15.09375 2.796875 15.09375 11.953125 
z
" id="CMR17-116"/>
     </defs>
     <g transform="translate(113.661685 581.779585)rotate(-90)scale(0.6 -0.6)">
      <use transform="scale(0.996264)" xlink:href="#CMMI12-102"/>
      <use transform="translate(58.720305 36.153639)scale(0.996264)" xlink:href="#CMR17-112"/>
      <use transform="translate(112.218113 36.153639)scale(0.996264)" xlink:href="#CMR17-101"/>
      <use transform="translate(152.703774 36.153639)scale(0.996264)" xlink:href="#CMR17-114"/>
      <use transform="translate(187.984542 36.153639)scale(0.996264)" xlink:href="#CMR17-116"/>
     </g>
    </g>
   </g>
   <g id="line2d_31">
    <path clip-path="url(#pa71525f783)" d="M 180.223201 619.135572 
L 180.631722 612.153369 
L 181.377716 603.965678 
L 183.402558 589.540679 
L 184.486026 583.702951 
L 184.503788 583.702951 
L 184.912309 581.614525 
L 184.930071 581.614525 
L 185.267544 579.953245 
L 185.285306 579.953245 
L 185.605018 578.36848 
L 185.62278 578.36848 
L 185.889207 577.146626 
L 185.906968 577.146626 
L 186.173395 575.895485 
L 186.191157 575.895485 
L 186.439821 574.758208 
L 186.457583 574.758208 
L 186.688486 573.743257 
L 186.706248 573.743257 
L 186.919389 572.858292 
L 186.937151 572.858292 
L 187.168054 571.808016 
L 187.203578 571.808016 
L 187.416719 570.89225 
L 187.434481 570.89225 
L 187.647622 569.961909 
L 187.665384 569.961909 
L 187.860763 569.175323 
L 187.878525 569.175323 
L 188.073905 568.378319 
L 188.091666 568.378319 
L 188.287046 567.570758 
L 188.322569 567.570758 
L 188.517949 566.752499 
L 188.535711 566.752499 
L 188.713328 566.090096 
L 188.73109 566.090096 
L 188.908708 565.420682 
L 188.92647 565.420682 
L 189.121849 564.573945 
L 189.157373 564.573945 
L 189.33499 563.888486 
L 189.352752 563.888486 
L 189.53037 563.195774 
L 189.565893 563.195774 
L 189.743511 562.49573 
L 189.779035 562.49573 
L 189.956652 561.788279 
L 189.992176 561.788279 
L 190.169794 561.07334 
L 190.205317 561.07334 
L 190.382935 560.350836 
L 190.418459 560.350836 
L 190.578315 559.803944 
L 190.596076 559.803944 
L 190.755932 559.252718 
L 190.773694 559.252718 
L 190.93355 558.697122 
L 190.951312 558.697122 
L 191.111168 558.137122 
L 191.128929 558.137122 
L 191.288785 557.572683 
L 191.306547 557.572683 
L 191.466403 557.00377 
L 191.484165 557.00377 
L 191.644021 556.430348 
L 191.679544 556.430348 
L 191.8394 555.85238 
L 191.874924 555.85238 
L 192.03478 555.269831 
L 192.070303 555.269831 
L 192.230159 554.682665 
L 192.265683 554.682665 
L 192.425539 554.090844 
L 192.461062 554.090844 
L 192.620918 553.494332 
L 192.674204 553.494332 
L 192.83406 552.893092 
L 192.869583 552.893092 
L 193.029439 552.287086 
L 193.082724 552.287086 
L 193.24258 551.676276 
L 193.295866 551.676276 
L 193.43796 551.266382 
L 193.455722 551.266382 
L 193.615578 550.647482 
L 193.668863 550.647482 
L 193.828719 550.023676 
L 193.899766 550.023676 
L 194.059622 549.394925 
L 194.130669 549.394925 
L 194.290525 548.761191 
L 194.361572 548.761191 
L 194.503666 548.335913 
L 194.521428 548.335913 
L 194.681284 547.693784 
L 194.752331 547.693784 
L 194.894425 547.262873 
L 194.912187 547.262873 
L 195.054281 546.829688 
L 195.072043 546.829688 
L 195.214137 546.394216 
L 195.249661 546.394216 
L 195.391755 545.956447 
L 195.409517 545.956447 
L 195.551611 545.516367 
L 195.587134 545.516367 
L 195.729229 545.073965 
L 195.74699 545.073965 
L 195.889085 544.629228 
L 195.924608 544.629228 
L 196.066702 544.182144 
L 196.102226 544.182144 
L 196.24432 543.7327 
L 196.279844 543.7327 
L 196.421938 543.280885 
L 196.457461 543.280885 
L 196.599555 542.826685 
L 196.635079 542.826685 
L 196.777173 542.370088 
L 196.812697 542.370088 
L 196.954791 541.911081 
L 197.008076 541.911081 
L 197.15017 541.449652 
L 197.185694 541.449652 
L 197.327788 540.985788 
L 197.381073 540.985788 
L 197.523168 540.519476 
L 197.576453 540.519476 
L 197.718547 540.050703 
L 197.771832 540.050703 
L 197.913927 539.579456 
L 197.967212 539.579456 
L 198.109306 539.105722 
L 198.162591 539.105722 
L 198.304686 538.629488 
L 198.357971 538.629488 
L 198.500065 538.150741 
L 198.571112 538.150741 
L 198.713206 537.669467 
L 198.766492 537.669467 
L 198.908586 537.185653 
L 198.979633 537.185653 
L 199.121727 536.699286 
L 199.192774 536.699286 
L 199.334868 536.210352 
L 199.405916 536.210352 
L 199.54801 535.718838 
L 199.619057 535.718838 
L 199.761151 535.22473 
L 199.832198 535.22473 
L 199.974292 534.728014 
L 200.063101 534.728014 
L 200.205195 534.228677 
L 200.276242 534.228677 
L 200.418337 533.726705 
L 200.507145 533.726705 
L 200.64924 533.222084 
L 200.738048 533.222084 
L 200.880143 532.714799 
L 200.968952 532.714799 
L 201.111046 532.204838 
L 201.199855 532.204838 
L 201.341949 531.692185 
L 201.430758 531.692185 
L 201.572852 531.176826 
L 201.679422 531.176826 
L 201.821517 530.658748 
L 201.910325 530.658748 
L 202.05242 530.137936 
L 202.15899 530.137936 
L 202.301084 529.614375 
L 202.407655 529.614375 
L 202.549749 529.088051 
L 202.65632 529.088051 
L 202.798414 528.558949 
L 202.922747 528.558949 
L 203.064841 528.027055 
L 203.171411 528.027055 
L 203.313506 527.492354 
L 203.437838 527.492354 
L 203.579932 526.954832 
L 203.686503 526.954832 
L 203.810835 526.685007 
L 203.828597 526.685007 
L 203.970691 526.143224 
L 204.095024 526.143224 
L 204.237118 525.598581 
L 204.36145 525.598581 
L 204.485783 525.325183 
L 204.503544 525.325183 
L 204.627877 525.051064 
L 204.645638 525.051064 
L 204.787733 524.500658 
L 204.912065 524.500658 
L 205.036397 524.224366 
L 205.054159 524.224366 
L 205.178492 523.947347 
L 205.196253 523.947347 
L 205.320586 523.669597 
L 205.338348 523.669597 
L 205.46268 523.391115 
L 205.480442 523.391115 
L 205.604774 523.1119 
L 205.622536 523.1119 
L 205.746868 522.831949 
L 205.76463 522.831949 
L 205.888963 522.55126 
L 205.906724 522.55126 
L 206.031057 522.269831 
L 206.048819 522.269831 
L 206.173151 521.987661 
L 206.208674 521.987661 
L 206.333007 521.704747 
L 206.350769 521.704747 
L 206.475101 521.421087 
L 206.492863 521.421087 
L 206.617195 521.13668 
L 206.652719 521.13668 
L 206.777051 520.851524 
L 206.794813 520.851524 
L 206.919145 520.565616 
L 206.954669 520.565616 
L 207.079001 520.278954 
L 207.096763 520.278954 
L 207.221096 519.991538 
L 207.256619 519.991538 
L 207.380951 519.703363 
L 207.416475 519.703363 
L 207.540807 519.41443 
L 207.558569 519.41443 
L 207.682902 519.124735 
L 207.718425 519.124735 
L 207.842758 518.834276 
L 207.878281 518.834276 
L 208.002614 518.543053 
L 208.038137 518.543053 
L 208.162469 518.251061 
L 208.197993 518.251061 
L 208.322325 517.9583 
L 208.357849 517.9583 
L 208.482181 517.664768 
L 208.517705 517.664768 
L 208.642037 517.370462 
L 208.677561 517.370462 
L 208.801893 517.075381 
L 208.837417 517.075381 
L 208.961749 516.779522 
L 208.997273 516.779522 
L 209.121605 516.482883 
L 209.174891 516.482883 
L 209.299223 516.185463 
L 209.334746 516.185463 
L 209.459079 515.887259 
L 209.494602 515.887259 
L 209.618935 515.588269 
L 209.67222 515.588269 
L 209.796553 515.288491 
L 209.832076 515.288491 
L 209.956409 514.987923 
L 210.009694 514.987923 
L 210.134026 514.686563 
L 210.16955 514.686563 
L 210.293882 514.384409 
L 210.347168 514.384409 
L 210.4715 514.081459 
L 210.524785 514.081459 
L 210.649118 513.77771 
L 210.684641 513.77771 
L 210.808974 513.473161 
L 210.862259 513.473161 
L 210.986591 513.167809 
L 211.039877 513.167809 
L 211.164209 512.861653 
L 211.217494 512.861653 
L 211.341827 512.55469 
L 211.395112 512.55469 
L 211.519445 512.246918 
L 211.57273 512.246918 
L 211.697062 511.938335 
L 211.768109 511.938335 
L 211.892442 511.628938 
L 211.945727 511.628938 
L 212.070059 511.318727 
L 212.123345 511.318727 
L 212.247677 511.007698 
L 212.300963 511.007698 
L 212.425295 510.695849 
L 212.496342 510.695849 
L 212.620674 510.383178 
L 212.67396 510.383178 
L 212.798292 510.069684 
L 212.869339 510.069684 
L 212.993672 509.755363 
L 213.046957 509.755363 
L 213.171289 509.440214 
L 213.242336 509.440214 
L 213.366669 509.124235 
L 213.437716 509.124235 
L 213.562048 508.807422 
L 213.633095 508.807422 
L 213.757428 508.489775 
L 213.828475 508.489775 
L 213.952807 508.171291 
L 214.023854 508.171291 
L 214.148187 507.851968 
L 214.219234 507.851968 
L 214.343566 507.531803 
L 214.414613 507.531803 
L 214.538946 507.210794 
L 214.609993 507.210794 
L 214.734325 506.88894 
L 214.805372 506.88894 
L 214.929705 506.566237 
L 215.000752 506.566237 
L 215.125084 506.242684 
L 215.213893 506.242684 
L 215.338226 505.918278 
L 215.409273 505.918278 
L 215.533605 505.593017 
L 215.622414 505.593017 
L 215.746746 505.2669 
L 215.817794 505.2669 
L 215.942126 504.939923 
L 216.030935 504.939923 
L 216.155267 504.612084 
L 216.244076 504.612084 
L 216.368408 504.283381 
L 216.457217 504.283381 
L 216.58155 503.953812 
L 216.652597 503.953812 
L 216.776929 503.623374 
L 216.865738 503.623374 
L 216.99007 503.292066 
L 217.078879 503.292066 
L 217.203212 502.959885 
L 217.309782 502.959885 
L 217.434115 502.626828 
L 217.522924 502.626828 
L 217.647256 502.292894 
L 217.736065 502.292894 
L 217.860397 501.958079 
L 217.949206 501.958079 
L 218.073539 501.622383 
L 218.180109 501.622383 
L 218.304442 501.285801 
L 218.393251 501.285801 
L 218.517583 500.948333 
L 218.624154 500.948333 
L 218.748486 500.609975 
L 218.855057 500.609975 
L 218.979389 500.270726 
L 219.068198 500.270726 
L 219.19253 499.930583 
L 219.299101 499.930583 
L 219.423433 499.589543 
L 219.530004 499.589543 
L 219.654336 499.247604 
L 219.760907 499.247604 
L 219.885239 498.904765 
L 219.99181 498.904765 
L 220.116142 498.561022 
L 220.240475 498.561022 
L 220.364807 498.216373 
L 220.471378 498.216373 
L 220.59571 497.870816 
L 220.702281 497.870816 
L 220.826613 497.524349 
L 220.950946 497.524349 
L 221.075278 497.176968 
L 221.181849 497.176968 
L 221.306181 496.828672 
L 221.430514 496.828672 
L 221.554846 496.479458 
L 221.661417 496.479458 
L 221.785749 496.129324 
L 221.910082 496.129324 
L 222.034414 495.778267 
L 222.158746 495.778267 
L 222.283079 495.426285 
L 222.407411 495.426285 
L 222.531744 495.073375 
L 222.656076 495.073375 
L 222.780408 494.719535 
L 222.904741 494.719535 
L 223.029073 494.364763 
L 223.171167 494.364763 
L 223.2955 494.009056 
L 223.419832 494.009056 
L 223.544165 493.652412 
L 223.686259 493.652412 
L 223.810591 493.294828 
L 223.934924 493.294828 
L 224.059256 492.936301 
L 224.20135 492.936301 
L 224.325683 492.57683 
L 224.467777 492.57683 
L 224.592109 492.216412 
L 224.716442 492.216412 
L 224.840774 491.855043 
L 224.982868 491.855043 
L 225.107201 491.492722 
L 225.249295 491.492722 
L 225.373627 491.129447 
L 225.533483 491.129447 
L 225.657816 490.765214 
L 225.79991 490.765214 
L 225.924242 490.400022 
L 226.066336 490.400022 
L 226.190669 490.033867 
L 226.350525 490.033867 
L 226.474857 489.666747 
L 226.616951 489.666747 
L 226.741284 489.298659 
L 226.90114 489.298659 
L 227.025472 488.929602 
L 227.185328 488.929602 
L 227.30966 488.559572 
L 227.469516 488.559572 
L 227.593849 488.188567 
L 227.753705 488.188567 
L 227.878037 487.816584 
L 228.037893 487.816584 
L 228.162226 487.443621 
L 228.322081 487.443621 
L 228.446414 487.069675 
L 228.60627 487.069675 
L 228.730602 486.694744 
L 228.90822 486.694744 
L 229.032552 486.318825 
L 229.21017 486.318825 
L 229.334503 485.941915 
L 229.494358 485.941915 
L 229.618691 485.564012 
L 229.796309 485.564012 
L 229.920641 485.185112 
L 230.098259 485.185112 
L 230.222591 484.805215 
L 230.400209 484.805215 
L 230.524541 484.424316 
L 230.702159 484.424316 
L 230.826491 484.042414 
L 231.004109 484.042414 
L 231.128442 483.659505 
L 231.323821 483.659505 
L 231.448153 483.275587 
L 231.625771 483.275587 
L 231.750104 482.890657 
L 231.945483 482.890657 
L 232.069816 482.504713 
L 232.265195 482.504713 
L 232.389527 482.117752 
L 232.584907 482.117752 
L 232.709239 481.729772 
L 232.904619 481.729772 
L 233.028951 481.340768 
L 233.224331 481.340768 
L 233.348663 480.95074 
L 233.544043 480.95074 
L 233.668375 480.559684 
L 233.881516 480.559684 
L 234.005849 480.167597 
L 234.201228 480.167597 
L 234.325561 479.774477 
L 234.538702 479.774477 
L 234.663034 479.380321 
L 234.876176 479.380321 
L 235.000508 478.985127 
L 235.213649 478.985127 
L 235.337982 478.588891 
L 235.551123 478.588891 
L 235.675455 478.19161 
L 235.888597 478.19161 
L 236.012929 477.793283 
L 236.243832 477.793283 
L 236.368165 477.393906 
L 236.581306 477.393906 
L 236.705638 476.993477 
L 236.936541 476.993477 
L 237.060874 476.591993 
L 237.291777 476.591993 
L 237.416109 476.18945 
L 237.647012 476.18945 
L 237.771345 475.785847 
L 238.002248 475.785847 
L 238.12658 475.38118 
L 238.357483 475.38118 
L 238.481815 474.975447 
L 238.712719 474.975447 
L 238.837051 474.568644 
L 239.085716 474.568644 
L 239.210048 474.16077 
L 239.458713 474.16077 
L 239.583045 473.75182 
L 239.83171 473.75182 
L 239.956043 473.341793 
L 240.204707 473.341793 
L 240.32904 472.930686 
L 240.577705 472.930686 
L 240.702037 472.518495 
L 240.950702 472.518495 
L 241.075034 472.105217 
L 241.341461 472.105217 
L 241.465793 471.690851 
L 241.714458 471.690851 
L 241.838791 471.275393 
L 242.105217 471.275393 
L 242.229549 470.85884 
L 242.495976 470.85884 
L 242.620308 470.441189 
L 242.904497 470.441189 
L 243.028829 470.022438 
L 243.295256 470.022438 
L 243.419588 469.602583 
L 243.703777 469.602583 
L 243.828109 469.181622 
L 244.094536 469.181622 
L 244.218868 468.759551 
L 244.503056 468.759551 
L 244.627389 468.336368 
L 244.911577 468.336368 
L 245.03591 467.91207 
L 245.320098 467.91207 
L 245.44443 467.486654 
L 245.74638 467.486654 
L 245.870713 467.060116 
L 246.172663 467.060116 
L 246.296995 466.632455 
L 246.581184 466.632455 
L 246.705516 466.203667 
L 247.007466 466.203667 
L 247.131799 465.773748 
L 247.451511 465.773748 
L 247.575843 465.342697 
L 247.877793 465.342697 
L 248.002126 464.91051 
L 248.321838 464.91051 
L 248.44617 464.477184 
L 248.74812 464.477184 
L 248.872452 464.042716 
L 249.192164 464.042716 
L 249.316497 463.607103 
L 249.65397 463.607103 
L 249.778303 463.170342 
L 250.098015 463.170342 
L 250.222347 462.73243 
L 250.559821 462.73243 
L 250.684153 462.293365 
L 251.003865 462.293365 
L 251.128198 461.853142 
L 251.483433 461.853142 
L 251.607765 461.411759 
L 251.945239 461.411759 
L 252.069572 460.969213 
L 252.407045 460.969213 
L 252.531378 460.5255 
L 252.886613 460.5255 
L 253.010946 460.080619 
L 253.366181 460.080619 
L 253.490513 459.634565 
L 253.845749 459.634565 
L 253.970081 459.187335 
L 254.325317 459.187335 
L 254.449649 458.738927 
L 254.822646 458.738927 
L 254.946979 458.289338 
L 255.319976 458.289338 
L 255.444308 457.838563 
L 255.817306 457.838563 
L 255.941638 457.386601 
L 256.314635 457.386601 
L 256.438968 456.933447 
L 256.829727 456.933447 
L 256.954059 456.4791 
L 257.344818 456.4791 
L 257.46915 456.023555 
L 257.859909 456.023555 
L 257.984242 455.56681 
L 258.375001 455.56681 
L 258.499333 455.108861 
L 258.907854 455.108861 
L 259.032186 454.649705 
L 259.440707 454.649705 
L 259.56504 454.189339 
L 259.97356 454.189339 
L 260.097893 453.72776 
L 260.506414 453.72776 
L 260.630746 453.264965 
L 261.057029 453.264965 
L 261.181361 452.80095 
L 261.607644 452.80095 
L 261.731976 452.335712 
L 262.158258 452.335712 
L 262.282591 451.869248 
L 262.726635 451.869248 
L 262.850968 451.401556 
L 263.295012 451.401556 
L 263.419344 450.93263 
L 263.863389 450.93263 
L 263.987721 450.462469 
L 264.431765 450.462469 
L 264.556098 449.991069 
L 265.017904 449.991069 
L 265.142236 449.518426 
L 265.604042 449.518426 
L 265.728375 449.044538 
L 266.207943 449.044538 
L 266.332275 448.569402 
L 266.794081 448.569402 
L 266.918414 448.093013 
L 267.397981 448.093013 
L 267.522314 447.615369 
L 268.019643 447.615369 
L 268.143976 447.136466 
L 268.641305 447.136466 
L 268.765638 446.656301 
L 269.262968 446.656301 
L 269.3873 446.17487 
L 269.88463 446.17487 
L 270.008962 445.692171 
L 270.524053 445.692171 
L 270.648386 445.2082 
L 271.163477 445.2082 
L 271.28781 444.722954 
L 271.802901 444.722954 
L 271.927233 444.236429 
L 272.460087 444.236429 
L 272.584419 443.748621 
L 273.135034 443.748621 
L 273.259366 443.259529 
L 273.79222 443.259529 
L 273.916552 442.769147 
L 274.467167 442.769147 
L 274.591499 442.277473 
L 275.159876 442.277473 
L 275.284208 441.784503 
L 275.834823 441.784503 
L 275.959156 441.290235 
L 276.545294 441.290235 
L 276.669627 440.794664 
L 277.238003 440.794664 
L 277.362336 440.297786 
L 277.948474 440.297786 
L 278.072807 439.7996 
L 278.676707 439.7996 
L 278.801039 439.3001 
L 279.40494 439.3001 
L 279.529272 438.799285 
L 280.150934 438.799285 
L 280.275267 438.297149 
L 280.879167 438.297149 
L 281.003499 437.793691 
L 281.642923 437.793691 
L 281.767256 437.288905 
L 282.406679 437.288905 
L 282.531012 436.782789 
L 283.170436 436.782789 
L 283.294768 436.27534 
L 283.951954 436.27534 
L 284.076286 435.766553 
L 284.751233 435.766553 
L 284.875566 435.256426 
L 285.550513 435.256426 
L 285.674846 434.744954 
L 286.349793 434.744954 
L 286.474125 434.232134 
L 287.166834 434.232134 
L 287.291167 433.717963 
L 288.001638 433.717963 
L 288.12597 433.202437 
L 288.836441 433.202437 
L 288.960773 432.685553 
L 289.689006 432.685553 
L 289.813339 432.167306 
L 290.541571 432.167306 
L 290.665904 431.647694 
L 291.411898 431.647694 
L 291.536231 431.126712 
L 292.299987 431.126712 
L 292.424319 430.604358 
L 293.205837 430.604358 
L 293.33017 430.080627 
L 294.111688 430.080627 
L 294.23602 429.555515 
L 295.017538 429.555515 
L 295.14187 429.02902 
L 295.958912 429.02902 
L 296.083244 428.501138 
L 296.900286 428.501138 
L 297.024618 427.971864 
L 297.859422 427.971864 
L 297.983754 427.441196 
L 298.836319 427.441196 
L 298.960651 426.909129 
L 299.813217 426.909129 
L 299.937549 426.37566 
L 300.825638 426.37566 
L 300.94997 425.840785 
L 301.838059 425.840785 
L 301.962391 425.304501 
L 302.868241 425.304501 
L 302.992574 424.766804 
L 303.916186 424.766804 
L 304.040518 424.227689 
L 304.981892 424.227689 
L 305.106225 423.687154 
L 306.065361 423.687154 
L 306.189693 423.145194 
L 307.16659 423.145194 
L 307.290923 422.601807 
L 308.285582 422.601807 
L 308.409915 422.056987 
L 309.422336 422.056987 
L 309.546668 421.510731 
L 310.594613 421.510731 
L 310.718945 420.963036 
L 311.76689 420.963036 
L 311.891222 420.413898 
L 312.97469 420.413898 
L 313.099023 419.863313 
L 314.200252 419.863313 
L 314.324585 419.311276 
L 315.443577 419.311276 
L 315.567909 418.757785 
L 316.704662 418.757785 
L 316.828995 418.202835 
L 318.019034 418.202835 
L 318.143366 417.646423 
L 319.333405 417.646423 
L 319.457737 417.088545 
L 320.683299 417.088545 
L 320.807632 416.529196 
L 322.068718 416.529196 
L 322.19305 415.968374 
L 323.48966 415.968374 
L 323.613992 415.406073 
L 324.928363 415.406073 
L 325.052696 414.842291 
L 326.420352 414.842291 
L 326.544684 414.277023 
L 327.930103 414.277023 
L 328.054435 413.710266 
L 329.493139 413.710266 
L 329.617471 413.142014 
L 331.091698 413.142014 
L 331.216031 412.572266 
L 332.743543 412.572266 
L 332.867876 412.001016 
L 334.430912 412.001016 
L 334.555244 411.42826 
L 336.171565 411.42826 
L 336.295898 410.853996 
L 337.983266 410.853996 
L 338.107599 410.278217 
L 339.848252 410.278217 
L 339.972585 409.700922 
L 341.766524 409.700922 
L 341.890856 409.122105 
L 343.773604 409.122105 
L 343.897936 408.541763 
L 345.851731 408.541763 
L 345.976064 407.959892 
L 348.018668 407.959892 
L 348.143 407.376487 
L 350.292175 407.376487 
L 350.416507 406.791545 
L 352.672252 406.791545 
L 352.796585 406.205061 
L 355.194424 406.205061 
L 355.318756 405.617032 
L 357.85869 405.617032 
L 357.983022 405.027453 
L 360.700573 405.027453 
L 360.824906 404.436321 
L 363.755598 404.436321 
L 363.879931 403.843631 
L 367.094812 403.843631 
L 367.219144 403.249379 
L 370.78926 403.249379 
L 370.913593 402.653561 
L 374.981039 402.653561 
L 375.105371 402.056172 
L 379.918811 402.056172 
L 380.043144 401.45721 
L 386.259764 401.45721 
L 386.384097 400.856669 
L 397.165493 400.856669 
L 397.289825 400.254545 
L 410.326966 400.254545 
L 410.451299 400.856669 
L 421.232695 400.856669 
L 421.357027 401.45721 
L 427.555886 401.45721 
L 427.680218 402.056172 
L 432.493659 402.056172 
L 432.617991 402.653561 
L 436.685437 402.653561 
L 436.809769 403.249379 
L 440.379886 403.249379 
L 440.504218 403.843631 
L 443.719099 403.843631 
L 443.843431 404.436321 
L 446.791886 404.436321 
L 446.916218 405.027453 
L 449.633769 405.027453 
L 449.758102 405.617032 
L 452.298035 405.617032 
L 452.422368 406.205061 
L 454.820207 406.205061 
L 454.944539 406.791545 
L 457.200284 406.791545 
L 457.324617 407.376487 
L 459.473791 407.376487 
L 459.598124 407.959892 
L 461.640728 407.959892 
L 461.76506 408.541763 
L 463.718855 408.541763 
L 463.843187 409.122105 
L 465.725935 409.122105 
L 465.850268 409.700922 
L 467.644207 409.700922 
L 467.768539 410.278217 
L 469.509193 410.278217 
L 469.633525 410.853996 
L 471.303132 410.853996 
L 471.427464 411.42826 
L 473.061547 411.42826 
L 473.18588 412.001016 
L 474.748916 412.001016 
L 474.873248 412.572266 
L 476.382999 412.572266 
L 476.507331 413.142014 
L 477.99932 413.142014 
L 478.123653 413.710266 
L 479.544594 413.710266 
L 479.668927 414.277023 
L 481.072107 414.277023 
L 481.196439 414.842291 
L 482.546334 414.842291 
L 482.670666 415.406073 
L 484.002799 415.406073 
L 484.127132 415.968374 
L 485.405979 415.968374 
L 485.530312 416.529196 
L 486.791398 416.529196 
L 486.91573 417.088545 
L 488.159054 417.088545 
L 488.283387 417.646423 
L 489.473425 417.646423 
L 489.597758 418.202835 
L 490.770035 418.202835 
L 490.894367 418.757785 
L 492.048882 418.757785 
L 492.173215 419.311276 
L 493.292207 419.311276 
L 493.416539 419.863313 
L 494.517769 419.863313 
L 494.642101 420.413898 
L 495.725569 420.413898 
L 495.849902 420.963036 
L 496.897846 420.963036 
L 497.022179 421.510731 
L 498.052362 421.510731 
L 498.176694 422.056987 
L 499.189115 422.056987 
L 499.313447 422.601807 
L 500.308107 422.601807 
L 500.432439 423.145194 
L 501.409337 423.145194 
L 501.533669 423.687154 
L 502.492805 423.687154 
L 502.617137 424.227689 
L 503.558511 424.227689 
L 503.682844 424.766804 
L 504.606456 424.766804 
L 504.730788 425.304501 
L 505.6544 425.304501 
L 505.778733 425.840785 
L 506.666821 425.840785 
L 506.791154 426.37566 
L 507.661481 426.37566 
L 507.785813 426.909129 
L 508.65614 426.909129 
L 508.780472 427.441196 
L 509.633037 427.441196 
L 509.75737 427.971864 
L 510.592173 427.971864 
L 510.716506 428.501138 
L 511.533547 428.501138 
L 511.65788 429.02902 
L 512.457159 429.02902 
L 512.581492 429.555515 
L 513.380771 429.555515 
L 513.505104 430.080627 
L 514.286622 430.080627 
L 514.410954 430.604358 
L 515.192472 430.604358 
L 515.316805 431.126712 
L 516.062799 431.126712 
L 516.187132 431.647694 
L 516.933126 431.647694 
L 517.057458 432.167306 
L 517.803453 432.167306 
L 517.927785 432.685553 
L 518.656018 432.685553 
L 518.78035 433.202437 
L 519.490821 433.202437 
L 519.615154 433.717963 
L 520.307863 433.717963 
L 520.432195 434.232134 
L 521.142666 434.232134 
L 521.266999 434.744954 
L 521.941946 434.744954 
L 522.066278 435.256426 
L 522.741226 435.256426 
L 522.865558 435.766553 
L 523.540505 435.766553 
L 523.664838 436.27534 
L 524.304262 436.27534 
L 524.428594 436.782789 
L 525.08578 436.782789 
L 525.210112 437.288905 
L 525.849536 437.288905 
L 525.973868 437.793691 
L 526.59553 437.793691 
L 526.719863 438.297149 
L 527.341525 438.297149 
L 527.465857 438.799285 
L 528.087519 438.799285 
L 528.211852 439.3001 
L 528.815752 439.3001 
L 528.940084 439.7996 
L 529.526223 439.7996 
L 529.650555 440.297786 
L 530.236694 440.297786 
L 530.361026 440.794664 
L 530.947165 440.794664 
L 531.071497 441.290235 
L 531.639874 441.290235 
L 531.764206 441.784503 
L 532.332583 441.784503 
L 532.456915 442.277473 
L 533.00753 442.277473 
L 533.131863 442.769147 
L 533.700239 442.769147 
L 533.824572 443.259529 
L 534.357425 443.259529 
L 534.481757 443.748621 
L 535.014611 443.748621 
L 535.138943 444.236429 
L 535.671796 444.236429 
L 535.796129 444.722954 
L 536.328982 444.722954 
L 536.453314 445.2082 
L 536.968406 445.2082 
L 537.092738 445.692171 
L 537.607829 445.692171 
L 537.732162 446.17487 
L 538.229491 446.17487 
L 538.353824 446.656301 
L 538.851154 446.656301 
L 538.975486 447.136466 
L 539.472816 447.136466 
L 539.597148 447.615369 
L 540.076716 447.615369 
L 540.201048 448.093013 
L 540.680616 448.093013 
L 540.804949 448.569402 
L 541.284516 448.569402 
L 541.408849 449.044538 
L 541.870655 449.044538 
L 541.994987 449.518426 
L 542.456793 449.518426 
L 542.581126 449.991069 
L 543.042932 449.991069 
L 543.167264 450.462469 
L 543.62907 450.462469 
L 543.753403 450.93263 
L 544.197447 450.93263 
L 544.32178 451.401556 
L 544.765824 451.401556 
L 544.890156 451.869248 
L 545.316439 451.869248 
L 545.440771 452.335712 
L 545.867054 452.335712 
L 545.991386 452.80095 
L 546.417669 452.80095 
L 546.542001 453.264965 
L 546.968284 453.264965 
L 547.092616 453.72776 
L 547.518899 453.72776 
L 547.643231 454.189339 
L 548.051752 454.189339 
L 548.176084 454.649705 
L 548.584605 454.649705 
L 548.708937 455.108861 
L 549.099696 455.108861 
L 549.224029 455.56681 
L 549.63255 455.56681 
L 549.756882 456.023555 
L 550.147641 456.023555 
L 550.271973 456.4791 
L 550.662732 456.4791 
L 550.787065 456.933447 
L 551.160062 456.933447 
L 551.284394 457.386601 
L 551.675153 457.386601 
L 551.799486 457.838563 
L 552.172483 457.838563 
L 552.296815 458.289338 
L 552.669813 458.289338 
L 552.794145 458.738927 
L 553.149381 458.738927 
L 553.273713 459.187335 
L 553.64671 459.187335 
L 553.771043 459.634565 
L 554.126278 459.634565 
L 554.25061 460.080619 
L 554.605846 460.080619 
L 554.730178 460.5255 
L 555.067652 460.5255 
L 555.191984 460.969213 
L 555.54722 460.969213 
L 555.671552 461.411759 
L 556.009026 461.411759 
L 556.133358 461.853142 
L 556.470832 461.853142 
L 556.595164 462.293365 
L 556.932638 462.293365 
L 557.056971 462.73243 
L 557.394444 462.73243 
L 557.518777 463.170342 
L 557.838489 463.170342 
L 557.962821 463.607103 
L 558.282533 463.607103 
L 558.406865 464.042716 
L 558.726577 464.042716 
L 558.85091 464.477184 
L 559.170621 464.477184 
L 559.294954 464.91051 
L 559.614666 464.91051 
L 559.738998 465.342697 
L 560.040948 465.342697 
L 560.165281 465.773748 
L 560.467231 465.773748 
L 560.591563 466.203667 
L 560.893513 466.203667 
L 561.017846 466.632455 
L 561.319796 466.632455 
L 561.444128 467.060116 
L 561.746079 467.060116 
L 561.870411 467.486654 
L 562.154599 467.486654 
L 562.278932 467.91207 
L 562.56312 467.91207 
L 562.687452 468.336368 
L 562.989403 468.336368 
L 563.113735 468.759551 
L 563.380162 468.759551 
L 563.504494 469.181622 
L 563.788682 469.181622 
L 563.913015 469.602583 
L 564.197203 469.602583 
L 564.321536 470.022438 
L 564.587962 470.022438 
L 564.712295 470.441189 
L 564.978721 470.441189 
L 565.103054 470.85884 
L 565.36948 470.85884 
L 565.493813 471.275393 
L 565.760239 471.275393 
L 565.884572 471.690851 
L 566.150998 471.690851 
L 566.275331 472.105217 
L 566.523995 472.105217 
L 566.648328 472.518495 
L 566.914754 472.518495 
L 567.039087 472.930686 
L 567.287752 472.930686 
L 567.412084 473.341793 
L 567.660749 473.341793 
L 567.785081 473.75182 
L 568.033746 473.75182 
L 568.158078 474.16077 
L 568.406743 474.16077 
L 568.531076 474.568644 
L 568.761979 474.568644 
L 568.886311 474.975447 
L 569.134976 474.975447 
L 569.259308 475.38118 
L 569.490211 475.38118 
L 569.614544 475.785847 
L 569.845447 475.785847 
L 569.969779 476.18945 
L 570.200682 476.18945 
L 570.325015 476.591993 
L 570.555918 476.591993 
L 570.68025 476.993477 
L 570.911153 476.993477 
L 571.035486 477.393906 
L 571.248627 477.393906 
L 571.372959 477.793283 
L 571.586101 477.793283 
L 571.710433 478.19161 
L 571.941336 478.19161 
L 572.065668 478.588891 
L 572.27881 478.588891 
L 572.403142 478.985127 
L 572.616283 478.985127 
L 572.740616 479.380321 
L 572.953757 479.380321 
L 573.07809 479.774477 
L 573.273469 479.774477 
L 573.397801 480.167597 
L 573.610943 480.167597 
L 573.735275 480.559684 
L 573.930655 480.559684 
L 574.054987 480.95074 
L 574.268128 480.95074 
L 574.392461 481.340768 
L 574.58784 481.340768 
L 574.712173 481.729772 
L 574.907552 481.729772 
L 575.031885 482.117752 
L 575.227264 482.117752 
L 575.351596 482.504713 
L 575.546976 482.504713 
L 575.671308 482.890657 
L 575.848926 482.890657 
L 575.973258 483.275587 
L 576.168638 483.275587 
L 576.29297 483.659505 
L 576.470588 483.659505 
L 576.59492 484.042414 
L 576.772538 484.042414 
L 576.896871 484.424316 
L 577.09225 484.424316 
L 577.216583 484.805215 
L 577.3942 484.805215 
L 577.518533 485.185112 
L 577.69615 485.185112 
L 577.820483 485.564012 
L 577.980339 485.564012 
L 578.104671 485.941915 
L 578.282289 485.941915 
L 578.406621 486.318825 
L 578.584239 486.318825 
L 578.708571 486.694744 
L 578.868427 486.694744 
L 578.99276 487.069675 
L 579.170378 487.069675 
L 579.29471 487.443621 
L 579.454566 487.443621 
L 579.578898 487.816584 
L 579.738754 487.816584 
L 579.863087 488.188567 
L 580.022943 488.188567 
L 580.147275 488.559572 
L 580.307131 488.559572 
L 580.431463 488.929602 
L 580.591319 488.929602 
L 580.715652 489.298659 
L 580.857746 489.298659 
L 580.982078 489.666747 
L 581.141934 489.666747 
L 581.266267 490.033867 
L 581.408361 490.033867 
L 581.532693 490.400022 
L 581.692549 490.400022 
L 581.816882 490.765214 
L 581.958976 490.765214 
L 582.083308 491.129447 
L 582.225402 491.129447 
L 582.349735 491.492722 
L 582.491829 491.492722 
L 582.616161 491.855043 
L 582.758256 491.855043 
L 582.882588 492.216412 
L 583.024682 492.216412 
L 583.149015 492.57683 
L 583.291109 492.57683 
L 583.415441 492.936301 
L 583.539774 492.936301 
L 583.664106 493.294828 
L 583.8062 493.294828 
L 583.930533 493.652412 
L 584.072627 493.652412 
L 584.196959 494.009056 
L 584.321292 494.009056 
L 584.445624 494.364763 
L 584.569956 494.364763 
L 584.694289 494.719535 
L 584.818621 494.719535 
L 584.942954 495.073375 
L 585.067286 495.073375 
L 585.191618 495.426285 
L 585.315951 495.426285 
L 585.440283 495.778267 
L 585.564616 495.778267 
L 585.688948 496.129324 
L 585.813281 496.129324 
L 585.937613 496.479458 
L 586.061945 496.479458 
L 586.186278 496.828672 
L 586.31061 496.828672 
L 586.434943 497.176968 
L 586.541513 497.176968 
L 586.665846 497.524349 
L 586.772416 497.524349 
L 586.896749 497.870816 
L 587.021081 497.870816 
L 587.145413 498.216373 
L 587.251984 498.216373 
L 587.376317 498.561022 
L 587.482887 498.561022 
L 587.60722 498.904765 
L 587.71379 498.904765 
L 587.838123 499.247604 
L 587.944693 499.247604 
L 588.069026 499.589543 
L 588.175596 499.589543 
L 588.299929 499.930583 
L 588.406499 499.930583 
L 588.530832 500.270726 
L 588.637402 500.270726 
L 588.761735 500.609975 
L 588.868305 500.609975 
L 588.992638 500.948333 
L 589.081447 500.948333 
L 589.205779 501.285801 
L 589.31235 501.285801 
L 589.436682 501.622383 
L 589.525491 501.622383 
L 589.649823 501.958079 
L 589.756394 501.958079 
L 589.880726 502.292894 
L 589.969535 502.292894 
L 590.093868 502.626828 
L 590.182677 502.626828 
L 590.307009 502.959885 
L 590.395818 502.959885 
L 590.52015 503.292066 
L 590.608959 503.292066 
L 590.733292 503.623374 
L 590.8221 503.623374 
L 590.946433 503.953812 
L 591.035242 503.953812 
L 591.159574 504.283381 
L 591.248383 504.283381 
L 591.372715 504.612084 
L 591.461524 504.612084 
L 591.585857 504.939923 
L 591.656904 504.939923 
L 591.781236 505.2669 
L 591.870045 505.2669 
L 591.994377 505.593017 
L 592.065425 505.593017 
L 592.189757 505.918278 
L 592.278566 505.918278 
L 592.402898 506.242684 
L 592.473945 506.242684 
L 592.598278 506.566237 
L 592.687087 506.566237 
L 592.811419 506.88894 
L 592.882466 506.88894 
L 593.006798 507.210794 
L 593.077846 507.210794 
L 593.202178 507.531803 
L 593.273225 507.531803 
L 593.397557 507.851968 
L 593.468605 507.851968 
L 593.592937 508.171291 
L 593.663984 508.171291 
L 593.788316 508.489775 
L 593.859364 508.489775 
L 593.983696 508.807422 
L 594.054743 508.807422 
L 594.179075 509.124235 
L 594.232361 509.124235 
L 594.356693 509.440214 
L 594.42774 509.440214 
L 594.552073 509.755363 
L 594.62312 509.755363 
L 594.747452 510.069684 
L 594.800738 510.069684 
L 594.92507 510.383178 
L 594.996117 510.383178 
L 595.120449 510.695849 
L 595.173735 510.695849 
L 595.298067 511.007698 
L 595.369114 511.007698 
L 595.493447 511.318727 
L 595.546732 511.318727 
L 595.671064 511.628938 
L 595.72435 511.628938 
L 595.848682 511.938335 
L 595.901967 511.938335 
L 596.0263 512.246918 
L 596.079585 512.246918 
L 596.203918 512.55469 
L 596.257203 512.55469 
L 596.381535 512.861653 
L 596.434821 512.861653 
L 596.559153 513.167809 
L 596.612438 513.167809 
L 596.736771 513.473161 
L 596.790056 513.473161 
L 596.914388 513.77771 
L 596.967674 513.77771 
L 597.092006 514.081459 
L 597.145292 514.081459 
L 597.269624 514.384409 
L 597.305147 514.384409 
L 597.42948 514.686563 
L 597.482765 514.686563 
L 597.607098 514.987923 
L 597.660383 514.987923 
L 597.784715 515.288491 
L 597.820239 515.288491 
L 597.944571 515.588269 
L 597.980095 515.588269 
L 598.104427 515.887259 
L 598.157713 515.887259 
L 598.282045 516.185463 
L 598.317569 516.185463 
L 598.441901 516.482883 
L 598.477424 516.482883 
L 598.601757 516.779522 
L 598.655042 516.779522 
L 598.779375 517.075381 
L 598.814898 517.075381 
L 598.939231 517.370462 
L 598.974754 517.370462 
L 599.099087 517.664768 
L 599.13461 517.664768 
L 599.258942 517.9583 
L 599.294466 517.9583 
L 599.418798 518.251061 
L 599.454322 518.251061 
L 599.578654 518.543053 
L 599.614178 518.543053 
L 599.73851 518.834276 
L 599.774034 518.834276 
L 599.898366 519.124735 
L 599.916128 519.124735 
L 600.04046 519.41443 
L 600.075984 519.41443 
L 600.200316 519.703363 
L 600.23584 519.703363 
L 600.360172 519.991538 
L 600.377934 519.991538 
L 600.502267 520.278954 
L 600.53779 520.278954 
L 600.662123 520.565616 
L 600.679884 520.565616 
L 600.804217 520.851524 
L 600.83974 520.851524 
L 600.964073 521.13668 
L 600.981834 521.13668 
L 601.106167 521.421087 
L 601.14169 521.421087 
L 601.266023 521.704747 
L 601.283785 521.704747 
L 601.408117 521.987661 
L 601.425879 521.987661 
L 601.550211 522.269831 
L 601.567973 522.269831 
L 601.692305 522.55126 
L 601.727829 522.55126 
L 601.852161 522.831949 
L 601.869923 522.831949 
L 601.994255 523.1119 
L 602.012017 523.1119 
L 602.13635 523.391115 
L 602.154111 523.391115 
L 602.278444 523.669597 
L 602.296206 523.669597 
L 602.420538 523.947347 
L 602.4383 523.947347 
L 602.580394 524.500658 
L 602.704726 524.500658 
L 602.829059 524.776223 
L 602.846821 524.776223 
L 602.971153 525.051064 
L 602.988915 525.051064 
L 603.113247 525.325183 
L 603.131009 525.325183 
L 603.273103 525.871261 
L 603.397435 525.871261 
L 603.53953 526.414472 
L 603.663862 526.414472 
L 603.805956 526.954832 
L 603.930289 526.954832 
L 604.072383 527.492354 
L 604.178953 527.492354 
L 604.303286 527.760057 
L 604.321048 527.760057 
L 604.463142 528.293352 
L 604.569712 528.293352 
L 604.711807 528.823848 
L 604.818377 528.823848 
L 604.960471 529.351559 
L 605.084804 529.351559 
L 605.226898 529.8765 
L 605.315707 529.8765 
L 605.457801 530.398684 
L 605.564372 530.398684 
L 605.706466 530.918128 
L 605.813037 530.918128 
L 605.955131 531.434844 
L 606.04394 531.434844 
L 606.186034 531.948848 
L 606.292604 531.948848 
L 606.434699 532.460154 
L 606.523507 532.460154 
L 606.665602 532.968775 
L 606.754411 532.968775 
L 606.896505 533.474726 
L 606.985314 533.474726 
L 607.127408 533.978022 
L 607.198455 533.978022 
L 607.340549 534.478674 
L 607.429358 534.478674 
L 607.571452 534.976699 
L 607.642499 534.976699 
L 607.784593 535.472109 
L 607.873402 535.472109 
L 608.015496 535.964919 
L 608.086543 535.964919 
L 608.228638 536.455141 
L 608.299685 536.455141 
L 608.441779 536.94279 
L 608.512826 536.94279 
L 608.65492 537.427878 
L 608.708206 537.427878 
L 608.8503 537.910421 
L 608.921347 537.910421 
L 609.063441 538.390429 
L 609.116726 538.390429 
L 609.25882 538.867919 
L 609.329868 538.867919 
L 609.471962 539.342901 
L 609.525247 539.342901 
L 609.667341 539.81539 
L 609.720627 539.81539 
L 609.862721 540.285398 
L 609.916006 540.285398 
L 610.0581 540.752939 
L 610.111386 540.752939 
L 610.25348 541.218025 
L 610.289003 541.218025 
L 610.431097 541.68067 
L 610.484383 541.68067 
L 610.626477 542.140887 
L 610.662001 542.140887 
L 610.804095 542.598687 
L 610.85738 542.598687 
L 610.999474 543.054083 
L 611.034998 543.054083 
L 611.177092 543.50709 
L 611.212615 543.50709 
L 611.35471 543.957718 
L 611.390233 543.957718 
L 611.532327 544.40598 
L 611.567851 544.40598 
L 611.709945 544.851889 
L 611.727707 544.851889 
L 611.869801 545.295457 
L 611.905325 545.295457 
L 612.047419 545.736696 
L 612.082942 545.736696 
L 612.225037 546.17562 
L 612.242798 546.17562 
L 612.384892 546.612239 
L 612.402654 546.612239 
L 612.544748 547.046565 
L 612.580272 547.046565 
L 612.722366 547.478612 
L 612.740128 547.478612 
L 612.882222 547.908391 
L 612.899984 547.908391 
L 613.042078 548.335913 
L 613.05984 548.335913 
L 613.219696 548.972992 
L 613.290743 548.972992 
L 613.450599 549.605061 
L 613.521646 549.605061 
L 613.681502 550.232159 
L 613.734787 550.232159 
L 613.876881 550.647482 
L 613.894643 550.647482 
L 614.054499 551.266382 
L 614.107784 551.266382 
L 614.26764 551.880415 
L 614.320926 551.880415 
L 614.480782 552.489619 
L 614.534067 552.489619 
L 614.693923 553.094033 
L 614.747208 553.094033 
L 614.907064 553.693693 
L 614.96035 553.693693 
L 615.120205 554.288637 
L 615.155729 554.288637 
L 615.315585 554.878902 
L 615.351109 554.878902 
L 615.510964 555.464525 
L 615.546488 555.464525 
L 615.706344 556.045543 
L 615.741868 556.045543 
L 615.901723 556.621992 
L 615.937247 556.621992 
L 616.097103 557.193907 
L 616.114865 557.193907 
L 616.274721 557.761325 
L 616.292482 557.761325 
L 616.452338 558.32428 
L 616.487862 558.32428 
L 616.647718 558.882808 
L 616.66548 558.882808 
L 616.843097 559.620685 
L 616.896383 559.620685 
L 617.074 560.350836 
L 617.109524 560.350836 
L 617.26938 560.893427 
L 617.287142 560.893427 
L 617.464759 561.610249 
L 617.500283 561.610249 
L 617.677901 562.319565 
L 617.713424 562.319565 
L 617.891042 563.021453 
L 617.926566 563.021453 
L 618.104183 563.715991 
L 618.121945 563.715991 
L 618.299563 564.403256 
L 618.317325 564.403256 
L 618.494942 565.083324 
L 618.512704 565.083324 
L 618.690322 565.75627 
L 618.708084 565.75627 
L 618.885701 566.422169 
L 618.903463 566.422169 
L 619.098843 567.244746 
L 619.116604 567.244746 
L 619.311984 568.056569 
L 619.347507 568.056569 
L 619.542887 568.85778 
L 619.560649 568.85778 
L 619.756028 569.648516 
L 619.77379 569.648516 
L 619.986931 570.583767 
L 620.022455 570.583767 
L 620.235596 571.504366 
L 620.253358 571.504366 
L 620.466499 572.410542 
L 620.484261 572.410542 
L 620.715164 573.44982 
L 620.732926 573.44982 
L 620.963829 574.470127 
L 620.98159 574.470127 
L 621.212494 575.47181 
L 621.230255 575.47181 
L 621.496682 576.732867 
L 621.514444 576.732867 
L 621.78087 577.964407 
L 621.798632 577.964407 
L 622.08282 579.299003 
L 622.100582 579.299003 
L 622.420294 580.85484 
L 622.438056 580.85484 
L 622.828815 582.854312 
L 622.846577 582.854312 
L 623.255097 585.005339 
L 623.272859 585.005339 
L 623.930045 588.586609 
L 625.457557 598.42753 
L 626.914023 612.731616 
L 627.340305 620.603964 
L 627.500161 628.034771 
L 627.624493 629.345455 
L 1296 629.345454 
L 1296 629.345454 
" style="fill:none;stroke:#0000ff;stroke-linecap:square;stroke-width:1.5;"/>
   </g>
   <g id="patch_9">
    <path d="M 180 640.8 
L 180 388.8 
" style="fill:none;stroke:#000000;stroke-linecap:square;stroke-linejoin:miter;stroke-width:0.8;"/>
   </g>
   <g id="patch_10">
    <path d="M 1296 640.8 
L 1296 388.8 
" style="fill:none;stroke:#000000;stroke-linecap:square;stroke-linejoin:miter;stroke-width:0.8;"/>
   </g>
   <g id="patch_11">
    <path d="M 180 640.8 
L 1296 640.8 
" style="fill:none;stroke:#000000;stroke-linecap:square;stroke-linejoin:miter;stroke-width:0.8;"/>
   </g>
   <g id="patch_12">
    <path d="M 180 388.8 
L 1296 388.8 
" style="fill:none;stroke:#000000;stroke-linecap:square;stroke-linejoin:miter;stroke-width:0.8;"/>
   </g>
  </g>
 </g>
 <defs>
  <clipPath id="p68b9ac79e1">
   <rect height="252" width="1116" x="180" y="86.4"/>
  </clipPath>
  <clipPath id="pa71525f783">
   <rect height="252" width="1116" x="180" y="388.8"/>
  </clipPath>
 </defs>
</svg>
